<svg width="255" height="294" viewBox="0 0 255 294" fill="none" xmlns="http://www.w3.org/2000/svg">
<ellipse cx="176.091" cy="226.824" rx="78.0301" ry="66.6928" fill="white"/>
<path fill-rule="evenodd" clip-rule="evenodd" d="M110.31 258.082L111.186 258.716C109.209 260.489 106.236 258.284 104.569 256.217C101.888 252.893 99.1675 249.361 98.3517 245.169C97.8875 242.784 98.0732 240.326 98.2608 237.904L99.017 228.136C99.3521 223.808 99.6882 219.471 100.438 215.195C102.465 203.622 107.57 192.602 115.086 183.572L115.162 183.481C116.489 181.887 117.939 180.146 117.913 178.08C117.859 173.707 120.377 169.621 123.683 166.759C126.989 163.896 131.038 162.06 135.024 160.262C136.83 159.447 139.188 158.717 140.587 160.119C143.466 163.003 148.27 161.166 152.073 159.702C156.741 157.903 161.728 156.934 166.73 156.854C166.876 156.851 167.022 156.849 167.17 156.847L167.17 156.847C170.173 156.804 173.554 156.756 175.386 154.429C176.553 152.948 178.783 153.033 180.656 153.257L193.533 154.798C194.518 154.915 195.697 155.184 196.007 156.125C196.839 158.649 199.774 159.679 202.318 160.446C211.363 163.173 220.204 166.876 227.883 172.379C235.562 177.882 242.053 185.285 245.496 194.082C239.897 186.429 234.153 178.632 226.382 173.197C224.158 171.641 221.793 170.298 219.392 169.033C213.726 166.046 207.829 163.471 201.702 161.601C173.263 152.921 140.365 160.971 119.148 181.804C116.072 184.825 113.187 188.152 111.442 192.095L113.747 192.81C110.094 194.442 107.381 198.02 106.794 201.977C108.264 199.46 110.359 197.31 112.838 195.776C112.129 198.146 110.283 200.051 108.474 201.918C106.168 204.298 103.921 206.617 104.16 209.761C105.255 206.888 108.012 204.719 111.063 204.333C106.225 209.06 101.033 214.608 101.187 221.37C102.952 217.465 105.948 214.128 109.642 211.955L104.325 219.099C102.314 221.801 100.197 224.889 100.656 228.226C102.405 225.087 104.906 222.369 107.89 220.367C106.453 223.635 104.402 226.631 101.875 229.152C104.278 228.862 106.592 227.867 108.455 226.322C107.674 227.412 106.97 228.643 106.944 229.984C106.917 231.325 107.786 232.764 109.114 232.957C109.515 232.058 110.776 231.679 111.607 232.206C109.088 234.657 109.062 239.198 111.552 241.678C111.774 240.512 112.757 239.53 113.922 239.31C112.065 242.558 111.731 246.637 113.035 250.145C113.43 248.158 114.533 246.319 116.099 245.034C115.196 249.748 113.199 254.249 110.31 258.082ZM109.21 256.58C110.783 256.564 111.761 254.804 111.925 253.24C112.121 251.368 111.656 249.498 111.195 247.673L108.459 236.851C107.944 237.014 107.884 237.575 107.822 238.162C107.768 238.662 107.713 239.183 107.37 239.491C106.677 238.63 106.599 237.326 107.183 236.388C107.772 235.441 107.387 234.114 106.55 233.376C105.714 232.637 104.55 232.387 103.435 232.35C102.832 232.33 102.191 232.376 101.698 232.723C101.205 233.07 100.945 233.808 101.296 234.299C102.338 235.76 103.123 237.405 103.602 239.135C103.638 239.264 103.672 239.395 103.707 239.526L103.707 239.527C103.945 240.425 104.19 241.348 104.847 241.989C105.355 242.483 105.485 243.239 105.588 243.94L106.424 249.627C106.576 250.662 106.728 251.717 106.554 252.749C106.38 253.781 105.823 254.803 104.887 255.271L107.875 256.288C108.308 256.435 108.752 256.585 109.21 256.58ZM141.775 163.374C141.187 163.499 140.693 162.982 140.271 162.54L140.223 162.489C139.791 162.038 139.048 161.644 138.593 162.072C133.291 167.061 127.256 171.271 120.743 174.525C119.561 175.115 119.403 176.708 119.402 178.029C119.402 178.47 119.824 179.09 120.1 178.745C121.443 177.062 123.189 175.756 124.915 174.469C129.771 170.848 134.686 167.194 140.253 164.806C140.929 164.517 141.72 164.107 141.775 163.374ZM195.071 157.764C194.771 157.059 193.916 156.804 193.163 156.662C191.111 156.276 189.022 156.1 186.934 155.925C184.068 155.685 181.206 155.445 178.448 154.658C177.564 154.406 176.809 155.301 176.324 156.082C177.778 155.931 179.241 155.868 180.702 155.895C183.245 155.942 185.774 156.259 188.298 156.575C189.581 156.736 190.872 156.899 192.102 157.296C192.245 157.343 192.39 157.392 192.535 157.442C193.375 157.73 194.242 158.028 195.071 157.764ZM167.923 168.603C168.504 168.736 169.058 169.17 169.145 169.76C169.231 170.348 168.829 170.922 168.316 171.221C167.802 171.521 167.195 171.605 166.605 171.683L164.831 171.918C164.653 171.942 164.469 171.967 164.315 172.058C163.869 172.323 163.9 173.038 164.264 173.407C164.629 173.775 165.188 173.867 165.707 173.866C168.121 173.861 170.406 172.124 171.144 169.825C171.319 169.279 171.411 168.672 171.194 168.142C171.084 167.872 170.901 167.639 170.696 167.432C169.747 166.47 168.332 166.046 166.984 166.141C165.636 166.236 164.353 166.81 163.256 167.6C162.73 167.978 162.229 168.422 161.93 168.996C161.631 169.571 161.567 170.301 161.901 170.856C162.029 171.068 162.226 171.255 162.47 171.295C162.714 171.335 162.995 171.178 163.025 170.932C163.11 170.251 163.607 169.675 164.2 169.328C164.793 168.981 165.477 168.829 166.151 168.694C166.735 168.578 167.342 168.47 167.923 168.603ZM120.348 202.324C121.011 198.401 124.18 195.211 127.875 193.733C129.911 192.919 132.24 192.561 134.288 193.346C134.793 193.54 135.282 193.807 135.646 194.208C135.989 194.584 136.204 195.058 136.366 195.54C137.406 198.625 136.351 202.193 134.116 204.561C131.881 206.929 128.627 208.171 125.38 208.404C124.339 208.479 123.222 208.436 122.363 207.845C121.504 207.254 121.077 205.94 121.739 205.134C122.051 205.149 122.22 205.428 122.393 205.714C122.478 205.855 122.565 205.998 122.67 206.112C123.031 206.5 123.627 206.528 124.157 206.506C126.459 206.409 128.797 205.838 130.671 204.497C132.546 203.156 133.892 200.965 133.853 198.661C133.84 197.918 133.679 197.158 133.258 196.546C132.568 195.542 131.262 195.089 130.046 195.169C128.829 195.249 127.689 195.788 126.653 196.431C125.291 197.277 124.031 198.34 123.177 199.698C122.322 201.055 121.905 202.734 122.266 204.296C121.947 204.873 120.998 204.758 120.606 204.228C120.213 203.699 120.238 202.974 120.348 202.324ZM141.555 234.662C139.87 235.746 138.473 237.443 138.214 239.429C138.003 241.036 138.542 242.637 139.073 244.168C139.487 245.363 139.915 246.584 140.704 247.573C142.13 249.359 144.489 250.098 146.745 250.46C147.359 250.559 148.291 250.282 148.072 249.699C145.691 249.656 143.348 248.552 141.798 246.743C140.248 244.935 139.517 242.451 139.838 240.09C139.906 239.594 140.019 239.1 140.227 238.644C140.649 237.722 141.436 237.013 142.287 236.463C144.12 235.279 146.352 234.724 148.526 234.912C150.622 235.093 152.716 236.011 153.995 237.681C155.275 239.352 155.58 241.815 154.451 243.591C154.267 243.879 154.133 244.389 154.47 244.45C156.287 243.47 157.296 241.311 157.195 239.249C157.093 237.186 156.004 235.256 154.507 233.833C153.68 233.046 152.7 232.382 151.589 232.114C150.126 231.761 148.594 232.125 147.138 232.508C145.201 233.018 143.24 233.578 141.555 234.662ZM224.297 237.224C218.204 234.949 211.584 234.101 205.115 234.767C202.403 235.046 199.682 235.6 197.243 236.82C192.642 239.123 189.352 243.863 188.805 248.979C188.258 254.095 190.47 259.424 194.48 262.649C196.001 263.871 197.727 264.786 199.455 265.703L199.455 265.703L199.455 265.703L199.455 265.703L199.456 265.703L199.456 265.704L199.456 265.704L199.456 265.704L199.456 265.704L199.456 265.704L199.456 265.704L199.457 265.704L199.457 265.704L199.457 265.704L199.457 265.704L199.457 265.704L199.457 265.705L199.458 265.705C200.637 266.33 201.817 266.956 202.933 267.68C203.252 267.985 202.534 268.29 202.114 268.154C198.206 266.893 194.412 264.974 191.624 261.959C188.233 258.291 186.58 253.082 187.234 248.13C187.888 243.178 190.837 238.577 195.064 235.915C198.407 233.809 202.405 232.922 206.353 232.78C210.302 232.637 214.239 233.202 218.143 233.807C220.582 234.184 223.441 234.909 224.297 237.224ZM160.193 244.857C159.917 244.223 158.804 244.058 158.601 244.719C157.309 248.925 153.205 252.104 148.81 252.306C147.817 252.352 146.822 252.259 145.833 252.163C143.701 251.957 141.502 251.714 139.635 250.664C136.95 249.154 135.335 246.055 135.316 242.975C135.297 239.895 136.758 236.902 138.976 234.765C138.668 233.903 137.346 234.32 136.69 234.958C133.052 238.494 132.428 244.597 134.98 248.982C137.533 253.366 142.883 255.824 147.925 255.267C152.968 254.709 157.521 251.333 159.865 246.833C160.185 246.22 160.47 245.491 160.193 244.857ZM128.615 266.153C127.793 269.303 127.715 272.645 128.389 275.83C128.691 277.259 128.724 278.046 128.73 278.193L128.73 278.193C128.731 278.21 128.731 278.218 128.732 278.218C128.732 278.218 128.732 278.216 128.732 278.212L128.733 278.193C128.74 278.045 128.776 277.255 129.084 275.825C129.773 272.634 129.61 269.262 128.615 266.153ZM132.979 268.058C131.812 270.505 131.956 273.532 133.352 275.855C133.665 276.377 133.903 276.802 134.078 277.115L134.078 277.115C134.314 277.536 134.437 277.756 134.48 277.741C134.526 277.725 134.477 277.43 134.373 276.812C134.332 276.565 134.281 276.265 134.225 275.911L132.979 268.058ZM136.265 271.182C135.77 272.744 136.134 274.55 137.196 275.798C138.281 277.071 138.635 277.48 138.305 275.84C137.967 274.165 137.267 272.565 136.265 271.182ZM231.358 253.417C229.868 259.398 225.109 263.931 220.494 268.018C220.705 268.473 221.386 268.309 221.823 268.064C226.497 265.433 230.28 261.145 232.006 256.067C233.731 250.988 233.302 245.153 230.578 240.532C230.349 240.145 230.058 239.732 229.616 239.645C229.174 239.559 228.665 240.071 228.925 240.439C231.543 244.147 232.455 249.012 231.358 253.417ZM164.155 199.408C164.144 198.461 164.157 197.437 164.728 196.683C165.515 195.644 167.008 195.535 168.31 195.517C168.892 195.509 169.48 195.501 170.046 195.636C171.251 195.922 172.21 196.811 173.065 197.707C173.255 197.905 173.456 198.15 173.409 198.42C173.351 198.755 172.932 198.909 172.598 198.841C172.377 198.795 172.178 198.685 171.979 198.574C171.879 198.519 171.778 198.463 171.675 198.416C170.477 197.866 169.069 198.469 167.993 199.23C167.824 199.349 167.641 199.503 167.637 199.71C167.633 199.918 167.811 200.08 167.979 200.203C169.433 201.267 171.295 201.761 173.085 201.555C173.513 201.506 174.016 201.349 174.127 200.933C174.171 200.77 174.154 200.579 174.137 200.394C174.11 200.084 174.085 199.793 174.345 199.686C174.48 199.63 174.634 199.67 174.774 199.711C175.743 199.993 176.877 200.446 177.064 201.438C177.119 201.724 177.08 202.023 176.989 202.3C176.722 203.111 175.978 203.744 175.135 203.878C174.761 203.937 174.379 203.905 174.001 203.873C173.015 203.788 172.028 203.703 171.05 203.546C169.256 203.257 167.501 202.722 165.85 201.961C165.277 201.697 164.682 201.372 164.391 200.812C164.171 200.387 164.16 199.887 164.155 199.408ZM201.014 176.073C200.437 174.514 199.043 173.284 197.425 172.905C196.924 172.788 196.358 172.759 195.934 173.049C195.509 173.339 195.363 174.047 195.768 174.364C196.161 174.671 195.923 175.395 195.444 175.532C194.964 175.668 194.448 175.343 194.208 174.905C193.969 174.468 193.943 173.948 193.94 173.449C193.937 172.784 193.997 172.041 194.489 171.592C194.676 171.422 194.91 171.311 195.141 171.208C196.099 170.779 197.158 170.417 198.182 170.646C199.158 170.865 199.935 171.586 200.616 172.318C201.173 172.919 201.701 173.548 202.196 174.202C202.632 174.778 203.051 175.393 203.214 176.096C203.378 176.8 203.237 177.616 202.693 178.092C202.161 178.558 201.343 178.598 200.697 178.31C200.126 178.056 199.639 177.497 199.681 176.873C199.724 176.25 200.49 175.733 201.014 176.073ZM206.161 219.903C207.592 219.862 208.925 218.76 209.234 217.363C209.422 216.513 209.19 215.502 208.449 215.045C207.908 214.711 207.228 214.736 206.594 214.776C205.715 214.833 204.803 214.91 204.04 215.348C203.276 215.787 202.709 216.695 202.948 217.543C203.337 218.92 204.731 219.944 206.161 219.903ZM206.345 217.839C206.068 217.913 205.674 217.842 205.649 217.557C205.638 217.438 205.702 217.326 205.775 217.232C206.182 216.705 206.956 216.501 207.57 216.758C207.357 217.28 206.89 217.692 206.345 217.839ZM207.084 196.669C206.851 196.131 207.302 195.505 207.851 195.299C208.29 195.134 208.767 195.151 209.241 195.168L209.241 195.168C209.359 195.172 209.476 195.177 209.593 195.178C210.179 195.185 210.826 195.088 211.206 194.642C211.34 194.484 211.431 194.253 211.329 194.073C211.222 193.886 210.97 193.853 210.755 193.842C209.261 193.765 207.497 193.811 206.636 195.033C206.451 195.296 205.998 195.208 205.825 194.937C205.652 194.666 205.692 194.31 205.79 194.004C206.143 192.908 207.156 192.111 208.261 191.792C209.367 191.472 210.555 191.573 211.678 191.827C212.056 191.913 212.449 192.025 212.726 192.298C212.945 192.514 213.068 192.81 213.148 193.107C213.53 194.529 212.965 196.158 211.785 197.038C210.604 197.917 208.883 197.993 207.629 197.221C207.406 197.083 207.188 196.91 207.084 196.669ZM201.964 221.792C202.658 222.623 203.48 223.379 204.476 223.802C206.49 224.657 209.065 223.867 210.253 222.03C210.686 221.361 210.879 220.34 210.239 219.865C209.214 222.019 206.242 222.97 204.157 221.811C203.758 221.589 203.395 221.305 203.065 220.989C201.565 219.554 200.783 217.209 201.663 215.329C201.949 214.716 202.39 214.187 202.871 213.711C203.922 212.674 205.425 211.826 206.827 212.287C206.885 212.306 206.943 212.327 207.001 212.349C207.197 212.421 207.394 212.493 207.601 212.481C207.868 212.466 208.148 212.226 208.079 211.967C208.059 211.891 208.011 211.824 207.962 211.762C207.095 210.658 205.395 210.317 204.169 211.001C202.711 211.816 201.229 212.775 200.454 214.255C199.192 216.663 200.222 219.705 201.964 221.792ZM225.19 184.649C225.126 184.741 225.142 184.869 225.158 184.992C225.176 185.137 225.193 185.274 225.074 185.333C224.637 185.549 224.115 185.527 223.65 185.384C222.38 184.994 221.528 183.829 220.81 182.711C220.389 182.058 219.971 181.364 219.903 180.59C219.835 179.816 220.231 178.944 220.976 178.726C221.808 178.482 222.622 179.1 223.269 179.676C223.999 180.325 224.745 180.995 225.197 181.862C225.648 182.728 225.749 183.848 225.19 184.649ZM222.429 181.75C222.608 181.924 222.706 182.158 222.804 182.392C222.901 182.622 222.997 182.853 223.172 183.027C223.393 183.247 223.728 183.345 224.032 183.28C223.461 182.396 222.8 181.571 222.061 180.822C221.864 180.881 221.847 181.174 221.966 181.343C222.038 181.445 222.139 181.52 222.24 181.596C222.305 181.644 222.371 181.693 222.429 181.75ZM113.709 261.594C113.639 262.753 113.728 264.097 114.656 264.796C114.966 264.623 114.944 264.181 114.905 263.829C114.666 261.661 115.338 259.572 116.015 257.469C116.5 255.963 116.987 254.45 117.143 252.897C117.189 252.446 117.068 251.829 116.615 251.812C116.277 251.799 116.058 252.157 115.921 252.467C114.653 255.347 113.9 258.453 113.709 261.594ZM203.749 219.766C204.796 220.229 205.957 220.701 207.053 220.369C207.489 220.236 207.877 219.985 208.259 219.736C208.257 220.376 207.706 220.914 207.092 221.098C206.478 221.281 205.818 221.183 205.192 221.047C204.497 220.896 203.646 220.47 203.749 219.766ZM120.906 273.227C121.173 272.751 121.218 272.187 121.258 271.642L121.574 267.306C121.729 265.178 121.884 263.042 121.745 260.913C121.728 260.645 121.7 260.362 121.544 260.143C121.387 259.924 121.056 259.807 120.842 259.97C120.684 260.089 120.644 260.306 120.617 260.502C120.273 262.964 120.09 265.448 120.068 267.933C120.052 269.736 120.134 271.598 120.906 273.227ZM116.166 269.501C115.889 269.735 115.426 269.529 115.273 269.199C115.12 268.869 115.182 268.484 115.247 268.127C115.934 264.384 116.712 260.659 117.582 256.955C117.603 256.862 117.627 256.766 117.687 256.692C117.916 256.409 118.379 256.694 118.541 257.02C118.94 257.819 118.749 258.772 118.549 259.643L116.406 268.991C116.363 269.177 116.312 269.377 116.166 269.501ZM123.59 269.667C123.47 271.07 123.681 272.479 123.891 273.872C123.965 274.368 124.323 275.027 124.771 274.801L125.644 265.462C125.679 265.083 125.704 264.661 125.468 264.361C125.232 264.061 124.636 264.073 124.561 264.447L123.917 267.65C123.782 268.318 123.648 268.988 123.59 269.667ZM213.77 241.045C211.284 239.765 208.258 239.261 205.675 240.333C203.746 241.134 198.294 244.594 197.568 249.028C197.082 251.997 197.087 255.03 198.126 257.896L198.294 258.346C198.603 259.158 199.589 260.091 200.14 259.419C198.531 256.51 198.23 252.908 199.335 249.771C200.439 246.635 202.932 244.017 206.009 242.758C206.657 242.494 207.333 242.285 208.03 242.219C209.438 242.086 210.844 242.542 212.103 243.188C214.814 244.577 218.174 246.887 219.464 249.646C220.708 252.306 221.624 255.479 220.498 258.192C219.372 260.904 211.977 262.866 211.977 262.866L212.795 264.36C212.795 264.36 216.935 263.543 219.464 261.702C230.079 253.97 216.148 242.27 213.77 241.045Z" fill="black"/>
<path fill-rule="evenodd" clip-rule="evenodd" d="M1.99112 104.641C-1.28851 96.4505 1.5763 91.5433 3.41261 85.1371C4.94652 79.7859 16.942 71.0935 22.4626 80.1571C24.0868 82.8236 23.4353 85.344 26.985 87.6874C35.5778 93.3603 30.8902 81.591 31.2097 78.6157C31.3656 77.1645 30.1393 73.8176 30.5958 72.417C31.0748 70.9473 33.6279 68.8595 33.6279 65.813C33.6279 62.7665 28.4347 61.5933 26.985 60.8448C14.1022 54.1933 5.90912 43.0836 9.99209 37.4453C15.6807 29.5896 37.9751 41.9497 44.674 43.0836C44.7607 43.0983 45.9571 36.8528 46.9342 35.4227C48.8893 32.5615 51.0499 29.7841 53.6276 27.468C54.7822 26.4305 56.3473 25.7901 57.8856 25.5825C62.4894 24.9613 67.1993 24.4519 71.8106 25.0145C73.44 25.2133 83.1439 13.9825 86.9275 10.3598C115.957 -17.4347 174.151 16.4358 142.43 62.4607C136.6 70.92 129.145 73.6101 128.182 76.5999C126.043 83.2409 139.507 82.3675 145.21 83.0769C154.953 84.2887 159.755 89.2937 153.707 97.8722C149.939 103.216 127.835 102.944 118.152 99.0793C114.558 97.6449 110.117 91.3734 106.72 96.518C104.38 100.063 95.2553 107.583 85.4668 111.837C81.0485 113.758 76.0163 112.6 72.2459 114.315C66.939 116.729 51.2723 126.863 44.674 126.861C38.0288 126.858 29.4294 118.862 28.4347 118.337C26.9183 117.537 15.1879 115.246 9.39297 106.303C7.64058 103.599 3.19161 107.639 1.99112 104.641Z" fill="white"/>
<ellipse cx="114.821" cy="57.1595" rx="2.03793" ry="2.0088" fill="#F59292"/>
<circle cx="99.9005" cy="52.9662" r="1.97866" fill="#F59292"/>
<path fill-rule="evenodd" clip-rule="evenodd" d="M32.7426 84.4538C32.6009 87.2929 30.4106 90.3671 27.5879 90.0312C26.314 88.5579 25.3169 86.7291 24.3315 84.9217C22.439 81.4506 20.5895 78.0585 16.9048 77.4146C13.2857 76.7821 9.91522 79.4439 7.66121 82.3452C4.39669 86.5471 2.28709 91.6372 1.62209 96.9166C1.23113 100.02 2.50395 104.325 5.61351 103.983C9.16538 103.593 11.6914 106.387 14.2606 109.228C16.6385 111.859 19.0533 114.53 22.3528 114.755C26.2815 115.023 29.4906 117.377 32.739 119.759C34.9086 121.351 37.0957 122.955 39.5264 123.959C44.0992 125.848 49.3723 125.483 54.04 123.842C58.7077 122.201 62.8617 119.375 66.7933 116.372L66.9994 116.214C69.1455 114.573 71.3922 112.855 74.0609 112.493C87.7069 110.644 100.399 102.64 107.948 91.1231C118.65 99.6783 133.613 102.602 146.749 98.7053C148.978 98.0441 151.221 97.1574 152.873 95.5226C154.526 93.8878 155.463 91.3492 154.651 89.171C153.763 86.789 151.107 85.5137 148.584 85.2069C147.201 85.0388 145.806 85.0885 144.411 85.1382H144.411C143.261 85.1792 142.11 85.2202 140.964 85.1392C134.025 84.6487 128.248 79.8632 122.994 75.3044C130.606 72.9694 136.778 67.1047 140.853 60.2645C144.929 53.4243 147.113 45.6321 148.772 37.8447C149.645 33.7467 150.294 29.1302 147.952 25.6553C146.904 24.1 145.368 22.9629 143.837 21.8298C142.113 20.5539 140.395 19.283 139.39 17.4257C137.457 13.8532 133.689 11.7347 130.114 9.80491C120.76 4.7546 110.016 -0.443175 99.9349 2.92956C96.008 4.24333 92.6159 6.76077 89.3086 9.25229C83.8165 13.3897 77.933 18.2429 76.8874 25.0391C67.9011 21.0187 56.2752 24.2295 50.6259 32.292C49.3338 34.1361 48.3418 36.1697 47.3508 38.2013C46.1841 40.593 45.0188 42.9819 43.3668 45.0553C36.7314 42.032 29.9706 39.284 23.1076 36.8206C20.0649 35.7284 16.4301 34.7632 13.8079 36.654C11.7053 38.17 11.0604 41.1457 11.6775 43.6633C12.2947 46.1808 13.9423 48.315 15.7092 50.2117C19.5424 54.3263 24.1468 57.72 29.2117 60.1637C29.3742 60.2421 29.5379 60.3201 29.7021 60.3983L29.7025 60.3985L29.7029 60.3987L29.7047 60.3995C31.2906 61.155 32.9208 61.9316 33.9768 63.3184C35.1427 64.8495 35.2151 67.4114 33.5805 68.4274C31.1663 69.9279 30.7218 73.2949 31.2167 76.0941C31.3858 77.0505 31.634 77.9979 31.8819 78.944C32.3595 80.7668 32.8359 82.5849 32.7426 84.4538ZM98.2861 99.4221C92.2028 105.81 83.6426 109.546 74.8896 110.639C66.1366 111.731 57.1986 110.311 48.8373 107.501C51.0864 107.5 52.7128 104.555 51.5163 102.651C46.9081 108.022 39.8829 110.538 33.1886 112.836C27.1408 114.911 19.9119 113.404 15.4695 108.805C11.0271 104.206 9.82498 96.6605 12.9491 91.0817C14.307 88.6567 16.6103 86.5458 19.3794 86.3079C22.1485 86.0699 25.1302 88.3659 24.8734 91.1334C23.3325 90.8656 21.7109 92.1744 21.6474 93.7371C27.6086 93.0949 33.2128 89.6791 36.5153 84.6749C37.6551 82.9477 38.5214 81.0664 39.3883 79.1834L39.3883 79.1834L39.3884 79.1833L39.3884 79.1832L39.3884 79.1832C39.9705 77.919 40.5529 76.6541 41.2186 75.4347C42.8761 72.3988 45.2559 69.5048 48.5537 68.4616C51.2006 67.6244 54.0617 68.089 56.7974 68.5607L68.9506 70.6561C69.8602 69.8709 68.3871 68.6125 67.2109 68.3667C63.4125 67.5731 59.5612 67.084 55.7095 66.5949C52.1379 66.1413 48.5659 65.6877 45.0357 64.9912C37.6983 63.5436 30.3238 60.8958 24.9833 55.6603C28.6059 53.5763 31.362 50.0351 32.4929 46.0118C32.7216 45.1979 32.1766 43.8608 31.5156 44.388C30.7604 46.9998 29.9418 49.7238 28.0497 51.6762C26.1575 53.6286 22.8364 54.4862 20.6948 52.8112C17.9146 50.6368 14.9917 48.2649 13.8922 44.911C12.7927 41.5572 14.532 37.053 18.0374 36.6418C19.6109 36.4572 21.149 37.1073 22.6 37.7434L37.2382 44.16C41.5949 46.0697 46.0165 47.9986 50.7226 48.6915C54.027 49.1781 57.3875 49.0416 60.7247 48.9039L70.1852 48.5137C70.572 48.4977 70.9688 48.4796 71.3249 48.3277C72.2754 47.9222 72.5977 46.7613 72.8074 45.7494C75.3462 33.4988 78.7571 20.5706 87.985 12.1225C92.1141 8.34229 97.2577 5.68071 102.729 4.49336C108.121 3.32297 114.071 3.66705 118.714 6.64965C110.926 7.22288 103.363 10.5072 97.6274 15.8071C95.2175 13.2346 90.7324 15.3373 88.8103 18.2921C85.8307 22.8725 85.8848 29.2354 88.9419 33.7644C91.5152 37.5767 92.4694 42.1255 93.4259 46.6849L93.4259 46.6849L93.426 46.685L93.426 46.685L93.426 46.6851C94.305 50.8752 95.1859 55.0743 97.3271 58.7188C100.715 64.4845 107.022 68.1856 113.61 69.3329C120.198 70.4802 127.028 69.2819 133.29 66.9338C126.282 73.9236 115.087 76.3413 105.819 72.8664C105.143 72.6131 104.472 72.3301 103.799 72.0469L103.799 72.0468C101.669 71.1501 99.5324 70.2503 97.2483 70.277C98.5864 71.6941 100.296 72.7578 102.158 73.3326C100.011 76.9394 97.7576 80.4834 95.403 83.9584C95.1018 84.4029 94.7587 84.8765 94.2433 85.0269C93.6689 85.1944 93.0692 84.9082 92.5456 84.6188C88.2165 82.226 84.3363 79.0243 81.165 75.2284L74.8209 82.9454C78.0766 86.9249 81.8828 90.4534 86.0973 93.3987C80.488 100.328 71.9897 104.842 63.1074 105.609C72.3017 106.077 81.6097 101.764 87.1971 94.4476C90.7344 96.4336 94.4507 98.1007 98.2861 99.4221ZM127.363 31.5653C129.395 29.35 130.147 26.1857 129.974 23.1848C129.8 20.1839 128.791 17.2979 127.674 14.5073C130.584 14.1623 133.541 15.2603 135.859 17.0532C138.177 18.8461 139.918 21.2856 141.347 23.8446C143.078 26.9467 144.405 30.301 144.981 33.8065C146.338 42.0607 143.442 50.4767 139.32 57.7555C138.52 59.1688 137.659 60.5724 136.49 61.7008C135.314 62.837 133.867 63.6538 132.384 64.3429C126.263 67.1866 119.223 68.0072 112.613 66.6474C116.832 63.134 119.812 58.2938 121.71 53.1413C123.608 47.9888 124.477 42.5126 124.977 37.0444L124.98 37.0138V37.0137C125.106 35.6349 125.239 34.1858 126.025 33.0472C126.285 32.6702 126.607 32.3434 126.929 32.0164L126.929 32.0162L126.929 32.0161C127.076 31.8675 127.222 31.7188 127.363 31.5653ZM119.726 54.3403C117.906 58.5996 115.084 62.5105 111.26 65.1244C110.812 65.4305 110.331 65.7258 109.793 65.7888C109.317 65.8444 108.841 65.7133 108.384 65.5691C105.132 64.5429 102.06 62.7236 99.9743 60.0265C99.2173 59.0478 98.5993 57.9683 98.0481 56.8605C94.0331 48.7932 93.6399 39.0054 96.9946 30.6419C97.1548 30.2424 97.3841 29.7938 97.8063 29.7101C98.3523 29.6017 98.7715 30.1603 99.0781 30.6249C101.584 34.4223 106.27 36.3447 110.815 36.5438C115.361 36.7429 119.832 35.451 124.142 33.9942C123.357 35.9151 123.156 38.0077 122.958 40.0806C122.933 40.3416 122.908 40.6023 122.882 40.8624C122.42 45.4715 121.547 50.081 119.726 54.3403ZM118.801 14.7714C121.127 14.2427 123.841 14.0972 125.618 15.6881C126.192 16.2019 126.618 16.861 126.969 17.5469C129.17 21.8484 128.308 27.5139 124.927 30.9659C121.018 34.9567 114.832 35.6147 109.266 35.1409C107.269 34.971 105.215 34.6637 103.51 33.6097C101.304 32.2461 99.9976 29.8432 98.7894 27.5483C104.153 21.5554 110.959 16.5541 118.801 14.7714ZM137.612 87.1155C136.882 88.9579 136.145 90.8255 135.907 92.7928C135.668 94.7601 135.979 96.8713 137.175 98.451C127.246 99.0003 117.157 95.9387 109.207 89.9646C111.771 86.3369 113.795 82.329 115.193 78.113C115.746 76.4476 117.854 75.7529 119.566 76.1384C121.142 76.4934 122.465 77.5044 123.756 78.4905L123.92 78.6156L124.089 78.7444C128.315 81.953 132.973 84.5401 137.612 87.1155ZM68.2313 112.277C66.6655 114.039 64.7941 115.503 62.8824 116.883C58.8922 119.764 54.5409 122.383 49.691 123.22C42.5834 124.447 34.9045 121.381 30.5958 115.597L46.0985 109.814C46.4697 109.675 46.8541 109.535 47.2496 109.557C47.4731 109.57 47.688 109.634 47.9033 109.698L47.9034 109.698C48.0468 109.741 48.1904 109.784 48.3368 109.811C48.8345 109.906 49.3366 109.823 49.8409 109.74C50.1546 109.688 50.4693 109.636 50.7842 109.627C51.9447 109.592 53.0111 110.122 54.0662 110.647L54.0665 110.647L54.0687 110.648C54.3357 110.781 54.602 110.913 54.869 111.036C58.9799 112.927 63.7197 112.621 68.2313 112.277ZM45.8473 45.9467C45.738 45.7023 45.8533 45.4211 45.9686 45.1796C49.1434 38.5304 53.3434 32.3719 58.3744 26.9886C61.9131 31.9023 64.2683 37.6622 65.1862 43.6475C65.3696 44.8439 65.1713 46.4985 63.9702 46.6482C58.2131 47.3658 52.355 47.2683 46.625 46.3595C46.3221 46.3115 45.9725 46.2267 45.8473 45.9467ZM67.5307 45.5365C66.3452 39.0196 63.8843 32.7372 60.3281 27.149C63.3381 25.5643 66.8965 25.5384 70.2982 25.549C72.4465 25.5557 74.7917 25.6314 76.4289 27.0225L72.1821 39.5533C71.4611 41.6806 70.731 43.8676 70.8219 46.1119L68.1374 46.1549C68.0418 46.1565 67.943 46.1574 67.8548 46.1206C67.64 46.0309 67.5724 45.7655 67.5307 45.5365ZM102.072 77.6043C102.785 76.3912 103.464 75.0954 103.536 73.6901C106.748 75.1346 110.285 75.8504 113.806 75.7684C114.359 75.7555 114.339 76.6075 114.112 77.1118C113.427 78.6376 112.741 80.165 111.947 81.6377C111.133 83.1492 110.209 84.5983 109.285 86.0457L107.072 89.515C106.769 89.99 106.456 90.4755 106.006 90.814C104.797 91.7223 103.073 91.2855 101.694 90.6661C99.4071 89.6386 97.302 88.2076 95.5052 86.459C98.0006 83.7521 100.206 80.7781 102.072 77.6043ZM19.0153 80.6021C20.0795 81.6751 20.7749 83.0502 21.453 84.4007L18.2604 84.856C17.1967 85.0077 16.106 85.1682 15.1659 85.6884C14.2511 86.1945 13.5456 87.0057 12.9248 87.8468C10.3284 91.3644 8.8893 95.722 8.88021 100.094C8.87693 101.673 7.01052 102.8 5.48297 102.399C3.95542 101.999 2.91768 100.482 2.65362 98.9248C2.38955 97.3679 2.76143 95.7759 3.22784 94.2672C4.86916 88.9579 7.80514 83.9437 12.149 80.4777C12.979 79.8155 13.896 79.1955 14.9445 79.0279C16.4368 78.7895 17.9511 79.5292 19.0153 80.6021ZM153.08 89.4896C153.45 89.964 153.723 90.5419 153.706 91.1429C153.685 91.9196 153.193 92.6006 152.663 93.1687C149.581 96.4712 144.844 97.5957 140.358 98.1257C140.063 98.1606 139.753 98.1921 139.475 98.0836C139.247 97.9944 139.065 97.8189 138.902 97.636C137.82 96.4188 137.391 94.7175 137.479 93.0911C137.566 91.4648 138.128 89.8984 138.827 88.4272C138.974 88.1173 139.144 87.7921 139.444 87.6258C139.684 87.4932 139.97 87.4829 140.243 87.4757L145.672 87.3333C147.009 87.2982 148.36 87.2644 149.669 87.5401C150.977 87.8157 152.259 88.4344 153.08 89.4896ZM92.5739 38.1919C90.3618 34.093 88.7067 29.6939 87.6686 25.1533L88.5623 22.7662C89.668 20.6257 91.0619 18.6342 92.6943 16.8623C93.3592 16.1407 94.5117 16.0609 95.4292 16.4086C96.3468 16.7563 97.0849 17.4477 97.7972 18.1225L101.002 21.1593C101.098 21.2495 101.197 21.347 101.229 21.4744C101.289 21.7142 101.091 21.9338 100.912 22.104C99.4106 23.5312 98.077 25.1402 97.0076 26.9139C95.3913 29.5949 94.4044 32.5992 93.4306 35.5744L92.5739 38.1919ZM100.766 15.1708C107.292 11.6755 114.431 8.38631 121.792 9.17289C125.641 9.58411 129.322 11.1152 132.528 13.2841C123.344 10.9235 113.108 13.1009 105.681 18.9948C104.533 19.9058 102.81 20.8952 101.788 19.8449C101.526 19.5753 101.354 19.1975 101.187 18.8293C100.919 18.2397 100.663 17.675 100.063 17.6198C99.4902 17.5671 99.2356 16.7906 99.4784 16.2697C99.7212 15.7487 100.259 15.4421 100.766 15.1708ZM82.8376 79.1022C84.1257 80.3399 85.5442 81.4326 86.9594 82.5226L92.6773 86.9263C90.9165 88.478 89.1937 90.0727 87.511 91.7088C83.5051 89.3346 79.9296 86.2368 77.0088 82.6101C78.6076 80.9448 80.1424 79.218 81.6086 77.4348C81.8389 78.0928 82.3349 78.6192 82.8376 79.1022ZM46.0747 67.1908C43.0641 69.5429 39.9515 72.0187 38.2955 75.4616C37.972 76.1343 37.7047 76.8422 37.4378 77.5491L37.4378 77.5491C36.8705 79.0517 36.305 80.5493 35.205 81.6929C34.7175 81.5498 34.5257 80.975 34.4069 80.481L33.2613 75.7158C33.1067 75.0729 32.9511 74.4121 33.0389 73.7568C33.1263 73.1044 33.448 72.5101 33.7639 71.9327L37.1252 65.7901C37.2001 65.6531 37.2779 65.5127 37.398 65.413C37.6953 65.166 38.1353 65.2447 38.5108 65.3367L46.0747 67.1908ZM94.9834 88.2923C97.0364 90.4032 99.5881 92.0259 102.37 92.99C102.891 92.5004 103.896 92.7704 104.102 93.4548C103.144 94.697 102.093 95.867 100.96 96.9516C100.454 97.4359 99.6436 97.3337 98.961 97.177C95.6265 96.4116 92.4147 95.1146 89.4838 93.3499C89.2877 93.2319 89.0671 93.064 89.0864 92.8359C89.0994 92.6825 89.2203 92.5633 89.3336 92.459L93.4486 88.6691C93.8801 88.2717 94.5744 87.8717 94.9834 88.2923ZM147.522 35.3486C147.484 35.813 147.418 36.3313 147.055 36.6234C147.052 32.9754 146.148 29.3316 144.444 26.1057C144.135 25.5206 143.8 24.9488 143.428 24.402L143.392 24.3503L143.359 24.302L143.282 24.1908L143.282 24.1906C142.906 23.6481 142.522 23.0929 142.43 22.4452L146.84 27.0514C147.246 27.4753 147.663 27.9174 147.855 28.4719C148.04 29.0066 147.995 29.5898 147.949 30.1536L147.522 35.3486ZM142.456 29.4948L141.457 28.2362C140.358 26.8514 139.01 25.3394 137.243 25.3374C136.217 25.3363 135.274 25.8616 134.384 26.3719L133.001 27.1648C132.623 27.3814 132.236 27.6067 131.969 27.9512C131.201 28.9446 131.762 30.3961 132.487 31.4207C132.99 32.1297 133.592 32.8105 134.391 33.1517C135.424 33.5931 136.613 33.3979 137.697 33.0991C139.18 32.6899 140.614 32.0996 141.955 31.3455C142.384 31.1043 142.858 30.751 142.837 30.2594C142.824 29.9698 142.636 29.7218 142.456 29.4948ZM133.732 30.4663C133.56 30.1927 133.382 29.9005 133.38 29.5774C133.374 28.9457 134.004 28.5218 134.559 28.2193L136.53 27.1443C136.828 26.9818 137.138 26.8155 137.477 26.7927C137.815 26.7699 138.192 26.933 138.306 27.2528C138.642 28.1965 139.47 28.9493 140.441 29.1941C140.756 29.2734 140.857 29.7088 140.708 29.997C140.56 30.2853 140.256 30.4538 139.965 30.5979C138.926 31.1134 137.84 31.5337 136.725 31.8519C136.278 31.9794 135.805 32.091 135.353 31.9835C134.613 31.8077 134.136 31.11 133.732 30.4663ZM119.712 40.1962C117.757 40.4238 117.385 43.948 118.293 45.8278C118.48 46.2145 118.772 46.6127 119.198 46.6668C119.926 46.7592 120.329 45.8605 120.49 45.1441L120.494 45.1275C120.706 44.1836 121.655 39.97 119.712 40.1962ZM109.631 44.8193C110.022 43.9076 110.152 42.8859 110.003 41.9052C109.933 41.4496 109.796 40.9869 109.492 40.6409C109.187 40.2949 108.684 40.0937 108.25 40.2497C107.858 40.3909 107.611 40.7749 107.425 41.1483C106.769 42.4668 106.508 43.9784 106.683 45.4406C106.764 46.1208 107.622 46.4925 108.272 46.2774C108.922 46.0623 109.361 45.4489 109.631 44.8193ZM115.393 42.7327C115.696 42.4813 116.079 42.938 116.202 43.3123C116.607 44.5426 116.942 45.7958 117.205 47.0639C117.372 47.8652 117.509 48.6978 117.332 49.4969C117.082 50.6235 116.226 51.5398 115.232 52.1268C114.239 52.7137 113.108 53.0175 111.993 53.3149C111.698 53.3934 111.328 53.4494 111.138 53.2112C110.976 53.009 111.056 52.6923 111.24 52.5102C111.42 52.3316 111.671 52.2492 111.913 52.1699L111.927 52.1652C113.665 51.5943 115.522 50.5637 115.927 48.7795C116.15 47.7984 115.879 46.8129 115.607 45.8232C115.359 44.9217 115.111 44.0169 115.233 43.1089C115.252 42.9705 115.286 42.8218 115.393 42.7327ZM103.255 38.7196C102.797 38.0856 103.163 37.1222 103.827 36.7087C104.491 36.2952 105.33 36.3008 106.105 36.4009C107.031 36.5205 107.942 36.756 108.81 37.1002C108.994 37.1734 109.193 37.2667 109.275 37.448C109.425 37.7839 109.036 38.1515 108.668 38.1512C108.371 38.151 108.103 38.0084 107.837 37.8674L107.837 37.8673C107.773 37.8332 107.709 37.7992 107.644 37.7673C106.196 37.0485 104.275 37.4652 103.255 38.7196ZM119.95 38.5012C120.638 38.3867 121.368 38.5456 121.947 38.9359C122.188 39.0991 122.535 38.8247 122.536 38.533C122.537 38.2413 122.32 37.996 122.091 37.8156C121.597 37.4271 120.982 37.1947 120.355 37.1592C119.95 37.1363 119.502 37.2146 119.241 37.5251C118.981 37.8357 119.059 38.4184 119.45 38.5266C119.589 38.5652 119.736 38.5391 119.88 38.5134L119.88 38.5134C119.903 38.5092 119.927 38.505 119.95 38.5012ZM111.406 56.3867C111.6 56.2774 111.856 56.4683 111.885 56.689C111.914 56.9096 111.788 57.1206 111.644 57.2903C110.922 58.1421 109.678 58.4045 108.58 58.2048C107.481 58.0051 106.497 57.4146 105.57 56.7916C105.135 56.4987 104.705 56.1961 104.283 55.8842C103.845 55.5609 103.379 55.1652 103.326 54.6236C103.274 54.082 103.968 53.536 104.364 53.9091C105.338 54.826 106.334 55.7582 107.545 56.3256C108.756 56.893 110.242 57.0441 111.406 56.3867ZM90.5551 60.7297C86.4979 51.9106 84.8053 42.017 85.7 32.3508C85.7153 32.1856 85.7362 32.0087 85.8453 31.8838C85.9992 31.7075 86.3151 31.7149 86.4607 31.8981C86.4087 37.2154 86.3591 42.5648 87.2271 47.811C88.0952 53.0573 89.9383 58.2476 93.3034 62.365C93.4039 62.4879 93.506 62.6103 93.6082 62.7329L93.6083 62.733C94.1871 63.4271 94.7709 64.1272 95.0991 64.9642C92.9108 64.922 91.4698 62.7181 90.5551 60.7297ZM94.5345 20.906C94.4595 20.8249 94.3721 20.7533 94.2708 20.7095C93.9781 20.5832 93.6351 20.7127 93.3789 20.9023C92.3576 21.6582 92.3536 23.4259 93.3715 24.1865C93.868 23.7634 94.3776 23.324 94.6686 22.7402C94.9595 22.1564 94.9771 21.385 94.5345 20.906ZM103.34 30.219C104.44 31.1125 105.695 31.8162 107.031 32.29C111.343 33.8189 116.188 32.859 120.348 30.9572C120.984 30.6666 121.795 30.8198 122.281 31.3221C119.61 33.2259 116.337 34.2723 113.056 34.2716C112.333 34.2714 111.61 34.2219 110.89 34.1589C109.415 34.03 107.929 33.8411 106.542 33.3247C105.155 32.8082 103.86 31.9346 103.074 30.6799L103.34 30.219ZM150.291 88.3284C150.248 88.4752 150.366 88.6158 150.475 88.7235L152.113 90.3492C152.292 89.8816 152.091 89.3373 151.748 88.9733C151.404 88.6094 150.94 88.388 150.487 88.1747C150.399 88.1785 150.316 88.2433 150.291 88.3284Z" fill="black"/>
</svg>
