<svg width="175" height="275" viewBox="0 0 175 275" fill="none" xmlns="http://www.w3.org/2000/svg">
<path fill-rule="evenodd" clip-rule="evenodd" d="M9.49722 148.339C6.2176 140.148 9.08241 135.241 10.9187 128.835C12.4526 123.483 24.4481 114.791 29.9687 123.855C31.5929 126.521 30.9414 129.041 34.4911 131.385C43.0839 137.058 38.3963 125.288 38.7158 122.313C38.8717 120.862 37.6454 117.515 38.1019 116.114C38.5809 114.645 41.134 112.557 41.134 109.511C41.134 106.464 35.9408 105.291 34.4911 104.542C21.6083 97.8908 13.4152 86.7811 17.4982 81.1428C23.1868 73.2871 45.4812 85.6472 52.1801 86.7811C52.2668 86.7958 53.4632 80.5503 54.4404 79.1202C56.3954 76.259 58.556 73.4816 61.1337 71.1655C62.2883 70.128 63.8534 69.4876 65.3917 69.28C69.9955 68.6588 74.7054 68.1494 79.3167 68.712C80.9461 68.9108 90.65 57.68 94.4336 54.0574C123.463 26.2628 181.658 60.1333 149.937 106.158C144.106 114.618 136.651 117.308 135.688 120.297C133.549 126.938 147.013 126.065 152.716 126.774C162.459 127.986 167.262 132.991 161.213 141.57C157.445 146.914 135.341 146.641 125.658 142.777C122.064 141.342 117.623 135.071 114.226 140.216C111.886 143.76 102.761 151.281 92.9729 155.535C88.5546 157.455 83.5224 156.298 79.7521 158.013C74.4451 160.426 58.7784 170.561 52.1801 170.558C45.5349 170.556 36.9355 162.559 35.9408 162.034C34.4244 161.235 22.694 158.943 16.8991 150.001C15.1467 147.296 10.6977 151.337 9.49722 148.339Z" fill="white"/>
<ellipse cx="122.327" cy="100.857" rx="2.03793" ry="2.0088" fill="#F59292"/>
<circle cx="107.407" cy="96.6637" r="1.97866" fill="#F59292"/>
<path fill-rule="evenodd" clip-rule="evenodd" d="M40.2487 128.151C40.107 130.99 37.9167 134.065 35.094 133.729C33.8201 132.255 32.823 130.427 31.8376 128.619C29.9451 125.148 28.0956 121.756 24.4109 121.112C20.7918 120.48 17.4213 123.141 15.1673 126.043C11.9028 130.245 9.79319 135.335 9.12819 140.614C8.73724 143.718 10.01 148.022 13.1196 147.68C16.6715 147.29 19.1975 150.084 21.7667 152.926C24.1446 155.556 26.5594 158.227 29.8589 158.452C33.7876 158.721 36.9967 161.074 40.2451 163.457C42.4147 165.048 44.6018 166.652 47.0325 167.656C51.6053 169.546 56.8785 169.18 61.5461 167.54C66.2138 165.899 70.3679 163.073 74.2994 160.069L74.5055 159.912C76.6516 158.27 78.8983 156.552 81.567 156.191C95.213 154.342 107.905 146.338 115.454 134.821C126.156 143.376 141.119 146.3 154.255 142.403C156.484 141.742 158.727 140.855 160.38 139.22C162.032 137.585 162.97 135.047 162.157 132.869C161.269 130.487 158.614 129.211 156.09 128.904C154.707 128.736 153.312 128.786 151.917 128.836H151.917C150.767 128.877 149.616 128.918 148.47 128.837C141.532 128.346 135.754 123.561 130.5 119.002C138.112 116.667 144.284 110.802 148.36 103.962C152.435 97.1218 154.619 89.3296 156.278 81.5422C157.151 77.4442 157.8 72.8277 155.458 69.3528C154.411 67.7975 152.874 66.6604 151.343 65.5273C149.619 64.2514 147.902 62.9805 146.896 61.1232C144.963 57.5507 141.195 55.4322 137.62 53.5024C128.266 48.4521 117.522 43.2543 107.441 46.6271C103.514 47.9408 100.122 50.4583 96.8147 52.9498C91.3226 57.0872 85.4391 61.9405 84.3935 68.7366C75.4072 64.7162 63.7813 67.927 58.132 75.9895C56.8399 77.8336 55.8479 79.8672 54.8569 81.8988C53.6902 84.2905 52.5249 86.6794 50.8729 88.7528C44.2375 85.7295 37.4767 82.9815 30.6137 80.5181C27.571 79.4259 23.9362 78.4608 21.314 80.3515C19.2114 81.8675 18.5665 84.8432 19.1837 87.3608C19.8008 89.8783 21.4484 92.0126 23.2153 93.9092C27.0485 98.0238 31.653 101.418 36.7178 103.861C36.8812 103.94 37.0458 104.018 37.2108 104.097C38.7967 104.852 40.4269 105.629 41.4829 107.016C42.6489 108.547 42.7212 111.109 41.0867 112.125C38.6724 113.625 38.2279 116.992 38.7228 119.792C38.8919 120.748 39.1401 121.695 39.388 122.642C39.8656 124.464 40.342 126.282 40.2487 128.151ZM105.792 143.12C99.7089 149.507 91.1487 153.244 82.3957 154.336C73.6427 155.429 64.7047 154.009 56.3434 151.199C58.5925 151.197 60.2189 148.253 59.0224 146.348C54.4142 151.72 47.389 154.236 40.6947 156.533C34.6469 158.609 27.4181 157.101 22.9756 152.503C18.5332 147.904 17.3311 140.358 20.4552 134.779C21.8131 132.354 24.1164 130.243 26.8855 130.005C29.6546 129.767 32.6363 132.063 32.3795 134.831C30.8386 134.563 29.217 135.872 29.1536 137.435C35.1147 136.792 40.7189 133.377 44.0214 128.372C45.1612 126.645 46.0275 124.764 46.8944 122.881C47.4765 121.617 48.0589 120.352 48.7248 119.132C50.3822 116.096 52.762 113.202 56.0598 112.159C58.7067 111.322 61.5678 111.786 64.3035 112.258L76.4567 114.354C77.3664 113.568 75.8932 112.31 74.717 112.064C70.9186 111.271 67.0673 110.782 63.2156 110.292C59.644 109.839 56.0721 109.385 52.5418 108.689C45.2045 107.241 37.8299 104.593 32.4894 99.3578C36.112 97.2738 38.8681 93.7326 39.999 89.7093C40.2278 88.8954 39.6827 87.5583 39.0217 88.0855C38.2665 90.6973 37.4479 93.4213 35.5558 95.3737C33.6636 97.3261 30.3425 98.1837 28.2009 96.5087C25.4207 94.3343 22.4978 91.9624 21.3983 88.6085C20.2988 85.2547 22.0381 80.7505 25.5435 80.3393C27.117 80.1547 28.6551 80.8049 30.1061 81.4409L44.7443 87.8575C49.101 89.7672 53.5226 91.6961 58.2287 92.389C61.5331 92.8756 64.8936 92.7391 68.2308 92.6014L77.6913 92.2112C78.0781 92.1952 78.4749 92.1771 78.831 92.0252C79.7815 91.6197 80.1038 90.4588 80.3135 89.4469C82.8524 77.1963 86.2632 64.2681 95.4911 55.82C99.6202 52.0398 104.764 49.3782 110.235 48.1909C115.627 47.0205 121.577 47.3646 126.22 50.3472C118.432 50.9204 110.869 54.2047 105.134 59.5046C102.724 56.9321 98.2385 59.0348 96.3164 61.9896C93.3368 66.5701 93.3909 72.9329 96.448 77.462C99.0213 81.2742 99.9755 85.823 100.932 90.3824L100.932 90.3824L100.932 90.3825L100.932 90.3826L100.932 90.3826C101.811 94.5727 102.692 98.7718 104.833 102.416C108.221 108.182 114.529 111.883 121.117 113.03C127.705 114.178 134.534 112.979 140.796 110.631C133.788 117.621 122.593 120.039 113.325 116.564C112.65 116.311 111.977 116.028 111.305 115.744C109.175 114.848 107.038 113.948 104.754 113.975C106.093 115.392 107.802 116.455 109.664 117.03C107.517 120.637 105.264 124.181 102.909 127.656C102.608 128.1 102.265 128.574 101.749 128.724C101.175 128.892 100.575 128.606 100.052 128.316C95.7226 125.924 91.8424 122.722 88.6711 118.926L82.327 126.643C85.5827 130.622 89.3889 134.151 93.6034 137.096C87.9941 144.026 79.4958 148.539 70.6135 149.306C79.8078 149.775 89.1158 145.462 94.7032 138.145C98.2405 140.131 101.957 141.798 105.792 143.12ZM134.869 75.2629C136.901 73.0475 137.654 69.8832 137.48 66.8823C137.306 63.8814 136.297 60.9954 135.18 58.2048C138.09 57.8598 141.047 58.9578 143.365 60.7507C145.683 62.5436 147.424 64.9831 148.853 67.5421C150.584 70.6442 151.912 73.9985 152.488 77.504C153.844 85.7582 150.948 94.1742 146.826 101.453C146.026 102.866 145.165 104.27 143.997 105.398C142.82 106.535 141.373 107.351 139.89 108.04C133.769 110.884 126.729 111.705 120.119 110.345C124.338 106.832 127.319 101.991 129.217 96.8388C131.115 91.6864 131.983 86.2101 132.483 80.742L132.486 80.7114V80.7112C132.612 79.3324 132.745 77.8833 133.531 76.7447C133.791 76.3678 134.113 76.041 134.435 75.714L134.435 75.7139C134.582 75.5652 134.728 75.4164 134.869 75.2629ZM127.233 98.0378C125.412 102.297 122.591 106.208 118.766 108.822C118.318 109.128 117.838 109.423 117.299 109.486C116.823 109.542 116.347 109.411 115.89 109.267C112.639 108.24 109.566 106.421 107.48 103.724C106.723 102.745 106.105 101.666 105.554 100.558C101.539 92.4907 101.146 82.7029 104.501 74.3394C104.661 73.9399 104.89 73.4914 105.312 73.4076C105.858 73.2992 106.278 73.8578 106.584 74.3224C109.09 78.1198 113.776 80.0422 118.321 80.2413C122.867 80.4404 127.338 79.1486 131.648 77.6917C130.863 79.6126 130.663 81.7052 130.464 83.7781L130.464 83.7785L130.464 83.7789C130.439 84.0396 130.414 84.3001 130.388 84.5599C129.926 89.169 129.054 93.7785 127.233 98.0378ZM126.307 58.4689C128.633 57.9402 131.347 57.7947 133.124 59.3856C133.698 59.8995 134.124 60.5585 134.475 61.2444C136.676 65.546 135.814 71.2114 132.433 74.6635C128.524 78.6543 122.338 79.3122 116.772 78.8385C114.775 78.6685 112.721 78.3612 111.016 77.3073C108.81 75.9436 107.504 73.5407 106.296 71.2458C111.659 65.253 118.465 60.2516 126.307 58.4689ZM145.118 130.813C144.388 132.655 143.652 134.523 143.413 136.49C143.174 138.458 143.485 140.569 144.681 142.149C134.752 142.698 124.663 139.636 116.713 133.662C119.277 130.034 121.301 126.027 122.7 121.81C123.252 120.145 125.361 119.45 127.072 119.836C128.648 120.191 129.971 121.202 131.262 122.188L131.264 122.19C131.375 122.274 131.485 122.358 131.595 122.442C135.821 125.65 140.479 128.238 145.118 130.813ZM75.7374 155.974C74.1716 157.737 72.3002 159.2 70.3885 160.581C66.3983 163.462 62.047 166.08 57.1971 166.917C50.0895 168.144 42.4106 165.078 38.1019 159.294L53.6046 153.511C53.9758 153.373 54.3602 153.232 54.7557 153.255C54.9792 153.267 55.1941 153.331 55.4094 153.395L55.4095 153.395C55.5529 153.438 55.6965 153.481 55.8429 153.509C56.3406 153.603 56.8427 153.52 57.347 153.437C57.6607 153.386 57.9754 153.334 58.2903 153.324C59.4508 153.289 60.5172 153.82 61.5723 154.344L61.5726 154.345L61.5748 154.346C61.8418 154.478 62.1081 154.611 62.3751 154.734C66.486 156.624 71.2258 156.318 75.7374 155.974ZM53.3534 89.6442C53.2441 89.3998 53.3594 89.1186 53.4747 88.8771C56.6495 82.2279 60.8495 76.0694 65.8805 70.6862C69.4192 75.5998 71.7744 81.3597 72.6923 87.345C72.8757 88.5415 72.6774 90.196 71.4763 90.3457C65.7192 91.0633 59.8611 90.9658 54.1311 90.057C53.8282 90.009 53.4786 89.9242 53.3534 89.6442ZM75.0368 89.234C73.8513 82.7171 71.3904 76.4347 67.8342 70.8465C70.8442 69.2618 74.4026 69.2359 77.8043 69.2465C79.9526 69.2532 82.2978 69.3289 83.935 70.72L79.6882 83.2508C78.9672 85.3781 78.2371 87.5651 78.328 89.8094L75.6435 89.8525C75.5479 89.854 75.4491 89.8549 75.3609 89.8181C75.1461 89.7284 75.0785 89.463 75.0368 89.234ZM109.578 121.302C110.291 120.089 110.97 118.793 111.042 117.388C114.254 118.832 117.791 119.548 121.312 119.466C121.865 119.453 121.845 120.305 121.619 120.809C120.933 122.335 120.247 123.863 119.453 125.335C118.639 126.847 117.715 128.296 116.791 129.743L114.578 133.213C114.275 133.687 113.962 134.173 113.512 134.512C112.304 135.42 110.579 134.983 109.2 134.364C106.913 133.336 104.808 131.905 103.011 130.156C105.507 127.45 107.712 124.476 109.578 121.302ZM26.5214 124.3C27.5856 125.373 28.281 126.748 28.9591 128.098L25.7665 128.554C24.7028 128.705 23.6122 128.866 22.672 129.386C21.7572 129.892 21.0518 130.703 20.4309 131.544C17.8345 135.062 16.3954 139.419 16.3863 143.792C16.383 145.371 14.5166 146.497 12.9891 146.097C11.4615 145.697 10.4238 144.179 10.1597 142.622C9.89566 141.065 10.2675 139.473 10.7339 137.965C12.3753 132.655 15.3112 127.641 19.6551 124.175C20.4851 123.513 21.4021 122.893 22.4506 122.725C23.9429 122.487 25.4572 123.227 26.5214 124.3ZM160.586 133.187C160.956 133.662 161.229 134.239 161.212 134.84C161.191 135.617 160.699 136.298 160.169 136.866C157.087 140.169 152.351 141.293 147.865 141.823C147.569 141.858 147.259 141.89 146.981 141.781C146.753 141.692 146.571 141.516 146.408 141.334C145.326 140.116 144.897 138.415 144.985 136.789C145.073 135.162 145.634 133.596 146.333 132.125C146.48 131.815 146.65 131.49 146.95 131.323C147.19 131.191 147.476 131.18 147.749 131.173L153.178 131.031C154.515 130.996 155.866 130.962 157.175 131.238C158.483 131.513 159.765 132.132 160.586 133.187ZM100.08 81.8895C97.8679 77.7906 96.2129 73.3914 95.1747 68.8508L96.0684 66.4637C97.1742 64.3232 98.568 62.3317 100.2 60.5598C100.865 59.8382 102.018 59.7584 102.935 60.1061C103.853 60.4538 104.591 61.1452 105.303 61.82L108.509 64.8568C108.604 64.9471 108.704 65.0445 108.735 65.1719C108.795 65.4117 108.597 65.6313 108.418 65.8016C106.917 67.2287 105.583 68.8377 104.514 70.6114C102.897 73.2924 101.91 76.2967 100.937 79.2719L100.08 81.8895ZM108.272 58.8683C114.798 55.373 121.937 52.0838 129.298 52.8704C133.147 53.2816 136.828 54.8127 140.034 56.9816C130.851 54.621 120.614 56.7984 113.187 62.6923C112.039 63.6033 110.316 64.5927 109.294 63.5424C109.032 63.2728 108.86 62.895 108.693 62.5268C108.425 61.9372 108.169 61.3725 107.569 61.3173C106.996 61.2646 106.742 60.4881 106.984 59.9672C107.227 59.4462 107.766 59.1396 108.272 58.8683ZM90.3437 122.8C91.6318 124.037 93.0503 125.13 94.4655 126.22L100.183 130.624C98.4226 132.175 96.6998 133.77 95.0171 135.406C91.0113 133.032 87.4357 129.934 84.5149 126.308C86.1137 124.642 87.6485 122.915 89.1147 121.132C89.345 121.79 89.841 122.317 90.3437 122.8ZM53.5808 110.888C50.5702 113.24 47.4576 115.716 45.8016 119.159C45.4781 119.832 45.2108 120.54 44.9439 121.247L44.9439 121.247C44.3766 122.749 43.8111 124.247 42.7111 125.39C42.2236 125.247 42.0318 124.673 41.913 124.178L40.7674 119.413C40.6128 118.77 40.4572 118.11 40.545 117.454C40.6324 116.802 40.9541 116.208 41.27 115.63L44.6313 109.488C44.7062 109.351 44.784 109.21 44.9041 109.11C45.2014 108.863 45.6414 108.942 46.0169 109.034L53.5808 110.888ZM102.49 131.99C104.543 134.101 107.094 135.723 109.877 136.688C110.397 136.198 111.402 136.468 111.608 137.152C110.65 138.395 109.599 139.565 108.466 140.649C107.96 141.133 107.15 141.031 106.467 140.874C103.133 140.109 99.9208 138.812 96.9899 137.047C96.7938 136.929 96.5732 136.762 96.5925 136.533C96.6055 136.38 96.7264 136.261 96.8397 136.157L100.955 132.367C101.386 131.969 102.081 131.569 102.49 131.99ZM155.028 79.0461C154.99 79.5105 154.925 80.0288 154.561 80.3209C154.558 76.6729 153.654 73.0291 151.95 69.8032C151.641 69.2182 151.306 68.6463 150.934 68.0995C150.887 68.0301 150.838 67.9607 150.79 67.8911L150.788 67.8883L150.788 67.8882C150.412 67.3456 150.028 66.7904 149.937 66.1427L154.346 70.7489C154.752 71.1728 155.169 71.6149 155.361 72.1694C155.546 72.7041 155.502 73.2873 155.455 73.8512L155.028 79.0461ZM149.962 73.1923L148.963 71.9337C147.864 70.5489 146.517 69.0369 144.749 69.0349C143.723 69.0338 142.78 69.5591 141.89 70.0694L140.507 70.8623C140.129 71.0789 139.742 71.3042 139.475 71.6487C138.707 72.6421 139.268 74.0936 139.994 75.1182C140.496 75.8272 141.098 76.508 141.897 76.8492C142.93 77.2906 144.119 77.0954 145.203 76.7966C146.686 76.3874 148.12 75.7971 149.461 75.043C149.89 74.8018 150.365 74.4485 150.343 73.9569C150.33 73.6674 150.142 73.4193 149.962 73.1923ZM141.238 74.1638C141.066 73.8902 140.889 73.598 140.886 73.2749C140.88 72.6432 141.511 72.2193 142.065 71.9168L144.036 70.8419C144.334 70.6793 144.644 70.5131 144.983 70.4902C145.322 70.4674 145.698 70.6305 145.812 70.9503C146.148 71.894 146.976 72.6468 147.948 72.8916C148.262 72.9709 148.363 73.4063 148.215 73.6945C148.066 73.9828 147.762 74.1513 147.471 74.2954C146.432 74.8109 145.346 75.2312 144.231 75.5494C143.784 75.677 143.311 75.7886 142.859 75.681C142.119 75.5052 141.642 74.8075 141.238 74.1638ZM127.218 83.8937C125.263 84.1213 124.891 87.6455 125.799 89.5253C125.986 89.912 126.278 90.3102 126.704 90.3643C127.433 90.4567 127.835 89.558 127.996 88.8416L128 88.825C128.212 87.8811 129.161 83.6675 127.218 83.8937ZM117.137 88.5168C117.528 87.6051 117.658 86.5834 117.509 85.6027C117.439 85.1471 117.302 84.6845 116.998 84.3384C116.693 83.9924 116.19 83.7913 115.756 83.9472C115.364 84.0884 115.117 84.4724 114.931 84.8458C114.276 86.1643 114.014 87.6759 114.189 89.1381C114.271 89.8183 115.128 90.19 115.778 89.9749C116.428 89.7598 116.867 89.1464 117.137 88.5168ZM122.899 86.4302C123.203 86.1788 123.585 86.6355 123.709 87.0098C124.113 88.2401 124.448 89.4933 124.711 90.7614C124.878 91.5628 125.015 92.3953 124.838 93.1944C124.588 94.321 123.732 95.2374 122.738 95.8243C121.745 96.4112 120.614 96.7151 119.499 97.0124C119.204 97.0909 118.834 97.1469 118.644 96.9087C118.482 96.7065 118.562 96.3898 118.746 96.2077C118.926 96.0291 119.177 95.9467 119.419 95.8674L119.433 95.8627C121.171 95.2918 123.029 94.2612 123.433 92.477C123.656 91.4959 123.385 90.5104 123.113 89.5207C122.866 88.6192 122.617 87.7144 122.739 86.8064C122.758 86.668 122.792 86.5193 122.899 86.4302ZM110.761 82.4171C110.303 81.7831 110.67 80.8197 111.333 80.4062C111.997 79.9927 112.836 79.9983 113.611 80.0984C114.537 80.218 115.448 80.4535 116.316 80.7977C116.5 80.8709 116.699 80.9642 116.781 81.1455C116.931 81.4814 116.542 81.849 116.174 81.8487C115.877 81.8485 115.609 81.7059 115.343 81.5649C115.279 81.5308 115.215 81.4967 115.151 81.4648C113.702 80.746 111.781 81.1627 110.761 82.4171ZM127.456 82.1987C128.144 82.0842 128.874 82.2431 129.453 82.6334C129.695 82.7966 130.041 82.5222 130.042 82.2305C130.044 81.9388 129.826 81.6935 129.597 81.5132C129.103 81.1246 128.488 80.8922 127.861 80.8567C127.456 80.8339 127.008 80.9121 126.747 81.2226C126.487 81.5332 126.565 82.1159 126.956 82.2241C127.096 82.2627 127.242 82.2366 127.386 82.2109L127.386 82.2109L127.386 82.2109L127.411 82.2064L127.456 82.1987ZM118.912 100.084C119.106 99.9749 119.362 100.166 119.391 100.386C119.42 100.607 119.294 100.818 119.15 100.988C118.428 101.84 117.184 102.102 116.086 101.902C114.987 101.703 114.003 101.112 113.076 100.489C112.641 100.196 112.211 99.8936 111.789 99.5817C111.351 99.2584 110.885 98.8628 110.833 98.3211C110.78 97.7795 111.474 97.2335 111.87 97.6066C112.844 98.5235 113.84 99.4557 115.051 100.023C116.262 100.59 117.748 100.742 118.912 100.084ZM98.0612 104.427C94.004 95.6081 92.3114 85.7145 93.2061 76.0483C93.2214 75.8831 93.2423 75.7062 93.3514 75.5813C93.5053 75.405 93.8212 75.4124 93.9668 75.5956C93.9148 80.9129 93.8652 86.2623 94.7332 91.5085C95.6013 96.7548 97.4444 101.945 100.81 106.062C100.91 106.185 101.012 106.308 101.114 106.43L101.114 106.43C101.693 107.125 102.277 107.825 102.605 108.662C100.417 108.62 98.9759 106.416 98.0612 104.427ZM102.041 64.6035C101.966 64.5224 101.878 64.4508 101.777 64.407C101.484 64.2807 101.141 64.4102 100.885 64.5998C99.8637 65.3558 99.8597 67.1234 100.878 67.884C101.374 67.461 101.884 67.0215 102.175 66.4377C102.466 65.8539 102.483 65.0825 102.041 64.6035ZM110.846 73.9165C111.947 74.81 113.201 75.5137 114.537 75.9875C118.849 77.5164 123.694 76.5565 127.855 74.6547C128.49 74.3641 129.301 74.5173 129.787 75.0197C127.116 76.9234 123.843 77.9698 120.562 77.9691C119.839 77.9689 119.116 77.9194 118.396 77.8564C116.921 77.7276 115.436 77.5386 114.048 77.0222C112.661 76.5057 111.366 75.6321 110.581 74.3774L110.846 73.9165ZM157.797 132.026C157.755 132.173 157.873 132.313 157.981 132.421L159.619 134.047C159.798 133.579 159.598 133.035 159.254 132.671C158.91 132.307 158.446 132.086 157.993 131.872C157.905 131.876 157.822 131.941 157.797 132.026Z" fill="black"/>
</svg>
