<svg width="660" height="966" viewBox="0 0 660 966" fill="none" xmlns="http://www.w3.org/2000/svg">
<g opacity="0.05">
<path fill-rule="evenodd" clip-rule="evenodd" d="M464.896 428.476C460.633 416.836 450.479 418.861 445.056 380.207C444.089 373.31 447.232 358.876 447.92 350.25C449.234 333.759 458.528 302.246 458.528 302.246C458.528 302.246 464.659 287.923 462.101 266.754C459.542 245.585 452.185 234.908 449.057 212.609C446.776 196.348 450.139 181.483 448.184 167.552C446.23 153.622 441.754 134.621 430.941 135.468C285.265 146.878 232.07 202.829 185.793 242.599C112.413 305.662 -11.8783 308.542 56.8768 365.587C74.3177 380.057 87.0618 380.294 107.336 407.379C123.475 428.94 128.582 446.781 138.185 458.067C164.767 489.308 197.626 503.065 215.486 524.89C246.673 563.001 238.319 578.108 260.281 608.615C263.18 612.641 267.086 617.01 270.006 622.071C275.814 632.137 281.009 643.807 289.643 653.012C296.621 660.453 315.17 670.796 315.17 670.796L353.405 745.229C353.405 745.229 363.919 761.479 391.714 750.166C419.508 738.852 480.056 707.03 480.056 707.03C480.056 707.03 476.688 685.285 485.075 665.48C493.463 645.676 516.564 636.33 516.564 636.33C516.564 636.33 497.186 594.365 488.09 576.657C485.592 571.795 479.475 560.861 476.153 543.302C472.511 524.053 480.062 508.097 477.509 479.729C476.075 463.789 469.16 440.116 464.896 428.476Z" fill="#838ED9"/>
<path fill-rule="evenodd" clip-rule="evenodd" d="M332.769 134.02C331.213 134.916 332.372 137.615 334.142 137.91C335.839 138.192 337.433 137.186 338.9 136.259L339.09 136.139C354.517 126.425 376.685 129.326 389.092 142.682C388.252 144.619 386.717 146.141 385.188 147.656C383.484 149.346 381.787 151.028 381.069 153.271C380.441 155.232 380.664 157.351 380.895 159.398L382.948 177.645C383.197 179.865 383.752 182.501 385.836 183.303C390.379 185.051 392.939 191.071 390.489 195.278C388.039 199.485 380.822 199.836 378.432 195.595C378.254 195.281 378.102 194.948 377.949 194.616C377.616 193.891 377.284 193.168 376.7 192.639C375.937 191.945 374.876 191.708 373.866 191.496L353.342 187.183C352.053 186.912 350.728 186.64 349.428 186.854C346.779 187.291 344.875 189.606 343.483 191.901C343.262 192.265 343.045 192.636 342.828 193.007C341.674 194.977 340.503 196.977 338.628 198.236C336.4 199.733 332.764 199.549 331.64 197.111C325.74 184.323 321.079 169.671 325.657 156.353C325.785 155.98 325.92 155.607 326.056 155.233L326.056 155.233C326.751 153.315 327.457 151.369 327.233 149.364C326.965 146.969 324.643 144.604 322.357 145.368C320.896 145.857 319.979 147.361 319.1 148.802C318.045 150.533 317.044 152.175 315.221 151.856C314.5 151.73 313.888 151.273 313.307 150.829L295.452 137.201C292.418 137.069 291.406 141.595 292.965 144.201C293.738 145.491 294.829 146.543 295.919 147.594C297.031 148.665 298.142 149.737 298.916 151.06C302.014 156.361 298.588 162.984 295.072 168.018C282.489 186.037 267.715 202.524 251.18 217.002C250.421 217.666 249.581 218.359 248.575 218.427C247.283 218.514 246.183 217.556 245.247 216.66L220.783 193.268C218.813 191.385 216.75 188.294 218.566 186.261L268.981 129.793C269.782 128.895 270.633 127.963 271.767 127.56C274.097 126.732 276.548 128.429 278.207 130.263C278.466 130.549 278.722 130.843 278.98 131.139C280.377 132.744 281.813 134.394 283.836 134.909C286.233 135.52 289.291 133.027 288.044 130.891C278.081 120.456 267.817 109.529 263.37 95.8045C262.528 93.2076 261.917 90.3425 262.886 87.7903C265.042 82.1115 272.911 81.7644 278.864 82.9729C289.725 85.1779 300.209 89.2352 309.725 94.9169C311.62 96.0486 313.881 97.2843 315.908 96.4098C318.774 95.1735 318.56 90.9834 317.261 88.1456C317.055 87.6963 316.834 87.242 316.61 86.7838C315.421 84.3483 314.178 81.8037 315.029 79.3184C315.475 78.0127 316.45 76.9673 317.398 75.9647L365.475 25.1301C374.703 33.9895 383.729 43.0593 392.543 52.3301C393.414 53.2458 394.333 54.2755 394.405 55.5371C394.49 57.0313 393.37 58.2906 392.324 59.3615L344.495 108.355C342.455 110.444 338.801 109.258 336.7 107.232C335.94 106.499 335.261 105.672 334.585 104.848C333.391 103.392 332.201 101.943 330.578 101.028C328.034 99.594 323.815 100.661 323.782 103.581C323.763 105.241 325.103 106.576 326.419 107.589C327.447 108.381 328.533 109.12 329.618 109.858L329.618 109.858L329.618 109.858C332.411 111.759 335.204 113.66 337.016 116.466C340.67 122.123 338.604 130.659 332.769 134.02ZM374.248 187.443C374.466 187.494 374.691 187.546 374.912 187.511C375.544 187.411 375.867 186.626 375.714 186.005C375.56 185.384 375.084 184.903 374.628 184.455L362.457 172.504C361.823 171.881 361.05 171.21 360.171 171.338C359.485 171.437 358.973 171.999 358.522 172.526L352.679 179.347C352.374 179.703 352.057 180.084 351.983 180.546C351.78 181.81 353.345 182.543 354.591 182.835L374.248 187.443ZM364.803 166.738C364.901 166.331 365.188 166 365.465 165.687L373.712 156.379C374.438 156.072 374.968 157.1 375.093 157.878L378.501 179.164C378.668 180.207 378.829 181.307 378.453 182.294C372.917 178.967 368.298 174.131 365.23 168.447C364.944 167.918 364.664 167.323 364.803 166.738Z" fill="white"/>
<path fill-rule="evenodd" clip-rule="evenodd" d="M396.005 597.408C389.767 597.852 383.44 594.111 380.825 588.431C379.253 585.018 375.484 583.016 371.745 582.639C368.007 582.262 364.271 583.259 360.709 584.456C349.337 588.278 337.993 595.018 333.265 606.044C328.138 617.998 332.043 631.933 338.045 643.473C340.66 648.504 344.018 653.642 349.286 655.738C352.526 657.027 356.118 657.002 359.605 656.958C366.735 656.87 373.933 656.773 380.875 655.141C387.817 653.508 394.579 650.19 399.087 644.665C402.226 640.817 404.14 635.327 401.959 630.865C400.25 627.369 403.185 623.529 404.376 619.824C406.003 614.766 404.27 609.308 402.547 604.282C401.44 601.049 399.414 597.165 396.005 597.408Z" fill="white"/>
<path fill-rule="evenodd" clip-rule="evenodd" d="M472.08 460.45C469.164 448.621 466.248 436.792 463.332 424.963C466.91 426.646 468.438 430.83 469.571 434.618C476.232 456.899 481.082 480.325 477.734 503.338C474.226 527.454 477.994 552.581 488.423 574.606C485.519 574.827 483.522 571.819 482.308 569.171C474.125 551.331 470.944 531.228 473.217 511.732C474.223 503.107 476.274 494.565 476.244 485.881C476.215 477.27 474.141 468.811 472.08 460.45Z" fill="black"/>
<path fill-rule="evenodd" clip-rule="evenodd" d="M245.573 588.25C240.943 576.903 239.099 564.441 233.264 553.663C233.644 552.994 234.023 552.325 234.403 551.656C240.313 556.255 241.526 564.498 243.184 571.8C246.337 585.682 252.681 598.829 261.587 609.935C265.86 615.263 270.804 620.279 273.28 626.645C279.181 641.814 290.021 655.017 303.752 663.759C302.621 664.638 301.841 665.954 301.612 667.368C293.099 660.081 285.426 651.814 278.793 642.783C274.78 637.321 271.153 631.588 267.528 625.86C264.481 621.045 261.434 616.229 258.387 611.414C253.662 603.947 248.911 596.431 245.573 588.25V588.25Z" fill="black"/>
<path fill-rule="evenodd" clip-rule="evenodd" d="M75.7188 377.906C78.8096 379.566 81.9925 381.078 84.8903 383.055C88.7242 385.671 91.9738 389.041 95.158 392.417C104.783 402.624 114.165 413.239 121.052 425.462C124.26 431.156 126.9 437.157 130.144 442.831C140.309 460.61 156.086 474.605 173.19 485.87C174.52 486.746 175.927 487.683 176.592 489.131C177.256 490.579 176.77 492.672 175.24 493.117C158.067 479.459 140.536 465.403 129.078 446.689C123.974 438.352 120.189 429.258 114.998 420.974C109.835 412.735 103.352 405.41 96.7474 398.273C92.3538 393.526 87.8531 388.808 82.5642 385.084C74.2383 379.221 64.0059 375.836 57.2445 368.222C56.4241 367.298 55.8236 365.559 56.9665 365.089C62.7369 370.013 69.0353 374.318 75.7188 377.906Z" fill="black"/>
<path fill-rule="evenodd" clip-rule="evenodd" d="M191.193 765.395C195.128 762.632 197.897 758.261 198.713 753.523C199.245 753.469 199.776 753.414 200.308 753.36C203.216 756.931 208.509 758.33 212.802 756.661C214.123 756.148 215.361 757.966 214.938 759.319C214.514 760.672 213.202 761.507 212.015 762.283C210.526 763.257 209.063 764.344 208.058 765.812C207.052 767.28 206.563 769.2 207.168 770.873C207.611 772.099 206.429 773.444 205.135 773.604C203.841 773.764 202.592 773.085 201.559 772.289C200.527 771.494 199.583 770.546 198.394 770.014C197.002 769.391 195.414 769.402 193.895 769.529C192.947 769.608 191.967 769.724 191.067 769.418C190.167 769.112 189.378 768.231 189.532 767.293C189.673 766.439 190.485 765.892 191.193 765.395L191.193 765.395Z" fill="black"/>
<path fill-rule="evenodd" clip-rule="evenodd" d="M460.172 245.019C464.813 261.537 465.489 279.155 462.127 295.981C461.548 298.874 460.083 302.401 457.132 302.408C461.789 285.752 462.029 267.883 457.822 251.108C455.02 239.934 450.293 229.259 448.261 217.919C445.96 205.079 447.199 191.91 447.157 178.866C447.116 165.822 445.594 152.216 438.528 141.251C437.867 140.226 437.132 139.127 437.214 137.911C437.296 136.695 438.717 135.558 439.728 136.238C440.036 136.445 440.239 136.771 440.43 137.089C445.762 145.94 449.19 155.932 450.415 166.192C452.382 182.664 448.733 199.523 451.582 215.866C453.324 225.854 457.43 235.257 460.172 245.019Z" fill="black"/>
<path fill-rule="evenodd" clip-rule="evenodd" d="M160.817 231.336C162.346 230.936 164.468 230.248 165.11 231.692C165.708 233.04 164.03 234.186 162.776 234.961C159.404 237.048 157.406 241.163 157.853 245.103C158.03 246.663 155.611 247.269 154.351 246.333C153.091 245.396 152.594 243.77 151.688 242.488C150.277 240.49 147.872 239.377 145.454 239.002C143.037 238.628 140.571 238.904 138.141 239.182C137.526 239.252 137.007 238.612 137.002 237.993C136.996 237.373 137.359 236.812 137.768 236.347C140.571 233.162 145.819 232.787 148.178 229.259C149.274 227.62 149.597 225.47 151.033 224.119C152.209 224.852 152.482 226.402 153.061 227.661C154.357 230.485 157.811 232.121 160.817 231.336L160.817 231.336Z" fill="black"/>
<path fill-rule="evenodd" clip-rule="evenodd" d="M213.123 681.494C214.43 679.084 216.911 677.571 218.72 675.511C220.637 673.327 221.786 670.483 221.924 667.58C224.69 671.274 229.561 673.267 234.123 672.572C235.2 672.408 236.701 672.362 236.946 673.424C237.009 673.697 236.956 673.984 236.884 674.255C235.702 678.714 229.849 681.295 229.956 685.907C229.994 687.533 227.646 688.151 226.199 687.409C224.751 686.666 223.794 685.207 222.402 684.364C219.595 682.664 215.527 683.729 213.123 681.494V681.494Z" fill="black"/>
<path fill-rule="evenodd" clip-rule="evenodd" d="M142.703 585.965C143.44 586.882 142.996 588.299 142.189 589.156C141.383 590.013 140.288 590.549 139.453 591.378C137.302 593.514 137.211 597.2 134.885 599.143C134.147 599.761 133.011 600.13 132.244 599.548C131.939 599.316 131.745 598.97 131.527 598.655C129.97 596.406 127.038 595.577 124.311 595.348C121.585 595.12 118.774 595.321 116.18 594.451C115.535 594.235 114.868 593.917 114.534 593.324C114.199 592.731 114.392 591.814 115.046 591.624C117.427 590.932 119.808 590.24 122.188 589.549C123.566 589.148 124.991 588.723 126.073 587.781C127.155 586.84 127.794 585.226 127.177 583.932C126.748 583.031 127.972 582.091 128.947 582.299C129.923 582.508 130.623 583.329 131.382 583.976C133.273 585.59 135.934 586.258 138.363 585.73C139.865 585.403 141.739 584.767 142.703 585.965V585.965Z" fill="black"/>
<path fill-rule="evenodd" clip-rule="evenodd" d="M345.63 722.874C344.839 721.863 346.613 720.508 347.755 721.094C348.896 721.68 349.289 723.082 349.669 724.308C352.079 732.091 358.379 738.21 365.552 742.075C369.31 744.099 373.695 745.618 377.808 744.472C380.04 743.85 382.731 742.575 384.389 744.193C382.432 746.625 379.534 748.279 376.444 748.727C370.994 749.517 365.714 746.685 361.118 743.65C355.838 740.164 350.5 735.802 348.956 729.666C348.337 727.203 347.196 724.873 345.63 722.874Z" fill="black"/>
<path fill-rule="evenodd" clip-rule="evenodd" d="M502.1 295.62C499.376 293.118 495.693 291.688 491.995 291.695C490.601 291.698 490.232 289.503 491.215 288.514C492.198 287.526 493.731 287.426 495.117 287.275C496.922 287.079 498.781 286.663 500.2 285.53C501.619 284.397 502.467 282.384 501.781 280.702C501.511 280.041 502.184 279.293 502.897 279.244C503.609 279.196 504.265 279.627 504.79 280.111C506.837 281.998 508.062 285.083 510.77 285.729C511.725 285.957 512.725 285.827 513.706 285.876C514.687 285.925 515.749 286.216 516.303 287.027C516.857 287.838 516.511 289.231 515.539 289.37C512.152 289.856 509.046 292.016 507.411 295.022C506.938 295.893 506.481 296.921 505.54 297.231C504.273 297.65 503.083 296.522 502.1 295.62L502.1 295.62Z" fill="black"/>
<path fill-rule="evenodd" clip-rule="evenodd" d="M374.746 714.206C376.857 710.382 377.816 705.931 377.469 701.577C377.39 700.584 378.883 700.445 379.844 700.706C382.59 701.453 385.336 702.2 388.082 702.947C388.898 702.199 389.854 701.4 390.957 701.493C392.061 701.585 392.877 703.212 391.953 703.822C388.376 706.181 386.733 711.098 388.172 715.133C386.677 715.13 385.265 714.505 383.829 714.092C380.877 713.242 377.675 713.282 374.746 714.206Z" fill="black"/>
<path fill-rule="evenodd" clip-rule="evenodd" d="M449.429 484.957C446.054 486.918 444.036 490.987 444.517 494.86C440.904 496.445 437.159 492.335 433.216 492.474C432.398 492.503 431.583 492.719 430.77 492.622C429.957 492.524 429.102 491.974 429.044 491.157C431.631 489.645 433.714 487.285 434.891 484.53C435.197 483.814 435.463 483.044 436.031 482.513C436.6 481.981 437.599 481.806 438.126 482.379C440.841 485.325 445.433 485.252 449.429 484.957Z" fill="black"/>
<path fill-rule="evenodd" clip-rule="evenodd" d="M442.525 630.263C442.191 629.765 442.025 629.158 442.059 628.559C445.941 627.55 449.062 624.079 449.655 620.113C453.329 621.337 457.27 621.755 461.12 621.329C461.482 621.667 461.224 622.264 460.951 622.677C458.776 625.963 456.601 629.248 454.426 632.534C451.026 630.13 446.571 629.28 442.525 630.263Z" fill="black"/>
<path fill-rule="evenodd" clip-rule="evenodd" d="M353.359 244.827C353.149 245.347 352.955 245.911 353.075 246.459C353.182 246.952 353.532 247.37 353.613 247.868C353.693 248.366 353.241 248.996 352.787 248.776C349.57 244.341 343.556 243.202 338.135 242.406C337.636 242.221 337.658 241.437 338.05 241.077C338.442 240.717 339.013 240.655 339.539 240.579C341.824 240.245 344.056 239.249 345.616 237.548C347.176 235.847 347.987 233.402 347.466 231.154C350.332 234.273 353.736 237.638 357.972 237.572C356.007 239.681 354.435 242.153 353.359 244.827L353.359 244.827Z" fill="black"/>
<path fill-rule="evenodd" clip-rule="evenodd" d="M491.876 610.146C488.351 604.024 484.616 597.674 478.703 593.809C477.987 593.342 477.2 592.864 476.872 592.074C476.545 591.285 477.029 590.131 477.883 590.181C482.039 590.422 485.011 594.15 487.418 597.547C488.881 599.613 490.345 601.679 491.808 603.745C492.532 604.767 493.277 605.84 493.46 607.079C493.643 608.318 493.069 609.766 491.876 610.146L491.876 610.146Z" fill="black"/>
<path fill-rule="evenodd" clip-rule="evenodd" d="M449.029 356.538C447.62 355.862 447.338 354.009 447.282 352.447C447.018 345.112 447.677 337.743 449.237 330.57C450.488 324.818 452.326 319.173 454.996 313.927C456.038 318.798 454.256 323.762 453.009 328.585C451.299 335.193 450.573 342.01 449.851 348.798C449.577 351.378 449.303 353.958 449.029 356.538Z" fill="black"/>
<path fill-rule="evenodd" clip-rule="evenodd" d="M437.784 721.288C434.034 723.48 430.217 725.557 426.34 727.513C425.386 727.994 424.429 728.468 423.472 728.942C415.493 732.892 407.511 736.844 399.39 740.492C398.442 740.918 396.787 740.847 396.967 739.824C397.041 739.404 397.452 739.143 397.825 738.935C405.674 734.554 413.524 730.172 421.373 725.79C426.656 722.841 432.157 719.824 438.191 719.379C438.644 719.345 438.922 719.948 438.759 720.373C438.595 720.797 438.177 721.059 437.784 721.288Z" fill="black"/>
<path fill-rule="evenodd" clip-rule="evenodd" d="M457.73 592.798C459.113 592.261 461.381 592.292 461.323 593.775C446.187 600.347 430.96 606.708 415.647 612.856C415.132 613.063 414.578 613.273 414.036 613.154C413.494 613.035 413.026 612.431 413.262 611.928C413.38 611.676 413.633 611.52 413.873 611.38C421.73 606.793 430.251 603.478 438.731 600.182C445.064 597.721 451.397 595.26 457.73 592.798Z" fill="black"/>
<path fill-rule="evenodd" clip-rule="evenodd" d="M316.554 754.839C317.126 755.404 317.698 755.969 318.27 756.534C309.987 771.892 306.128 789.604 307.27 807.016C306.522 807.366 305.699 807.553 304.874 807.56C302.808 791.965 305.349 775.788 312.098 761.578C313.261 759.131 314.58 756.694 316.554 754.839Z" fill="black"/>
<path fill-rule="evenodd" clip-rule="evenodd" d="M607.348 667.314C594.059 649.044 576.335 634.024 556.133 623.911C552.092 621.888 547.956 620.059 543.823 618.232C542.13 617.483 540.438 616.735 538.745 615.987C543.448 613.682 548.974 616.256 553.559 618.786C574.126 630.133 595.78 642.549 606.928 663.224C607.618 664.504 608.238 666.164 607.348 667.314L607.348 667.314Z" fill="black"/>
<path fill-rule="evenodd" clip-rule="evenodd" d="M350.446 607.711C349.692 606.384 350.101 604.713 350.659 603.292C351.868 600.217 353.809 597.286 356.698 595.682C359.586 594.078 363.535 594.118 365.931 596.393C367.178 597.577 367.21 599.633 366.472 601.186C365.734 602.739 364.393 603.905 363.088 605.025C360.406 607.326 357.324 609.767 353.799 609.519C352.479 609.425 351.1 608.861 350.446 607.711L350.446 607.711Z" fill="#F59292"/>
<path fill-rule="evenodd" clip-rule="evenodd" d="M414.796 862.71C414.578 865.324 413.01 867.788 410.734 869.093C408.459 870.397 405.54 870.505 403.174 869.372C400.255 867.974 398.438 864.982 397.248 861.972C396.038 858.909 395.302 855.66 395.074 852.374C394.988 851.122 394.986 849.808 395.546 848.684C395.977 847.816 396.713 847.132 397.515 846.587C400.221 844.749 403.869 844.388 406.883 845.659C409.897 846.93 412.184 849.795 412.756 853.016C413.336 856.285 415.072 859.402 414.796 862.71M407.073 859.543C406.604 857.131 405.985 854.749 405.22 852.415C404.909 851.466 404.522 850.457 403.684 849.916C402.845 849.374 401.444 849.652 401.242 850.629C400.467 854.368 401.541 858.445 404.058 861.318C404.64 861.982 405.519 862.632 406.332 862.287C407.28 861.885 407.269 860.553 407.073 859.543L407.073 859.543Z" fill="black"/>
<path fill-rule="evenodd" clip-rule="evenodd" d="M315.022 699.879C314.99 699.464 315.547 699.213 315.933 699.369C316.264 699.502 316.482 699.806 316.666 700.119L329.232 722.482V722.482C329.734 723.375 329.766 725.034 328.753 724.88C328.346 724.817 328.088 724.422 327.884 724.065C323.349 716.138 319.059 708.071 315.022 699.879Z" fill="black"/>
<path fill-rule="evenodd" clip-rule="evenodd" d="M336.115 618.873C336.658 621.707 337.934 624.387 339.728 626.647C341.163 628.454 340.927 631.025 340.619 633.312C340.321 635.522 340.024 637.731 339.726 639.941C339.1 640.164 338.565 639.455 338.281 638.854C335.473 632.904 333.203 626.574 332.877 620.002C332.552 613.431 334.357 606.554 338.833 601.731C336.936 607.271 335.014 613.122 336.115 618.873Z" fill="black"/>
<path fill-rule="evenodd" clip-rule="evenodd" d="M355.811 641.878C360.795 640.918 366.179 642.297 370.088 645.534C371.109 646.379 372.097 647.496 372.073 648.822C372.049 650.163 370.932 651.299 369.659 651.721C368.386 652.144 366.996 651.986 365.684 651.705C361.614 650.832 357.802 648.784 354.826 645.872C354.072 645.134 353.319 644.08 353.737 643.111C354.07 642.341 354.988 642.036 355.811 641.878V641.878Z" fill="#F59292"/>
<path fill-rule="evenodd" clip-rule="evenodd" d="M544.517 450.778C543.692 456.33 540.672 462.698 535.077 463.154C531.2 463.469 527.791 460.725 525.058 457.957C521.303 454.155 517.922 449.984 514.98 445.523C512.982 442.493 510.586 438.958 506.959 438.827C485.755 438.06 465.497 424.856 456.082 405.841C446.668 386.825 448.409 362.807 460.325 345.251C462.688 341.77 465.537 337.487 463.63 333.737C459.797 326.199 456.708 317.606 458.772 309.406C459.535 306.377 461.507 303.152 464.616 302.862C466.089 302.725 467.53 303.29 468.876 303.904C477.239 307.719 484.503 313.91 489.597 321.562C492.118 325.348 496.554 327.442 500.986 328.469C505.417 329.495 510.009 329.633 514.477 330.488C532.226 333.886 546.545 349.029 551.16 366.502C555.775 383.975 551.456 403.1 541.74 418.339C540.632 420.078 539.415 422.218 540.328 424.067C544.378 432.274 545.86 441.725 544.517 450.778M525.061 425.881C525.365 424.933 525.235 423.906 525.085 422.922C521.841 401.615 511.196 382.26 500.73 363.419C496.191 355.247 491.652 347.076 487.113 338.904C486.186 337.235 485.05 335.403 483.188 334.985C481.965 334.71 480.699 335.126 479.537 335.597C469.382 339.714 461.482 348.543 457.456 358.735C453.431 368.927 453.087 380.355 455.368 391.074C458.483 405.713 466.797 419.578 479.473 427.536C492.149 435.495 509.3 436.731 522.092 428.959C523.337 428.202 524.614 427.268 525.061 425.881M500.112 335.442C515.407 358.68 527.38 384.101 535.555 410.693C536.124 412.547 538.764 413.008 540.43 412.016C542.095 411.023 542.982 409.139 543.714 407.343C548.137 396.495 550.416 384.604 548.956 372.98C547.497 361.357 542.08 350.04 533.054 342.572C524.028 335.104 511.282 331.912 500.112 335.442M536.621 458.394C538.536 457.453 539.431 455.234 539.912 453.155C541.797 445.005 539.825 436.499 537.559 428.447C528.415 395.95 514.324 364.85 495.922 336.547C488.55 325.208 479.94 313.854 467.628 308.256C466.56 307.77 465.379 307.324 464.241 307.603C461.843 308.193 461.309 311.354 461.537 313.812C462.103 319.902 464.291 325.708 466.46 331.427C467.216 333.421 468.696 335.834 470.773 335.348C473.052 334.814 473.031 331.516 472.12 329.359C471.21 327.203 470.002 324.545 471.502 322.748C473.552 320.289 477.448 322.733 479.503 325.188C495.027 343.745 505.87 365.68 516.563 387.383C519.086 392.503 521.615 397.638 523.528 403.015C525.171 407.632 526.349 412.398 527.525 417.155C528.624 421.605 529.724 426.055 530.824 430.505C531.381 432.76 531.941 435.109 531.46 437.381C530.978 439.654 529.124 441.815 526.801 441.836C524.23 441.858 522.407 439.485 520.472 437.792C518.537 436.099 514.986 435.26 513.802 437.542C517.665 444.2 522.529 450.277 528.178 455.506C530.506 457.66 533.774 459.792 536.621 458.394M480.223 330.756C478.774 329.046 477.324 327.335 475.875 325.624C475.432 325.101 474.749 324.525 474.148 324.856C473.621 325.145 473.629 325.89 473.707 326.486C473.933 328.203 474.257 330.099 475.617 331.172C476.952 332.224 479.099 332.031 480.223 330.756M525.852 437.838C526.022 437.956 526.2 438.075 526.404 438.108C527.279 438.251 527.542 436.89 527.147 436.096C526.752 435.302 526.083 434.437 526.464 433.636C527.013 432.483 525.361 431.205 524.21 431.761C523.06 432.316 522.757 433.92 523.25 435.099C523.742 436.277 524.802 437.11 525.852 437.838L525.852 437.838Z" fill="black"/>
<path fill-rule="evenodd" clip-rule="evenodd" d="M386.716 608.314C387.294 609.677 387.389 611.437 386.332 612.475C385.509 613.284 384.225 613.413 383.085 613.236C381.408 612.974 379.774 612.085 378.9 610.631C378.025 609.176 378.069 607.139 379.226 605.899C380.289 604.759 382.093 604.491 383.548 605.049C385.003 605.607 386.108 606.879 386.716 608.314L386.716 608.314Z" fill="#F59292"/>
<path fill-rule="evenodd" clip-rule="evenodd" d="M376.65 615.449C377.486 615.652 378.308 616.173 378.584 616.988C379.042 618.341 377.829 619.683 376.585 620.385C375.394 621.056 374.067 621.486 372.708 621.64C372.306 621.686 371.796 621.647 371.643 621.272C371.045 619.811 371.335 618.025 372.364 616.828C373.394 615.631 375.115 615.077 376.65 615.449L376.65 615.449Z" fill="#F59292"/>
<path fill-rule="evenodd" clip-rule="evenodd" d="M539.272 352.627C539.81 353.479 540.131 354.861 539.215 355.282C536.822 352.314 534.428 349.346 532.035 346.378C534.991 347.689 537.543 349.894 539.272 352.627Z" fill="#E7EAEE"/>
<path fill-rule="evenodd" clip-rule="evenodd" d="M385.915 633.737C386.849 632.668 387.984 631.683 389.368 631.368C390.753 631.052 392.411 631.599 392.989 632.896C393.553 634.162 392.96 635.628 392.273 636.831C391.491 638.199 390.521 639.543 389.118 640.261C387.715 640.978 385.79 640.877 384.786 639.662C383.39 637.972 384.473 635.389 385.915 633.737L385.915 633.737Z" fill="#F59292"/>
<path fill-rule="evenodd" clip-rule="evenodd" d="M538.55 408.093C539.86 406.495 541.171 404.896 542.481 403.298C542.691 403.042 543.178 403.132 543.282 403.446C542.413 406.341 540.684 408.971 538.372 410.917C537.309 410.567 537.84 408.959 538.55 408.093L538.55 408.093Z" fill="#E7EAEE"/>
<path fill-rule="evenodd" clip-rule="evenodd" d="M538.889 814.492C537.574 816.01 536.012 817.484 534.042 817.879C532.771 818.133 531.448 817.908 530.212 817.517C525.294 815.965 521.432 811.796 519.637 806.962C517.843 802.128 517.975 796.716 519.355 791.747C519.857 789.942 520.559 788.115 521.914 786.821C524.032 784.797 527.375 784.512 530.162 785.413C532.95 786.315 535.292 788.215 537.473 790.17C539.482 791.971 541.479 793.946 542.417 796.477C542.921 797.838 543.093 799.296 543.261 800.739C543.43 802.184 543.598 803.641 543.479 805.092C543.187 808.626 541.211 811.811 538.889 814.492M528.737 806.236C527.763 807.586 526.85 809.637 528.124 810.708C529.216 811.625 530.536 812.269 531.931 812.564C531.678 810.162 530.52 807.866 528.737 806.236M522.676 803.55C523.228 804.953 523.818 806.41 524.941 807.415C525.646 806.497 526.287 805.46 526.371 804.306C526.454 803.151 525.81 801.874 524.689 801.585C523.568 801.296 522.251 802.473 522.676 803.55M532.034 798.189C532.922 798.176 533.846 798.155 534.637 797.752C535.428 797.349 536.038 796.441 535.799 795.585C535.456 794.359 533.744 794.041 533.179 792.9C532.456 794.565 532.064 796.374 532.034 798.189M524.12 793.541C524.28 792.53 523.284 791.512 522.27 791.65C521.76 794.175 523.494 796.944 525.987 797.589C526.082 796.071 525.351 794.526 524.116 793.637M535.605 800.502C535.328 800.661 535.047 800.878 534.98 801.191C534.764 802.205 536.593 802.2 537.209 803.035C537.789 803.821 539.219 803.496 539.571 802.584C539.923 801.672 539.314 800.582 538.416 800.196C537.518 799.809 536.453 800.015 535.605 800.502M534.378 807.912C535.244 808.678 535.127 810.313 536.185 810.78C537.109 811.188 538.179 810.16 538.119 809.151C538.059 808.143 537.243 807.331 536.355 806.848C535.868 806.583 535.284 806.384 534.767 806.583C534.25 806.782 533.963 807.545 534.378 807.912M528.678 790.324C528.309 790.048 527.941 789.772 527.573 789.496C526.882 790.443 527.259 791.761 527.662 792.862C527.786 793.202 527.927 793.564 528.226 793.768C528.921 794.242 529.901 793.42 529.902 792.579C529.902 791.737 529.314 791.026 528.758 790.394L528.678 790.324Z" fill="black"/>
<path fill-rule="evenodd" clip-rule="evenodd" d="M288.715 393.278C286.156 397.043 283.597 400.808 281.038 404.573C280.205 405.8 278.225 407.01 277.559 405.685C280.075 403.862 280.923 400.46 280.849 397.354C280.775 394.247 279.968 391.187 279.964 388.08C279.96 385.136 280.675 382.246 281.28 379.365C284.62 363.474 284.717 347.052 287.806 331.111C287.987 330.175 288.303 329.091 289.2 328.771C290.203 328.413 291.218 329.26 291.855 330.113C295.129 334.488 295.14 341.021 291.882 345.408C290.311 347.523 292.014 350.391 293.071 352.804C295.02 357.25 294.597 362.328 294.138 367.16C293.652 372.275 293.166 377.389 292.68 382.503C292.511 384.286 292.337 386.087 291.764 387.784C291.092 389.774 289.897 391.54 288.715 393.278M291.551 336.008C291.086 335.271 290.085 336.325 289.909 337.178C288.178 345.57 286.527 354.078 286.902 362.639C287.096 367.079 286.709 371.545 285.751 375.885C284.468 381.704 282.167 387.751 283.974 393.429C287.065 392.483 288.819 389.125 289.24 385.92C289.66 382.715 289.095 379.461 289.26 376.233C289.467 372.181 290.814 368.282 291.485 364.281C292.155 360.28 292.05 355.861 289.677 352.57C287.995 350.24 288.392 347.011 289.295 344.283C290.198 341.554 291.545 338.882 291.551 336.008Z" fill="black"/>
<path fill-rule="evenodd" clip-rule="evenodd" d="M297.639 127.488C295.287 125.249 292.936 123.01 290.585 120.77C289.91 120.128 289.204 119.432 288.994 118.524C288.687 117.191 289.537 115.891 290.359 114.797C293.195 111.024 296.221 107.396 299.423 103.929C300.203 103.085 301.585 103.815 302.461 104.558C305.348 107.003 308.235 109.447 311.122 111.892C311.852 112.51 312.615 113.176 312.913 114.086C313.375 115.498 312.581 116.985 311.815 118.258C310.194 120.956 308.573 123.653 306.952 126.351C305.979 127.969 304.783 129.747 302.921 130.063C300.914 130.404 299.113 128.892 297.639 127.488M296.171 114.771C295.465 115.609 294.715 116.576 294.816 117.667C294.895 118.516 295.476 119.222 296.032 119.869C297.024 121.024 298.016 122.179 299.008 123.334C299.397 123.788 299.812 124.259 300.372 124.466C301.802 124.993 303.163 123.605 304.06 122.373C305.376 120.566 306.693 118.758 308.009 116.95C308.413 116.396 308.839 115.743 308.678 115.076C308.564 114.605 308.181 114.254 307.81 113.942C306.393 112.753 304.867 111.694 303.257 110.783C302.118 110.138 300.498 109.642 299.654 110.643C298.493 112.019 297.332 113.395 296.171 114.771L296.171 114.771Z" fill="#F59292"/>
<path fill-rule="evenodd" clip-rule="evenodd" d="M185.855 308.251C203.625 295.636 227.051 295.39 248.843 295.629C255.724 275.565 267.979 257.372 283.987 243.455C288.964 239.129 295.152 234.986 301.642 236.157C309.515 237.579 313.879 245.967 316.416 253.555C322.769 272.555 325.087 292.894 323.17 312.837C322.447 320.365 321.458 328.978 326.588 334.536C349.214 359.052 356.128 396.439 345.346 428.009C334.564 459.58 307.127 484.518 275.12 493.925C269.008 495.721 265.476 501.894 262.268 507.397C251.289 526.234 237.014 543.144 220.287 557.129C213.297 562.974 204.524 568.612 195.686 566.396C185.475 563.836 180.602 552.23 178.71 541.875C174.505 518.867 177.677 494.568 187.646 473.41C169.193 462.406 154.803 444.75 147.747 424.456C140.691 404.162 141.025 381.388 148.673 361.309C152.471 351.336 157.969 342.099 163.85 333.194C169.996 323.887 176.76 314.707 185.855 308.251M294.051 276.295C300.967 279.532 303.707 287.853 304.969 295.383C308.804 318.258 305.652 341.66 302.497 364.638C300.297 380.662 298.081 396.762 293.437 412.254C290.617 421.66 286.92 430.779 283.062 439.809C269.272 472.088 251.299 505.571 219.865 521.195C213.725 524.246 205.808 520.94 202.025 515.222C198.241 509.504 197.872 502.133 198.98 495.367C199.556 491.854 200.494 488.268 199.75 484.787C199.006 481.306 195.842 477.996 192.334 478.6C188.642 479.235 186.91 483.448 185.952 487.069C180.533 507.558 178.887 529.493 184.712 549.871C185.945 554.185 187.729 558.701 191.476 561.17C198.26 565.641 207.261 561.215 213.78 556.365C241.219 535.949 261.751 507.293 276.447 476.41C291.142 445.528 300.314 412.328 308.129 379.032C317.592 338.715 325.111 296.081 313.452 256.344C312.285 252.37 310.877 248.349 308.21 245.181C305.543 242.012 301.356 239.828 297.284 240.585C294.534 241.096 292.191 242.836 290.021 244.601C273.331 258.181 260.407 276.342 253.045 296.561C256.653 296.988 260.261 297.415 263.868 297.842C266.806 291.591 269.868 285.168 274.973 280.514C280.078 275.861 287.795 273.367 294.051 276.295M250.553 301.396C249.395 300.471 247.84 300.256 246.366 300.105C230.521 298.488 214.316 300.499 199.347 305.94C201.648 311.76 203.949 317.579 206.25 323.399C207.345 326.167 208.448 328.969 208.855 331.918C209.349 335.499 208.795 339.131 208.727 342.745C208.577 350.827 210.858 358.733 213.118 366.493C213.992 369.493 213.102 372.708 211.987 375.627C204.158 396.141 185.545 411.385 178.989 432.34C178.29 434.575 177.72 436.893 176.465 438.869C173.916 442.886 168.907 444.931 166.647 449.117C178.219 444.497 186.224 433.817 192.218 422.893C198.212 411.969 202.909 400.179 210.832 390.561C214.89 385.634 215.895 378.873 215.867 372.489C215.84 366.106 214.944 359.683 215.854 353.365C216.546 348.555 218.279 343.728 217.358 338.956C216.503 334.524 213.488 330.866 211.512 326.807C208.621 320.869 207.982 314.123 207.389 307.545C207.269 306.217 207.406 304.482 208.685 304.106C210.22 303.655 211.236 305.677 211.478 307.258C212.652 314.927 212.058 323.702 217.439 329.291C221.599 333.612 222.269 340.236 221.597 346.197C220.926 352.158 219.153 358.024 219.318 364.021C219.435 368.28 220.531 372.483 220.435 376.743C220.166 388.636 211.03 398.112 204.798 408.245C200.01 416.031 196.782 424.684 192.14 432.558C187.499 440.433 181.001 447.788 172.304 450.602C170.053 451.33 171.199 454.739 172.721 456.551C176.453 460.99 180.237 465.479 184.955 468.852C189.672 472.225 195.5 474.417 201.248 473.651C209.241 472.587 215.932 465.264 216.271 457.207C216.559 450.387 229.04 448.729 228.388 441.934C227.968 437.566 232.517 434.624 236.132 432.135C239.746 429.647 243.187 424.636 240.337 421.299C238.482 419.128 239.758 415.855 240.764 413.183C241.77 410.51 241.903 406.635 239.209 405.687C239.052 410.924 232.348 414.685 227.798 412.088C224.369 410.132 222.996 405.918 222.348 402.024C221.588 397.458 221.463 392.598 223.372 388.381C225.282 384.165 229.656 380.807 234.261 381.282C239.605 381.832 245.148 380.065 249.187 376.522C247.341 374.377 245.495 372.232 243.648 370.087C241.171 367.208 238.632 364.22 237.505 360.593C236.379 356.966 237.038 352.501 240.075 350.222C243.117 347.939 247.352 348.499 251.096 349.166C247.889 343.258 247.927 335.712 251.193 329.836C255.494 322.1 255.975 312.355 252.457 304.233C251.999 303.177 251.452 302.114 250.553 301.396M159.672 349.049C159.16 350.333 158.718 351.923 159.597 352.991C162.729 356.798 162.956 362.214 162.308 367.102C161.661 371.989 160.288 376.861 160.768 381.768C161.13 385.46 162.529 388.979 163.045 392.653C164.273 401.382 160.471 409.947 156.761 417.943C156.285 418.969 155.763 420.05 154.811 420.662C153.86 421.274 152.348 421.154 151.859 420.135C158.881 411.53 161.497 399.508 158.687 388.763C157.915 385.812 156.756 382.928 156.545 379.885C156.245 375.549 157.888 371.345 158.642 367.065C159.396 362.784 158.978 357.754 155.587 355.035C140.112 382.521 143.173 419.307 162.978 443.859C163.285 444.239 163.768 444.657 164.197 444.424C171.143 440.669 174.046 432.448 177.326 425.266C184.759 408.995 196.662 395.22 205.728 379.799C208.494 375.094 211.053 369.413 208.975 364.367C206.002 357.148 204.664 349.262 205.088 341.466C205.274 338.039 205.795 334.584 205.26 331.193C204.158 324.216 198.733 318.37 198.228 311.325C198.081 309.275 195.76 307.942 193.713 308.126C191.666 308.311 189.892 309.569 188.274 310.837C175.603 320.764 165.625 334.094 159.672 349.049M317.493 439.407C320.391 432.651 316.544 424.742 318.156 417.569C318.938 414.09 320.999 410.816 320.742 407.259C320.517 404.131 318.509 401.337 318.312 398.208C318.124 395.234 319.582 392.442 320.775 389.712C325.516 378.864 326.479 366.407 323.462 354.96C322.668 351.949 324.213 348.879 324.746 345.812C325.279 342.744 323.864 338.665 320.75 338.687C318.337 356.089 313.96 373.15 309.592 390.166C300.548 425.393 291.282 461.167 272.696 492.428C277.922 489.997 283.148 487.565 288.375 485.134C294.884 482.106 301.421 479.063 307.422 475.123C331.177 459.528 344.174 431.037 346.824 402.745C347.995 390.245 347.283 377.178 341.747 365.91C342.198 373.868 336.024 380.601 334.106 388.337C332.127 396.323 334.663 405.451 330.436 412.509C325.299 421.086 329.304 434.252 321.441 440.428C319.971 441.583 316.756 441.125 317.493 439.407M236.739 467.948C240.699 467.318 244.247 464.532 245.799 460.835C246.539 459.072 246.876 457.088 248.08 455.602C249.507 453.842 252.098 453.134 254.222 453.925C257.792 455.254 258.946 459.73 258.969 463.54C258.981 465.635 258.798 467.771 257.997 469.708C256.934 472.278 254.882 474.281 253.126 476.438C249.337 481.093 246.783 486.744 245.794 492.664C250.058 491.619 252.861 487.65 255.17 483.916C265.216 467.666 273.404 450.335 280.87 432.749C283.308 427.006 285.673 421.228 287.693 415.325C295.097 393.692 297.754 370.769 300.366 348.054C301.31 339.842 302.254 331.631 303.198 323.419C303.328 322.285 303.447 321.079 302.945 320.053C302.404 318.947 301.258 318.29 300.174 317.704C292.422 313.512 284.522 309.592 276.494 305.955C276.108 305.78 275.675 305.602 275.272 305.733C274.731 305.909 274.508 306.538 274.357 307.087C271.889 316.115 269.421 325.143 266.953 334.17C266.51 335.792 266.063 337.479 266.353 339.135C266.698 341.111 268.033 342.743 268.955 344.524C274.698 355.612 263.834 369.395 267.787 381.239C269.09 385.143 271.883 388.353 273.735 392.028C275.587 395.702 276.33 400.524 273.677 403.67C272.14 405.491 269.792 406.362 267.75 407.591C265.708 408.82 263.756 410.846 263.99 413.217C264.105 414.38 264.735 415.42 265.113 416.525C266.604 420.885 264.027 425.606 260.862 428.954C257.697 432.302 253.787 435.093 251.645 439.172C249.206 443.816 249.376 449.578 246.523 453.979C243.631 458.44 238.107 460.736 235.438 465.334C234.975 466.131 234.699 467.335 235.481 467.824C235.846 468.053 236.313 468.016 236.739 467.948M253.158 353.664C250.589 354.88 247.633 352.097 244.866 352.745C241.457 353.545 241.29 358.447 242.688 361.656C244.032 364.738 246.086 367.508 248.644 369.689C251.593 372.202 255.674 375.598 253.801 378.99C253.309 379.881 252.463 380.517 251.616 381.082C246.242 384.667 239.724 386.509 233.268 386.267C230.061 386.148 227.353 388.987 226.509 392.083C225.665 395.18 226.239 398.464 226.817 401.621C227.184 403.624 227.64 405.788 229.178 407.122C230.717 408.456 233.687 408.187 234.208 406.218C234.966 403.356 238.145 401.372 241.048 401.95C244.599 404.649 244.868 409.796 244.819 414.256C244.782 417.711 244.745 421.166 244.707 424.62C244.68 427.141 244.608 429.814 243.237 431.93C240.556 436.065 233.648 436.985 232.76 441.834C232.522 443.136 232.813 444.488 232.6 445.794C231.535 452.331 219.722 452.957 219.516 459.577C219.189 470.069 208.527 479.013 198.138 477.51C211.768 485.28 226.701 490.756 242.122 493.64C242.511 486.844 245.003 480.183 249.169 474.799C251.256 472.102 253.817 469.597 254.76 466.32C255.703 463.043 254.088 458.696 250.7 458.309C250.837 462.256 248.368 465.867 245.389 468.46C243.345 470.239 240.911 471.728 238.215 471.997C235.518 472.267 232.552 471.065 231.359 468.632C229.771 465.395 231.786 461.48 234.439 459.039C237.091 456.598 240.432 454.872 242.609 451.999C244.811 449.094 245.555 445.383 246.73 441.932C248.508 436.708 251.4 431.866 255.157 427.823C257.772 425.009 261.011 422.13 261.122 418.29C261.224 414.775 258.579 411.249 259.865 407.976C261.779 403.109 270.59 403.377 271.376 398.207C271.722 395.932 270.17 393.866 268.885 391.958C262.892 383.06 261.37 371.303 264.899 361.172C265.833 358.491 267.117 355.814 266.989 352.978C266.784 348.403 263.011 344.764 261.918 340.316C260.657 335.184 263.105 329.975 264.986 325.036C267.078 319.545 268.526 313.809 269.292 307.982C269.427 306.96 269.528 305.863 269.053 304.947C268.468 303.821 267.177 303.277 265.963 302.907C262.638 301.892 259.114 301.531 255.652 301.849C258.569 311.311 261.301 322.282 255.826 330.532C253.159 334.552 252.385 339.773 253.772 344.394C254.752 347.66 256.241 352.205 253.158 353.664M227.484 510.764C231.989 507.044 236.493 503.323 240.997 499.603C241.547 499.148 242.153 498.421 241.778 497.813C241.557 497.456 241.094 497.351 240.68 497.276C228.525 495.086 216.668 491.252 205.533 485.911C204.749 485.535 204.095 486.615 203.889 487.459C203.277 489.964 202.664 492.475 202.32 495.03C201.648 500.026 202.025 505.161 203.419 510.005C204.393 513.389 206.244 516.988 209.617 518.001C211.168 518.467 212.839 518.307 214.424 517.975C216.774 517.483 219.046 516.62 221.131 515.429C223.415 514.124 225.456 512.439 227.484 510.764M295.455 281.162C292.97 277.9 287.995 277.446 284.237 279.088C280.48 280.73 277.694 283.977 275.196 287.229C272.453 290.799 269.887 294.505 267.51 298.329C279.24 302.476 290.668 307.476 301.676 313.275C302.378 313.644 303.283 313.108 303.593 312.378C303.904 311.648 303.789 310.815 303.662 310.032C302.283 301.497 300.14 293.085 297.265 284.93C296.8 283.61 296.304 282.275 295.455 281.162M322.917 424.225C322.628 419.101 325.996 414.577 327.578 409.694C330.531 400.573 327.258 389.965 331.627 381.431C332.971 378.804 334.982 376.533 336.077 373.792C337.262 370.825 337.285 367.535 337.151 364.343C336.879 357.878 335.535 350.599 330.12 347.057C329.813 346.857 329.486 346.667 329.124 346.613C327.291 346.341 326.88 349.106 327.24 350.923C330.104 365.372 330.022 381.05 323.073 394.038C321.252 397.441 324.082 401.378 324.701 405.187C325.339 409.115 323.551 412.969 322.516 416.812C321.074 422.165 321.094 427.905 322.572 433.249C324.511 430.83 323.091 427.321 322.917 424.225L322.917 424.225Z" fill="black"/>
<path fill-rule="evenodd" clip-rule="evenodd" d="M326.925 646.646C325.647 648.793 323.206 649.893 321.168 651.34C314.313 656.208 311.856 665.556 312.969 673.89C314.082 682.224 318.144 689.832 322.136 697.232C328.5 709.026 334.863 720.82 341.226 732.614C347.157 743.607 354.275 755.595 366.271 759.073C377.679 762.38 389.58 756.821 400.156 751.413C425.629 738.385 451.102 725.358 476.575 712.331C479.819 710.672 483.612 707.925 482.798 704.374C476.615 677.409 493.455 647.136 519.627 638.17C513.45 621.498 504.698 605.782 493.776 591.753C490.775 587.899 487.457 584.05 483.004 582.043C474.87 578.376 465.454 581.744 457.191 585.112C442.008 591.299 426.826 597.486 411.643 603.673C412.786 614.536 412.97 625.836 409.016 636.018C401.898 654.348 380.608 665.859 361.328 661.988C342.049 658.116 326.901 639.46 326.856 619.795C326.811 600.131 341.711 581.491 360.853 576.989C379.995 572.488 401.52 582.401 410.737 599.771C422.673 594.72 434.609 589.669 446.546 584.618C455.058 581.015 463.727 577.372 472.921 576.409C487.412 574.893 501.682 580.152 515.152 585.706C555.574 602.373 596.869 624.697 617.858 663.052C625.554 677.115 630.102 692.677 633.692 708.301C635.565 716.457 637.203 724.77 636.817 733.129C636.379 742.632 633.342 751.819 629.812 760.652C602.284 829.524 541.288 884.097 469.79 903.822C462.258 905.9 454.572 907.631 447.473 910.897C441.015 913.868 435.164 918.057 428.644 920.888C414.716 926.934 398.015 926.173 384.695 918.885C377.595 915 369.062 915.232 361.12 913.673C353.52 912.18 346.266 908.952 340.07 904.304C333.278 899.209 327.849 892.524 322.919 885.611C297.606 850.124 283.832 806.542 284.153 762.954C284.474 719.366 298.889 675.992 324.721 640.882C327.22 640.876 328.204 644.498 326.925 646.646ZM509.239 679.487C506.118 682.917 502.802 686.316 498.65 688.382C494.498 690.447 489.312 690.977 485.303 688.646C483.917 690.342 483.89 693.004 485.241 694.728C486.592 696.451 489.183 697.061 491.161 696.12C494.828 694.376 499.772 696.289 501.311 700.047C496.354 698.35 490.836 698.343 485.875 700.027C485.52 700.147 485.137 700.302 484.962 700.634C484.591 701.337 485.419 702.068 486.151 702.377C490.518 704.225 495.651 703.38 499.885 701.244C504.119 699.109 507.632 695.808 511.081 692.554C507.901 686.041 511.331 677.166 518.066 674.486C523.901 672.164 527.212 665.547 527.146 659.267C527.079 652.988 524.217 647.055 520.694 641.856C520.75 652.03 520.659 662.777 515.462 671.524C513.738 674.425 511.51 676.991 509.239 679.487ZM419.782 900.677C408.71 907.437 396.359 911.87 383.81 915.157C396.708 921.705 412.262 922.814 425.958 918.161C439.654 913.508 451.313 903.154 457.553 890.104C459.514 886.003 464.519 884.616 468.825 883.156C479.273 879.612 488.483 873.227 497.537 866.921C515.033 854.738 532.693 842.411 547.013 826.616C555.842 816.878 563.694 804.087 560.648 791.3C557.358 777.49 542.011 769.343 527.814 769.475C513.618 769.607 500.332 776.022 487.599 782.3C473.663 789.171 459.728 796.041 445.792 802.912C444.13 803.731 442.047 804.526 440.544 803.442C431.263 796.745 418.575 796.366 407.63 799.713C396.685 803.059 387.079 809.674 377.705 816.242C378.567 817.97 381.099 817.537 382.952 816.994C396.814 812.931 412.43 818.298 422.528 828.627C432.626 838.956 437.596 853.549 438.265 867.979C438.518 873.448 438.17 879.072 436.022 884.108C432.937 891.339 426.492 896.581 419.782 900.677ZM575.867 724.52C572.46 731.163 567.317 736.744 561.981 741.967C553.405 750.362 544.159 758.074 534.36 765.004C542.547 766.664 550.258 770.609 556.394 776.278C563.423 782.773 565.275 793.518 563.099 802.838C560.922 812.157 555.318 820.296 549.228 827.679C527.431 854.105 498.171 873.727 466.761 887.398C463.553 888.794 460.091 890.33 458.376 893.38C456.662 896.43 458.097 901.338 461.588 901.567C462.336 901.616 463.078 901.448 463.809 901.282C476.424 898.412 489.135 895.51 500.945 890.228C506.629 887.686 512.058 884.612 517.448 881.495C537.222 870.06 556.812 857.826 572.997 841.707C594.411 820.381 608.902 793.252 623.075 766.56C628.367 756.593 633.761 744.806 629.159 734.502C627.287 730.311 623.946 726.965 620.467 723.971C608.511 713.68 594.017 706.361 578.638 702.849C580.806 709.993 579.274 717.877 575.867 724.52ZM332.442 815.148C326.066 826.61 320.754 838.917 319.256 851.947C317.759 864.977 320.425 878.873 328.614 889.118C331.432 892.644 334.834 895.672 338.464 898.355C350.781 907.461 366.352 912.701 381.551 910.801C389.583 909.797 397.243 906.884 404.7 903.736C411.886 900.703 419.097 897.349 424.869 892.102C430.64 886.855 434.852 879.384 434.47 871.594C433.87 859.37 430.605 847.012 423.362 837.147C416.118 827.282 404.542 820.219 392.304 820.17C383.362 820.133 374.813 823.687 365.954 824.896C361.651 825.483 357.273 825.513 352.963 824.985C349.052 824.506 345.079 823.514 341.919 821.159C338.759 818.803 336.565 814.848 337.188 810.957C334.982 811.071 333.516 813.217 332.442 815.148ZM515.898 621.874C521.788 634.396 527.677 646.919 533.567 659.441C537.616 668.048 541.707 676.79 543.292 686.169C544.878 695.547 543.668 705.81 537.918 713.387C546.138 708.564 552.895 701.284 557.092 692.728C558.159 690.555 561.321 690.904 563.644 691.588C576.819 695.471 590.083 699.388 602.314 705.638C614.546 711.887 625.819 720.68 632.894 732.453C633.719 729.317 634.052 726.053 633.879 722.815C633.634 718.21 632.378 713.726 631.13 709.287C625.656 689.817 619.98 669.913 608.251 653.436C597.901 638.898 583.443 627.89 569.21 617.123C557.521 608.28 545.011 599.109 530.422 597.693C516.136 596.306 505.027 581.983 490.684 582.488C502.26 593.085 509.218 607.672 515.898 621.874ZM395.98 799.203C405.733 794.286 417.064 791.694 427.687 794.235C433.76 795.687 439.695 798.786 445.891 798.009C448.789 797.645 451.508 796.444 454.149 795.197C476.796 784.5 497.941 769.102 522.7 765.313C528.547 764.418 533.587 760.825 538.225 757.155C547.111 750.125 555.454 742.41 563.158 734.103C569.424 727.345 575.531 719.588 576.396 710.413C576.617 708.062 576.448 705.569 575.224 703.549C573.012 699.898 568.24 698.932 564.016 698.313C561.897 698.002 559.323 697.869 558.059 699.597C548.856 712.179 536.32 722.299 522.08 728.642C518.253 730.348 514.256 731.814 510.905 734.33C508.909 735.829 507.193 737.666 505.282 739.271C500.475 743.311 494.58 745.78 488.821 748.282C467.008 757.76 445.764 768.547 425.24 780.564C419.171 784.118 412.267 785.934 405.461 787.71C403.182 788.304 400.903 788.899 398.624 789.494C389.249 791.94 379.38 794.392 369.998 791.975C361.705 789.839 353.119 794.31 346.574 799.833C342.935 802.903 339.329 807.191 340.245 811.863C341.203 816.752 346.567 819.333 351.403 820.53C357.513 822.042 364.622 822.334 369.432 818.275C377.78 811.231 386.227 804.12 395.98 799.203ZM330.091 812.292C335.886 802.973 343.589 794.469 353.549 789.863C355.744 788.848 358.468 786.377 356.778 784.646C347.799 775.449 341.438 764.074 335.183 752.845C332.508 748.043 329.833 743.241 327.158 738.438C318.34 722.608 309.431 706.551 304.97 688.988C297.444 700.963 293.21 714.742 290.58 728.639C283.806 764.426 287.382 802.111 300.765 835.986C302.042 839.218 303.408 842.42 305.047 845.485C308.619 852.163 313.499 858.217 315.857 865.414C315.248 846.825 320.268 828.087 330.091 812.292ZM430.031 764.969C431.495 759.873 424.173 753.792 427.949 750.069C431.157 755.411 433.9 761.032 436.139 766.848C436.598 768.04 438.343 767.794 439.526 767.311C448.551 763.629 457.163 758.935 465.149 753.347C461.795 749.123 462.502 742.713 465.489 738.221C468.476 733.73 473.26 730.788 478.043 728.294C482.158 726.148 486.39 724.226 490.714 722.538C497.508 719.886 506.416 718.307 511.096 723.9C512.804 725.94 516.085 724.46 518.227 722.882C523.258 719.175 528.344 715.391 532.203 710.474C542.444 697.423 541.52 676.911 530.147 664.833C529.121 676.047 523.853 686.822 515.634 694.519C509.961 699.831 503.067 703.626 496.235 707.33C466.451 723.478 436.319 738.984 405.868 753.833C398.495 757.428 391.016 761.016 382.995 762.729C374.974 764.442 366.24 764.127 359.037 760.205C350.028 755.299 344.774 745.705 340.009 736.621C329.344 716.293 318.68 695.965 308.015 675.637C304.955 687.816 310.798 700.275 316.479 711.474C327.346 732.9 338.25 754.387 351.64 774.332C354.034 777.898 356.556 781.466 359.93 784.123C370.145 792.169 384.999 789.795 397.185 785.26C397.826 785.022 398.534 784.713 398.782 784.075C398.988 783.544 398.805 782.95 398.621 782.41C397.101 777.933 395.581 773.457 394.062 768.98C392.57 764.587 396.783 760.423 400.772 758.057C406.428 754.702 412.608 752.233 419.019 750.766C420.388 750.453 421.95 750.221 423.093 751.037C424.235 751.854 424.14 754.119 422.745 754.285C418.627 754.775 414.564 755.732 410.659 757.13C406.146 758.746 401.612 761.165 399.187 765.299C396.762 769.434 397.35 775.605 401.48 778.038C408.026 769.307 419.144 764.218 430.031 764.969ZM396.005 597.408C389.767 597.852 383.44 594.111 380.825 588.431C379.253 585.018 375.484 583.016 371.745 582.639C368.007 582.262 364.271 583.259 360.709 584.456C349.337 588.278 337.993 595.018 333.265 606.044C328.138 617.998 332.043 631.933 338.045 643.473C340.66 648.504 344.018 653.642 349.286 655.738C352.526 657.027 356.118 657.002 359.605 656.958C366.735 656.87 373.933 656.773 380.875 655.141C387.817 653.508 394.579 650.19 399.087 644.665C402.226 640.817 404.14 635.327 401.959 630.865C400.25 627.369 403.185 623.529 404.376 619.824C406.003 614.766 404.27 609.308 402.547 604.282C401.44 601.049 399.414 597.165 396.005 597.408ZM490.537 727.742C487.852 729 485.167 730.259 482.482 731.517C476.796 734.182 470.823 737.088 467.359 742.325C465.976 744.416 465.142 747.404 466.797 749.287C468.478 751.199 471.532 750.719 473.972 749.99C483.62 747.111 492.857 742.859 501.318 737.401C504.162 735.566 506.981 733.533 508.878 730.73C509.348 730.034 509.769 729.258 509.789 728.419C509.832 726.629 508.085 725.31 506.385 724.747C501.149 723.013 495.532 725.402 490.537 727.742ZM509.607 649.119C509.723 657.355 506.171 665.575 500.093 671.135C497.817 673.217 495.158 674.96 492.176 675.753C490.415 676.221 488.512 676.374 486.984 677.368C485.457 678.362 484.545 680.652 485.746 682.023C490.669 681.363 495.892 680.573 499.661 677.337C500.959 676.222 502.022 674.864 503.073 673.514C506.37 669.28 509.675 664.999 512.051 660.188C514.427 655.376 515.84 649.943 515.114 644.626C512.622 645.248 509.57 646.551 509.607 649.119ZM484.844 685.761C486.613 687.285 489.23 687.241 491.527 686.821C499.298 685.401 506.263 680.585 510.909 674.195C515.555 667.806 517.966 659.942 518.412 652.054C518.522 650.12 518.484 648.056 517.44 646.425C517.468 651.711 516.233 657 513.868 661.727C512.97 663.521 511.915 665.231 510.853 666.933C508.047 671.431 505.124 675.966 501.084 679.399C496.571 683.233 490.76 685.51 484.844 685.761ZM425.373 769.731C417.781 771.032 410.648 774.876 405.387 780.502C408.12 782.729 412.158 781.61 415.465 780.388C420.197 778.64 425.202 776.692 428.198 772.634C428.515 772.205 428.817 771.716 428.793 771.183C428.73 769.776 426.762 769.493 425.373 769.731ZM499.842 668.057C504.236 663.411 506.943 657.204 507.359 650.823C507.384 650.434 507.371 649.977 507.057 649.745C506.813 649.564 506.473 649.595 506.178 649.67C504.228 650.169 503.018 652.17 502.574 654.134C502.13 656.098 502.239 658.152 501.829 660.123C500.833 664.899 496.504 668.78 491.648 669.251C489.528 669.457 487.704 671.362 487.593 673.489C492.193 674.075 496.656 671.427 499.842 668.057ZM513.228 682.508C512.537 684.89 512.967 687.464 512.468 689.893C512.278 690.82 513.591 691.498 514.419 691.039C515.247 690.58 515.526 689.5 515.433 688.558C515.341 687.615 514.966 686.722 514.83 685.785C514.343 682.432 517.605 679.083 520.97 679.481C522.262 679.634 523.4 678.06 522.849 676.881C518.859 675.947 514.37 678.573 513.228 682.508ZM495.786 659.415C494.119 661.659 492.44 663.921 491.246 666.448C496.596 666.312 501.07 660.618 499.935 655.388C499.359 654.973 498.619 655.604 498.195 656.174C497.392 657.254 496.589 658.335 495.786 659.415ZM519.073 684.195C519.777 683.574 519.135 682.058 518.249 682.367C517.117 683.683 516.564 685.48 516.761 687.204C518.009 686.793 518.967 685.611 519.109 684.304M487.262 705.371C486.62 705.514 486.241 706.34 486.549 706.92C487.53 707.089 488.588 706.696 489.221 705.928C489.111 705.071 487.829 704.669 487.249 705.31M530.306 719.527C531.273 719.392 532.147 718.719 532.525 717.819C531.49 717.454 530.245 718.461 530.387 719.549" fill="black"/>
<path fill-rule="evenodd" clip-rule="evenodd" d="M329.94 133.07C328.385 133.966 329.544 136.664 331.314 136.959C333.084 137.254 334.743 136.145 336.262 135.189C351.689 125.474 373.856 128.375 386.264 141.731C384.486 145.83 379.603 148.066 378.24 152.32C377.612 154.282 377.836 156.401 378.066 158.447C378.75 164.53 379.435 170.612 380.119 176.694C380.369 178.914 380.923 181.55 383.008 182.352C387.551 184.101 390.11 190.121 387.66 194.327C385.211 198.534 377.993 198.886 375.603 194.645C375.039 193.643 374.723 192.461 373.872 191.688C373.108 190.995 372.047 190.757 371.038 190.545C364.196 189.108 357.355 187.67 350.514 186.232C349.224 185.962 347.899 185.689 346.599 185.904C343.95 186.341 342.047 188.655 340.655 190.95C339.262 193.246 338.028 195.789 335.8 197.286C333.572 198.783 329.936 198.598 328.811 196.16C322.911 183.373 318.25 168.72 322.828 155.402C323.612 153.122 324.673 150.809 324.405 148.414C324.137 146.018 321.814 143.654 319.528 144.418C316.312 145.493 315.733 151.489 312.393 150.906C311.672 150.78 311.06 150.322 310.478 149.878C304.527 145.336 298.575 140.793 292.623 136.25C289.59 136.118 288.577 140.645 290.137 143.25C291.697 145.856 294.555 147.488 296.087 150.109C299.185 155.411 295.759 162.034 292.244 167.068C279.66 185.086 264.887 201.574 248.351 216.051C247.592 216.715 246.753 217.409 245.747 217.476C244.454 217.563 243.354 216.605 242.418 215.71C234.263 207.912 226.109 200.115 217.954 192.318C215.985 190.434 213.922 187.343 215.737 185.31C232.542 166.487 249.347 147.665 266.152 128.842C266.954 127.944 267.804 127.013 268.938 126.61C271.269 125.782 273.719 127.479 275.379 129.313C277.038 131.147 278.611 133.349 281.008 133.959C283.405 134.569 286.462 132.076 285.216 129.94C275.253 119.506 264.989 108.578 260.541 94.854C259.7 92.2571 259.088 89.3919 260.057 86.8398C262.213 81.161 270.082 80.8139 276.035 82.0224C286.897 84.2274 297.38 88.2847 306.896 93.9663C308.792 95.098 311.053 96.3338 313.08 95.4593C315.946 94.2229 315.732 90.0329 314.433 87.1951C313.134 84.3573 311.19 81.3207 312.2 78.3679C312.647 77.0622 313.622 76.0168 314.57 75.0142C330.596 58.0693 346.621 41.1244 362.647 24.1796C371.874 33.039 380.9 42.1088 389.715 51.3795C390.585 52.2953 391.504 53.325 391.576 54.5866C391.661 56.0807 390.541 57.3401 389.496 58.411C373.553 74.7421 357.609 91.0732 341.666 107.404C339.627 109.494 335.973 108.308 333.871 106.281C331.769 104.254 330.293 101.511 327.749 100.077C325.206 98.6435 320.987 99.7106 320.954 102.63C320.935 104.291 322.275 105.625 323.591 106.639C327.265 109.469 331.671 111.619 334.188 115.515C337.841 121.172 335.776 129.709 329.94 133.07M380.172 140.162C369.263 133.093 354.967 129.703 343.15 135.12C333.258 139.654 326.627 149.857 324.875 160.596C323.124 171.336 325.813 182.463 330.783 192.143C331.23 193.014 331.925 194.006 332.898 193.906C333.498 193.845 333.962 193.373 334.37 192.929C349.74 176.224 365.11 159.518 380.48 142.813C380.858 142.401 381.264 141.91 381.189 141.355C381.117 140.82 380.625 140.456 380.172 140.162M275.023 87.5399C275.291 93.0111 270.151 98.1178 264.681 97.8146C276.892 117.255 293.466 133.937 312.825 146.276C319.723 139.452 326 132.001 331.552 124.044C332.125 123.223 332.714 122.319 332.673 121.319C332.629 120.233 331.858 119.332 331.118 118.538C316.905 103.29 298.463 92.0238 278.409 86.3379C277.053 85.9534 274.955 86.1321 275.023 87.5399M270.039 165.646C268.921 164.62 267.548 163.517 266.063 163.827C264.968 164.056 264.186 164.996 263.496 165.877C260.417 169.804 257.337 173.732 254.258 177.659C253.383 178.776 253.445 180.41 254.038 181.698C254.632 182.987 255.669 184.009 256.683 185.001C257.468 185.768 258.92 186.473 259.467 185.522C262.424 180.382 266.055 175.632 270.238 171.43C271 170.665 271.833 169.807 271.882 168.728C271.937 167.491 270.951 166.484 270.039 165.646M289.47 150.275C289.558 148.866 288.45 147.701 287.424 146.732C286.547 145.904 285.474 145.013 284.288 145.228C283.485 145.373 282.868 145.998 282.307 146.59C278.459 150.655 274.611 154.72 270.763 158.785C270.496 159.066 270.215 159.381 270.189 159.768C270.162 160.155 270.4 160.505 270.634 160.814C271.604 162.094 272.705 163.274 273.914 164.329C274.406 164.759 274.964 165.187 275.616 165.218C276.375 165.254 277.041 164.746 277.621 164.255C281.665 160.833 285.29 156.916 288.39 152.621C288.901 151.913 289.415 151.146 289.47 150.275M372.926 187.629C373.144 187.68 373.369 187.731 373.59 187.696C374.222 187.597 374.546 186.812 374.392 186.191C374.239 185.57 373.763 185.088 373.306 184.64C369.249 180.657 365.192 176.673 361.135 172.689C360.502 172.067 359.729 171.396 358.85 171.523C358.163 171.623 357.651 172.185 357.2 172.711C355.252 174.985 353.305 177.259 351.357 179.533C351.052 179.888 350.735 180.269 350.661 180.732C350.458 181.996 352.023 182.728 353.269 183.02C359.822 184.557 366.374 186.093 372.926 187.629M364.143 165.872C363.866 166.186 363.579 166.517 363.482 166.924C363.342 167.509 363.623 168.104 363.908 168.633C366.977 174.316 371.595 179.152 377.131 182.48C377.508 181.493 377.346 180.392 377.179 179.349C376.043 172.254 374.907 165.159 373.771 158.064C373.646 157.285 373.117 156.258 372.39 156.564C369.641 159.667 366.892 162.77 364.143 165.872M236.359 203.166C236.908 203.582 237.536 204.019 238.219 203.933C238.681 203.875 239.075 203.585 239.445 203.305C243.58 200.184 247.715 197.062 251.85 193.94C252.742 193.266 253.66 192.564 254.21 191.591C254.76 190.617 254.849 189.29 254.115 188.445C253.096 187.27 252.076 186.095 251.057 184.92C250.304 184.052 248.766 183.238 248.231 184.254C245.136 190.136 240.538 195.219 234.995 198.888C234.258 199.375 234.161 200.476 234.542 201.273C234.924 202.07 235.654 202.634 236.359 203.166M278.33 173.28C277.118 172.358 275.333 172.555 274.03 173.344C272.726 174.132 271.796 175.397 270.9 176.628C268.453 179.994 266.006 183.359 263.559 186.724C262.877 187.662 262.179 188.633 261.909 189.761C261.639 190.889 261.901 192.226 262.842 192.904C264.591 194.165 266.897 192.436 268.337 190.831C271.129 187.721 273.92 184.611 276.711 181.501C277.766 180.325 278.849 179.103 279.343 177.603C279.838 176.103 279.587 174.237 278.33 173.28M239.8 173.184C239.476 171.123 236.835 170.144 234.847 170.776C232.86 171.409 231.423 173.097 230.098 174.708C227.375 178.019 224.651 181.33 221.928 184.641C221.038 185.723 220.094 187.123 220.644 188.411C221.127 189.546 222.62 189.95 223.807 189.616C224.994 189.283 225.942 188.41 226.84 187.565C230.356 184.261 233.872 180.957 237.388 177.652C238.675 176.443 240.074 174.928 239.8 173.184M339.171 103.4C339.658 103.413 340.073 103.07 340.438 102.747C344.161 99.4489 347.884 96.1512 351.607 92.8535C352.718 91.8696 353.161 90.1976 352.682 88.793C352.204 87.3883 350.832 86.3343 349.352 86.2333C347.216 86.0875 345.412 87.7014 343.889 89.2048C341.152 91.9058 338.414 94.6069 335.677 97.3079C334.825 98.1489 334.902 99.61 335.526 100.632C336.149 101.655 337.186 102.341 338.19 102.994C338.491 103.189 338.812 103.391 339.171 103.4M344.853 79.5829C344.202 78.8692 343.492 78.1199 342.552 77.8978C340.963 77.5223 339.491 78.7684 338.335 79.9215C335.612 82.6375 332.908 85.3722 330.223 88.1254C329.124 89.2526 327.962 90.5266 327.872 92.0985C327.793 93.4835 328.684 94.8705 329.977 95.3739C331.269 95.8773 332.864 95.4584 333.742 94.3846C337.115 90.2614 341.131 86.6655 345.601 83.7671C346.963 82.8836 345.947 80.7827 344.853 79.5829M246.721 212.296C247.914 211.862 248.81 210.88 249.655 209.933C253.068 206.113 256.481 202.292 259.894 198.471C260.159 198.174 260.428 197.872 260.603 197.513C261.021 196.651 260.774 195.517 260.034 194.907C259.295 194.297 258.135 194.271 257.368 194.846C252.604 198.42 247.839 201.994 243.075 205.567C241.607 206.669 241.121 208.89 241.995 210.505C242.87 212.119 244.996 212.925 246.721 212.296M366.671 60.4773C367.27 60.8822 367.948 61.306 368.662 61.1885C369.27 61.0882 369.74 60.6172 370.165 60.1705C373.149 57.0357 376.121 53.8901 379.082 50.7339C379.573 50.2102 380.08 49.6599 380.285 48.9718C380.783 47.3008 379.364 45.7225 378.071 44.5525C377.501 44.0367 376.795 43.4827 376.048 43.6612C375.607 43.7664 375.268 44.1085 374.954 44.4356C371.452 48.0876 367.949 51.7395 364.447 55.3915C363.713 56.1574 363.791 57.4407 364.338 58.3503C364.884 59.2599 365.791 59.883 366.671 60.4773M233.458 194.451C238.62 191.683 243.183 187.292 244.847 181.676C245.256 180.294 245.231 178.379 243.874 177.894C242.504 177.405 241.298 178.865 240.461 180.055C237.136 184.788 232.143 188.03 227.275 191.153C225.752 192.131 226.588 194.787 228.285 195.416C229.982 196.044 231.863 195.307 233.458 194.451M350.103 70.9264C349.055 71.9457 347.974 73.015 347.479 74.3903C346.983 75.7657 347.264 77.539 348.506 78.3113C350.48 79.5398 352.841 77.5644 354.382 75.823C357.363 72.4557 360.603 69.3176 364.063 66.4456C365.405 65.3314 364.101 63.21 362.814 62.0329C362.142 61.4186 361.257 60.7584 360.408 61.0864C360.099 61.2056 359.853 61.4422 359.616 61.6729C356.445 64.7574 353.274 67.8419 350.103 70.9264M318.428 82.5632C319.743 82.4863 320.839 81.5745 321.83 80.7074C325.965 77.0902 330.122 73.4498 333.579 69.1797C333.124 66.9806 330.231 66.0875 328.118 66.8461C326.004 67.6048 324.494 69.4318 322.983 71.0931C320.963 73.3143 318.759 75.3682 316.401 77.2268C315.41 78.0086 315.008 79.4583 315.457 80.6388C315.905 81.8193 317.168 82.6369 318.428 82.5632M370.648 71.6574C371.181 70.5922 370.858 69.1718 369.918 68.4412C368.898 67.6488 367.405 67.7305 366.246 68.3003C365.087 68.8702 364.186 69.8445 363.314 70.7971C360.791 73.5525 358.269 76.3078 355.746 79.0631C354.805 80.0911 353.83 81.1825 353.511 82.5392C353.192 83.896 353.8 85.5786 355.143 85.951C356.56 86.3438 357.894 85.1865 358.911 84.1252C362.504 80.3782 366.096 76.6312 369.688 72.8843C370.049 72.5079 370.415 72.1238 370.648 71.6574M346.863 46.7436C346.224 47.0073 345.748 47.5484 345.296 48.0717C341.962 51.9335 338.628 55.7953 335.294 59.657C335.025 59.9684 334.745 60.3033 334.685 60.7102C334.625 61.1126 334.792 61.5103 334.954 61.8831C335.348 62.7861 335.776 63.7324 336.573 64.3119C337.37 64.8914 338.654 64.9231 339.217 64.1145C341.345 61.0567 343.823 58.2424 346.587 55.7442C348.195 54.2906 350.002 52.7761 350.438 50.6529C350.875 48.5297 348.866 45.9169 346.863 46.7436M265.106 155.225C266.419 155.944 268.028 155.123 269.222 154.219C272.797 151.514 275.596 147.936 278.353 144.401C279.061 143.493 279.788 142.544 280.033 141.419C280.278 140.294 279.886 138.942 278.845 138.45C277.413 137.775 275.847 138.995 274.735 140.122C271.93 142.962 269.125 145.802 266.32 148.642C265.404 149.569 264.46 150.543 264.053 151.781C263.647 153.019 263.963 154.599 265.106 155.225M365.009 36.5537C366.161 35.3153 367.381 33.5149 366.463 32.0941C365.664 30.8568 363.544 30.6116 363.332 29.154C360.394 32.1757 357.456 35.1975 354.519 38.2192C353.335 39.4366 352.103 40.7399 351.716 42.393C351.329 44.0461 352.174 46.113 353.845 46.4129C355.388 46.6897 356.742 45.4389 357.81 44.2915C360.209 41.7122 362.609 39.133 365.009 36.5537M254.138 149.869C250.472 153.006 247.063 156.442 243.955 160.132C243.137 161.103 242.341 162.091 241.544 163.079C240.892 163.887 240.216 164.752 240.079 165.781C239.914 167.016 240.664 168.316 241.815 168.792C242.967 169.269 244.416 168.878 245.172 167.888C248.125 164.019 251.079 160.151 254.032 156.282C254.807 155.267 255.608 154.194 255.808 152.932C256.008 151.67 255.378 150.177 254.138 149.869M271.053 131.416C270.762 131.138 270.424 130.841 270.021 130.855C269.596 130.87 269.272 131.224 269 131.551C265.465 135.799 261.93 140.047 258.396 144.295C257.695 145.138 256.948 146.204 257.313 147.237C257.667 148.239 258.965 148.63 259.988 148.343C261.012 148.056 261.817 147.286 262.577 146.543C264.433 144.728 266.288 142.914 268.144 141.099C270.323 138.968 272.564 136.744 273.653 133.898C272.787 133.07 271.92 132.243 271.053 131.416M342.829 65.8077C341.97 66.8406 341.057 68.1778 341.574 69.4176C342.04 70.5334 343.517 70.9202 344.674 70.5689C345.831 70.2177 346.736 69.3331 347.591 68.4787C350.051 66.022 352.51 63.5652 354.97 61.1085C356.251 59.8287 357.641 58.0847 356.967 56.4041C356.37 54.9173 354.356 54.4561 352.857 55.0212C351.357 55.5863 350.264 56.8681 349.24 58.0998C347.103 60.6691 344.966 63.2384 342.829 65.8077M373.94 67.1556C375.654 67.9355 377.521 66.5165 378.839 65.1705C380.9 63.0656 382.876 60.8782 384.763 58.6153C385.509 57.7198 386.272 56.7419 386.395 55.5827C386.529 54.3237 385.787 53.019 384.637 52.4893C383.487 51.9596 382.014 52.2443 381.144 53.1642C379.109 55.3164 377.074 57.4686 375.039 59.6208C374.011 60.7077 372.95 61.8525 372.533 63.2892C372.117 64.7259 372.578 66.5364 373.94 67.1556M248.167 175.844C249.522 176.515 250.972 175.184 251.9 173.991C255.14 169.824 258.381 165.657 261.621 161.489C262.307 160.608 263.033 159.554 262.765 158.47C262.428 157.104 260.608 156.586 259.301 157.106C257.994 157.627 257.103 158.826 256.282 159.969C253.678 163.594 251.075 167.22 248.471 170.845C247.914 171.622 247.341 172.431 247.161 173.371C246.981 174.31 247.31 175.42 248.167 175.844M321.597 86.9351C321.782 88.1381 323.267 88.7647 324.452 88.487C325.637 88.2093 326.566 87.3175 327.432 86.4618C330.546 83.3834 333.661 80.305 336.775 77.2265C337.382 76.6264 338.008 75.9974 338.293 75.1928C338.579 74.3881 338.413 73.3551 337.69 72.9015C336.65 72.249 335.347 73.1205 334.437 73.9451C330.666 77.3602 326.896 80.7754 323.126 84.1905C322.315 84.925 321.43 85.8538 321.597 86.9351M369.179 37.8487C365.712 41.6513 362.245 45.454 358.778 49.2566C358.36 49.7144 357.923 50.2147 357.848 50.8298C357.704 52.0307 359.106 52.9519 360.305 52.7923C361.504 52.6328 362.474 51.7709 363.346 50.9327C366.038 48.3453 368.575 45.5979 370.941 42.7097C371.782 41.6834 372.643 40.5232 372.622 39.1967C372.601 37.8701 371.178 36.5503 369.993 37.148C369.672 37.3103 369.422 37.5824 369.179 37.8487M293.368 158.583C294.143 157.638 294.964 156.541 294.812 155.328C294.659 154.116 292.864 153.261 292.19 154.281C289.452 158.424 286.189 162.219 282.502 165.545C281.512 166.438 280.438 167.383 280.122 168.678C279.806 169.972 280.736 171.631 282.059 171.476C282.844 171.385 283.424 170.728 283.924 170.117C287.072 166.272 290.22 162.428 293.368 158.583M266.63 93.5901C269.397 92.8206 271.327 89.7872 270.852 86.9552C270.774 86.491 270.62 86.0052 270.251 85.7133C269.888 85.427 269.396 85.3856 268.936 85.3562C266.784 85.2191 263.946 85.5876 263.533 87.7035C263.363 88.5749 263.715 89.4745 263.611 90.3562C263.538 90.9732 263.243 91.5736 263.332 92.1885C263.524 93.5299 265.325 93.9533 266.63 93.5901M378.698 187.324C377.925 188.276 377.702 189.582 377.832 190.801C377.904 191.466 378.082 192.144 378.508 192.66C378.892 193.127 379.452 193.426 380.036 193.586C382.677 194.314 385.671 191.64 385.088 188.964C384.505 186.287 380.424 185.197 378.698 187.324M328.839 140.656C328.614 139.505 327.454 138.615 326.284 138.698C325.726 138.738 325.183 138.978 324.778 139.365C323.567 140.523 324.123 142.926 325.721 143.433C327.318 143.941 329.159 142.3 328.839 140.656M289.044 134.367C289.26 133.875 289.481 133.348 289.389 132.819C289.298 132.29 288.749 131.808 288.246 131.994C286.638 134.322 285.03 136.65 283.422 138.978C284.7 139.344 286.098 138.734 287.027 137.782C287.955 136.83 288.509 135.584 289.044 134.367M320.091 96.5219C320.673 95.6212 319.302 94.502 318.293 94.8657C317.284 95.2294 316.769 96.3225 316.36 97.3138C315.951 98.305 315.442 99.3991 314.436 99.7717C316.583 100.825 318.793 98.5297 320.091 96.5219L320.091 96.5219Z" fill="black"/>
</g>
</svg>
