<svg width="331" height="292" viewBox="0 0 331 292" fill="none" xmlns="http://www.w3.org/2000/svg">
<path fill-rule="evenodd" clip-rule="evenodd" d="M194.003 291.08C270.096 291.08 280.883 257.228 292.42 251.008C303.958 244.787 296.785 232.303 304.352 222.887C316.439 207.847 323.764 215.598 327.764 196.086C331.765 176.574 324.492 171.055 324.492 153.634C324.492 118.733 341.212 102.211 319.861 83.9504C298.51 65.6894 262.856 67.8441 227.592 67.8441C162.14 67.8441 122.929 -21.8806 35.6317 5.03781C5.54714 14.3145 8.87211 26.9564 15.4826 71.6324C18.3531 91.0329 -3.32074 115.699 0.439776 137.746C7.30789 178.011 25.447 172.549 59.6713 199.736C65.4129 204.297 73.7871 204.249 80.0465 208.927C90.5403 216.769 91.2151 228.964 110.834 237.189C142.468 250.451 139.785 291.08 194.003 291.08Z" fill="white"/>
</svg>
