<svg width="39" height="37" viewBox="0 0 39 37" fill="none" xmlns="http://www.w3.org/2000/svg">
<ellipse cx="19.2987" cy="18.2222" rx="19.2382" ry="18.0907" fill="#ECE8E5"/>
<path fill-rule="evenodd" clip-rule="evenodd" d="M21.7586 31.766C18.0044 32.1688 14.0281 31.3003 11.0969 28.9204C9.02093 27.2349 7.56224 24.8902 6.53868 22.4198C5.4274 19.7376 4.78848 16.8606 4.66004 13.9602C4.61168 12.8682 4.63765 11.7561 4.95854 10.7113C5.48665 8.99167 6.75847 7.61164 8.05675 6.36653C10.8188 3.71759 14.0653 1.30051 17.8516 0.743555C20.4316 0.364034 23.056 0.881318 25.5815 1.5313C27.5649 2.04179 29.5459 2.64353 31.3299 3.6494C35.2721 5.87206 38.004 10.1115 38.3991 14.6198C38.7943 19.1281 38.3081 22.1154 32.2241 27.7166C29.0626 29.7808 25.5127 31.3633 21.7586 31.766ZM28.379 17.6144C27.7701 17.8057 27.1632 18.1458 26.5347 18.0351C25.2505 17.8091 25.0206 16.0473 25.3058 14.775C26.1221 11.1328 28.6609 7.9161 32.0138 6.27603C31.2548 4.89931 29.2385 4.79811 27.8125 5.45984C26.3865 6.12156 25.2717 7.31394 23.8926 8.06867C23.2063 8.44426 22.393 8.71012 21.6464 8.4763C20.4179 8.09157 19.949 6.48246 20.3512 5.25957C20.7533 4.03668 21.7571 3.12416 22.7209 2.27075C19.2285 2.39312 15.7727 3.44128 12.8007 5.2796C10.4741 6.71873 8.26722 9.0783 8.57591 11.7966C10.4996 10.2482 12.7582 9.11804 15.1507 8.50666C15.6582 8.37698 16.2951 8.31183 16.6127 8.72839C16.8532 9.04392 16.7842 9.49767 16.63 9.86326C15.8653 11.677 13.6163 12.2854 12.2214 13.6741C12.0382 13.8565 11.8626 14.067 11.8183 14.3216C11.7314 14.8207 12.2069 15.2757 12.7065 15.359C13.2062 15.4424 13.7077 15.2605 14.1816 15.0817C15.1659 14.7104 16.1501 14.3391 17.1343 13.9677C17.8468 13.6989 18.6928 13.4423 19.3264 13.8647C19.9819 14.3017 20.0436 15.2957 19.6732 15.9909C19.3027 16.6862 18.6227 17.1525 17.9683 17.5911C16.3909 18.6483 14.8135 19.7055 13.2361 20.7627C11.9154 21.6479 10.4359 22.8412 10.5614 24.4261C10.6796 25.918 12.3208 26.9318 13.8142 26.836C15.3076 26.7402 16.6219 25.8269 17.7242 24.8147C18.8264 23.8024 19.8213 22.6466 21.1013 21.8712C21.9365 21.3653 23.1283 21.0843 23.8068 21.7867C24.331 22.3293 24.2805 23.2016 24.0837 23.93C23.5167 26.0293 21.9836 27.8464 20.0097 28.7588C21.6157 29.1293 23.2904 29.1992 24.9216 28.9639C25.8519 28.8296 26.815 28.5716 27.4878 27.9152C28.1605 27.2587 28.421 26.1035 27.8374 25.3666C26.967 24.2675 27.0016 22.6592 27.5577 21.3722C28.1139 20.0851 29.1072 19.0459 30.0803 18.0365C29.8018 17.4623 28.9879 17.4231 28.379 17.6144ZM35.8138 20.1092C36.6884 18.0878 36.7202 15.8017 36.4987 13.6104C36.2538 11.1869 35.4089 8.41572 33.1259 7.56654C29.7803 8.95522 27.1984 12.0532 26.4356 15.5944C26.3715 15.8919 26.3213 16.2119 26.4383 16.4928C26.5554 16.7738 26.9033 16.9787 27.1729 16.8374C28.0979 16.3528 29.2355 16.0778 30.1758 16.5319C31.1162 16.9861 31.5741 18.4034 30.8127 19.118C29.9714 19.9076 29.1074 20.729 28.6535 21.7897C28.1996 22.8504 28.265 24.2236 29.1196 24.9988C29.7617 25.5814 29.7633 26.7252 29.1229 27.3096C30.9438 26.7776 32.2413 25.212 33.4222 23.7273C34.3249 22.5923 35.238 21.4402 35.8138 20.1092ZM14.851 9.65573C12.9568 10.4414 11.1181 11.3609 9.35324 12.4052C8.93354 12.6535 8.50935 12.9163 8.20246 13.2953C7.78806 13.8071 7.6306 14.4751 7.50254 15.121C7.08883 17.2079 6.87552 19.4547 7.75193 21.3934C8.03168 22.0122 8.41405 22.5781 8.79449 23.1407C8.90677 23.3067 9.03427 23.4842 9.22675 23.54C9.41924 23.5959 9.67346 23.4407 9.62824 23.2455C9.4889 22.6437 9.94468 22.0776 10.3944 21.6542C13.0287 19.1746 16.5775 17.7513 18.9464 15.0171C18.587 14.5913 17.9054 14.7915 17.393 15.0103C16.1726 15.5313 14.9143 15.9633 13.6313 16.3018C12.9694 16.4765 12.2318 16.6184 11.6278 16.2964C10.7437 15.8251 10.5998 14.5357 11.0668 13.6494C11.5338 12.763 12.4214 12.1909 13.2775 11.6706C14.1336 11.1503 15.0318 10.6072 15.5454 9.74707C15.452 9.50229 15.093 9.55536 14.851 9.65573ZM21.3339 26.266C22.171 25.5934 23.0754 24.8002 23.1667 23.7302C23.2145 23.1707 22.8556 22.4866 22.2967 22.5399C22.1249 22.5563 21.968 22.6414 21.8198 22.7299C19.3855 24.1841 17.7835 27.0277 15.0375 27.7346C15.8134 28.082 16.6225 28.3553 17.4502 28.5496C17.6967 28.6075 17.9533 28.6584 18.2012 28.6071C18.4896 28.5475 18.731 28.3573 18.9606 28.1728C19.7517 27.5372 20.5428 26.9016 21.3339 26.266ZM23.5977 3.01885C23.056 3.61795 22.5143 4.21705 21.9726 4.81615C21.5436 5.2907 21.0833 5.91688 21.3221 6.5104C21.498 6.94764 22.0176 7.16863 22.4876 7.13218C22.9575 7.09572 23.3855 6.85533 23.7795 6.59677C25.1838 5.67534 26.4482 4.42029 28.087 4.05212C26.9507 3.63804 25.8145 3.22397 24.6782 2.8099C24.4416 2.72367 24.1777 2.63753 23.9449 2.73356C23.8052 2.79118 23.699 2.90675 23.5977 3.01885Z" fill="black"/>
</svg>
