<svg width="347" height="325" viewBox="0 0 347 325" fill="none" xmlns="http://www.w3.org/2000/svg">
<path fill-rule="evenodd" clip-rule="evenodd" d="M26.1952 155.809C26.1952 155.809 11.6173 143.356 32.0691 100.358C52.5209 57.3614 93.9395 66.7857 120.414 49.8733C159.532 24.8846 143.498 5.32905 192.274 2.17688C253.687 -1.79194 257.165 62.3445 287.891 62.3445C289.912 62.3445 337.758 43.1195 344.761 95.749C348.288 122.254 287.891 162.671 287.891 162.671C287.891 162.671 262.754 185.456 261.374 196.707C255.585 243.892 267.658 297.934 132.365 322.814C114.868 326.031 85.8134 314.393 69.7843 292.893C57.2266 276.049 6.85271 287.999 2.15045 232.623C-0.21958 204.712 26.1952 155.809 26.1952 155.809Z" stroke="#ECE8E5" stroke-width="3"/>
<path d="M116.439 118.398C116.895 118.129 117.483 118.28 117.753 118.737L118.838 120.569C123.15 127.803 124.875 130.152 126.708 131.214C128.215 132.087 129.773 131.816 132.624 130.144L133.005 129.915C134.798 128.797 143.005 123.16 146.178 121.136C146.625 120.851 147.218 120.982 147.503 121.429C147.787 121.875 147.656 122.468 147.21 122.753L146.721 123.068C143.186 125.36 135.243 130.815 133.836 131.656C130.384 133.72 128.146 134.184 125.903 132.962L125.746 132.874C123.337 131.478 121.462 128.8 116.1 119.712C115.831 119.255 115.983 118.667 116.439 118.398Z" fill="#838ED9"/>
<path d="M131.973 129.486C132.498 129.415 132.981 129.784 133.051 130.309C133.378 132.749 134.161 135.196 135.403 137.652C135.642 138.125 135.453 138.702 134.98 138.941C134.507 139.18 133.93 138.991 133.691 138.518C132.354 135.875 131.506 133.223 131.15 130.564C131.08 130.039 131.448 129.556 131.973 129.486Z" fill="#838ED9"/>
<path fill-rule="evenodd" clip-rule="evenodd" d="M243.724 188.074C243.569 188.465 243.23 189.007 242.836 189.52L243.175 189.873L243.569 190.292L243.656 190.376C243.695 190.41 243.725 190.43 243.746 190.436C243.874 190.454 243.962 190.571 243.945 190.7C243.927 190.825 243.81 190.916 243.683 190.897C243.567 190.895 243.149 190.731 242.65 190.326C242.56 190.252 242.47 190.168 242.378 190.075C242.09 190.396 241.8 190.672 241.548 190.843C241.179 191.098 240.859 191.118 240.706 191.015C240.555 190.915 240.411 190.577 240.656 189.894C240.694 189.771 240.826 189.705 240.948 189.744C241.07 189.783 241.137 189.913 241.099 190.036C241.061 190.163 241.056 190.279 241.056 190.371L241.198 190.274C241.248 190.239 241.299 190.198 241.346 190.151C241.518 189.982 241.709 189.777 241.901 189.555C241.597 189.201 241.287 188.786 241.036 188.306C240.913 188.073 240.816 187.824 240.723 187.563C240.659 187.418 240.725 187.247 240.871 187.182C241.017 187.118 241.188 187.184 241.253 187.33C241.532 187.915 241.889 188.42 242.241 188.852L242.359 188.993C242.68 188.573 242.956 188.148 243.081 187.824C243.15 187.648 243.35 187.56 243.527 187.628C243.706 187.698 243.793 187.897 243.724 188.074Z" fill="#838ED9"/>
<path fill-rule="evenodd" clip-rule="evenodd" d="M100.995 67.0617L100.411 66.9559C97.1457 66.3489 94.6424 65.6037 89.966 63.9824C89.4297 63.7964 89.1457 63.2109 89.3316 62.6747C89.5175 62.1384 90.103 61.8543 90.6393 62.0403L91.8047 62.4414C95.907 63.8413 98.2087 64.4832 101.352 65.0374C111.93 66.9026 119.85 61.472 120.498 51.115C120.533 50.5485 121.021 50.118 121.588 50.1535C122.154 50.1889 122.585 50.6769 122.549 51.2434C121.82 62.8913 112.723 69.1296 100.995 67.0617Z" fill="black"/>
<path fill-rule="evenodd" clip-rule="evenodd" d="M127.425 78.1532L128.016 79.4647L129.361 79.8509C129.434 79.8717 129.476 79.9476 129.455 80.0204C129.448 80.0428 129.436 80.0632 129.42 80.0797L128.398 81.0973L128.455 82.5617C128.458 82.6373 128.399 82.701 128.323 82.704C128.298 82.705 128.272 82.6988 128.25 82.6862L127.093 82.0271C127.057 82.0065 127.013 82.0035 126.975 82.0188L125.737 82.5104C125.667 82.5383 125.587 82.504 125.559 82.4336C125.549 82.4098 125.547 82.3839 125.551 82.3587L125.812 80.9165L124.941 79.7665C124.896 79.7062 124.908 79.6202 124.968 79.5746C124.987 79.5605 125.008 79.5514 125.032 79.5481L126.418 79.353L127.185 78.1364C127.225 78.0723 127.309 78.0532 127.373 78.0935C127.396 78.1079 127.414 78.1286 127.425 78.1532Z" fill="black"/>
<path d="M262.618 45.1896C263.146 45.1519 263.605 45.5497 263.643 46.0781C263.681 46.6066 263.283 47.0655 262.754 47.1032C258.969 47.3733 255.996 48.8401 254.676 52.4685C254.596 52.6869 254.531 52.8977 254.477 53.0981L254.441 53.2357L254.499 53.1149C256.162 49.7198 259.369 47.3607 263.085 46.762L263.329 46.7255C263.853 46.6523 264.338 47.0182 264.411 47.5429C264.484 48.0676 264.118 48.5523 263.594 48.6255C260.141 49.1075 257.188 51.402 255.9 54.6931L255.816 54.914C255.204 56.5961 253.734 57.4027 252.788 55.9631C252.211 55.0851 252.249 53.5257 252.873 51.8124C254.455 47.4664 258.085 45.513 262.618 45.1896Z" fill="#838ED9"/>
<path d="M258.248 38.0434C258.777 38.0057 259.236 38.4035 259.274 38.9319C259.311 39.4603 258.913 39.9193 258.385 39.957C252.364 40.3865 247.084 44.2968 244.983 50.0687C244.361 51.7797 244.245 53.2425 244.468 53.9833L244.495 54.066L244.537 54.0048C244.644 53.8424 244.765 53.609 244.883 53.3065L244.934 53.1726C247.153 47.0759 252.533 42.8063 258.843 41.9255C259.368 41.8523 259.853 42.2182 259.926 42.7429C259.999 43.2676 259.633 43.7523 259.108 43.8255C253.588 44.5961 248.87 48.2802 246.838 53.5589L246.737 53.8287C245.914 56.0895 244.134 57.0662 242.997 55.3351C242.217 54.1488 242.272 51.9093 243.181 49.4125C245.542 42.9232 251.479 38.5263 258.248 38.0434Z" fill="#838ED9"/>
<path d="M252.361 28.515C252.889 28.4773 253.348 28.8751 253.386 29.4035C253.423 29.932 253.026 30.3909 252.497 30.4286C243.909 31.0413 236.379 36.6185 233.382 44.8508C232.363 47.6524 232.278 50.027 232.835 51.0141L232.885 51.0975C232.968 51.223 232.94 51.2267 232.961 51.2094L232.974 51.201C233.256 51.0461 233.629 50.5185 233.969 49.6434L234.037 49.4637C237.097 41.0555 244.517 35.1672 253.22 33.9524C253.745 33.8792 254.229 34.2451 254.303 34.7698C254.376 35.2945 254.01 35.7792 253.485 35.8524C245.583 36.9555 238.832 42.2455 235.951 49.8197L235.839 50.1199C234.775 53.045 232.64 54.217 231.282 52.151C230.27 50.6108 230.344 47.5907 231.58 44.1947C234.837 35.2449 243.025 29.1811 252.361 28.515Z" fill="#838ED9"/>
<path d="M241.849 19.5601C242.369 19.4583 242.873 19.7972 242.975 20.3171C243.077 20.837 242.738 21.341 242.218 21.4428C234.443 22.9654 228.191 28.9035 226.378 36.7581C225.764 39.4163 225.95 41.5778 226.552 42.4024L226.632 42.5058L226.638 42.5202L226.649 42.5115C226.865 42.3169 227.117 41.8197 227.313 41.049L227.354 40.8796C229.219 32.8015 235.377 26.5484 243.244 24.4485C243.756 24.3119 244.281 24.616 244.418 25.1279C244.555 25.6397 244.251 26.1654 243.739 26.302C236.651 28.194 231.083 33.7738 229.296 41.0047L229.223 41.3112C228.565 44.1603 226.677 45.5203 225.147 43.7168C224.028 42.3977 223.753 39.5988 224.509 36.3265C226.494 27.728 233.339 21.2269 241.849 19.5601Z" fill="#838ED9"/>
<path d="M135.517 137.864L136.071 137.662C141.304 135.784 145.72 134.955 146.842 136.097C147.826 137.097 148.702 138.91 149.533 141.568C149.691 142.074 149.41 142.612 148.904 142.77C148.398 142.928 147.86 142.646 147.702 142.141C146.983 139.842 146.25 138.294 145.557 137.529L145.528 137.499L145.503 137.501C145.372 137.474 145.175 137.46 144.924 137.465C144.372 137.476 143.616 137.573 142.714 137.752C140.857 138.12 138.511 138.804 136.181 139.663C132.285 141.101 129.04 142.789 127.247 144.314C126.589 144.874 125.387 143.315 126.543 142.421C128.624 140.813 131.78 139.242 135.517 137.864Z" fill="#838ED9"/>
<path d="M132.883 119.742C132.883 122.942 136.267 126.406 136.987 126.603C137.498 126.743 128.694 132.479 128.694 132.479C125.513 132.898 123.646 130.209 123.646 126.204C123.646 125.674 132.883 119.213 132.883 119.742Z" fill="#838ED9"/>
<path fill-rule="evenodd" clip-rule="evenodd" d="M122.503 121.424C123.617 121.207 124.374 120.279 124.194 119.35C124.013 118.422 122.963 117.844 121.849 118.061C120.735 118.278 119.978 119.206 120.158 120.135C120.339 121.063 121.388 121.64 122.503 121.424Z" fill="#F59292"/>
<path d="M236.047 14.2409C236.569 14.15 237.065 14.4994 237.156 15.0213C237.247 15.5432 236.898 16.04 236.376 16.1309C233.894 16.5632 231.391 18.0657 228.81 20.4555C225.458 23.5586 223.245 27.8465 222.025 33.5635C221.041 38.1695 221.949 43.925 224.519 48.9845C227.443 54.7409 232.616 56.1635 238.648 57.2652C244.839 58.3961 246.55 57.6977 252.401 55.6177L252.94 55.4221C253.739 55.1191 257.478 53.6564 258.377 53.3845C260.269 52.8125 261.559 52.8603 262.494 53.8574C262.857 54.2437 262.838 54.8507 262.451 55.2132C262.089 55.5531 261.533 55.5574 261.166 55.2383L261.096 55.1702C260.819 54.876 260.249 54.842 259.1 55.1713L258.932 55.2208C258.068 55.4823 254.013 57.0735 253.488 57.2652C247.169 59.5719 245.026 60.3803 238.303 59.1524C231.641 57.9356 225.989 56.114 222.809 49.8534C220.045 44.4125 219.071 38.2112 220.148 33.163C221.451 27.0613 223.863 22.4211 227.506 19.0478C230.358 16.4072 233.199 14.7369 236.047 14.2409Z" fill="#838ED9"/>
<path d="M281.172 90.5667C275.704 90.2871 271.398 94.5105 271.352 100.18C271.314 104.957 274.005 108.89 277.701 109.652C279.196 109.96 282.065 109.589 284.193 108.396C287.425 106.663 289.896 103.099 290.207 100.063C290.715 95.1168 286.711 90.8499 281.172 90.5667Z" fill="#838ED9"/>
<path d="M182.082 89.5679C183.828 93.0957 186.541 101.244 185.368 101.205C182.109 101.096 177.749 96.0879 174.7 89.3165L174.459 88.7718C171.796 82.6238 170.202 78.7613 172.054 78.0215C173.969 77.2562 178.477 82.2869 182.082 89.5679Z" fill="#838ED9"/>
<path fill-rule="evenodd" clip-rule="evenodd" d="M172.054 77.9446C173.969 77.1793 178.543 81.9802 182.148 89.2612C183.895 92.789 185.08 96.1732 185.389 98.6C185.389 98.6 179.49 86.1707 175.892 81.6182C174.51 79.8694 172.054 77.9446 172.054 77.9446Z" fill="#E7EAEE"/>
<path d="M171.049 109.247C171.189 108.736 171.717 108.436 172.228 108.577C172.739 108.717 173.039 109.245 172.899 109.756C172.718 110.413 170.177 112.136 164.633 115.554L161.134 117.695C154.226 121.901 149.616 124.592 149.04 124.592C145.226 124.592 141.789 120.994 139.28 115.316C137.089 110.359 135.951 104.458 136.465 100.591C136.625 99.3844 140.646 96.2602 146.855 92.0744L147.744 91.4784C153.237 87.8193 157.932 85.1054 159.63 84.7627C160.15 84.6579 160.655 84.994 160.76 85.5133C160.826 85.8381 145.686 98.6 144.207 107.07C143.205 112.806 146.991 122.581 148.87 122.669L149.04 122.673C148.887 122.673 148.936 122.638 148.954 122.627L149.127 122.538C149.254 122.471 149.406 122.39 149.58 122.294L150.378 121.848C150.683 121.675 151.024 121.48 151.396 121.265L152.348 120.712C154.165 119.651 156.433 118.3 158.746 116.9L160.946 115.563C163.622 113.928 166.039 112.421 167.855 111.251L168.791 110.643C169.371 110.262 169.86 109.933 170.252 109.661L170.394 109.561C170.61 109.409 170.789 109.278 170.929 109.171C170.929 109.171 171.087 109.108 171.049 109.247Z" fill="#838ED9"/>
<path fill-rule="evenodd" clip-rule="evenodd" d="M172.951 90.1042C170.633 84.9575 169.608 80.2411 170.385 77.3852C168.982 77.8309 167.229 78.632 165.488 79.6304C163.175 80.9577 161.339 82.4412 161.296 82.7633C160.849 86.1297 162.565 92.6788 165.417 98.5176C168.468 104.763 172.098 108.774 174.907 108.774C175.176 108.774 175.946 108.616 176.718 108.346C177.815 107.963 178.843 107.404 179.686 106.672C180.105 106.308 180.538 105.897 180.991 105.438L181.537 104.874C181.858 104.534 182.191 104.167 182.709 103.587L183.431 102.781L183.462 102.747C179.847 101.426 176.067 96.7704 173.239 90.7332L172.951 90.1042ZM159.394 82.5106C159.693 80.2648 168.101 75.4104 171.938 75.0969C172.098 74.9962 172.27 74.909 172.453 74.8358C175.776 73.508 180.839 79.1957 184.9 87.1986L185.179 87.7542C187.012 91.4567 188.263 95.0293 188.604 97.7015C189.011 100.895 188.086 103.012 185.662 103.121C185.597 103.372 185.433 103.583 185.215 103.709L185.177 103.728L185.083 103.823C184.988 103.921 184.876 104.042 184.703 104.234L183.511 105.564C183.078 106.041 182.772 106.364 182.357 106.785C181.871 107.277 181.403 107.722 180.944 108.12C179.087 109.734 176.342 110.693 174.907 110.693C174.147 110.693 173.377 110.516 172.607 110.178C171.783 111.037 169.249 112.708 164.633 115.554L161.134 117.695C154.226 121.901 149.616 124.592 149.04 124.592C147.734 124.592 146.472 124.17 145.276 123.387C145.265 123.394 145.254 123.402 145.242 123.409L144.754 123.723C143.054 124.825 140.337 126.658 137.816 128.357L137.659 128.463C137.985 130.793 138.727 133.128 139.887 135.472C144.007 134.198 147.27 133.768 148.212 134.726C149.196 135.727 150.072 137.539 150.903 140.198C151.061 140.704 150.78 141.242 150.274 141.4C149.768 141.558 149.23 141.276 149.072 140.77C148.354 138.471 147.62 136.924 146.927 136.159L146.898 136.129L146.873 136.13C146.742 136.103 146.545 136.09 146.294 136.095C145.742 136.105 144.986 136.203 144.084 136.382C142.227 136.75 139.881 137.434 137.551 138.293C132.225 140.258 128.114 142.692 127.269 144.537C127.022 145.077 127.054 145.868 127.349 147.078L127.404 147.296C127.449 147.467 127.495 147.637 127.556 147.852L127.902 149.078C127.916 149.132 127.931 149.186 127.949 149.256C128.082 149.768 127.774 150.292 127.261 150.425C126.748 150.558 126.225 150.25 126.092 149.738L125.922 149.117L125.638 148.116C125.605 147.998 125.576 147.888 125.547 147.777C125.098 146.044 125.026 144.83 125.525 143.739C126.372 141.889 129.022 139.973 132.711 138.231L131.908 136.158L131.71 135.634C131.406 134.817 131.053 133.709 130.836 132.9C127.954 134.454 125.946 134.713 123.935 133.618L123.779 133.53C123.381 133.3 122.998 133.034 122.611 132.711L111.369 139.539C111.474 139.764 111.579 139.991 111.686 140.22C112.19 141.302 111.3 142.068 109.936 142.664L109.789 142.727C108.616 143.212 107.557 143.324 106.927 142.632C104.313 139.763 101.545 132.899 103.034 131.329C103.32 131.028 104.075 130.579 105.502 129.83L105.616 129.771C105.645 129.751 105.676 129.732 105.708 129.715L116.217 124.021C116.241 124.008 116.265 123.996 116.29 123.985C115.641 122.912 114.929 121.717 114.143 120.385C114.027 120.197 113.981 119.978 114.006 119.767C114.024 119.618 114.076 119.473 114.163 119.344C114.205 119.282 114.255 119.224 114.312 119.172C116.472 117.122 119.417 114.986 123.11 112.685L123.558 112.407C125.156 111.422 128.396 109.574 131.149 108.004L131.15 108.003L131.151 108.003L131.151 108.003L131.152 108.002L131.152 108.002L131.153 108.002L131.154 108.001C133.289 106.783 135.131 105.733 135.686 105.382L135.82 105.293C136.021 105.146 136.26 105.088 136.489 105.113C136.306 103.449 136.29 101.903 136.465 100.591C136.625 99.3844 140.646 96.2601 146.855 92.0744L147.744 91.4784C152.948 88.0117 157.436 85.3935 159.338 84.8362C159.287 83.9773 159.303 83.1948 159.394 82.5106ZM159.548 86.7814C157.684 87.4626 153.018 90.2327 147.927 93.6651L147.112 94.2181C144.821 95.7815 142.704 97.3058 141.105 98.5481L140.661 98.8966C139.947 99.4619 139.37 99.9491 138.951 100.34C138.741 100.536 138.576 100.704 138.459 100.837L138.377 100.933C138.36 100.952 138.355 100.945 138.362 100.884L138.367 100.844C138.364 100.859 138.363 100.873 138.362 100.884L138.336 101.09C137.414 109.185 143.267 122.406 148.87 122.669L149.002 122.672C149.013 122.673 149.026 122.673 149.04 122.673L149.002 122.672C148.896 122.667 148.938 122.637 148.954 122.627L149.127 122.538C149.254 122.471 149.406 122.39 149.58 122.294L150.378 121.848C150.683 121.675 151.024 121.48 151.396 121.265L152.348 120.712C154.166 119.651 156.433 118.3 158.746 116.9L160.946 115.563C163.622 113.928 166.039 112.421 167.855 111.251L168.791 110.643C169.371 110.262 169.86 109.933 170.252 109.661L170.394 109.561C170.601 109.415 170.775 109.288 170.912 109.183C168.442 107.37 166.009 104.022 163.849 99.675L163.693 99.3596C161.612 95.0984 160.107 90.4839 159.548 86.7814ZM136.753 106.973C136.061 107.409 134.02 108.574 131.748 109.871L131.748 109.872C129.056 111.409 126.041 113.13 124.565 114.04C121.078 116.19 118.267 118.182 116.18 120.058L116.871 121.224C119.896 126.3 121.648 128.971 123.057 130.48C122.589 129.369 122.346 127.96 122.346 126.193C122.346 126.112 122.356 126.033 122.375 125.957C122.282 125.59 122.413 125.186 122.738 124.948L123.391 124.462C123.783 124.166 124.427 123.674 125.16 123.114L125.161 123.113L125.161 123.113C126.765 121.887 128.792 120.338 129.515 119.82C131.79 118.191 133.467 117.276 134.994 116.959C135.723 116.807 136.289 117.239 136.454 117.907L136.481 118.028C136.519 118.227 136.526 118.423 136.525 118.85L136.524 118.985C136.517 120.582 136.675 121.503 137.351 122.567C137.813 123.295 138.493 123.959 139.44 124.554C139.539 124.616 139.623 124.694 139.691 124.782C141.218 123.755 142.65 122.801 143.705 122.117C142.042 120.506 140.543 118.175 139.28 115.316C138.103 112.653 137.23 109.719 136.753 106.973ZM186.701 97.9442C186.391 95.5174 185.206 92.1332 183.46 88.6054C179.855 81.3244 175.08 75.852 173.165 76.6172C171.313 77.3571 171.797 82.6237 174.459 88.7717L174.7 89.3164C177.749 96.0879 182.109 101.096 185.368 101.205C186.541 101.244 186.999 100.286 186.701 97.9442ZM117.281 125.607C118.945 128.298 120.161 130.075 121.22 131.311L110.562 137.785C109.47 135.391 108.494 133.164 107.546 130.901L117.131 125.708C117.185 125.679 117.235 125.645 117.281 125.607ZM138.047 136.078C137.013 133.939 136.299 131.794 135.906 129.644C134.529 130.571 133.331 131.373 132.56 131.874C132.692 132.536 133.183 134.106 133.605 135.223L134.392 137.25L134.467 137.448C135.241 137.121 136.05 136.802 136.887 136.493L137.441 136.292C137.644 136.219 137.847 136.147 138.047 136.078ZM138.013 125.91C137.031 125.229 136.277 124.454 135.731 123.595C134.848 122.205 134.616 121.018 134.606 119.224L134.606 119.064L134.47 119.115C133.497 119.492 132.337 120.175 130.878 121.205L130.633 121.38C129.938 121.877 127.962 123.387 126.368 124.605C125.482 125.282 124.714 125.869 124.35 126.142L124.265 126.205C124.267 129.396 125.063 130.861 126.545 131.571L126.663 131.625C127.016 131.782 127.268 131.86 127.988 132.057C127.997 132.06 128.005 132.062 128.014 132.065L128.031 132.07C128.778 131.819 129.634 131.399 130.657 130.8L131.038 130.571C131.882 130.045 134.149 128.516 136.642 126.834C137.094 126.53 137.553 126.22 138.013 125.91ZM105.851 131.818L105.998 132.168C107.017 134.584 108.075 136.976 109.277 139.585L109.744 140.597C109.591 140.7 109.389 140.809 109.168 140.906C108.85 141.045 108.527 141.142 108.284 141.175L108.207 141.183L108.09 141.043C107.182 139.925 106.128 138.025 105.367 136.136C104.961 135.13 104.672 134.208 104.542 133.499C104.489 133.21 104.464 132.967 104.466 132.783L104.472 132.662C104.474 132.632 104.474 132.617 104.467 132.615L104.495 132.595C104.658 132.484 105.072 132.241 105.687 131.907L105.851 131.818ZM119.083 129.705C118.712 129.327 118.105 129.321 117.726 129.692C117.061 130.344 116.129 130.952 114.501 131.856L112.844 132.775C112.406 133.025 112.048 133.24 111.723 133.45C111.452 133.626 111.209 133.796 110.992 133.965C110.572 134.288 110.495 134.891 110.819 135.31C111.143 135.729 111.745 135.806 112.165 135.483C112.338 135.349 112.538 135.209 112.767 135.06C112.979 134.922 113.212 134.78 113.481 134.622L114.01 134.32L115.693 133.388C117.31 132.48 118.284 131.832 119.07 131.061C119.448 130.69 119.454 130.083 119.083 129.705Z" fill="black"/>
<path d="M97.6265 227.115C102.423 253.859 120.402 273.965 143.343 278.705C147.555 279.575 154.846 279.689 162.397 278.712C172.126 277.453 181.594 274.565 189.921 269.884C212.796 257.589 230.153 232.499 232.403 210.535C234.379 191.241 227.009 173.418 213.665 160.703C213.665 160.703 171.75 181.29 151.174 192.992C133.27 203.175 97.6265 227.115 97.6265 227.115Z" fill="#838ED9"/>
<path d="M195.242 147.363C186.644 143.121 175.873 139.77 165.31 139.23C126.57 137.249 96.1023 168.197 95.7847 208.114C95.7847 208.114 139.022 180.573 161.485 167.286C172.66 160.675 195.242 147.363 195.242 147.363Z" fill="#838ED9"/>
<path fill-rule="evenodd" clip-rule="evenodd" d="M274.924 127.019C274.794 133.688 267.737 144.789 256.392 157.35C248.175 166.449 238.612 175.244 230.594 181.171L230.095 181.537L230.427 183.01C232.377 191.555 234.922 200.844 233.96 210.212C231.626 232.949 213.842 258.601 190.34 271.204C181.768 276.013 172.025 278.978 162.031 280.269L161.078 280.387C153.626 281.265 146.495 281.119 142.138 280.22C125.223 276.733 110.902 264.909 102.244 247.796C102.215 247.739 102.192 247.68 102.176 247.62C101.036 248.27 99.5022 248.997 98.8019 249.234L96.883 249.883C76.2041 256.838 55.7035 262.657 47.3287 259.025C44.1405 257.643 43.0508 254.984 44.3841 251.412C45.6799 247.94 49.2727 243.466 55.3004 237.899L55.6316 237.594C61.3434 232.359 74.0276 222.791 93.6843 208.892L93.6894 208.636C94.6484 167.451 126.64 136.054 166.852 138.617C179.151 139.401 188.946 143.772 193.838 146.456L195.99 145.302C216.169 134.512 232.36 126.928 244.713 122.388C265.029 114.922 275.076 118.413 274.924 127.019ZM245.375 126.812C222.659 135.16 186.757 153.934 136.772 184.135L135.252 185.053C96.33 208.615 70.5564 226.516 56.9282 239.009L56.2565 239.629L55.6196 240.226C45.3892 249.892 43.5759 255.307 48.0921 257.265C55.8233 260.618 76.5851 254.966 96.9172 248.297L98.802 247.675C100.615 247.075 101.818 246.73 102.562 246.57C102.594 246.547 102.63 246.526 102.667 246.507C102.922 246.378 103.206 246.374 103.452 246.471C103.505 246.481 103.54 246.497 103.558 246.52C103.724 246.61 103.865 246.749 103.956 246.93C112.361 263.543 126.211 273.666 142.525 277.03C146.76 277.903 153.905 278.031 161.339 277.111L161.786 277.055C171.55 275.794 181.06 274.211 189.417 269.522C212.383 257.206 229.784 232.108 232.052 210.016C233.021 200.575 231.784 191.307 228.496 182.681C228.225 182.871 227.955 183.057 227.688 183.239C227.184 183.583 227.372 183.026 228.254 181.566C228.3 181.376 228.405 181.203 228.556 181.072L228.828 180.642C228.923 180.493 229.023 180.336 229.128 180.174L230.265 179.215C240.98 170.152 249.215 162.435 254.969 156.064L255.626 155.333C266.272 143.419 272.89 132.895 272.999 126.984C273.119 120.499 264.564 119.76 245.375 126.812ZM149.052 248.121C151.626 255.988 147.733 261.047 140.879 261.308C134.546 261.55 128.779 257.559 129.073 251.889C129.327 246.988 132.683 241.748 136.814 239.825C141.811 237.498 146.5 240.321 149.052 248.121ZM137.826 241.998C134.52 243.538 131.677 247.977 131.468 252.013C131.259 256.032 135.702 259.106 140.787 258.912C146.104 258.709 148.833 255.163 146.773 248.867C144.629 242.312 141.368 240.349 137.826 241.998ZM201.381 232.092C204.665 238.297 203.805 244.393 198.756 247.126L198.614 247.2L198.541 247.274C191.769 253.979 183.31 254.793 177.794 249.932L177.604 249.762C171.25 243.941 172.764 233.941 182.875 226.101C189.382 221.056 197.331 224.439 201.381 232.092ZM184.135 227.725C174.955 234.843 173.665 243.366 178.993 248.247C182.814 251.747 188.46 251.941 193.733 248.543L193.837 248.475L193.798 248.467C193.433 248.37 193.14 248.076 193.057 247.692L193.041 247.594C192.974 247.031 193.377 246.519 193.94 246.453C195.229 246.3 196.348 245.989 197.297 245.543L197.427 245.48L197.584 245.317C198.203 244.666 198.807 243.957 199.393 243.191L199.587 242.933C199.807 242.639 200.154 242.496 200.495 242.523L200.521 242.526L200.535 242.501C201.766 240.067 201.474 236.77 199.672 233.26L199.564 233.053C196.042 226.399 189.46 223.597 184.135 227.725ZM245.261 153.964C244.733 155.841 243.125 158.416 240.661 161.466C236.365 166.783 229.911 172.971 224.27 177.203L225.522 175.826V175.826C225.509 175.815 225.499 175.801 225.49 175.784L225.058 174.991C222.235 169.838 219.09 164.756 214.008 160.612C200.851 166.037 185.767 173.451 172.023 181.204L167.518 183.75C134.345 202.542 116.891 213.793 98.2276 227.623C98.9321 230.795 99.8197 233.891 100.883 236.891C101.05 237.361 98.87 239.123 98.4709 238.906C94.7477 241.4 88.9174 243.212 85.5982 243.306C82.3632 243.398 80.4943 242.089 81.4571 239.478C82.2625 237.293 85.2965 234.178 90.7566 230.003L91.3791 229.53L92.6376 228.585C113.187 213.2 133.53 200.716 171.081 179.533L172.652 178.651C198.407 164.275 228.23 151.324 241.891 150.129C244.699 149.883 245.972 151.437 245.261 153.964ZM95.7286 229.484L91.4231 232.733C87.5823 235.645 84.8133 237.799 83.3175 239.181L83.2078 239.283C81.382 240.996 83.4486 241.448 85.5437 241.389C88.7173 241.299 93.5792 238.892 97.6945 236.702C96.9339 234.346 96.2777 231.937 95.7286 229.484ZM163.075 219.069C163.588 219.199 163.899 219.721 163.769 220.234C163.638 220.748 163.116 221.058 162.603 220.928C160.023 220.273 158.5 220.524 158.005 221.219C157.677 221.68 157.859 222.466 158.472 222.967C158.951 223.359 159.59 223.547 160.029 223.451C160.41 223.368 160.624 223.074 160.624 222.337C160.624 221.807 161.054 221.378 161.583 221.378C162.113 221.378 162.543 221.807 162.543 222.337C162.543 223.939 161.741 225.042 160.437 225.326C159.388 225.554 158.166 225.195 157.257 224.452C155.917 223.355 155.478 221.461 156.442 220.107C157.498 218.622 159.813 218.24 163.075 219.069ZM120.939 215.547C122.418 215.99 123.055 217.126 123.256 218.83L123.276 219.015L123.3 219.295C123.304 219.342 123.307 219.39 123.31 219.442L123.361 220.415L123.376 220.635C123.384 220.731 123.392 220.81 123.402 220.88L123.428 221.027L123.443 221.091L123.47 221.115C123.766 221.405 123.845 221.859 123.653 222.235L123.604 222.32C123.317 222.765 122.723 222.893 122.278 222.606C121.665 222.211 121.526 221.804 121.452 220.637L121.391 219.495C121.384 219.392 121.377 219.303 121.367 219.202C121.257 218.084 120.985 217.564 120.388 217.385C118.713 216.883 117.751 217.395 117.446 218.515C117.175 219.513 117.568 220.562 118.255 220.853L118.429 220.918C118.879 221.11 119.117 221.616 118.965 222.091C118.804 222.596 118.265 222.875 117.76 222.714C115.933 222.131 115.065 219.961 115.595 218.012C116.187 215.836 118.244 214.74 120.939 215.547ZM190.144 200.859C192.8 204.593 192.306 209.345 188.044 211.495C187.571 211.734 186.995 211.544 186.756 211.071C186.517 210.598 186.707 210.021 187.18 209.782C190.266 208.226 190.618 204.836 188.581 201.971C186.601 199.188 183.845 198.882 181.952 201.889C179.944 205.077 180.09 206.949 181.535 207.791C182.683 208.46 184.531 208.32 185.038 207.773L185.088 207.713C185.395 207.281 185.994 207.18 186.425 207.488C186.857 207.795 186.958 208.394 186.651 208.825C185.584 210.323 182.541 210.599 180.569 209.449C178.045 207.977 177.803 204.877 180.328 200.867C183.032 196.572 187.443 197.062 190.144 200.859ZM150.374 195.359C150.872 195.359 151.282 195.739 151.329 196.226L151.333 196.318C151.333 196.487 151.49 196.675 152.053 197.089L152.586 197.47C153.166 197.894 153.446 198.157 153.711 198.575C154.316 199.531 154.658 200.505 154.658 201.65C154.658 204.582 150.254 208.569 145.447 210.343C139.684 212.47 134.963 210.893 133.678 204.979C133.566 204.462 133.894 203.951 134.412 203.838C134.93 203.726 135.441 204.054 135.553 204.572C136.55 209.161 139.993 210.311 144.783 208.543C148.919 207.017 152.74 203.558 152.74 201.65C152.74 200.912 152.515 200.274 152.089 199.6L152.032 199.519C151.934 199.396 151.781 199.263 151.506 199.059L150.874 198.603C149.822 197.827 149.415 197.304 149.415 196.318C149.415 195.788 149.844 195.359 150.374 195.359ZM154.877 142.192L154.271 142.26C121.538 146.196 96.9831 172.377 95.6438 207.508L99.156 205.037C109.237 197.961 120.938 189.878 134.259 180.789L136.855 179.22C144.604 174.545 152.013 170.145 159.087 166.017C158.958 165.791 158.921 165.513 159.009 165.246C159.503 163.736 159.96 162.722 160.798 161.706C163.419 158.527 167.009 156.974 169.553 158.97C169.804 159.167 169.93 159.463 169.92 159.759L172.18 158.469C179.296 154.418 186.029 150.677 192.384 147.24L189.902 146.534C186.221 145.498 181.641 144.269 177.08 143.323C177.121 146.359 174.849 148.783 171.074 150.45C167.865 151.867 163.683 152.63 160.71 152.453C155.148 152.121 152.017 147.242 154.877 142.192ZM212.295 183.849C214.643 190.263 212.706 196.094 206.845 196.056C198.494 196.002 190.339 188.71 191.657 182.178C192.245 179.264 194.436 176.686 198.245 175.399C204.329 173.345 209.906 177.321 212.295 183.849ZM198.859 177.217C195.711 178.28 193.993 180.302 193.538 182.557C192.491 187.742 199.591 194.09 206.857 194.138C211.019 194.165 212.45 189.855 210.493 184.509C208.423 178.851 203.794 175.551 198.859 177.217ZM128.325 154.509L128.393 154.608L128.855 155.342C129.081 155.715 129.284 156.08 129.476 156.475C131.601 160.818 131.546 166.513 127.951 174.417C126.322 177.998 122.173 182.81 118.549 185.682C113.923 189.349 110.469 190.181 106.345 189.729L105.122 189.585L104.973 189.571C104.891 189.565 104.839 189.565 104.781 189.567L104.697 189.57C104.634 189.573 104.611 189.57 104.608 189.562L104.607 189.555L104.577 189.605C104.299 190.004 103.758 190.135 103.324 189.894C102.861 189.636 102.695 189.052 102.952 188.589C103.297 187.969 103.873 187.689 104.607 187.654C104.801 187.645 105.006 187.651 105.251 187.672L105.537 187.7L106.328 187.795C110.084 188.251 113.072 187.575 117.358 184.178C120.761 181.481 124.717 176.893 126.204 173.623C129.569 166.226 129.618 161.131 127.753 157.318C127.629 157.064 127.499 156.822 127.359 156.58L127.158 156.245L126.756 155.609C126.474 155.16 126.61 154.568 127.059 154.286C127.48 154.022 128.026 154.125 128.325 154.509ZM242.058 152.04C235.926 152.576 226.313 155.605 215.231 160.111L215.555 160.398C218.639 163.165 224.861 169.726 226.809 174.407L228.749 172.256C233.536 166.931 237.01 162.933 239.169 160.26L239.606 159.712C241.67 157.093 243.004 154.905 243.415 153.445L243.473 153.223C243.729 152.169 243.432 151.919 242.058 152.04ZM150.21 155.156C152.597 156.31 153.566 158.879 151.995 161.209C151.699 161.649 151.103 161.765 150.664 161.468C150.225 161.172 150.108 160.576 150.405 160.137C151.269 158.855 150.781 157.563 149.375 156.883C147.893 156.167 146.27 156.579 145.433 158.142C144.661 159.582 144.608 161.533 145.224 162.81C145.765 163.931 146.553 164.146 147.754 163.242C148.177 162.923 148.779 163.008 149.097 163.431C149.416 163.855 149.331 164.456 148.908 164.775C146.719 166.422 144.552 165.831 143.496 163.644C142.612 161.81 142.682 159.213 143.742 157.236C145.093 154.713 147.849 154.014 150.21 155.156ZM162.278 162.926C161.831 163.469 161.511 164.042 161.215 164.776C163.687 163.34 166.117 161.937 168.505 160.568L168.436 160.527V160.527L168.369 160.479C166.904 159.33 164.322 160.447 162.278 162.926ZM158.187 141.899L157.349 141.957L157.292 142.028C153.976 146.219 155.254 149.62 159.782 150.103C163.034 150.45 171.668 148.037 172.681 147.19C173.667 146.365 174.915 144.468 175.107 142.932C172.177 142.381 169.311 141.976 166.754 141.845C164.141 141.711 161.564 141.715 159.03 141.849L158.187 141.899Z" fill="black"/>
<path d="M244.793 127.05C265.109 119.584 264.643 121.799 245.455 128.85C222.738 137.198 136.988 189.505 136.988 189.505C98.0656 213.067 95.1539 209.43 132.88 186.502L135.206 185.091C135.644 184.826 178.596 157.718 209.288 143.214C212.741 141.582 242.48 127.899 244.793 127.05Z" fill="#838ED9"/>
<path fill-rule="evenodd" clip-rule="evenodd" d="M279.872 89.8834C273.577 89.5616 268.663 94.4536 268.612 100.854C268.569 106.217 271.646 110.77 276.054 111.679C277.215 111.919 280.565 111.919 283.471 110.289L283.711 110.156C287.375 108.082 289.867 104.135 290.2 100.888C290.791 95.1324 286.167 90.2053 279.872 89.8834ZM269.982 100.865C269.983 100.824 269.983 100.783 269.984 100.741C270.023 100.729 270.062 100.712 270.099 100.692C275.035 98.0335 278.082 96.0074 279.298 94.5444C280.101 93.5784 280.493 92.4889 280.462 91.3051C281.29 91.3967 282.08 91.5786 282.821 91.839C282.816 91.8745 282.815 91.9108 282.816 91.9477C282.876 93.6513 282.422 95.0132 281.457 96.0735C280.347 97.2922 279.003 98.4518 277.475 99.5454C275.841 100.715 274.086 101.747 272.332 102.631C271.922 102.837 271.533 103.025 271.167 103.194L270.638 103.435C270.562 103.468 270.491 103.499 270.427 103.527L270.269 103.594C270.075 102.73 269.975 101.814 269.982 100.865ZM270.654 104.918C271.088 106.121 271.717 107.188 272.495 108.056L272.904 107.821C279.345 104.092 283.343 101.163 284.857 99.0961C286.387 97.0066 286.932 95.4024 286.59 94.3114C286.582 94.2857 286.576 94.2599 286.571 94.2341C285.897 93.5264 285.094 92.9181 284.19 92.4379C284.151 94.2489 283.579 95.7784 282.47 96.9961C281.29 98.2918 279.874 99.5134 278.272 100.66C276.576 101.874 274.762 102.941 272.948 103.855C272.419 104.121 271.921 104.359 271.463 104.566L270.929 104.803L270.654 104.918ZM275.784 110.199C274.975 109.957 274.221 109.56 273.542 109.035C280.173 105.2 284.298 102.178 285.962 99.9057C286.995 98.496 287.655 97.2284 287.923 96.0972C288.256 96.7199 288.509 97.3839 288.671 98.0775C288.636 98.1482 288.613 98.2262 288.604 98.3092C288.437 99.911 287.612 101.501 286.102 103.084C284.653 104.604 281.526 106.797 276.749 109.631L275.784 110.199ZM278.1 110.421C279.571 110.328 281.37 109.896 282.823 109.081C285.527 107.631 287.698 104.9 288.518 102.269C288.121 102.864 287.646 103.451 287.094 104.03C285.606 105.59 282.616 107.712 278.1 110.421ZM270.381 98.9791L270.137 99.1116C270.915 94.5839 274.532 91.3349 279.088 91.241C279.136 92.1305 278.859 92.9288 278.245 93.6682C277.251 94.8635 274.614 96.6526 270.381 98.9791Z" fill="black"/>
<path fill-rule="evenodd" clip-rule="evenodd" d="M329.336 76.754C329.464 76.7686 329.553 76.8842 329.539 77.0112C329.538 77.1982 329.418 77.2993 329.256 77.365C329.11 77.4235 328.877 77.401 328.742 77.4194C327.258 77.5339 326.091 76.4421 325.578 75.0349C325.085 73.683 325.217 72.0666 326.111 71.0696C326.214 70.9521 326.393 70.9403 326.51 71.0433C326.628 71.1463 327.295 71.3253 327.192 71.4428C326.455 72.304 325.955 72.8265 326.651 74.8706C327.347 76.9147 329.241 76.743 329.336 76.754Z" fill="#F59292"/>
<path fill-rule="evenodd" clip-rule="evenodd" d="M93.0817 91.3892C92.6918 91.1214 92.1586 91.2205 91.8909 91.6104C91.6232 92.0004 91.7222 92.5335 92.1122 92.8013C92.5405 93.0954 92.9191 93.3669 93.2532 93.6192C92.8933 93.9055 92.5339 94.2336 92.1604 94.607L91.403 95.3763C91.07 95.7122 91.0724 96.2545 91.4083 96.5875C91.7442 96.9205 92.2865 96.9181 92.6195 96.5821L93.5283 95.6636C93.8981 95.3034 94.2447 95.0022 94.5933 94.7518C95.3678 95.5195 95.6036 96.0825 95.6162 96.6421L95.6163 96.7856L95.6207 96.8732C95.6645 97.305 96.0293 97.6421 96.4727 97.6421C96.9457 97.6421 97.3292 97.2586 97.3292 96.7856L97.329 96.6172C97.3131 95.7447 97.0051 94.9149 96.1762 93.9666C96.7238 93.8035 97.3407 93.7122 98.0889 93.6731C98.5613 93.6484 98.9242 93.2455 98.8995 92.7731C98.8748 92.3008 98.4719 91.9379 97.9995 91.9625C96.7006 92.0304 95.6911 92.2469 94.7918 92.6583C94.4164 92.3513 93.9911 92.0292 93.5104 91.6883L93.0817 91.3892Z" fill="black"/>
<path fill-rule="evenodd" clip-rule="evenodd" d="M221.413 279.058L222.007 279.061C225.328 279.091 227.922 279.391 232.809 280.175C233.37 280.265 233.751 280.793 233.661 281.353C233.571 281.913 233.044 282.295 232.483 282.205L230.882 281.953C226.838 281.332 224.508 281.113 221.413 281.113C210.672 281.113 203.816 287.837 204.976 298.149C205.039 298.713 204.634 299.222 204.069 299.285C203.505 299.349 202.997 298.943 202.933 298.379C201.628 286.781 209.505 279.058 221.413 279.058ZM229.731 283.208L229.631 283.12C229.534 283.036 229.385 283.048 229.304 283.145C229.219 283.243 229.232 283.389 229.329 283.473L229.432 283.56C229.529 283.643 229.674 283.632 229.759 283.535C229.841 283.438 229.831 283.291 229.731 283.208ZM211.107 285.357C210.738 285.061 210.199 285.119 209.903 285.488C208.707 286.977 207.835 288.427 207.291 289.844C206.762 291.221 206.581 293.535 206.719 296.844L206.752 297.542C206.776 298.015 207.18 298.378 207.652 298.353C208.124 298.328 208.487 297.925 208.462 297.453C208.28 293.996 208.435 291.641 208.89 290.458C209.366 289.219 210.147 287.919 211.238 286.561C211.535 286.192 211.476 285.653 211.107 285.357ZM220.454 282.524C220.874 282.306 221.391 282.47 221.608 282.89C221.826 283.31 221.662 283.827 221.242 284.044C219.502 284.946 218.174 286.456 217.248 288.61C216.254 290.921 215.441 292.984 214.809 294.797C214.653 295.243 214.164 295.479 213.718 295.323C213.271 295.167 213.036 294.679 213.191 294.232C213.838 292.379 214.666 290.28 215.674 287.933C216.751 285.43 218.347 283.615 220.454 282.524ZM225.433 282.479C225.122 282.123 224.58 282.087 224.225 282.399C222.795 283.651 221.697 284.79 220.928 285.823C220.165 286.849 219.271 288.383 218.237 290.435C218.024 290.858 218.194 291.373 218.616 291.586C219.038 291.799 219.553 291.629 219.766 291.206C220.76 289.235 221.609 287.778 222.302 286.846C222.99 285.921 224.008 284.866 225.353 283.687C225.709 283.375 225.745 282.834 225.433 282.479ZM222.306 292.15C221.95 292.462 221.409 292.426 221.098 292.071C220.786 291.715 220.822 291.174 221.177 290.862C222.523 289.683 223.541 288.628 224.229 287.703C224.922 286.771 225.771 285.314 226.765 283.343C226.978 282.92 227.493 282.751 227.915 282.963C228.337 283.176 228.507 283.691 228.294 284.114C227.26 286.166 226.366 287.7 225.603 288.726C224.834 289.759 223.736 290.898 222.306 292.15ZM215.822 283.222C215.433 282.953 214.899 283.051 214.63 283.44C212.716 286.213 211.493 288.285 210.952 289.692C210.41 291.104 210.035 293.008 209.817 295.414C209.775 295.885 210.122 296.302 210.593 296.344C211.064 296.387 211.481 296.04 211.523 295.569C211.728 293.307 212.074 291.549 212.551 290.306C212.996 289.148 214.034 287.361 215.655 284.975L216.04 284.413C216.309 284.024 216.211 283.491 215.822 283.222Z" fill="black"/>
<path fill-rule="evenodd" clip-rule="evenodd" d="M199.563 278.171L200.153 279.483L201.499 279.869C201.571 279.89 201.613 279.966 201.593 280.038C201.586 280.061 201.574 280.081 201.558 280.098L200.535 281.115L200.593 282.58C200.596 282.655 200.537 282.719 200.461 282.722C200.435 282.723 200.41 282.717 200.388 282.704L199.231 282.045C199.194 282.024 199.151 282.021 199.112 282.037L197.875 282.528C197.804 282.556 197.725 282.522 197.697 282.452C197.687 282.428 197.685 282.402 197.689 282.377L197.95 280.934L197.079 279.784C197.033 279.724 197.045 279.638 197.106 279.592C197.124 279.578 197.146 279.569 197.169 279.566L198.555 279.371L199.322 278.154C199.363 278.09 199.447 278.071 199.511 278.111C199.534 278.126 199.552 278.147 199.563 278.171Z" fill="black"/>
<path fill-rule="evenodd" clip-rule="evenodd" d="M247.22 94.5574C247.536 94.8369 247.929 95.341 248.276 95.8866L248.723 95.688L249.252 95.4615C249.358 95.413 249.427 95.375 249.448 95.3441C249.509 95.2307 249.649 95.1876 249.764 95.2477C249.875 95.3078 249.92 95.4484 249.859 95.5616C249.818 95.6692 249.521 96.0066 248.969 96.3367C248.87 96.3966 248.759 96.4522 248.641 96.5064C248.844 96.8867 249.004 97.2542 249.079 97.5488C249.192 97.9832 249.102 98.2911 248.952 98.3993C248.806 98.5063 248.44 98.5263 247.882 98.0629C247.779 97.9847 247.763 97.8385 247.841 97.737C247.919 97.6358 248.064 97.6171 248.167 97.6953C248.273 97.7736 248.38 97.818 248.467 97.85L248.424 97.6837C248.408 97.6243 248.388 97.5623 248.359 97.5018C248.259 97.2831 248.132 97.0332 247.989 96.7767C247.553 96.9416 247.056 97.0911 246.52 97.163C246.258 97.1982 245.991 97.205 245.715 97.2028C245.556 97.2133 245.417 97.0925 245.407 96.9329C245.396 96.7737 245.518 96.6358 245.676 96.6253C246.322 96.563 246.919 96.4001 247.445 96.2167L247.618 96.1546C247.333 95.7092 247.028 95.3046 246.766 95.0762C246.624 94.9507 246.61 94.7325 246.734 94.5895C246.861 94.446 247.079 94.4316 247.22 94.5574Z" fill="black"/>
<path fill-rule="evenodd" clip-rule="evenodd" d="M55.5155 203.812C54.1496 203.902 51.9835 204.25 50.2129 204.952C48.6984 205.554 48.6984 221.904 53.8764 223.208C59.0245 224.925 64.6537 222.652 63.9815 213.902C63.9695 213.719 63.8213 213.221 63.6515 212.651C63.4027 211.815 63.1076 210.824 63.1254 210.436C63.1952 209.062 62.8342 207.904 61.8814 207.177C60.855 205.001 58.8433 203.598 55.5155 203.812ZM54.7742 219.227C52.24 217.334 52.329 208.497 55.2212 207.906C57.0211 209.29 58.6641 211.288 59.2183 215.137C58.5981 217.257 57.2889 218.483 56.1441 219.556C56.0216 219.67 55.9011 219.783 55.7834 219.895C55.4566 219.71 55.1199 219.483 54.7742 219.227Z" fill="#838ED9"/>
<path fill-rule="evenodd" clip-rule="evenodd" d="M51.8107 215.149C51.5809 213.774 51.7376 212.236 52.4287 210.593C52.7422 209.849 53.5662 209.243 54.5971 208.835C55.8023 208.36 57.2764 208.124 58.206 208.063C60.4708 207.917 61.8394 208.865 62.5373 210.337C63.1855 210.828 63.4309 211.612 63.3829 212.541C63.3624 212.982 63.9445 214.58 63.9646 214.885C64.4196 220.802 60.5881 222.341 57.0851 221.181C55.7542 221.858 54.4705 221.97 53.5044 221.252C52.6378 220.611 51.9725 219.258 51.8201 216.873C51.7795 216.258 51.7764 215.683 51.8107 215.149ZM58.0241 211.252C56.0141 211.647 55.9301 217.449 57.6852 218.686C57.9247 218.853 58.1579 219.001 58.3844 219.122C59.2328 218.357 59.8654 217.739 60.2244 216.473C60.5833 215.208 59.2706 212.156 58.0241 211.252Z" fill="#F59292"/>
<path fill-rule="evenodd" clip-rule="evenodd" d="M146.088 312.267C145.699 311.999 145.165 312.098 144.898 312.488C144.63 312.878 144.729 313.411 145.119 313.679C145.547 313.973 145.926 314.245 146.26 314.497C145.9 314.783 145.541 315.111 145.167 315.485L144.41 316.254C144.077 316.59 144.079 317.132 144.415 317.465C144.751 317.798 145.293 317.796 145.626 317.46L146.535 316.541C146.905 316.181 147.251 315.88 147.6 315.63C148.375 316.397 148.61 316.96 148.623 317.52L148.623 317.663L148.627 317.751C148.671 318.183 149.036 318.52 149.479 318.52C149.952 318.52 150.336 318.136 150.336 317.663L150.336 317.495C150.32 316.623 150.012 315.793 149.183 314.844C149.73 314.681 150.347 314.59 151.095 314.551C151.568 314.526 151.931 314.123 151.906 313.651C151.881 313.179 151.478 312.816 151.006 312.84C149.707 312.908 148.698 313.125 147.798 313.536C147.423 313.229 146.998 312.907 146.517 312.566L146.088 312.267Z" fill="black"/>
<path fill-rule="evenodd" clip-rule="evenodd" d="M146.088 312.267C145.699 311.999 145.165 312.098 144.898 312.488C144.63 312.878 144.729 313.411 145.119 313.679C145.547 313.973 145.926 314.245 146.26 314.497C145.9 314.783 145.541 315.111 145.167 315.485L144.41 316.254C144.077 316.59 144.079 317.132 144.415 317.465C144.751 317.798 145.293 317.796 145.626 317.46L146.535 316.541C146.905 316.181 147.251 315.88 147.6 315.63C148.375 316.397 148.61 316.96 148.623 317.52L148.623 317.663L148.627 317.751C148.671 318.183 149.036 318.52 149.479 318.52C149.952 318.52 150.336 318.136 150.336 317.663L150.336 317.495C150.32 316.623 150.012 315.793 149.183 314.844C149.73 314.681 150.347 314.59 151.095 314.551C151.568 314.526 151.931 314.123 151.906 313.651C151.881 313.179 151.478 312.816 151.006 312.84C149.707 312.908 148.698 313.125 147.798 313.536C147.423 313.229 146.998 312.907 146.517 312.566L146.088 312.267Z" fill="black"/>
<path fill-rule="evenodd" clip-rule="evenodd" d="M175.359 288.804L175.949 290.115L177.295 290.501C177.367 290.522 177.409 290.598 177.388 290.671C177.382 290.693 177.37 290.714 177.353 290.73L176.331 291.748L176.388 293.212C176.391 293.288 176.333 293.351 176.257 293.354C176.231 293.355 176.206 293.349 176.184 293.336L175.027 292.677C174.99 292.657 174.947 292.654 174.908 292.669L173.67 293.161C173.6 293.189 173.52 293.154 173.493 293.084C173.483 293.06 173.48 293.034 173.485 293.009L173.746 291.567L172.875 290.417C172.829 290.357 172.841 290.271 172.901 290.225C172.92 290.211 172.942 290.202 172.965 290.198L174.351 290.003L175.118 288.787C175.158 288.723 175.243 288.703 175.307 288.744C175.33 288.758 175.348 288.779 175.359 288.804Z" fill="black"/>
<path fill-rule="evenodd" clip-rule="evenodd" d="M101.11 279.792L102.113 280.822L103.509 280.725C103.585 280.72 103.65 280.777 103.656 280.852C103.657 280.876 103.653 280.899 103.643 280.92L103.03 282.226L103.585 283.582C103.614 283.652 103.58 283.732 103.51 283.761C103.486 283.771 103.461 283.774 103.435 283.769L102.122 283.546C102.081 283.539 102.039 283.551 102.008 283.578L101.013 284.464C100.957 284.514 100.87 284.509 100.82 284.452C100.803 284.433 100.792 284.41 100.787 284.385L100.539 282.94L99.3275 282.157C99.2639 282.116 99.2457 282.032 99.2867 281.968C99.2994 281.948 99.3169 281.932 99.3375 281.921L100.573 281.264L100.878 279.858C100.894 279.784 100.967 279.737 101.041 279.753C101.067 279.759 101.091 279.773 101.11 279.792Z" fill="black"/>
<path fill-rule="evenodd" clip-rule="evenodd" d="M85.4449 185.872L86.0351 187.183L87.3805 187.569C87.4532 187.59 87.4953 187.666 87.4744 187.739C87.4679 187.761 87.4559 187.782 87.4393 187.798L86.4172 188.816L86.4744 190.28C86.4774 190.356 86.4185 190.419 86.3429 190.422C86.3173 190.423 86.2919 190.417 86.2697 190.405L85.1125 189.746C85.0763 189.725 85.0328 189.722 84.9941 189.737L83.7564 190.229C83.6861 190.257 83.6064 190.222 83.5785 190.152C83.569 190.128 83.5664 190.102 83.571 190.077L83.8315 188.635L82.9609 187.485C82.9152 187.425 82.9271 187.339 82.9874 187.293C83.006 187.279 83.0279 187.27 83.051 187.267L84.4371 187.071L85.204 185.855C85.2444 185.791 85.329 185.772 85.393 185.812C85.4158 185.826 85.4339 185.847 85.4449 185.872Z" fill="black"/>
<path fill-rule="evenodd" clip-rule="evenodd" d="M85.3076 187.178L85.5583 187.735L86.1298 187.899C86.1607 187.908 86.1786 187.94 86.1697 187.971C86.167 187.981 86.1618 187.989 86.1548 187.996L85.7206 188.428L85.745 189.05C85.7462 189.083 85.7212 189.11 85.6891 189.111C85.6782 189.111 85.6674 189.109 85.658 189.103L85.1664 188.823C85.1511 188.815 85.1326 188.813 85.1162 188.82L84.5904 189.029C84.5606 189.041 84.5267 189.026 84.5149 188.996C84.5108 188.986 84.5097 188.975 84.5117 188.964L84.6223 188.352L84.2525 187.863C84.2331 187.838 84.2382 187.801 84.2638 187.782C84.2717 187.776 84.281 187.772 84.2908 187.77L84.8796 187.688L85.2053 187.171C85.2225 187.144 85.2584 187.135 85.2856 187.153C85.2953 187.159 85.303 187.167 85.3076 187.178Z" fill="#E7EAEE"/>
<path fill-rule="evenodd" clip-rule="evenodd" d="M15.2845 243.414L15.8747 244.725L17.2201 245.112C17.2928 245.132 17.3349 245.208 17.314 245.281C17.3075 245.303 17.2955 245.324 17.2789 245.34L16.2568 246.358L16.314 247.822C16.317 247.898 16.2581 247.962 16.1825 247.965C16.1569 247.966 16.1315 247.96 16.1093 247.947L14.9521 247.288C14.9159 247.267 14.8724 247.264 14.8337 247.28L13.596 247.771C13.5257 247.799 13.446 247.765 13.4181 247.694C13.4086 247.671 13.406 247.645 13.4106 247.619L13.6711 246.177L12.8005 245.027C12.7548 244.967 12.7667 244.881 12.827 244.835C12.8456 244.821 12.8675 244.812 12.8906 244.809L14.2767 244.614L15.0436 243.397C15.084 243.333 15.1686 243.314 15.2326 243.354C15.2554 243.369 15.2735 243.389 15.2845 243.414Z" fill="black"/>
<path fill-rule="evenodd" clip-rule="evenodd" d="M74.5827 125.647L75.0114 125.946C75.4925 126.288 77.2885 127.98 77.6642 128.288C78.5622 127.875 79.5717 127.659 80.8708 127.591C81.3432 127.566 81.7461 127.929 81.7708 128.402C81.7955 128.874 81.4326 129.277 80.9602 129.301C80.2117 129.341 79.5946 129.432 79.0469 129.595C79.8766 130.544 80.1844 131.373 80.2003 132.246L80.2004 132.414C80.2004 132.887 79.817 133.27 79.344 133.27C78.9005 133.27 78.5358 132.933 78.492 132.502L78.4875 132.414L78.4875 132.27C78.4749 131.711 78.2391 131.148 77.4648 130.38C77.116 130.631 76.7694 130.932 76.3996 131.292L75.4908 132.211C75.1578 132.546 74.6156 132.549 74.2796 132.216C73.9437 131.883 73.9413 131.341 74.2743 131.005L75.0317 130.235C75.4052 129.862 75.7645 129.534 76.1244 129.248C75.4925 127.805 73.1241 126.258 73.3919 125.868C73.6596 125.479 74.1927 125.379 74.5827 125.647Z" fill="black"/>
<path fill-rule="evenodd" clip-rule="evenodd" d="M239.827 224.421L240.994 225.262L242.352 224.923C242.425 224.905 242.5 224.95 242.518 225.023C242.524 225.046 242.523 225.069 242.517 225.092L242.141 226.484L242.923 227.724C242.963 227.788 242.944 227.873 242.88 227.913C242.858 227.927 242.833 227.934 242.808 227.934L241.476 227.942C241.434 227.942 241.395 227.961 241.369 227.994L240.543 229.039C240.496 229.098 240.41 229.108 240.351 229.061C240.331 229.045 240.315 229.024 240.307 229L239.811 227.621L238.482 227.06C238.413 227.031 238.38 226.95 238.409 226.88C238.418 226.859 238.433 226.84 238.451 226.826L239.554 225.964L239.61 224.527C239.613 224.451 239.676 224.392 239.752 224.395C239.779 224.396 239.805 224.405 239.827 224.421Z" fill="black"/>
<path fill-rule="evenodd" clip-rule="evenodd" d="M253.231 170.744L253.584 172.138L254.842 172.752C254.91 172.785 254.938 172.867 254.905 172.935C254.895 172.956 254.88 172.974 254.86 172.987L253.677 173.812L253.479 175.264C253.469 175.339 253.4 175.392 253.325 175.381C253.3 175.378 253.276 175.367 253.256 175.351L252.231 174.501C252.199 174.474 252.156 174.464 252.116 174.472L250.811 174.742C250.737 174.757 250.665 174.709 250.649 174.635C250.644 174.61 250.646 174.584 250.655 174.56L251.162 173.185L250.504 171.901C250.47 171.834 250.496 171.751 250.564 171.717C250.585 171.706 250.608 171.701 250.631 171.702L252.03 171.75L252.997 170.685C253.047 170.629 253.134 170.625 253.19 170.676C253.21 170.694 253.224 170.718 253.231 170.744Z" fill="black"/>
<path fill-rule="evenodd" clip-rule="evenodd" d="M222.707 114.638L223.06 116.032L224.318 116.645C224.386 116.679 224.414 116.761 224.381 116.829C224.371 116.85 224.355 116.868 224.336 116.881L223.153 117.706L222.955 119.158C222.945 119.233 222.876 119.285 222.801 119.275C222.775 119.272 222.751 119.261 222.732 119.245L221.707 118.395C221.675 118.368 221.632 118.358 221.591 118.366L220.287 118.635C220.213 118.651 220.141 118.603 220.125 118.529C220.12 118.504 220.122 118.478 220.131 118.454L220.638 117.079L219.98 115.795C219.946 115.728 219.972 115.645 220.04 115.611C220.06 115.6 220.084 115.595 220.107 115.596L221.506 115.644L222.472 114.579C222.523 114.523 222.61 114.519 222.666 114.57C222.686 114.588 222.7 114.611 222.707 114.638Z" fill="black"/>
<path fill-rule="evenodd" clip-rule="evenodd" d="M312.883 128.297L313.403 128.251C313.991 128.203 314.525 128.176 315.01 128.17C315.433 127.277 316.067 126.462 317.019 125.575C317.365 125.253 317.906 125.272 318.229 125.618C318.552 125.964 318.532 126.506 318.187 126.828C317.638 127.339 317.224 127.806 316.91 128.283C318.155 128.476 318.924 128.914 319.497 129.572L319.605 129.701C319.909 130.063 319.862 130.603 319.5 130.907C319.16 131.192 318.664 131.169 318.353 130.866L318.293 130.802L318.201 130.692C317.831 130.271 317.289 129.992 316.202 129.901C316.096 130.317 316.024 130.771 315.972 131.284L315.867 132.572C315.827 133.044 315.414 133.394 314.942 133.355C314.471 133.316 314.12 132.902 314.16 132.43L314.245 131.354C314.291 130.828 314.356 130.346 314.447 129.895C314.03 129.917 313.565 129.952 313.048 130.002C312.577 130.048 312.158 129.703 312.113 129.232C312.067 128.761 312.412 128.343 312.883 128.297Z" fill="black"/>
<path fill-rule="evenodd" clip-rule="evenodd" d="M243.724 187.418C243.569 187.81 243.23 188.352 242.836 188.865L243.175 189.217L243.569 189.636L243.656 189.72C243.695 189.754 243.725 189.774 243.746 189.78C243.874 189.798 243.962 189.916 243.945 190.044C243.927 190.169 243.81 190.26 243.683 190.241C243.567 190.239 243.149 190.075 242.65 189.67C242.56 189.597 242.47 189.512 242.378 189.419C242.09 189.74 241.8 190.016 241.548 190.187C241.179 190.442 240.859 190.463 240.706 190.359C240.555 190.259 240.411 189.921 240.656 189.238C240.694 189.115 240.826 189.05 240.948 189.088C241.07 189.127 241.137 189.257 241.099 189.38C241.061 189.507 241.056 189.623 241.056 189.715L241.198 189.619C241.248 189.583 241.299 189.542 241.346 189.495C241.518 189.326 241.709 189.121 241.901 188.899C241.597 188.545 241.287 188.13 241.036 187.651C240.913 187.417 240.816 187.169 240.723 186.908C240.659 186.762 240.725 186.591 240.871 186.526C241.017 186.462 241.188 186.529 241.253 186.674C241.532 187.26 241.889 187.765 242.241 188.197L242.359 188.338C242.68 187.918 242.956 187.492 243.081 187.169C243.15 186.992 243.35 186.904 243.527 186.972C243.706 187.042 243.793 187.242 243.724 187.418Z" fill="#E7EAEE"/>
<path fill-rule="evenodd" clip-rule="evenodd" d="M235.362 12.8706C235.883 12.7797 236.38 13.129 236.471 13.651C236.562 14.1729 236.213 14.6696 235.691 14.7606C233.208 15.1929 230.221 16.6767 227.64 19.0664C224.289 22.1696 221.817 26.5493 220.596 32.2664C219.613 36.8724 220.517 42.9369 223.087 47.9965C226.011 53.7528 230.711 57.6665 236.743 58.7681C242.934 59.8991 248.173 59.1967 254.024 57.1167L254.562 56.9211C254.733 56.8566 255.036 56.7396 255.417 56.5927L255.419 56.5918L255.421 56.5911L255.422 56.5907C256.831 56.0471 259.293 55.0973 259.999 54.8836C261.891 54.3115 263.181 54.3594 264.117 55.3564C264.479 55.7427 264.46 56.3498 264.074 56.7123C263.712 57.0521 263.156 57.0564 262.789 56.7373L262.718 56.6692C262.442 56.3751 261.871 56.341 260.723 56.6703L260.555 56.7199C259.932 56.9083 257.651 57.7875 256.23 58.3356C255.679 58.548 255.257 58.7107 255.111 58.7642C248.791 61.071 243.121 61.8833 236.398 60.6554C229.736 59.4386 224.557 55.1259 221.376 48.8653C218.613 43.4244 217.642 36.9141 218.72 31.8658C220.023 25.7642 222.694 21.0321 226.337 17.6588C229.188 15.0182 232.514 13.3666 235.362 12.8706ZM241.849 17.5046C242.369 17.4028 242.873 17.7417 242.975 18.2616C243.077 18.7815 242.738 19.2855 242.218 19.3873C234.443 20.9099 228.191 26.848 226.378 34.7025C225.764 37.3608 225.95 39.5222 226.552 40.3469L226.632 40.4503L226.638 40.4647L226.649 40.456C226.865 40.2614 227.117 39.7642 227.312 38.9934L227.353 38.8241C229.218 30.7459 235.377 24.4929 243.244 22.393C243.756 22.2563 244.281 22.5605 244.418 23.0723C244.555 23.5842 244.25 24.1099 243.739 24.2465C236.651 26.1384 231.083 31.7183 229.296 38.9492L229.223 39.2557C228.565 42.1047 226.676 43.4648 225.147 41.6613C224.028 40.3422 223.753 37.5432 224.508 34.271C226.493 25.6725 233.338 19.1713 241.849 17.5046ZM253.386 28.0332C253.348 27.5048 252.889 27.107 252.36 27.1447C243.025 27.8107 234.837 33.8745 231.58 42.8243C230.344 46.2204 230.27 49.2405 231.282 50.7807C232.639 52.8466 234.775 51.6747 235.839 48.7496L235.951 48.4494C238.832 40.8752 245.582 35.5852 253.485 34.4821C254.01 34.4089 254.376 33.9242 254.302 33.3995C254.229 32.8748 253.744 32.5088 253.22 32.5821C244.517 33.7969 237.097 39.6852 234.037 48.0934L233.969 48.2731C233.629 49.1482 233.256 49.6758 232.974 49.8307L232.961 49.8391C232.959 49.8408 232.958 49.8423 232.956 49.8435C232.954 49.8455 232.953 49.8467 232.952 49.8465C232.95 49.8463 232.949 49.8436 232.946 49.8372C232.94 49.8231 232.927 49.7907 232.885 49.7272L232.834 49.6437C232.278 48.6567 232.363 46.2821 233.382 43.4805C236.379 35.2482 243.909 29.6709 252.497 29.0583C253.025 29.0205 253.423 28.5616 253.386 28.0332ZM257.563 37.3582C258.092 37.3205 258.551 37.7183 258.588 38.2467C258.626 38.7751 258.228 39.2341 257.7 39.2718C251.679 39.7013 246.399 43.6116 244.298 49.3835C243.675 51.0945 243.56 52.5573 243.783 53.2981L243.81 53.3808L243.852 53.3196C243.959 53.1572 244.08 52.9238 244.198 52.6213L244.249 52.4874C246.468 46.3907 251.848 42.1211 258.158 41.2403C258.683 41.1671 259.167 41.533 259.241 42.0577C259.314 42.5824 258.948 43.0671 258.423 43.1403C252.903 43.9109 248.185 47.595 246.152 52.8737L246.051 53.1435C245.229 55.4043 243.449 56.381 242.312 54.6499C241.532 53.4636 241.587 51.2241 242.495 48.7273C244.857 42.238 250.794 37.8411 257.563 37.3582ZM262.619 45.0868C262.581 44.5584 262.122 44.1606 261.594 44.1983C257.06 44.5217 253.084 47.4663 251.503 51.8123C250.879 53.5257 250.841 55.0851 251.418 55.9631C252.364 57.4026 253.833 56.596 254.446 54.9139L254.529 54.6931C255.817 51.402 258.771 49.1074 262.223 48.6255C262.748 48.5523 263.114 48.0676 263.041 47.5429C262.967 47.0182 262.483 46.6522 261.958 46.7255L261.715 46.762C257.998 47.3607 254.791 49.7197 253.129 53.1149L253.071 53.2357L253.107 53.098C253.16 52.8977 253.226 52.6869 253.305 52.4685C254.626 48.84 257.945 46.3819 261.73 46.1118C262.259 46.0741 262.656 45.6152 262.619 45.0868Z" fill="black"/>
<path fill-rule="evenodd" clip-rule="evenodd" d="M257.563 37.3582C258.092 37.3205 258.551 37.7183 258.588 38.2467C258.626 38.7752 258.228 39.2341 257.7 39.2718C251.679 39.7014 246.399 43.6117 244.298 49.3835C243.675 51.0945 243.56 52.5573 243.783 53.2982L243.81 53.3809L243.852 53.3197C243.959 53.1572 244.08 52.9239 244.198 52.6213L244.249 52.4874C246.468 46.3908 251.848 42.1211 258.158 41.2403C258.683 41.1671 259.168 41.533 259.241 42.0577C259.314 42.5824 258.948 43.0671 258.423 43.1403C252.903 43.9109 248.185 47.595 246.153 52.8738L246.052 53.1435C245.229 55.4044 243.449 56.381 242.312 54.6499C241.532 53.4636 241.587 51.2241 242.495 48.7274C244.857 42.238 250.794 37.8412 257.563 37.3582Z" fill="black"/>
<path d="M197.824 162.247C217.934 152.841 234.747 147.872 245.215 146.96C248.421 146.681 249.875 148.448 249.063 151.323C248.46 153.457 246.625 156.386 243.811 159.855C238.906 165.902 232.439 171.077 225.998 175.889C236.302 166.38 238.93 162.401 242.107 158.484L242.607 157.861C244.963 154.881 246.486 152.392 246.955 150.732L247.021 150.479C247.314 149.281 246.975 148.997 245.406 149.134C235.175 150.025 218.425 155.004 198.389 164.397C178.321 173.806 177.747 171.638 197.824 162.247Z" fill="#838ED9"/>
<path d="M105.851 131.818L105.998 132.168C107.017 134.584 108.075 136.976 109.277 139.585L109.744 140.597C109.591 140.7 109.39 140.809 109.168 140.906C108.85 141.045 108.527 141.142 108.285 141.175L108.207 141.183L108.09 141.043C107.182 139.925 106.129 138.025 105.367 136.136C104.961 135.131 104.672 134.208 104.542 133.499C104.489 133.21 104.465 132.967 104.467 132.783L104.472 132.662C104.474 132.632 104.474 132.617 104.467 132.615L104.496 132.595C104.658 132.484 105.072 132.241 105.688 131.907L105.851 131.818Z" fill="#838ED9"/>
<path fill-rule="evenodd" clip-rule="evenodd" d="M131.273 123.067C131.902 122.297 132.718 122.412 133.752 123.039L134.018 123.206L134.761 123.699C134.969 123.832 135.059 123.878 135.18 123.926C135.461 124.038 135.599 124.357 135.487 124.638C135.375 124.92 135.056 125.057 134.775 124.945L134.674 124.904C134.484 124.822 134.341 124.738 133.956 124.482L133.422 124.127C133.335 124.07 133.259 124.022 133.184 123.976C132.565 123.601 132.285 123.562 132.122 123.761C132.019 123.887 132.044 124.154 132.248 124.704L132.472 125.28C132.916 126.46 132.919 126.987 132.127 127.438C131.445 127.826 131.096 127.644 130.117 126.685L129.879 126.45C129.252 125.824 128.923 125.606 128.712 125.65C128.641 125.665 128.559 125.715 128.459 125.822C128.342 125.947 128.308 126.348 128.38 127.058L128.491 127.986C128.62 129.12 128.568 129.414 128.1 129.727C127.455 130.159 126.597 129.671 125.007 128.243C124.782 128.041 124.763 127.694 124.965 127.469C125.168 127.244 125.514 127.225 125.739 127.427C126.419 128.038 126.932 128.435 127.291 128.639L127.371 128.683L127.438 128.716L127.44 128.648L127.436 128.483C127.429 128.349 127.412 128.186 127.378 127.91L127.308 127.341C127.175 126.186 127.217 125.544 127.659 125.072C127.905 124.81 128.181 124.642 128.485 124.578C129.189 124.429 129.689 124.73 130.52 125.542L130.939 125.954C131.391 126.389 131.559 126.5 131.585 126.485C131.688 126.427 131.672 126.245 131.395 125.532L131.273 125.223C130.886 124.228 130.812 123.632 131.273 123.067Z" fill="black"/>
<path fill-rule="evenodd" clip-rule="evenodd" d="M191.112 33.85L190.592 33.8965C190.121 33.942 189.776 34.3606 189.822 34.8314C189.849 35.1161 190.013 35.3547 190.243 35.4888L190.152 35.553C189.766 35.826 189.674 36.3605 189.947 36.7467C190.22 37.133 190.755 37.2248 191.141 36.9518L192.021 36.3288C191.995 36.5303 191.973 36.7383 191.954 36.9537L191.869 38.0298C191.83 38.5012 192.18 38.9151 192.651 38.9542C193.123 38.9934 193.537 38.643 193.576 38.1716L193.681 36.8838C193.709 36.608 193.743 36.3496 193.784 36.105C194.085 36.6758 194.146 37.1154 194.082 37.5312L194.057 37.6726L194.046 37.7596C194.014 38.1925 194.315 38.5877 194.752 38.6647C195.218 38.7469 195.662 38.4358 195.744 37.97L195.773 37.8041C195.864 37.2263 195.822 36.6445 195.589 35.9987C195.711 36.0866 195.816 36.1844 195.91 36.2913L196.002 36.4012L196.062 36.4655C196.373 36.7681 196.869 36.7918 197.209 36.5068C197.571 36.2027 197.618 35.6625 197.314 35.3002L197.206 35.1713C197.167 35.1271 197.128 35.0839 197.088 35.0417C197.535 35.068 197.932 34.7422 197.987 34.2912C198.045 33.8217 197.711 33.3944 197.242 33.3366C196.434 33.2373 195.728 33.215 195.078 33.2734C195.311 32.9991 195.581 32.7206 195.896 32.4275C196.242 32.105 196.261 31.563 195.938 31.217C195.616 30.8711 195.074 30.852 194.728 31.1746C194.147 31.7156 193.685 32.2297 193.317 32.7511C193.174 32.6002 193.025 32.4456 192.868 32.287L192.498 31.918C192.161 31.5866 191.618 31.5916 191.287 31.9291C190.956 32.2666 190.96 32.8089 191.298 33.1403C191.532 33.3704 191.749 33.5881 191.948 33.7944C191.682 33.8078 191.404 33.8263 191.112 33.85Z" fill="black"/>
<path fill-rule="evenodd" clip-rule="evenodd" d="M158.876 39.9715C158.563 39.6501 158.055 39.6591 157.743 39.9916C157.43 40.324 157.43 40.8541 157.744 41.1755C158.041 41.4804 158.307 41.7629 158.545 42.0259C158.042 42.2388 157.538 42.5145 156.998 42.8549L156.179 43.3803C155.82 43.6093 155.741 44.0676 156.004 44.4038C156.267 44.7401 156.771 44.827 157.131 44.5979L158.113 43.9713C158.626 43.6572 159.088 43.4195 159.553 43.2527C160.259 44.2344 160.406 44.8637 160.317 45.4472L160.292 45.5856L160.281 45.6707C160.248 46.0942 160.527 46.4783 160.935 46.5503C161.37 46.627 161.788 46.3196 161.869 45.8636L161.897 45.7012C162.031 44.855 161.888 44.0024 161.281 42.9493C161.693 42.9429 162.141 42.9734 162.65 43.0384C163.093 43.095 163.49 42.8143 163.537 42.4114C163.585 42.0085 163.264 41.636 162.821 41.5794C161.85 41.4553 161.036 41.4411 160.291 41.5418C159.985 41.1649 159.63 40.7626 159.22 40.3295L158.876 39.9715Z" fill="#F59292"/>
<path fill-rule="evenodd" clip-rule="evenodd" d="M47.735 182.565L48.3251 183.876L49.6705 184.262C49.7433 184.283 49.7853 184.359 49.7644 184.432C49.758 184.454 49.7459 184.475 49.7294 184.491L48.7072 185.509L48.7645 186.973C48.7674 187.049 48.7085 187.112 48.6329 187.115C48.6073 187.116 48.582 187.11 48.5597 187.097L47.4025 186.438C47.3664 186.418 47.3228 186.415 47.2841 186.43L46.0465 186.922C45.9761 186.95 45.8965 186.915 45.8685 186.845C45.8591 186.821 45.8565 186.795 45.861 186.77L46.1215 185.328L45.2509 184.178C45.2052 184.118 45.2171 184.032 45.2775 183.986C45.2961 183.972 45.318 183.963 45.3411 183.959L46.7271 183.764L47.4941 182.548C47.5344 182.484 47.619 182.464 47.6831 182.505C47.7059 182.519 47.7239 182.54 47.735 182.565Z" fill="black"/>
<path fill-rule="evenodd" clip-rule="evenodd" d="M55.6046 109.771L56.1948 111.083L57.5401 111.469C57.6129 111.49 57.6549 111.566 57.6341 111.638C57.6276 111.661 57.6156 111.681 57.599 111.698L56.5768 112.715L56.6341 114.18C56.6371 114.255 56.5782 114.319 56.5025 114.322C56.477 114.323 56.4516 114.317 56.4294 114.304L55.2722 113.645C55.236 113.624 55.1924 113.621 55.1538 113.637L53.9161 114.128C53.8457 114.156 53.7661 114.122 53.7381 114.052C53.7287 114.028 53.7261 114.002 53.7307 113.977L53.9912 112.534L53.1206 111.384C53.0749 111.324 53.0868 111.238 53.1471 111.193C53.1657 111.178 53.1876 111.169 53.2107 111.166L54.5967 110.971L55.3637 109.754C55.4041 109.69 55.4887 109.671 55.5527 109.711C55.5755 109.726 55.5935 109.747 55.6046 109.771Z" fill="black"/>
<path d="M73.4304 225.667C73.87 225.347 74.4852 225.445 74.8044 225.885C75.1236 226.324 61.2067 237.66 55.808 242.854L55.1805 243.463C52.0969 246.48 49.8233 249.093 48.5418 251.158C47.1838 253.347 47.0967 254.536 47.9734 255.021C51.2997 256.865 56.0822 257.763 62.9317 256.628L63.6355 256.508C66.2428 256.052 85.8553 251.774 85.5448 251.888L85.4242 251.924C84.8059 252.088 76.82 254.85 74.0637 255.551L73.7305 255.636C69.5169 256.695 66.2195 257.422 63.2532 257.914C56.0049 259.114 50.8262 258.852 47.0197 256.742C44.8232 255.525 44.9981 253.138 46.87 250.121C48.3423 247.748 50.9321 244.816 54.4439 241.437C59.9148 236.172 67.6098 229.893 73.4304 225.667Z" fill="#838ED9"/>
</svg>
