<svg width="375" height="298" viewBox="0 0 375 298" fill="none" xmlns="http://www.w3.org/2000/svg">
<g clip-path="url(#clip0)">
<path d="M370.75 127.118C386.281 97.156 402.367 52.7684 357.324 17.3572C312.278 -18.0571 267.792 8.5966 246.865 27.8681C234.791 38.9869 223.799 51.8862 214.174 63.1818C208.562 69.7671 203.415 75.8074 198.789 80.632C167.61 113.146 136.27 121.798 92.5618 133.864C75.5243 138.567 56.6075 143.789 35.0885 151.145C-23.4704 171.166 -31.896 190.007 -25.1149 207.517C-22.943 206.606 -20.6667 205.706 -18.2899 204.82C21.2561 190.07 88.6547 178.944 166.864 178.944C266.727 178.944 370.587 215.03 409.447 243.936C403.522 232.025 388.151 219.255 374.08 207.565C362.625 198.048 352.032 189.247 348.101 182.21C340.232 168.124 345.476 161.753 354.36 150.963C359.248 145.026 365.237 137.752 370.75 127.118Z" fill="#657DC4"/>
<path d="M371.328 290.106L370.798 290.12L368.468 290.169C290.794 291.67 133.664 281.751 33.9849 268.88C33.9833 268.88 33.9817 268.879 33.9801 268.878L33.9675 268.878C33.9733 268.879 33.9791 268.88 33.9849 268.88C73.9935 285.022 130.775 295.915 189.048 296.082C237.26 296.22 270.376 296.996 294.069 297.551C343.815 298.717 352.019 298.91 371.183 290.173L371.328 290.106Z" fill="#657DC4"/>
<path fill-rule="evenodd" clip-rule="evenodd" d="M154.927 18.1505C154.537 17.8828 154.004 17.9818 153.736 18.3718C153.468 18.7617 153.567 19.2948 153.957 19.5626C154.386 19.8567 154.764 20.1282 155.098 20.3805C154.739 20.6669 154.379 20.9949 154.006 21.3683L153.248 22.1376C152.915 22.4735 152.918 23.0158 153.254 23.3488C153.589 23.6818 154.132 23.6794 154.465 23.3435L155.373 22.4249C155.743 22.0648 156.09 21.7635 156.439 21.5132C157.213 22.2808 157.449 22.8438 157.461 23.4034L157.461 23.5469L157.466 23.6345C157.51 24.0664 157.874 24.4034 158.318 24.4034C158.791 24.4034 159.174 24.0199 159.174 23.5469L159.174 23.3785C159.158 22.5061 158.85 21.6762 158.021 20.7279C158.569 20.5648 159.186 20.4735 159.934 20.4344C160.406 20.4097 160.769 20.0068 160.745 19.5345C160.72 19.0621 160.317 18.6992 159.845 18.7239C158.546 18.7917 157.536 19.0082 156.637 19.4196C156.262 19.1126 155.836 18.7905 155.356 18.4496L154.927 18.1505Z" fill="#657DC4"/>
<path fill-rule="evenodd" clip-rule="evenodd" d="M138.212 80.1505L138.641 80.4496C139.122 80.7909 140.918 82.4836 141.293 82.7908C142.191 82.3786 143.201 82.162 144.5 82.0942C144.972 82.0695 145.375 82.4324 145.4 82.9048C145.425 83.3771 145.062 83.7801 144.589 83.8047C143.841 83.8438 143.224 83.9352 142.676 84.0984C143.506 85.0471 143.814 85.8767 143.829 86.7488L143.83 86.9173C143.83 87.3903 143.446 87.7737 142.973 87.7737C142.53 87.7737 142.165 87.4367 142.121 87.0048L142.117 86.9173L142.117 86.7737C142.104 86.2142 141.868 85.6512 141.094 84.8837C140.745 85.1338 140.399 85.4351 140.029 85.7952L139.12 86.7138C138.787 87.0497 138.245 87.0521 137.909 86.7191C137.573 86.3861 137.57 85.8439 137.903 85.5079L138.661 84.7386C139.034 84.3652 139.394 84.0373 139.754 83.7509C139.122 82.3084 136.753 80.7617 137.021 80.3718C137.289 79.9818 137.822 79.8828 138.212 80.1505Z" fill="#657DC4"/>
<path fill-rule="evenodd" clip-rule="evenodd" d="M73.9721 50.157L75.1404 52.7055L77.8035 53.4558C77.9475 53.4964 78.0307 53.6439 77.9894 53.7852C77.9767 53.8288 77.9528 53.8685 77.9201 53.9004L75.8967 55.8777L76.01 58.7233C76.0159 58.8703 75.8993 58.9941 75.7496 58.9998C75.6989 59.0017 75.6488 58.9897 75.6047 58.9651L73.3141 57.6845C73.2425 57.6445 73.1562 57.6386 73.0797 57.6684L70.6297 58.6236C70.4905 58.6779 70.3328 58.6111 70.2775 58.4744C70.2588 58.4282 70.2537 58.3778 70.2627 58.3288L70.7784 55.5264L69.055 53.2919C68.9646 53.1747 68.9881 53.0077 69.1075 52.9189C69.1444 52.8915 69.1877 52.8739 69.2334 52.8675L71.9771 52.4883L73.4953 50.1243C73.5752 49.9999 73.7427 49.9626 73.8694 50.0411C73.9145 50.069 73.9502 50.1093 73.9721 50.157Z" fill="#657DC4"/>
<path fill-rule="evenodd" clip-rule="evenodd" d="M171.494 192.47L173.399 192.593L170.578 237.832L169.22 239.542L167.13 238.108L171.494 192.47Z" fill="white"/>
<circle cx="315.175" cy="81.9803" r="52.7647" fill="white"/>
<path fill-rule="evenodd" clip-rule="evenodd" d="M177.049 133.398C177.049 133.398 176.932 130.37 180.54 130.192C184.145 130.013 213.593 133.398 213.593 133.398C213.593 133.398 219.93 134.31 218.884 141.431C217.834 148.552 214.009 164.961 214.009 164.961C214.009 164.961 214.458 167.768 209.857 167.023C205.256 166.278 191.595 162.726 177.049 164.981C177.049 164.981 174.647 165.262 174.716 175.478L173.399 175.235C173.399 175.235 175.322 136.263 177.049 133.398Z" fill="white"/>
<path fill-rule="evenodd" clip-rule="evenodd" d="M198.662 109.304C198.947 109 198.662 109.304 198.662 109.304C197.507 110.543 196.525 111.645 195.892 112.44C192.87 116.24 188.821 119.843 187.186 122.597C187.186 122.597 179.948 125.895 177.049 122.465C177.049 122.465 183.698 113.746 188.972 109.851C188.972 109.851 194.095 107.328 198.662 109.304V109.304Z" fill="white"/>
<path fill-rule="evenodd" clip-rule="evenodd" d="M204.282 103.489V103.489L198.93 101.935C198.93 101.935 204.357 98.5528 207.365 97.2721L209.857 97.9473C209.857 97.9473 207.281 100.464 204.282 103.489C204.282 103.489 204.207 103.57 204.282 103.489Z" fill="white"/>
<path fill-rule="evenodd" clip-rule="evenodd" d="M115.426 248.541C115.426 248.541 106.012 246.454 103.771 235.689C103.771 235.689 105.487 232.583 112.214 225.393C112.214 225.393 120.719 219.932 119.318 211.277C119.318 211.277 110.041 208.872 113.143 194.775L115.122 191.162C115.122 191.162 112.931 175.511 114.787 166.245C114.787 166.245 113.071 154.425 120.22 153.577C120.22 153.577 123.228 153.136 123.56 151.959C123.56 151.959 119.157 139.762 132.048 133.85C144.936 127.94 154.964 138.122 154.559 148.973C154.559 148.973 153.443 156.401 148.895 159.724C148.895 159.724 158.664 165.835 164.102 173.868C164.102 173.868 170.182 180.174 172.855 179.111C172.855 179.111 181.006 178.932 179.895 181.781C178.787 184.627 178.006 188.706 166.072 189.326C166.072 189.326 154.534 187.847 151.526 187.763L149.411 187.024C149.411 187.024 152.015 192.546 149.183 197.811C146.35 203.073 144.291 204.895 144.595 205.917L150.868 235.248C150.868 235.248 150.416 240.201 155.96 239.333C161.504 238.462 160.034 241.847 158.929 242.659C157.824 243.474 148.689 251.286 141.021 241.322C133.353 231.356 132.226 229.307 132.226 229.307L116.894 240.042C116.894 240.042 115.702 241.2 116.57 243.895C116.57 243.895 118.227 247.885 115.426 248.541Z" fill="white"/>
<path fill-rule="evenodd" clip-rule="evenodd" d="M316.282 27.868C316.147 27.848 252.954 24.8603 255.687 86.2541C258.046 139.231 315.262 137.776 315.303 137.774C373.774 134.745 391.732 39.029 316.282 27.868ZM315.993 31.2559C315.866 31.2362 255.289 28.573 257.854 86.1811C260.068 135.891 315.265 135.039 315.303 135.038C370.169 132.196 384.212 41.8168 315.993 31.2559Z" fill="black"/>
<path fill-rule="evenodd" clip-rule="evenodd" d="M104.01 239.348C103.565 238.048 103.101 236.82 103.454 235.118C104.025 232.361 105.988 231.036 107.576 229.261C110.279 226.239 112.876 223.103 115.794 220.304C117.502 218.666 118.221 216.981 117.985 214.727C117.941 214.305 118.17 213.856 118.272 213.421C118.946 213.591 119.619 213.764 120.292 213.934C120.21 214.132 120.025 214.35 120.062 214.523C120.457 216.376 120.042 217.983 118.984 219.582C117.625 221.632 116.073 223.438 114.138 224.97C113.187 225.723 112.456 226.758 111.653 227.69C110.048 229.554 108.436 231.412 106.879 233.315C106.175 234.175 105.512 235.093 105.007 236.075C104.838 236.404 105.159 237.043 105.36 237.492C105.884 238.661 106.406 239.842 107.038 240.955C107.883 242.442 108.766 243.91 110.371 244.775C111.453 245.358 112.395 246.243 113.521 246.686C114.318 247.002 115.317 246.801 116.226 246.829C116.203 246.39 116.234 245.941 116.146 245.517C115.845 244.058 115.257 242.61 115.246 241.153C115.235 239.825 116.083 238.781 117.459 238.145C118.643 237.596 119.657 236.675 120.732 235.899C121.511 235.335 122.272 234.747 123.033 234.161C124.302 233.179 125.548 232.166 126.834 231.206C128.89 229.677 131.099 228.321 133 226.619C134.482 225.293 136.074 223.728 136.727 221.945C137.301 220.374 138.275 219.004 138.739 217.335C139.419 214.886 139.227 212.427 139.577 210C139.603 209.821 138.593 209.35 138.028 209.269C137.163 209.143 136.266 209.241 135.383 209.23C135.259 209.23 135.135 209.16 135.011 209.124C135.092 209.023 135.156 208.9 135.257 208.831C136.189 208.167 137.242 206.855 138.039 206.995C139.568 207.263 140.139 206.124 141.143 205.696C142.824 204.977 144.143 203.688 145.271 202.32C146.489 200.844 147.462 199.155 148.441 197.501C148.765 196.953 148.761 196.217 148.94 195.576C149.257 194.446 149.569 193.313 149.942 192.201C150.135 191.627 149.435 188.661 148.938 188.267C148.912 188.246 148.926 188.151 148.907 188.146C147.792 187.881 146.665 187.657 145.561 187.35C144.713 187.114 143.908 186.717 143.057 186.493C141.973 186.208 140.835 186.107 139.767 185.775C138.56 185.401 137.317 185.003 136.246 184.358C134.163 183.102 131.825 182.14 130.313 180.117C129.272 178.727 128.075 177.321 127.539 175.724C126.963 174.009 126.763 172.027 126.968 170.226C127.264 167.618 128.347 165.212 130.498 163.478C131.573 162.611 132.674 161.776 133.765 160.929C134.351 160.473 134.237 160.119 133.607 159.849C132.202 159.246 130.785 158.669 129.39 158.044C128.45 157.622 127.573 157.027 126.6 156.722C126.043 156.547 125.216 156.59 124.747 156.897C123.402 157.777 122.197 158.867 120.887 159.805C120.706 159.935 119.962 159.678 119.962 159.598C119.959 158.866 119.568 157.978 120.686 157.602C121.655 157.276 122.109 156.446 122.446 155.53C122.512 155.351 122.755 155.18 122.953 155.114C124.367 154.648 123.945 153.757 123.436 152.918C122.574 151.501 122.212 150.019 121.891 148.368C121.627 147.008 121.813 145.776 121.982 144.626C122.151 143.473 121.762 141.909 123.175 141.104C123.087 138.922 124.858 137.705 125.953 136.236C126.798 135.103 128.211 134.294 129.472 133.449C130.604 132.69 131.798 132.107 132.979 131.745C134.619 131.243 136.425 131.169 138.165 131.139C140.372 131.102 142.625 131.066 144.777 131.466C146.236 131.737 147.505 132.9 148.948 133.414C151.137 134.194 151.712 136.343 152.97 137.886C153.609 138.67 153.684 139.902 154.066 140.912C154.317 141.578 154.751 142.183 154.942 142.86C155.243 143.932 155.437 145.038 155.621 146.138C155.718 146.719 155.819 147.387 155.814 147.881C155.799 149.268 155.326 150.651 155.027 152.035C154.941 152.436 154.909 152.872 154.726 153.227C154.034 154.564 153.291 155.874 152.565 157.193C152.544 157.232 152.504 157.264 152.468 157.291C151.969 157.66 151.043 158.036 151.051 158.392C151.075 159.431 151.166 160.589 152.27 161.248C153.181 161.791 154.103 162.328 154.954 162.958C156.022 163.749 157.064 164.587 158.041 165.487C159.231 166.584 160.38 167.731 161.476 168.921C162.571 170.109 163.545 171.408 164.636 172.599C165.685 173.745 166.769 174.868 167.933 175.892C168.375 176.281 169.094 176.346 169.67 176.596C170.111 176.787 170.677 176.929 170.927 177.279C172.082 178.895 173.572 178.158 175.003 177.997C175.412 177.951 175.89 177.954 176.245 178.125C176.839 178.41 177.339 178.641 178.078 178.586C179.876 178.452 180.915 180.537 180.447 182.199C180.195 183.097 179.972 183.883 179.38 184.572C178.626 185.45 177.954 186.427 177.084 187.17C175.098 188.868 172.629 189.454 170.119 189.859C169.614 189.941 169.098 189.961 168.586 189.979C165.835 190.079 163.056 190.429 160.344 190.141C159.159 190.015 157.815 190.48 156.561 189.528C155.811 188.958 154.409 189.268 153.308 189.127C153.063 189.095 152.729 188.645 152.639 188.703C152.204 188.983 151.572 189.324 151.5 189.73C151.333 190.677 151.551 191.687 151.423 192.647C151.224 194.151 151.116 195.743 150.524 197.105C149.501 199.459 148.032 201.619 146.978 203.963C146.666 204.656 146.15 205.633 146.924 206.618C147.24 207.023 146.937 207.882 146.992 208.527C147.099 209.791 146.932 211.23 147.5 212.252C147.976 213.105 147.337 213.956 148.038 214.746C148.46 215.223 148.315 216.228 148.37 216.998C148.432 217.868 148.338 218.758 148.485 219.609C148.711 220.921 149.13 222.199 149.379 223.51C149.55 224.403 149.514 225.332 149.676 226.228C149.806 226.945 150.279 227.634 150.276 228.335C150.27 229.52 150.769 230.578 150.883 231.73C150.971 232.615 151.339 233.472 151.553 234.35C151.706 234.97 151.919 235.606 151.91 236.234C151.893 237.459 153.359 238.793 154.563 238.533C155.926 238.237 157.259 237.967 158.503 238.985C158.81 239.236 159.476 239.03 159.813 239.264C161.431 240.4 161.378 242.632 159.76 243.835C158.931 244.451 158.144 245.495 157.261 245.584C155.908 245.721 155.014 246.736 153.542 246.851C152.048 246.968 150.432 247.557 148.848 247.426C146.952 247.264 145.078 246.879 143.624 245.411C142.349 244.122 140.877 243.011 139.701 241.644C138.892 240.701 138.469 239.434 137.82 238.346C137.227 237.353 136.593 236.379 135.92 235.439C135.277 234.537 134.487 233.737 133.893 232.807C133.105 231.574 131.722 231.156 130.398 231.485C128.907 231.859 127.976 232.941 126.804 233.725C125.603 234.526 124.31 235.196 123.144 236.044C122.175 236.75 121.429 237.794 120.411 238.391C119.199 239.102 118.05 239.833 117.326 241.033C117.05 241.491 116.955 242.177 117.048 242.713C117.266 243.968 117.869 245.191 117.915 246.438C117.992 248.575 116.068 249.675 114.129 248.818C113.844 248.692 113.387 248.96 113.097 248.837C110.937 247.933 109.121 246.513 107.458 244.892C107.052 244.496 106.74 244.005 106.315 243.486C105.479 242.068 104.503 240.79 104.01 239.348ZM165.191 187.767C166.707 187.679 168.195 187.524 169.699 187.482C171.279 187.438 172.704 187.085 174.209 186.467C176.051 185.71 177.255 184.393 178.529 183.078C178.93 182.665 179.386 181.672 179.195 181.428C178.317 180.3 176.928 179.958 175.574 179.675C175.342 179.627 175.013 179.736 174.815 179.886C172.907 181.333 172.917 181.401 170.848 181.57C170.076 181.633 169.263 181.39 168.49 181.2C167.618 180.985 166.76 180.699 165.912 180.397C164.471 179.883 162.982 179.452 161.628 178.761C160.552 178.211 159.635 177.343 158.672 176.585C157.481 175.648 156.262 174.737 155.152 173.71C153.631 172.303 152.35 170.592 150.692 169.389C148.843 168.049 146.986 166.684 144.902 165.64C143.3 164.838 141.896 163.728 140.127 163.117C138.513 162.561 136.754 162.615 135.423 162.856C133.87 163.137 131.966 164.051 130.944 165.714C130.137 167.029 128.212 171.121 129.748 174.909C130.114 175.81 130.569 176.696 131.07 177.537C131.611 178.447 132.122 179.437 132.882 180.136C133.76 180.945 134.888 181.486 135.922 182.121C136.294 182.349 136.692 182.553 137.104 182.696C138.25 183.099 139.406 183.48 140.567 183.838C141.274 184.056 142.002 184.209 142.717 184.404C143.85 184.712 145.041 184.904 146.093 185.392C146.782 185.711 156.561 188.267 165.191 187.767ZM124.105 150.012C124.164 150.502 124.12 151.061 124.346 151.465C125.607 153.722 127.709 155.012 129.956 156.079C130.822 156.491 131.767 156.736 132.677 157.057C133.994 157.522 135.313 157.987 136.63 158.453C137.291 158.686 137.936 158.997 138.617 159.135C139.226 159.258 139.873 159.193 140.504 159.211C140.418 158.586 140.441 157.92 140.223 157.345C139.751 156.098 139.061 154.929 138.647 153.667C138.384 152.866 138.794 149.86 139.278 149.205C140.205 147.951 140.426 147.471 142.399 145.742C144.371 144.014 149.831 143.552 150.569 143.513C151.624 143.457 152.424 142.43 151.944 141.517C151.395 140.472 150.807 139.447 150.242 138.411C149.931 137.84 149.761 137.119 149.306 136.715C147.815 135.387 146.186 134.344 144.158 133.835C142.667 133.462 141.199 133.111 139.678 133.082C138.726 133.064 137.758 133.175 136.822 133.357C135.361 133.64 133.739 133.722 132.515 134.448C130.473 135.657 128.071 136.492 126.829 138.818C126.241 139.919 125.382 140.875 124.806 141.981C124.469 142.629 124.424 143.437 124.29 144.182C124.112 145.168 123.977 146.161 123.824 147.431C123.917 148.291 124.003 149.152 124.105 150.012ZM147.726 225.363C147.401 223.898 147.005 222.444 146.719 220.971C146.528 219.986 146.54 218.962 146.357 217.974C146.165 216.939 145.768 215.937 145.605 214.899C145.311 213.022 145.145 211.121 144.881 209.238C144.785 208.554 144.605 207.874 144.371 207.226C144.301 207.034 143.767 206.788 143.698 206.85C143.087 207.396 142.165 207.935 142.029 208.613C141.619 210.661 141.363 212.757 141.034 214.819C140.792 216.339 141.299 218.022 140.071 219.467C139.413 220.243 139.623 221.724 139.002 222.564C137.823 224.158 136.239 225.447 135.006 227.006C134.465 227.69 133.875 228.979 134.168 229.557C134.992 231.181 136.278 232.57 137.351 234.071C138.172 235.221 138.933 236.41 139.743 237.568C140.882 239.191 142.082 240.774 143.182 242.423C144.629 244.593 146.803 245.14 149.187 245.221C151.883 245.313 154.59 245.338 156.96 243.742C157.63 243.293 158.256 242.749 158.801 242.155C159.035 241.901 159.194 241.167 159.069 241.072C158.67 240.771 158.128 240.536 157.628 240.511C155.967 240.425 154.27 240.628 152.645 240.363C151.17 240.123 149.322 236.65 149.477 235.048C149.534 234.454 149.469 233.82 149.332 233.234C148.957 231.63 148.51 230.039 148.101 228.443C147.903 227.67 147.727 226.892 147.541 225.837C147.607 225.678 147.756 225.502 147.726 225.363ZM143.884 158.495C144.37 158.912 145.228 159.336 145.751 159.182C147.039 158.801 148.458 158.337 149.407 157.457C151.035 155.946 152.477 154.174 152.86 151.821C152.893 151.617 153.299 151.458 153.309 151.266C153.374 150.037 153.416 148.804 153.381 147.574C153.367 147.109 153.216 146.597 152.971 146.202C152.709 145.779 152.459 145.403 151.665 145.555C150.463 145.785 149.176 145.532 147.933 145.613C147.144 145.665 146.299 145.81 145.603 146.159C144.388 146.767 143.288 147.567 142.394 148.645C141.525 149.692 140.492 150.598 140.828 152.187C140.97 152.859 140.793 153.619 141.015 154.249C141.281 155.003 141.819 155.66 142.379 156.499C142.87 157.177 143.266 157.966 143.884 158.495ZM162.469 176.868C162.535 176.803 162.648 176.672 162.659 176.68C163.763 177.484 164.854 178.307 165.96 179.109C166.365 179.403 166.782 179.716 167.244 179.879C167.376 179.925 167.706 179.491 167.896 179.24C167.954 179.165 167.894 178.922 167.809 178.828C166.869 177.788 165.928 176.749 164.959 175.737C162.505 173.172 160.054 170.603 157.566 168.07C155.548 166.018 153.424 164.124 151.02 162.47C149.562 161.466 148.007 160.912 146.468 160.584C144.958 160.263 143.263 160.791 141.654 160.986C141.529 161.001 141.341 161.49 141.355 161.499C142.014 161.939 142.67 162.395 143.374 162.754C144.842 163.502 146.395 164.099 147.802 164.943C148.999 165.662 150.054 166.622 151.146 167.507C152.329 168.466 153.5 169.44 154.642 170.447C155.858 171.521 157.011 172.665 158.238 173.726C158.615 174.051 159.195 174.136 159.594 174.444C160.534 175.169 161.421 175.963 162.469 176.868Z" fill="black"/>
<path fill-rule="evenodd" clip-rule="evenodd" d="M414 244.822C413.202 244.853 412.259 245.168 411.628 244.858C410.665 244.384 350.228 213.511 288.536 194.739C235.934 178.733 180.65 174.363 179.79 174.29C179.542 174.269 235.153 172.891 289.354 189.145C351.667 207.831 413.741 244.509 414 244.822Z" fill="black"/>
<path fill-rule="evenodd" clip-rule="evenodd" d="M219.809 139.479C219.53 141.797 219.37 144 218.928 146.145C218.65 147.494 218.485 148.907 218.059 150.177C217.502 151.84 217.958 153.718 216.807 155.246C216.53 155.614 216.845 156.378 216.721 156.921C216.38 158.41 216.456 159.974 215.682 161.399C215.379 161.956 215.738 162.835 215.597 163.527C215.388 164.552 215.182 165.655 214.639 166.511C214.129 167.313 213.272 168.071 212.397 168.408C211.748 168.659 210.829 168.199 210.029 168.066C209.178 167.925 208.308 167.863 207.479 167.643C206.434 167.366 205.44 166.887 204.39 166.644C203.672 166.479 202.857 166.708 202.156 166.511C201.157 166.231 200.159 166.366 199.172 166.246C197.693 166.066 196.234 165.595 194.757 165.544C192.512 165.465 190.258 165.669 188.007 165.697C186.44 165.717 184.871 165.613 183.303 165.622C181.207 165.634 179.111 165.686 177.017 165.775C176.855 165.782 176.574 166.224 176.582 166.456C176.635 168.102 175.731 169.588 175.948 171.301C176.121 172.678 175.83 174.117 175.717 175.526C175.647 176.398 173.996 176.994 172.769 176.541C172.319 176.374 171.807 176.077 171.59 175.69C171.465 175.465 171.967 174.956 172.018 174.553C172.18 173.28 172.121 171.965 172.405 170.725C172.893 168.597 172.459 166.452 172.709 164.352C172.901 162.736 172.662 161.093 172.995 159.545C173.286 158.19 173.044 156.873 173.218 155.555C173.451 153.792 173.757 152.038 173.976 150.273C174.025 149.87 173.791 149.439 173.778 149.018C173.719 146.943 174.03 144.879 174.151 142.816C174.225 141.551 173.872 140.125 174.394 139.028C175.181 137.376 173.84 135.569 175.096 133.98C175.498 133.471 175.242 132.447 175.3 131.66C175.365 130.767 176.497 129.718 177.409 129.715C179.533 129.708 181.672 129.554 183.776 129.761C185.574 129.937 187.414 129.709 189.134 130.082C190.268 130.328 191.332 130.075 192.409 130.27C193.845 130.529 195.279 130.803 196.721 131.02C197.027 131.066 197.369 130.826 197.689 130.841C199.054 130.905 200.449 130.867 201.774 131.147C203.246 131.459 204.719 131.537 206.198 131.699C207.869 131.883 209.506 132.352 211.168 132.636C211.904 132.762 212.677 132.671 213.411 132.801C214.144 132.929 214.881 133.141 215.557 133.446C216.07 133.677 216.447 134.297 216.962 134.42C218.356 134.755 218.685 135.896 219.107 136.963C219.41 137.728 219.58 138.545 219.809 139.479M213.67 160.824C214.521 159.046 214.428 157.019 215.256 155.194C215.744 154.121 215.298 152.652 215.677 151.493C216.236 149.786 216.262 147.991 216.927 146.279C217.468 144.887 217.207 143.184 217.295 141.618C217.311 141.34 217.19 140.995 217.314 140.792C218.222 139.312 217.527 137.736 216.807 136.784C215.566 135.145 213.622 134.507 211.383 134.349C209.513 134.217 207.591 134.5 205.665 133.736C204.271 133.183 202.467 133.758 200.872 133.587C198.468 133.331 196.036 133.656 193.637 132.858C192.354 132.431 190.803 132.873 189.386 132.758C187.702 132.622 186.039 132.239 184.356 132.09C182.816 131.954 181.258 132.033 179.715 131.922C179.1 131.878 178.748 132.046 178.35 132.495C177.596 133.347 177.661 134.303 177.653 135.339C177.608 141.079 177.556 146.821 177.361 152.558C177.291 154.617 177.807 156.681 176.93 158.78C176.495 159.822 177.041 161.266 177.113 162.53C177.178 163.68 177.935 163.729 178.835 163.767C185.771 164.055 192.733 163.133 199.652 164.231C200.807 164.414 202.002 164.375 203.139 164.621C204.134 164.836 205.049 165.416 206.043 165.638C207.125 165.88 208.27 165.831 209.364 166.036C209.928 166.142 210.42 166.618 210.985 166.743C211.295 166.812 211.71 166.536 212.041 166.35C213.586 165.478 212.772 163.742 213.404 162.521C213.615 162.112 213.588 161.579 213.67 160.824M174.327 163.893C174.416 163.991 174.596 164.155 174.58 164.176C173.952 165.037 173.977 165.1 174.94 165.445C175.087 165.497 175.131 165.794 175.27 165.93C175.332 165.992 175.508 165.938 175.633 165.936C175.621 165.4 175.743 164.809 175.551 164.348C175.428 164.051 174.844 163.945 174.327 163.893Z" fill="black"/>
<path fill-rule="evenodd" clip-rule="evenodd" d="M278.404 268.389C279.518 268.899 280.486 269.424 281.471 269.912C282.132 270.242 282.877 270.434 283.472 270.847C284.074 271.263 284.549 271.868 285.059 272.41C285.115 272.471 285.076 272.75 285.031 272.764C284.624 272.887 284.133 273.166 283.801 273.043C282.208 272.446 280.427 272.309 279.205 270.805C278.463 269.89 277.436 269.131 276.395 268.562C275.927 268.308 275.07 268.682 274.878 269.46C274.39 271.422 269.057 279.204 261.071 279.204C253.086 279.204 240.523 278.381 237.184 274.372C232.38 268.604 234.389 257.465 234.483 256.887C234.539 256.536 234.279 256.092 234.059 255.763C233.991 255.662 233.515 255.721 233.314 255.847C232.448 256.393 231.616 256.991 230.768 257.568C229.74 258.266 228.744 259.025 227.659 259.619C227.344 259.792 226.763 259.521 226.319 259.401C226.01 259.315 225.727 259.136 225.432 259C225.958 258.531 226.44 257.995 227.02 257.607C227.958 256.985 228.973 256.477 229.932 255.886C230.979 255.238 232.01 254.563 233.028 253.874C233.663 253.444 234.355 253.045 234.86 252.487C236.587 250.579 238.529 248.96 240.543 247.35C242.137 246.081 243.989 245.489 245.636 244.434C246.375 243.963 247.416 243.98 248.303 243.726C249.363 243.422 250.407 243.062 251.462 242.743C251.632 242.693 251.827 242.718 252.009 242.718C253.87 242.718 255.75 242.551 257.581 242.777C258.747 242.922 259.838 243.648 260.965 244.113C260.91 244.206 260.873 244.362 260.801 244.384C258.948 244.898 257.14 245.202 255.242 244.328C254.539 244.005 253.552 244.211 252.709 244.3C251.872 244.39 251.049 244.621 250.228 244.819C249.575 244.976 248.892 245.087 248.295 245.369C246.598 246.167 244.919 247.013 243.267 247.905C242.223 248.469 241.266 249.186 240.231 249.764C239.257 250.308 238.004 250.419 237.494 251.644C237.452 251.742 237.29 251.792 237.184 251.862C237.812 251.879 238.476 252.041 239.053 251.876C239.957 251.622 240.803 251.156 241.668 250.763C242.603 250.339 243.504 249.814 244.469 249.485C245.117 249.264 245.859 249.348 246.545 249.214C247.346 249.061 248.133 248.818 248.928 248.62C249.056 248.589 249.196 248.581 249.33 248.581C251.261 248.578 253.278 248.916 255.083 248.438C256.018 248.193 256.777 248.539 257.628 248.397C258.535 248.246 259.593 248.801 260.541 249.161C261.412 249.49 262.327 249.845 263.044 250.411C264.241 251.363 265.293 252.493 266.406 253.547C266.211 253.751 265.932 254.164 265.834 254.125C265.514 253.997 245.647 251.517 237.887 255.763C235.03 257.326 237.741 268.826 237.887 269.46C239.053 274.522 257.239 277.44 264.159 276.282C273.951 274.645 272.923 262.901 273.245 262.487C273.692 261.915 274.403 261.608 275.037 262.139C275.338 262.39 275.539 262.878 275.589 263.28C275.673 263.963 275.991 264.588 276.103 265.2C276.365 266.653 277.774 267.186 278.404 268.389Z" fill="black"/>
<path fill-rule="evenodd" clip-rule="evenodd" d="M75.5912 216.239C75.8463 216.096 76.288 216.289 76.644 216.325C76.5617 216.705 76.6088 217.226 76.3753 217.433C75.2098 218.468 50.2506 235.806 23.7997 217.617C22.8594 216.971 21.8198 217.344 21.3496 218.245C20.9238 219.057 20.342 219.805 19.7463 220.513C19.1648 221.203 18.515 221.847 17.8255 222.43C17.3333 222.846 16.7602 223.231 16.1575 223.429C15.7459 223.566 14.9666 223.829 14.7464 223.304C14.5263 222.778 15.2258 222.369 15.5439 221.964C15.92 221.485 17.4039 220.553 18.3467 219.302C19.5341 217.726 20.2121 215.776 20.6548 215.078C20.8781 214.726 20.7687 214.177 20.87 213.733C21.0642 212.879 21.5087 212.025 21.4693 211.191C21.4096 209.91 24.6681 205.94 25.8587 205.185C26.9912 204.467 33.456 203.026 34.0501 202.913C34.5587 202.816 35.1335 202.835 35.6263 202.981C35.8746 203.054 36.0058 203.523 36.1899 203.814C36.0826 203.88 24.576 209.185 23.7997 212.98C23.4869 214.509 29.6396 217.404 31.1727 218.245C49.1858 228.12 74.9847 216.577 75.5912 216.239Z" fill="black"/>
<path fill-rule="evenodd" clip-rule="evenodd" d="M195.743 114.017C193.912 115.854 192.097 117.572 190.419 119.415C189.815 120.079 189.536 121.041 189.117 121.871C188.437 123.22 187.434 123.726 185.67 124.491C184.649 124.934 183.581 125.357 182.638 125.172C181.241 124.898 179.833 125.246 178.527 124.903C177.692 124.684 176.776 123.966 176.355 123.215C175.991 122.565 176.399 121.72 177.126 121.021C178.392 119.803 179.38 118.303 180.532 116.961C182.476 114.699 184.351 112.361 186.461 110.263C187.799 108.93 189.464 108.072 191.427 107.52C193.213 107.018 194.577 107.142 196.174 107.825C197.059 108.204 198.149 108.099 199.144 108.23C200.185 108.368 200.801 109.349 200.131 109.826C199.539 110.248 198.433 110.663 197.938 110.389C195.22 108.882 192.51 109.238 189.848 110.25C188.912 110.605 188.187 111.567 187.421 112.308C185.996 113.685 184.576 115.071 183.224 116.519C182.507 117.286 181.932 118.188 181.305 119.038C180.624 119.961 179.932 120.877 179.296 121.831C178.901 122.423 178.953 122.535 179.57 122.732C181.11 123.222 182.613 123.126 184.145 122.569C186.243 121.806 187.342 120.103 188.621 118.438C189.929 116.734 191.638 115.338 193.172 113.808C193.399 113.582 193.644 113.372 193.857 113.133C194.535 112.372 195.218 111.64 196.371 111.701C196.464 111.706 196.555 111.499 196.669 111.426C196.775 111.358 196.91 111.338 197.033 111.297C197.015 111.42 197.026 111.558 196.973 111.664C196.593 112.429 196.201 113.187 195.743 114.017Z" fill="black"/>
<path fill-rule="evenodd" clip-rule="evenodd" d="M211.986 96.5201C210.387 99.5356 207.841 101.579 205.55 103.834C205.237 104.141 204.364 103.94 203.761 103.875C203.212 103.816 202.676 103.632 202.139 103.487C201.104 103.208 200.074 102.912 199.039 102.637C198.698 102.546 198.347 102.495 198 102.426C198.486 101.96 198.541 101.312 199.192 100.779C201.398 98.9715 204.123 98.2585 206.476 96.8133C207.124 96.4151 207.895 96.1093 208.642 96.0136C209.276 95.9321 209.952 96.2398 210.616 96.3281C211.067 96.3885 211.529 96.3676 211.986 96.5201M207.05 98.5769C206.921 98.5393 206.742 98.4277 206.671 98.4757C205.868 99.011 205.119 99.5702 204.078 99.7048C203.734 99.7492 203.443 100.562 203.232 101.067C203.172 101.209 203.47 101.687 203.624 101.697C204.121 101.731 204.716 101.767 205.113 101.532C206.149 100.919 207.124 100.191 208.059 99.4306C208.204 99.3132 208.116 98.7011 207.939 98.4658C207.806 98.2887 207.358 98.3484 207.05 98.5769Z" fill="black"/>
<path fill-rule="evenodd" clip-rule="evenodd" d="M250.711 191.726C246.799 191.262 242.946 191.405 239.095 191.36C238.537 191.354 237.901 191.24 237.452 190.947C237.184 190.774 237.08 190.123 237.156 189.738C237.206 189.492 237.722 189.167 238.024 189.173C239.985 189.212 246.505 188.591 249.9 189.173C255.387 190.114 258.231 193.617 258.066 193.602C257.168 193.522 256.211 193.584 255.387 193.285C253.867 192.732 252.477 191.805 250.711 191.726Z" fill="black"/>
<path fill-rule="evenodd" clip-rule="evenodd" d="M219.53 91.207C220.538 91.8072 220.496 92.4353 219.433 92.8583C218.377 93.2782 217.237 93.4775 216.155 93.8399C215.488 94.0637 214.867 94.4223 214.216 94.6982C214.019 94.7816 213.651 94.8899 213.6 94.8182C213.305 94.3991 212.957 93.949 212.884 93.4702C212.847 93.2224 213.294 92.7115 213.602 92.6334C215.035 92.2684 216.501 92.0307 217.947 91.709C218.441 91.5993 218.91 91.3775 219.53 91.207Z" fill="black"/>
<path fill-rule="evenodd" clip-rule="evenodd" d="M222.599 89.5328C222.615 88.6129 222.62 88.6428 224.037 88.4006C224.532 88.316 224.987 88.0105 225.481 87.8846C225.594 87.8559 225.948 88.1991 225.92 88.2917C225.795 88.7209 225.637 89.4235 225.375 89.4782C224.476 89.6657 223.587 90.8055 222.599 89.5328Z" fill="black"/>
<path fill-rule="evenodd" clip-rule="evenodd" d="M230.342 86.1148C229.649 86.1611 228.72 86.4549 229.06 85.2827C229.144 84.9911 229.746 84.8095 230.142 84.6594C230.488 84.528 230.878 84.5115 231.249 84.444C231.009 84.9981 231.458 85.9125 230.342 86.1148Z" fill="black"/>
<path fill-rule="evenodd" clip-rule="evenodd" d="M238.992 82.7664C238.69 82.8967 238.439 83.0429 238.227 82.9986C237.878 82.9249 237.555 82.7287 237.22 82.5842C237.666 82.4547 238.107 82.2957 238.562 82.2042C239.028 82.1104 239.137 82.2427 238.992 82.7664Z" fill="black"/>
<path fill-rule="evenodd" clip-rule="evenodd" d="M285.38 46.0047C285.09 44.9238 284.914 43.924 284.473 43.0587C284.096 42.3165 283.418 41.7258 282.866 41.0749C282.749 40.9359 282.606 40.8106 282.458 40.7063C282.071 40.4365 281.672 40.182 281.278 39.9217C282.018 39.6002 282.793 38.9685 283.483 39.0528C284.071 39.1245 284.638 39.963 285.07 40.5648C285.704 41.4488 286.337 42.374 286.742 43.3738C287.196 44.4913 287.263 45.7681 287.732 46.8764C288.879 49.5827 288.312 52.3989 288.438 55.1682C288.505 56.6222 288.753 58.0497 288.918 59.4783C289.203 61.9748 289.127 64.524 286.789 66.4049C284.903 67.9197 282.659 68.2599 280.483 68.8799C278.714 69.3835 276.92 69.8054 275.159 70.333C273.736 70.7591 272.667 70.3821 271.677 69.3553C270.96 68.6098 269.994 68.0832 269.088 67.545C268.46 67.1719 267.687 67.0305 267.081 66.6315C266.281 66.1047 265.622 66.3776 264.816 66.5829C264.372 66.6959 263.747 66.098 263.203 65.8206C263.554 65.3722 263.892 64.5614 264.263 64.5449C265.254 64.5005 266.13 63.6601 267.358 64.4771C267.98 64.8926 269.155 64.9456 269.983 65.4476C270.385 65.6903 270.773 65.9593 271.15 66.24C271.822 66.7403 272.472 67.2693 273.145 67.7657C273.909 68.3299 274.568 68.3824 275.508 67.8371C276.353 67.3455 277.69 67.6644 278.499 67.144C279.752 66.3396 281.192 66.615 282.4 66.0528C283.229 65.6674 284.096 65.8396 284.967 65.3786C286.574 64.5282 287.16 63.2109 287.274 61.6902C287.355 60.5847 287.565 59.4449 287.121 58.2531C286.75 57.2609 286.995 56.0494 286.895 54.9414C286.828 54.1958 286.504 53.4592 286.521 52.7234C286.563 50.8079 286.337 48.9429 285.784 47.115C285.684 46.781 285.517 46.4673 285.38 46.0047Z" fill="black"/>
<path fill-rule="evenodd" clip-rule="evenodd" d="M323.886 38.471C324.999 38.9601 325.895 40.0173 327.047 39.529C327.845 39.1906 328.626 38.4188 329.031 37.6409C329.689 36.3774 331.637 35.6748 332.812 36.5331C332.837 36.5504 332.806 36.6534 332.826 36.6609C333.378 36.8853 333.933 37.1026 334.489 37.3211C333.947 37.5184 333.414 37.8392 332.859 37.8906C330.889 38.072 329.96 39.4604 329.075 40.9498C328.495 41.9292 327.477 42.0389 326.386 41.4789C325.169 40.8544 323.877 40.3675 322.599 39.8742C321.313 39.3786 320.027 38.8524 318.696 38.5259C317.881 38.3261 316.966 38.572 316.12 38.4461C315.141 38.3005 314.198 37.9227 313.221 37.731C312.63 37.6149 312.002 37.7003 311.399 37.6258C310.11 37.4665 308.796 37.3733 307.546 37.0485C305.863 36.6113 304.262 35.8102 302.562 35.4834C300.927 35.1687 299.722 34.2775 298.505 33.3093C298.07 32.9624 297.922 32.7252 298.72 32.5732C299.376 32.4487 299.797 32.3402 300.378 32.8871C300.947 33.422 301.806 33.9287 302.543 33.9393C303.692 33.9558 304.596 34.4446 305.615 34.7607C306.857 35.1455 308.263 34.9686 309.585 35.1377C311.031 35.3227 312.457 35.6626 313.899 35.8626C314.692 35.972 315.534 35.8004 316.296 35.9896C317.552 36.3007 318.757 36.8063 319.988 37.2212C321.238 37.6434 322.493 38.0549 323.886 38.471Z" fill="black"/>
<path fill-rule="evenodd" clip-rule="evenodd" d="M262.151 72.0239C262.385 72.4874 262.581 72.8711 262.709 73.2762C263.25 74.9914 263.666 76.725 264.023 78.4979C264.445 80.5831 265.815 82.4643 266.666 84.48C267.204 85.7599 267.372 86.9653 266.886 88.5122C266.239 90.5784 264.729 91.4654 263.287 92.6094C263.139 92.7274 263.105 92.9933 262.952 93.1038C262.768 93.2397 262.514 93.2846 262.291 93.3686C262.399 93.2062 262.617 93.0358 262.606 92.8823C262.464 90.9631 264.383 90.2025 264.925 88.6891C265.109 88.1726 265.223 87.554 265.126 87.0269C264.846 85.521 264.258 84.1136 263.686 82.6861C263.044 81.0915 263.147 79.164 262.374 77.6659C261.442 75.8614 261.269 74.0237 261.127 72.1241C261.096 71.7226 261.35 71.2996 261.476 70.8864C261.585 71.2424 261.688 71.6004 261.813 71.9503C261.825 71.9799 261.989 71.9542 262.151 72.0239Z" fill="black"/>
<path fill-rule="evenodd" clip-rule="evenodd" d="M302.401 130.55C301.488 130.364 300.715 130.168 299.937 129.994C299.036 129.793 298.137 129.571 297.225 129.434C296.535 129.332 295.824 129.371 295.126 129.306C294.68 129.264 294.208 129.218 293.807 129.044C293.293 128.823 292.838 128.471 292.358 128.176C292.981 128.15 293.608 128.157 294.225 128.085C294.719 128.027 295.204 127.766 295.69 127.778C297.665 127.826 299.647 127.867 301.611 128.064C303.109 128.215 304.591 128.574 306.07 128.883C307.239 129.126 308.397 129.424 309.555 129.715C310.612 129.981 311.661 130.268 312.713 130.552C312.909 130.605 313.093 130.69 313.283 130.76C313.132 130.969 312.978 131.36 312.828 131.359C311.296 131.349 309.764 132.225 308.207 131.257C307.78 130.992 307.205 131.452 306.458 131.029C305.397 130.431 303.868 130.669 302.401 130.55Z" fill="black"/>
<path fill-rule="evenodd" clip-rule="evenodd" d="M111.087 173.776C111.159 174.704 49.2297 181.39 33.0624 184.703L32.0445 184.914C15.2917 188.432 -38.6884 205.427 -38.9973 204.549C-39.3062 203.671 -13.2877 190.765 31.8733 181.505C63.703 174.682 97.5737 170.709 109.24 170.857C112.377 170.897 111.073 173.579 111.087 173.776Z" fill="black"/>
<path fill-rule="evenodd" clip-rule="evenodd" d="M43.7652 205.772C46.6301 205.772 50.7652 206.083 56.0565 207.877L57.3846 208.332C58.3961 208.681 60.2757 209.197 63 209.87C63.6326 210.026 64.0188 210.666 63.8625 211.298C63.7062 211.931 55.637 210.227 55.637 210.227C50.182 208.368 48.0049 207.86 45.4555 207.972C41.2209 208.158 28.9461 213.634 28.614 213.073C28.2819 212.512 28.675 211.801 29.028 211.456C32.6024 207.972 34.5829 206.988 43.7652 205.772Z" fill="black"/>
<path fill-rule="evenodd" clip-rule="evenodd" d="M238.867 184.827C238.795 185.093 238.648 185.319 238.455 185.488C238.455 185.488 232.965 185.89 232.154 186.169C230.912 186.597 230.428 187.832 230.216 188.45C230.095 188.802 230.156 189.615 230.216 189.663C240.355 197.839 251.126 198.817 262.796 192.609L263.15 192.419L264.931 191.451L265.136 193.467C265.375 195.82 265.839 197.594 266.498 198.776C267.12 199.893 268.252 201.086 269.903 202.332L270.168 202.53L268.573 204.704C266.489 203.175 265.009 201.646 264.142 200.089C263.556 199.037 263.113 197.726 262.803 196.152L262.716 195.678L262.53 195.769C250.604 201.54 239.304 200.289 228.856 192.028L228.523 191.762C227.646 191.055 227.298 190.059 227.426 189.023L226.612 189.797C226.356 190.037 226.128 190.245 225.967 190.384C224.952 191.257 223.91 191.973 222.705 192.581C221.162 193.358 218.831 193.48 214.282 194.226C213.547 194.346 212.193 194.458 212.073 193.723C211.952 192.988 220.662 191.535 221.713 191.006C222.71 190.503 224.164 189.718 225.022 188.981C225.879 188.244 227.252 186.084 227.579 185.798C228.317 185.154 228.99 184.712 229.751 184.428C233.498 183.028 239.062 184.108 238.867 184.827Z" fill="black"/>
<path fill-rule="evenodd" clip-rule="evenodd" d="M322.829 114.524L322.268 113.509C321.845 112.753 321.299 111.783 321.028 111.338L320.94 111.197C319.839 109.491 319.638 107.33 319.92 103.831L320.037 102.538L320.146 101.412C320.463 97.945 320.383 96.6235 319.749 95.941L319.652 95.8423C319.02 95.2325 318.282 95.2405 315.616 95.8324L314.966 95.9793C311.887 96.6852 309.85 96.857 307.496 96.2971L305.461 95.7912C304.545 95.5669 303.641 95.3476 303.529 95.3195L302.978 95.1785C298.124 93.9069 296.081 92.541 295.317 89.2325C295.134 88.4426 295.209 87.6261 295.496 86.6077L295.561 86.3863C295.747 85.7722 296.651 83.3347 296.65 83.3359C296.854 82.7583 297.026 82.231 297.178 81.7012L297.373 81.0126C297.537 80.4243 297.707 79.7993 297.884 79.1309L299.726 71.9181C300.057 70.6465 300.34 69.5913 300.454 69.2355L300.978 67.6978L301.198 67.0745C301.341 66.6763 301.48 66.3094 301.623 65.9521C302.774 63.067 303.997 61.2855 305.72 60.7936C307.307 60.3402 308.477 60.4021 309.756 60.9123C310.166 61.076 311.583 61.7689 311.849 61.8869C313.131 62.4538 314.445 62.8142 316.225 62.9929L316.564 63.0243C317.422 63.0971 318.128 63.0032 320.222 62.5453L321.725 62.2125C323.322 61.8657 324.369 61.6943 325.514 61.6229C326.554 61.5582 327.521 61.6035 328.442 61.7776C329.958 62.0643 332.283 63.0084 335.476 64.6159C335.975 64.8671 336.175 65.4752 335.924 65.9741C335.673 66.473 335.065 66.6738 334.566 66.4226L333.971 66.1256C331.245 64.7795 329.26 63.991 328.066 63.7652C327.322 63.6245 326.521 63.587 325.64 63.6418C324.556 63.7093 323.534 63.8837 321.864 64.2528L320.607 64.5318C318.376 65.0196 317.572 65.1287 316.501 65.0485L316.393 65.0399C314.209 64.8545 312.594 64.4279 311.031 63.7369L309.285 62.914C309.165 62.8587 309.067 62.8155 309.006 62.7912C308.141 62.4462 307.431 62.4086 306.275 62.7386C305.382 62.9937 304.425 64.3879 303.501 66.7021C303.334 67.1215 303.171 67.5594 302.996 68.0555L302.384 69.8438C302.11 70.6372 300.124 78.5436 300.058 78.8161L299.732 80.0513C299.52 80.8436 299.318 81.5756 299.122 82.2594C298.991 82.717 298.847 83.1699 298.684 83.6468L298.558 84.0095C296.849 88.8471 297.097 88.0161 297.279 88.7415L297.288 88.7772C297.843 91.1822 299.383 92.1743 303.764 93.2925L307.739 94.2733C309.739 94.7898 311.478 94.6823 314.196 94.0794L315.919 93.6889C317.066 93.435 317.357 93.4023 318.018 93.3759C319.342 93.3229 320.403 93.6733 321.231 94.5642C322.441 95.8667 322.553 97.351 322.164 101.563L321.962 103.684L321.915 104.278C321.709 107.076 321.871 108.81 322.566 109.98L322.783 110.332C322.99 110.676 323.304 111.225 323.612 111.771L324.597 113.541L324.728 113.768C326.043 116.033 327.128 117.302 328.281 117.741L328.405 117.785C329.88 118.268 331.703 117.309 334.056 114.253L334.361 113.856C334.717 113.415 335.081 113.138 336.754 112.102L339.338 110.514L339.649 110.318C341.263 109.295 342.213 108.534 342.423 108.103C344.894 103.059 346.469 95.1854 345.994 86.2347C345.935 85.1127 345.337 83.3938 344.192 81.1288L344.055 80.861L343.993 80.8253C341.288 79.2879 339.32 77.8272 338.081 76.4188L337.936 76.2501C336.667 74.7401 335.391 72.2759 334.076 68.8359C333.877 68.3141 334.138 67.7295 334.66 67.5301C335.182 67.3306 335.766 67.5919 335.966 68.1137C337.207 71.3612 338.39 73.6467 339.485 74.9486C340.492 76.148 342.234 77.4732 344.701 78.8998L345.307 79.2442L345.57 79.3911L345.71 79.658C347.158 82.4241 347.931 84.5595 348.014 86.1274C348.507 95.4199 346.864 103.637 344.24 108.993C343.795 109.901 342.702 110.777 340.732 112.026L340.241 112.334L338.15 113.618C336.413 114.691 336.065 114.95 335.828 115.264C332.938 119.096 330.288 120.531 327.775 119.707C325.892 119.09 324.497 117.451 322.829 114.524Z" fill="black"/>
<path fill-rule="evenodd" clip-rule="evenodd" d="M352.071 54.3515C352.306 53.8443 352.906 53.6229 353.414 53.857C353.921 54.091 354.142 54.6919 353.908 55.1991C353.159 56.8214 351.911 57.9091 350.218 58.4086C349.342 58.6674 348.405 58.8224 347.317 58.9103L346.948 58.9371C346.534 58.9641 346.184 58.98 345.67 58.9948L344.244 59.03C341.748 59.1013 340.731 59.2756 339.948 59.8397C339.172 60.3987 338.662 63.1956 339.027 64.5743L339.097 64.8514C339.12 64.9488 339.144 65.0522 339.169 65.1646L339.451 66.4844C339.55 66.9292 339.642 67.299 339.745 67.6483C340.021 68.5866 344.34 75.747 345.146 76.2724C345.311 76.3802 345.526 76.4485 345.994 76.5371L346.696 76.667C347.484 76.819 347.867 76.9304 348.495 77.1952C348.656 77.2635 348.938 77.331 349.399 77.4104L351.338 77.7156C352.05 77.8366 352.669 77.9661 353.265 78.1274C353.667 78.2361 354.049 78.3572 354.415 78.4936L354.867 78.6692C355.128 78.767 355.359 78.834 355.752 78.9286L356.383 79.0753L356.687 79.1498C356.919 79.2095 357.106 79.2662 357.309 79.339C358.324 79.7031 359.178 80.3361 360.096 81.4719C361.681 83.4355 361.681 85.3179 359.884 86.5608C359.425 86.8786 358.795 86.7637 358.477 86.3042C358.159 85.8448 358.274 85.2148 358.734 84.8971C359.438 84.4097 359.438 83.8776 358.522 82.7429C357.83 81.8858 357.278 81.4768 356.626 81.243L356.453 81.185C356.305 81.1388 356.139 81.0957 355.906 81.041L355.397 80.9233C354.848 80.794 354.536 80.7064 354.163 80.566L353.93 80.4747C353.561 80.3262 353.165 80.1958 352.737 80.08C352.299 79.9614 351.838 79.8605 351.318 79.7659L350.774 79.673C350.265 79.5915 349.36 79.4543 349.38 79.4575L349.005 79.3954C348.48 79.3039 348.117 79.2173 347.809 79.0994L347.502 78.9749C347.108 78.8208 346.795 78.7427 346.132 78.6189L345.769 78.5526C344.952 78.4055 344.517 78.2771 344.041 77.967C342.912 77.2312 342.019 76.1312 341.161 74.6181L340.098 72.5888C339.788 72.0054 339.506 71.4955 339.406 71.3781C338.676 70.5271 338.179 69.4942 337.804 68.2189C337.711 67.8999 337.626 67.5725 337.541 67.2055L337.446 66.7805C337.373 66.4435 337.244 65.8324 337.231 65.768L337.163 65.4634C337.142 65.3707 337.121 65.2861 337.101 65.2069L337.072 65.0919C336.515 62.9898 337.181 59.3402 338.766 58.1984C339.961 57.3374 341.153 57.106 343.89 57.0168L345.598 56.9732C346.095 56.959 346.428 56.9439 346.816 56.9186C347.927 56.8461 348.835 56.708 349.646 56.4686C350.776 56.1349 351.566 55.4471 352.071 54.3515Z" fill="black"/>
<path fill-rule="evenodd" clip-rule="evenodd" d="M117.127 159.01C117.499 158.281 117.816 157.645 118.258 157.114C118.706 156.576 119.272 156.135 119.805 155.673C119.858 155.628 120.152 155.742 120.15 155.772C120.141 155.933 120.123 156.143 120.02 156.241C119.227 156.995 119.161 157.996 118.919 158.982C118.653 160.062 118.922 160.908 119.415 161.808C119.743 162.409 119.982 163.068 120.188 163.724C120.62 165.106 121.047 166.493 121.392 167.899C121.626 168.846 121.84 169.828 121.849 170.796C121.895 175.679 121.869 180.561 121.871 185.444C121.872 187.939 121.837 190.434 121.91 192.926C121.934 193.74 122.375 194.542 122.388 195.353C122.4 196.009 122.071 196.676 121.854 197.324C121.823 197.417 121.489 197.525 121.441 197.478C121.098 197.14 120.523 196.768 120.518 196.399C120.474 193.53 120.583 190.66 120.555 187.791C120.542 186.497 120.244 185.207 120.212 183.911C120.136 180.893 120.475 177.822 120.01 174.871C119.647 172.567 119.735 170.372 119.771 168.106C119.779 167.597 118.36 166.963 117.513 166.57C116.413 166.06 115.713 166.742 115.192 167.657C115.144 167.74 114.947 167.781 114.947 167.841C114.921 173.172 114.887 178.503 114.908 183.833C114.914 185.376 115.092 186.918 115.168 188.461C115.197 189.039 115.135 189.34 116.023 189.204C117.523 188.976 119.494 191.193 119.059 192.459C118.725 193.434 118.119 194.315 117.783 195.29C117.025 197.49 115.368 199.616 116.099 202.006C116.654 203.82 117.855 205.516 119.082 207.009C119.571 207.603 120.909 207.477 121.843 207.74C122.159 207.829 122.526 208.049 122.67 208.317C122.762 208.493 122.561 208.951 122.357 209.107C122.235 209.202 121.856 208.956 121.591 208.87C121.155 208.727 120.726 208.518 120.28 208.465C118.177 208.222 118.06 208.094 117.105 205.753C116.763 204.914 116.121 204.199 115.757 203.366C115.414 202.58 115.219 201.721 115.029 200.878C114.845 200.066 114.601 199.224 114.654 198.413C114.717 197.457 114.995 196.494 115.322 195.585C115.614 194.774 116.115 194.039 116.479 193.25C116.521 193.159 116.305 192.896 116.154 192.788C116.073 192.73 115.849 192.792 115.736 192.869C114.648 193.611 114.13 194.809 113.441 195.859C113.214 196.204 113.284 196.744 113.221 197.196C113.126 197.87 112.945 198.547 112.961 199.22C112.989 200.464 112.85 201.818 113.289 202.924C114.202 205.223 115.087 207.65 116.949 209.361C117.635 209.991 118.773 210.293 119.916 210.446C121.421 210.647 122.847 210.212 124.323 210.379C124.998 210.457 125.731 209.869 126.437 209.871C127.297 209.874 127.971 209.403 128.732 209.28C129.602 209.138 130.321 208.764 131.079 208.404C132.317 207.818 133.659 207.399 134.789 206.654C135.793 205.99 136.56 204.971 137.448 204.126C138.818 202.821 139.973 201.379 140.893 199.7C141.298 198.96 141.941 198.398 141.676 197.462C141.635 197.316 141.531 197.083 141.443 197.077C141.248 197.064 140.981 197.106 140.853 197.234C137.951 200.164 135.12 203.168 132.134 206.01C131.329 206.774 130.07 207.073 129.005 207.556C128.412 207.823 127.776 207.996 127.18 208.259C125.882 208.828 124.852 208.035 123.745 207.622C123.797 207.508 123.827 207.316 123.904 207.293C125.706 206.813 127.534 206.414 129.313 205.859C130.135 205.602 130.904 205.105 131.625 204.612C132.324 204.135 132.902 203.485 133.582 202.976C136.126 201.074 138.207 198.835 139.203 195.725C139.472 194.884 141.283 194.35 142.325 194.661C142.952 194.848 143.669 194.832 144.221 195.135C144.574 195.33 144.954 195.988 144.884 196.355C144.514 198.316 143.284 199.77 141.912 201.166C141.001 202.093 140.437 203.375 139.49 204.252C137.884 205.737 136.208 207.204 134.357 208.348C132.486 209.506 130.409 210.368 128.343 211.152C126.863 211.713 125.27 212.129 123.698 212.26C121.015 212.486 118.375 212.271 115.995 210.678C114.505 209.679 113.499 208.295 112.724 206.799C112.288 205.962 112.707 204.701 112.325 203.807C111.57 202.035 111.43 200.217 111.589 198.39C111.698 197.143 112.47 195.933 112.474 194.705C112.48 193.326 113.494 192.649 113.936 191.607C114.026 191.398 113.787 191.07 113.786 190.797C113.774 187.681 113.78 184.566 113.778 181.45C113.777 179.882 113.875 178.302 113.722 176.748C113.633 175.845 113.074 174.998 112.851 174.094C112.738 173.635 112.931 173.107 112.936 172.609C112.952 171.199 112.813 169.773 112.974 168.38C113.175 166.628 113.664 164.91 113.928 163.163C114.076 162.186 114.023 161.179 114.057 160.186C114.125 158.232 114.524 156.303 115.886 154.897C116.948 153.801 118.219 152.764 119.982 152.76C120.415 152.759 121.006 151.976 121.246 152.098C121.793 152.377 122.325 152.934 122.54 153.501C122.635 153.752 122.022 154.407 121.604 154.691C120.859 155.196 119.99 155.178 119.081 155.139C117.588 155.074 116.226 157.028 115.65 158.743C115.178 160.151 115.9 161.404 115.579 162.744C115.483 163.143 116.269 163.764 116.682 164.258C116.725 164.31 117.107 164.191 117.107 164.149C117.117 163.303 117.175 162.445 117.053 161.615C116.939 160.829 116.409 160.039 117.391 159.444C117.303 159.346 117.215 159.248 117.127 159.01Z" fill="#F59292"/>
<path fill-rule="evenodd" clip-rule="evenodd" d="M172.374 222.908C172.112 224.333 171.833 225.617 171.602 226.906C171.564 227.121 171.798 227.369 171.807 227.606C171.877 229.635 171.507 231.641 171.442 233.67C171.41 234.643 171.497 235.709 171.229 236.666C170.898 237.852 171.376 239.409 169.858 240.107C169.273 240.375 168.413 240.882 168.071 240.665C167.409 240.243 166.309 240.012 166.483 238.712C166.635 237.568 166.315 236.345 166.559 235.238C166.975 233.343 166.533 231.432 166.86 229.59C167.058 228.474 166.843 227.361 167.102 226.306C167.52 224.604 167.457 222.871 167.683 221.166C167.897 219.545 168.025 217.919 168.238 216.306C168.457 214.637 168.584 212.963 168.81 211.308C169.012 209.827 168.978 208.259 169.405 206.889C169.783 205.673 168.896 204.274 170.08 203.225C170.243 203.081 169.818 202.397 169.883 201.999C170.422 198.691 170 195.362 170.17 192.048C170.181 191.814 170.551 191.479 170.816 191.4C171.65 191.153 172.509 190.966 173.371 190.849C173.571 190.822 174.021 191.167 174.018 191.335C173.967 194.18 173.803 197.023 173.789 199.866C173.78 201.919 174.006 203.973 174.026 206.026C174.037 207.025 173.794 208.027 173.71 209.032C173.622 210.075 173.948 211.068 173.334 212.182C172.87 213.019 173.277 214.314 173.199 215.396C173.054 217.422 172.932 219.459 172.578 221.451C172.504 221.872 172.346 222.308 172.374 222.908M168.468 237.556C168.926 238.248 168.902 238.229 169.324 237.702C169.822 237.079 169.444 236.354 169.607 235.723C170.044 234.027 169.935 232.288 170.142 230.578C170.307 229.205 170.543 227.835 170.618 226.46C170.713 224.682 170.529 222.88 170.745 221.122C170.931 219.612 170.872 218.097 171.407 216.562C171.949 215.005 171.717 213.178 171.813 211.467C171.836 211.049 171.658 210.533 171.845 210.229C172.479 209.193 171.911 208.114 172.067 207.07C172.088 206.93 171.734 206.738 171.553 206.568C171.449 206.766 171.281 206.953 171.251 207.162C171.051 208.526 170.825 209.888 170.714 211.261C170.565 213.083 170.513 214.916 170.422 216.744C170.415 216.883 170.479 217.068 170.412 217.157C169.656 218.17 170.242 219.378 169.899 220.513C169.466 221.948 169.66 223.572 169.584 225.115C169.582 225.162 169.592 225.209 169.583 225.254C169.354 226.334 169.067 227.408 168.912 228.499C168.787 229.375 169.3 230.176 168.591 231.195C168.052 231.97 168.524 233.416 168.449 234.554C168.403 235.243 168.129 235.916 168.051 236.608C168.028 236.811 168.32 237.054 168.468 237.556M172.095 199.33C172.125 198.556 172.157 197.782 172.182 197.008C172.186 196.899 172.159 196.694 172.145 196.694C171.969 196.692 171.647 196.693 171.637 196.744C171.496 197.518 171.366 198.297 171.317 199.08C171.31 199.196 171.732 199.339 172.095 199.33Z" fill="black"/>
<path fill-rule="evenodd" clip-rule="evenodd" d="M117.615 203.166C117.553 202.632 117.561 202.167 117.569 201.702C117.95 201.811 118.375 201.846 118.704 202.043C120.433 203.078 122.13 204.169 123.86 205.205C124.161 205.386 124.559 205.428 124.921 205.479C125.198 205.519 125.489 205.473 125.773 205.464C125.501 205.698 125.175 206.174 124.964 206.127C123.646 205.836 122.077 206.908 120.981 205.425C120.959 205.397 120.838 205.405 120.791 205.437C120.299 205.782 119.746 206.459 119.195 205.804C118.565 205.054 118.178 204.101 117.615 203.166Z" fill="black"/>
</g>
<defs>
<clipPath id="clip0">
<rect width="375" height="298" fill="white"/>
</clipPath>
</defs>
</svg>
