<svg width="100" height="100" viewBox="0 0 100 100" fill="none" xmlns="http://www.w3.org/2000/svg">
<ellipse cx="55.617" cy="46.8533" rx="26.8533" ry="26.8533" fill="#F59292"/>
<path fill-rule="evenodd" clip-rule="evenodd" d="M65.5848 28.959C67.5917 29.6545 69.4822 27.8446 71.2117 26.6115C73.8879 24.7035 77.379 23.982 80.5922 24.673C81.1252 24.7876 81.6836 24.9597 82.0346 25.3768C82.3556 25.7583 82.4469 26.2786 82.4986 26.7745C82.815 29.8099 82.056 32.9465 80.3868 35.5014C79.5748 36.7443 78.5575 37.851 77.8313 39.1459C77.1051 40.4409 76.6904 42.023 77.2077 43.4146C80.2835 51.6883 79.0033 61.4471 73.8977 68.6475C68.7921 75.848 60.0066 80.2849 51.1812 80.1199C46.6677 80.0355 42.2458 78.8309 37.9933 77.3159C36.138 76.6549 34.0983 75.9297 32.2565 76.6277C28.8959 77.9013 25.3577 78.7056 21.7767 79.0098C20.8881 79.0853 19.9596 79.1241 19.1397 78.7733C17.9123 78.2481 17.1714 76.9172 17.0305 75.5897C16.8896 74.2622 17.2566 72.9333 17.7202 71.6814C19.1185 67.905 23.4598 62.0057 26.0876 60.6467C25.8751 56.0608 25.8984 51.4212 26.8898 46.9388C27.8813 42.4563 29.9047 38.1068 33.2238 34.9352C34.5948 33.6252 36.1637 32.5349 37.807 31.5887C46.1186 26.8033 56.5228 25.8183 65.5848 28.959ZM52.9272 28.5866C46.5714 28.7354 40.3844 31.2885 35.4159 35.2551C33.9572 36.4197 32.5861 37.7135 31.4912 39.2253C30.628 40.417 29.9455 41.732 29.3752 43.0885C25.9911 51.1372 26.7637 60.8077 31.3826 68.2171C31.4834 68.3787 31.5988 68.5499 31.7786 68.6127C32.0003 68.6901 32.239 68.5773 32.4462 68.4668C46.9536 60.7357 59.8665 50.0283 70.1496 37.2029C70.3945 36.8975 70.6522 36.5427 70.5994 36.1548C70.5597 35.8638 70.352 35.6275 70.1493 35.415C65.7615 30.8144 59.2831 28.4379 52.9272 28.5866ZM61.8131 76.6352C68.7036 73.4003 73.9372 67.0077 76.1754 59.732C76.6822 58.0845 77.0465 56.3814 77.0822 54.658C77.1123 53.2088 76.9101 51.7659 76.7084 50.3304C76.416 48.2493 76.1236 46.1682 75.8312 44.0871C75.7537 43.5353 75.2219 42.807 74.8336 43.2066C64.0524 54.3018 52.2797 64.4332 39.7019 73.4407C39.2833 73.7405 38.8226 74.1111 38.8 74.6254C38.7739 75.2207 39.342 75.6525 39.8581 75.9502C46.4524 79.7528 54.9226 79.8702 61.8131 76.6352ZM19.3101 75.7881C19.8114 76.5921 20.898 76.7568 21.8451 76.783C26.8141 76.9204 31.7301 75.4644 36.1759 73.2407C40.6216 71.0169 44.6453 68.0424 48.5556 64.9734C53.771 60.88 58.8307 56.59 63.7617 52.1581C69.8685 46.6693 75.8692 40.8474 79.8786 33.6819C80.6542 32.2959 81.37 30.776 81.2487 29.1924C81.1273 27.6087 79.8641 26.0099 78.277 26.0718C74.9092 26.2031 71.5977 27.4981 69.0341 29.6862C68.5243 30.1213 68.8846 31.0477 69.5122 31.2832C70.1397 31.5188 70.839 31.2847 71.4522 31.0141C72.0655 30.7434 72.704 30.4268 73.3702 30.5009C74.3879 30.6141 75.1108 31.656 75.1714 32.6782C75.232 33.7004 74.78 34.6828 74.2474 35.5574C73.2617 37.176 71.9743 38.5868 70.6735 39.9649C59.1105 52.2152 45.7719 62.7867 31.2044 71.2461C29.8925 72.0079 28.5653 72.7553 27.1534 73.3103C26.4129 73.6015 25.5638 73.8352 24.841 73.5023C23.656 72.9564 23.561 71.2925 23.9165 70.0371C24.4504 68.1521 25.6039 66.4482 27.1556 65.2523C26.8617 64.4243 26.5678 63.5962 26.2739 62.7682C22.4435 65.2148 19.7554 69.3763 19.1002 73.8739C19.0056 74.5229 18.9631 75.2315 19.3101 75.7881ZM30.2011 70.1057C30.2282 70.0203 30.1785 69.9313 30.1308 69.8554C29.636 69.0692 29.1411 68.283 28.6463 67.4968C28.4225 67.1411 27.9894 66.7382 27.6537 66.9911C26.4441 67.902 25.5782 69.2587 25.2614 70.7395C25.1989 71.0317 25.1626 71.3578 25.3217 71.6108C25.6177 72.0813 26.325 71.9765 26.8483 71.789C27.9639 71.3893 29.0385 70.8753 30.0499 70.2576C30.1122 70.2195 30.179 70.1754 30.2011 70.1057ZM73.2462 32.6805C73.1965 32.4763 72.9533 32.3876 72.7434 32.3784C72.1058 32.3506 71.4397 32.8748 71.48 33.5116C71.5203 34.1485 72.467 34.5495 72.8626 34.0488C72.982 33.8976 73.0325 33.7048 73.0801 33.5182C73.1272 33.3332 73.1743 33.1483 73.2215 32.9633C73.2451 32.8706 73.2688 32.7735 73.2462 32.6805Z" fill="black"/>
</svg>
