<svg width="66" height="61" viewBox="0 0 66 61" fill="none" xmlns="http://www.w3.org/2000/svg">
<ellipse cx="38.9139" cy="26.9848" rx="26.8533" ry="26.8533" fill="#F59292"/>
<path fill-rule="evenodd" clip-rule="evenodd" d="M48.8814 9.09044C50.8884 9.78601 52.7788 7.97606 54.5083 6.74297C57.1845 4.83496 60.6756 4.11351 63.8888 4.80446C64.4219 4.91908 64.9802 5.09113 65.3313 5.50829C65.6523 5.88974 65.7436 6.4101 65.7952 6.90595C66.1116 9.94132 65.3526 13.0779 63.6834 15.6328C62.8714 16.8758 61.8541 17.9824 61.1279 19.2774C60.4017 20.5724 59.987 22.1545 60.5043 23.5461C63.5801 31.8198 62.3 41.5785 57.1943 48.779C52.0887 55.9795 43.3032 60.4164 34.4778 60.2514C29.9643 60.167 25.5424 58.9623 21.29 57.4473C19.4346 56.7863 17.3949 56.0612 15.5531 56.7592C12.1925 58.0328 8.65435 58.837 5.07336 59.1413C4.18473 59.2168 3.25626 59.2556 2.43632 58.9047C1.20896 58.3796 0.468043 57.0487 0.327148 55.7212C0.186254 54.3937 0.553231 53.0648 1.01679 51.8129C2.41512 48.0365 6.75646 42.1371 9.38423 40.7782C9.17174 36.1923 9.19499 31.5527 10.1865 27.0702C11.178 22.5878 13.2013 18.2383 16.5204 15.0667C17.8914 13.7567 19.4603 12.6663 21.1036 11.7202C29.4153 6.93472 39.8194 5.94975 48.8814 9.09044ZM36.2239 8.71811C29.868 8.86688 23.681 11.42 18.7126 15.3865C17.2538 16.5511 15.8827 17.845 14.7878 19.3567C13.9247 20.5485 13.2421 21.8635 12.6718 23.2199C9.28775 31.2687 10.0603 40.9392 14.6793 48.3486C14.78 48.5102 14.8954 48.6814 15.0752 48.7442C15.2969 48.8216 15.5356 48.7088 15.7429 48.5983C30.2502 40.8672 43.1631 30.1597 53.4463 17.3344C53.6912 17.029 53.9488 16.6742 53.896 16.2863C53.8563 15.9953 53.6487 15.759 53.4459 15.5465C49.0581 10.9458 42.5797 8.56934 36.2239 8.71811ZM45.1097 56.7667C52.0003 53.5317 57.2339 47.1391 59.472 39.8635C59.9788 38.216 60.3432 36.5129 60.3789 34.7895C60.4089 33.3403 60.2067 31.8974 60.0051 30.4619C59.7126 28.3808 59.4202 26.2997 59.1278 24.2186C59.0503 23.6668 58.5185 22.9385 58.1303 23.3381C47.349 34.4333 35.5764 44.5647 22.9985 53.5722C22.5799 53.8719 22.1192 54.2426 22.0967 54.7569C22.0705 55.3522 22.6386 55.784 23.1548 56.0816C29.749 59.8843 38.2192 60.0016 45.1097 56.7667ZM2.60672 55.9195C3.10801 56.7236 4.19462 56.8883 5.14175 56.9145C10.1107 57.0519 15.0268 55.5959 19.4725 53.3721C23.9182 51.1484 27.9419 48.1739 31.8522 45.1048C37.0676 41.0115 42.1273 36.7214 47.0583 32.2896C53.1652 26.8008 59.1658 20.9789 63.1752 13.8134C63.9508 12.4273 64.6666 10.9075 64.5453 9.32383C64.424 7.74018 63.1608 6.14134 61.5737 6.20325C58.2058 6.33462 54.8943 7.62957 52.3307 9.81766C51.8209 10.2528 52.1813 11.1791 52.8088 11.4147C53.4363 11.6502 54.1357 11.4162 54.7489 11.1455C55.3621 10.8748 56.0006 10.5583 56.6668 10.6324C57.6845 10.7455 58.4074 11.7874 58.468 12.8097C58.5286 13.8319 58.0766 14.8143 57.544 15.6889C56.5583 17.3074 55.271 18.7183 53.9702 20.0964C42.4072 32.3467 29.0685 42.9182 14.5011 51.3775C13.1892 52.1394 11.862 52.8868 10.4501 53.4418C9.70949 53.7329 8.86044 53.9667 8.13767 53.6338C6.95262 53.0879 6.85761 51.4239 7.21314 50.1686C7.74701 48.2836 8.90051 46.5796 10.4523 45.3837C10.1583 44.5557 9.86442 43.7277 9.5705 42.8997C5.74012 45.3463 3.05204 49.5078 2.39682 54.0053C2.30227 54.6544 2.25971 55.363 2.60672 55.9195ZM13.4977 50.2372C13.5248 50.1517 13.4751 50.0628 13.4274 49.9869C12.9326 49.2007 12.4378 48.4145 11.943 47.6283C11.7191 47.2726 11.2861 46.8697 10.9503 47.1225C9.74072 48.0335 8.87485 49.3902 8.55808 50.871C8.49557 51.1632 8.45927 51.4893 8.61837 51.7422C8.91436 52.2128 9.62159 52.108 10.1449 51.9205C11.2605 51.5208 12.3352 51.0067 13.3465 50.3891C13.4089 50.351 13.4756 50.3068 13.4977 50.2372ZM56.5428 12.812C56.4932 12.6078 56.2499 12.5191 56.04 12.5099C55.4024 12.4821 54.7363 13.0062 54.7766 13.6431C54.8169 14.28 55.7636 14.681 56.1592 14.1802C56.2786 14.0291 56.3291 13.8363 56.3767 13.6496C56.4238 13.4647 56.471 13.2797 56.5181 13.0948C56.5417 13.0021 56.5654 12.9049 56.5428 12.812Z" fill="black"/>
</svg>
