<svg viewBox="0 0.9697452229299302 271.4599999999999 259.0605095541401" xmlns="http://www.w3.org/2000/svg" xmlns:xlink="http://www.w3.org/1999/xlink" xmlns:blush="http://design.blush" overflow="visible" width="271.4599999999999px" height="259.0605095541401px"><defs><path d="M73.677,0.544 C71.192,0.548 68.702,0.681 66.209,0.932 L66.209,0.932 C62.422,1.314 58.712,1.964 55.013,2.798 L55.013,2.798 C52.636,3.334 50.306,4.034 48.026,4.862 L48.026,4.862 C44.874,6.006 41.814,7.367 38.827,8.915 L38.827,8.915 C35.609,10.584 32.565,12.52 29.672,14.666 L29.672,14.666 C26.137,17.289 22.96,20.325 19.986,23.588 L19.986,23.588 C17.439,26.383 15.153,29.377 13.029,32.478 L13.029,32.478 C10.807,35.723 8.974,39.209 7.314,42.791 L7.314,42.791 C5.698,46.276 4.37,49.851 3.293,53.528 L3.293,53.528 C2.393,56.604 1.723,59.727 1.245,62.903 L1.245,62.903 C0.708,66.48 0.158,70.051 0.21,73.677 L0.21,73.677 C0.264,77.413 0.032,81.151 0.407,84.889 L0.407,84.889 C0.657,87.382 0.929,89.869 1.234,92.355 L1.234,92.355 C1.572,95.1 2.142,97.8 2.678,100.507 L2.678,100.507 C3.086,102.567 3.539,104.624 4.105,106.645 L4.105,106.645 C4.995,109.832 5.919,113.013 6.971,116.148 L6.971,116.148 C7.999,119.214 9.051,122.277 10.334,125.253 L10.334,125.253 C10.89,126.538 11.424,127.832 11.954,129.128 L11.954,129.128 L11.8,129.128 C11.702,129.128 11.604,129.128 11.507,129.129 L11.507,129.129 C11.591,129.506 11.644,129.89 11.665,130.278 L11.665,130.278 C11.879,130.493 12.065,130.757 12.232,131.087 L12.232,131.087 C12.615,131.839 12.995,132.592 13.375,133.345 L13.375,133.345 C13.324,133.366 13.265,133.382 13.18,133.383 L13.18,133.383 C12.375,133.406 12.391,134.013 12.204,134.5 L12.204,134.5 C12.637,134.13 13.104,133.908 13.592,133.773 L13.592,133.773 C14.204,134.982 14.823,136.187 15.468,137.379 L15.468,137.379 C18.875,143.67 22.586,149.773 26.528,155.74 L26.528,155.74 C29.718,160.568 33.035,165.306 36.552,169.899 L36.552,169.899 C49.626,186.973 63.855,202.004 79.585,216.596 L79.585,216.596 C82.155,218.98 84.728,221.364 87.373,223.663 L87.373,223.663 C90.73,226.584 94.145,229.438 97.565,232.285 L97.565,232.285 C101.073,235.205 104.571,238.139 108.156,240.962 L108.156,240.962 C111.77,243.806 115.515,246.483 119.148,249.303 L119.148,249.303 C122.636,252.011 126.282,254.497 129.908,257.005 L129.908,257.005 C130.815,257.633 131.424,258.233 131.648,259.104 L131.648,259.104 C131.701,259.083 131.755,259.062 131.808,259.041 L131.808,259.041 C131.825,259.095 131.837,259.149 131.859,259.203 L131.859,259.203 C131.9,259.129 131.936,259.052 131.97,258.975 L131.97,258.975 C131.985,258.969 132.001,258.962 132.016,258.955 L132.016,258.955 C132.014,258.929 132.013,258.902 132.012,258.877 L132.012,258.877 C132.193,258.446 132.335,257.997 132.784,257.694 L132.784,257.694 C134.294,256.673 135.771,255.602 137.251,254.538 L137.251,254.538 C140.311,252.341 143.408,250.192 146.413,247.922 L146.413,247.922 C153.361,242.675 160.179,237.264 166.87,231.687 L166.87,231.687 C171.782,227.594 176.598,223.393 181.363,219.138 L181.363,219.138 C185.655,215.305 189.794,211.297 193.929,207.292 L193.929,207.292 C198.067,203.282 202.007,199.077 205.946,194.872 L205.946,194.872 C209.356,191.229 212.664,187.501 215.927,183.728 L215.927,183.728 C219.808,179.239 223.564,174.644 227.132,169.909 L227.132,169.909 C232.296,163.055 237.186,156.008 241.652,148.665 L241.652,148.665 C244.278,144.347 249.826,134.365 250.096,133.75 L250.096,133.75 C250.148,133.764 256.591,118.523 257.916,114.38 L257.916,114.38 C259.163,110.486 260.329,106.562 261.219,102.58 L261.219,102.58 C262.028,98.961 262.655,95.295 263.17,91.606 L263.17,91.606 C263.589,88.611 263.986,85.603 264.113,82.606 L264.113,82.606 C264.356,76.847 264.332,71.067 263.497,65.338 L263.497,65.338 C262.914,61.335 262.171,57.357 261.021,53.467 L261.021,53.467 C259.911,49.713 258.542,46.061 256.896,42.506 L256.896,42.506 C255.186,38.813 253.18,35.281 250.875,31.944 L250.875,31.944 C247.406,26.923 243.576,22.189 238.942,18.16 L238.942,18.16 C237.244,16.684 235.548,15.205 233.693,13.931 L233.693,13.931 C231.173,12.201 228.573,10.6 225.89,9.126 L225.89,9.126 C222.233,7.117 218.42,5.432 214.453,4.209 L214.453,4.209 C210.843,3.096 207.179,2.128 203.4,1.58 L203.4,1.58 C200.038,1.092 196.684,0.663 193.294,0.591 L193.294,0.591 C189.97,0.519 186.655,0.66 183.33,0.953 L183.33,0.953 C179.38,1.301 175.541,2.092 171.717,3.03 L171.717,3.03 C168.143,3.907 164.7,5.177 161.324,6.629 L161.324,6.629 C158.137,8 155.091,9.661 152.176,11.517 L152.176,11.517 C149.976,12.919 147.939,14.575 145.923,16.258 L145.923,16.258 C142.75,18.903 140.02,21.933 137.508,25.179 L137.508,25.179 C135.386,27.922 133.669,30.901 132.159,33.998 L132.159,33.998 C130.804,31.226 129.191,28.59 127.437,26.04 L127.437,26.04 C125.165,22.737 122.407,19.822 119.426,17.156 L119.426,17.156 C117.396,15.34 115.241,13.637 112.995,12.099 L112.995,12.099 C111.004,10.735 108.891,9.535 106.727,8.433 L106.727,8.433 C103.177,6.625 99.518,5.097 95.716,3.915 L95.716,3.915 C92.94,3.052 90.09,2.486 87.256,1.85 L87.256,1.85 C84.003,1.122 80.692,0.811 77.398,0.638 L77.398,0.638 C76.229,0.577 75.058,0.544 73.886,0.544 L73.886,0.544" id="masterholidays-backgroundholidays-1-path-1"/><path d="M73.677,0.544 C71.192,0.548 68.702,0.681 66.209,0.932 L66.209,0.932 C62.422,1.314 58.712,1.964 55.013,2.798 L55.013,2.798 C52.636,3.334 50.306,4.034 48.026,4.862 L48.026,4.862 C44.874,6.006 41.814,7.367 38.827,8.915 L38.827,8.915 C35.609,10.584 32.565,12.52 29.672,14.666 L29.672,14.666 C26.137,17.289 22.96,20.325 19.986,23.588 L19.986,23.588 C17.439,26.383 15.153,29.377 13.029,32.478 L13.029,32.478 C10.807,35.723 8.974,39.209 7.314,42.791 L7.314,42.791 C5.698,46.276 4.37,49.851 3.293,53.528 L3.293,53.528 C2.393,56.604 1.723,59.727 1.245,62.903 L1.245,62.903 C0.708,66.48 0.158,70.051 0.21,73.677 L0.21,73.677 C0.264,77.413 0.032,81.151 0.407,84.889 L0.407,84.889 C0.657,87.382 0.929,89.869 1.234,92.355 L1.234,92.355 C1.572,95.1 2.142,97.8 2.678,100.507 L2.678,100.507 C3.086,102.567 3.539,104.624 4.105,106.645 L4.105,106.645 C4.995,109.832 5.919,113.013 6.971,116.148 L6.971,116.148 C7.999,119.214 9.051,122.277 10.334,125.253 L10.334,125.253 C10.89,126.538 11.424,127.832 11.954,129.128 L11.954,129.128 L11.8,129.128 C11.702,129.128 11.604,129.128 11.507,129.129 L11.507,129.129 C11.591,129.506 11.644,129.89 11.665,130.278 L11.665,130.278 C11.879,130.493 12.065,130.757 12.232,131.087 L12.232,131.087 C12.615,131.839 12.995,132.592 13.375,133.345 L13.375,133.345 C13.324,133.366 13.265,133.382 13.18,133.383 L13.18,133.383 C12.375,133.406 12.391,134.013 12.204,134.5 L12.204,134.5 C12.637,134.13 13.104,133.908 13.592,133.773 L13.592,133.773 C14.204,134.982 14.823,136.187 15.468,137.379 L15.468,137.379 C18.875,143.67 22.586,149.773 26.528,155.74 L26.528,155.74 C29.718,160.568 33.035,165.306 36.552,169.899 L36.552,169.899 C49.626,186.973 63.855,202.004 79.585,216.596 L79.585,216.596 C82.155,218.98 84.728,221.364 87.373,223.663 L87.373,223.663 C90.73,226.584 94.145,229.438 97.565,232.285 L97.565,232.285 C101.073,235.205 104.571,238.139 108.156,240.962 L108.156,240.962 C111.77,243.806 115.515,246.483 119.148,249.303 L119.148,249.303 C122.636,252.011 126.282,254.497 129.908,257.005 L129.908,257.005 C130.815,257.633 131.424,258.233 131.648,259.104 L131.648,259.104 C131.701,259.083 131.755,259.062 131.808,259.041 L131.808,259.041 C131.825,259.095 131.837,259.149 131.859,259.203 L131.859,259.203 C131.9,259.129 131.936,259.052 131.97,258.975 L131.97,258.975 C131.985,258.969 132.001,258.962 132.016,258.955 L132.016,258.955 C132.014,258.929 132.013,258.902 132.012,258.877 L132.012,258.877 C132.193,258.446 132.335,257.997 132.784,257.694 L132.784,257.694 C134.294,256.673 135.771,255.602 137.251,254.538 L137.251,254.538 C140.311,252.341 143.408,250.192 146.413,247.922 L146.413,247.922 C153.361,242.675 160.179,237.264 166.87,231.687 L166.87,231.687 C171.782,227.594 176.598,223.393 181.363,219.138 L181.363,219.138 C185.655,215.305 189.794,211.297 193.929,207.292 L193.929,207.292 C198.067,203.282 202.007,199.077 205.946,194.872 L205.946,194.872 C209.356,191.229 212.664,187.501 215.927,183.728 L215.927,183.728 C219.808,179.239 223.564,174.644 227.132,169.909 L227.132,169.909 C232.296,163.055 237.186,156.008 241.652,148.665 L241.652,148.665 C244.278,144.347 249.826,134.365 250.096,133.75 L250.096,133.75 C250.148,133.764 256.591,118.523 257.916,114.38 L257.916,114.38 C259.163,110.486 260.329,106.562 261.219,102.58 L261.219,102.58 C262.028,98.961 262.655,95.295 263.17,91.606 L263.17,91.606 C263.589,88.611 263.986,85.603 264.113,82.606 L264.113,82.606 C264.356,76.847 264.332,71.067 263.497,65.338 L263.497,65.338 C262.914,61.335 262.171,57.357 261.021,53.467 L261.021,53.467 C259.911,49.713 258.542,46.061 256.896,42.506 L256.896,42.506 C255.186,38.813 253.18,35.281 250.875,31.944 L250.875,31.944 C247.406,26.923 243.576,22.189 238.942,18.16 L238.942,18.16 C237.244,16.684 235.548,15.205 233.693,13.931 L233.693,13.931 C231.173,12.201 228.573,10.6 225.89,9.126 L225.89,9.126 C222.233,7.117 218.42,5.432 214.453,4.209 L214.453,4.209 C210.843,3.096 207.179,2.128 203.4,1.58 L203.4,1.58 C200.038,1.092 196.684,0.663 193.294,0.591 L193.294,0.591 C189.97,0.519 186.655,0.66 183.33,0.953 L183.33,0.953 C179.38,1.301 175.541,2.092 171.717,3.03 L171.717,3.03 C168.143,3.907 164.7,5.177 161.324,6.629 L161.324,6.629 C158.137,8 155.091,9.661 152.176,11.517 L152.176,11.517 C149.976,12.919 147.939,14.575 145.923,16.258 L145.923,16.258 C142.75,18.903 140.02,21.933 137.508,25.179 L137.508,25.179 C135.386,27.922 133.669,30.901 132.159,33.998 L132.159,33.998 C130.804,31.226 129.191,28.59 127.437,26.04 L127.437,26.04 C125.165,22.737 122.407,19.822 119.426,17.156 L119.426,17.156 C117.396,15.34 115.241,13.637 112.995,12.099 L112.995,12.099 C111.004,10.735 108.891,9.535 106.727,8.433 L106.727,8.433 C103.177,6.625 99.518,5.097 95.716,3.915 L95.716,3.915 C92.94,3.052 90.09,2.486 87.256,1.85 L87.256,1.85 C84.003,1.122 80.692,0.811 77.398,0.638 L77.398,0.638 C76.229,0.577 75.058,0.544 73.886,0.544 L73.886,0.544" id="masterholidays-backgroundholidays-1-path-3"/><path d="M73.677,0.544 C71.192,0.548 68.702,0.681 66.209,0.932 L66.209,0.932 C62.422,1.314 58.712,1.964 55.013,2.798 L55.013,2.798 C52.636,3.334 50.306,4.034 48.026,4.862 L48.026,4.862 C44.874,6.006 41.814,7.367 38.827,8.915 L38.827,8.915 C35.609,10.584 32.565,12.52 29.672,14.666 L29.672,14.666 C26.137,17.289 22.96,20.325 19.986,23.588 L19.986,23.588 C17.439,26.383 15.153,29.377 13.029,32.478 L13.029,32.478 C10.807,35.723 8.974,39.209 7.314,42.791 L7.314,42.791 C5.698,46.276 4.37,49.851 3.293,53.528 L3.293,53.528 C2.393,56.604 1.723,59.727 1.245,62.903 L1.245,62.903 C0.708,66.48 0.158,70.051 0.21,73.677 L0.21,73.677 C0.264,77.413 0.032,81.151 0.407,84.889 L0.407,84.889 C0.657,87.382 0.929,89.869 1.234,92.355 L1.234,92.355 C1.572,95.1 2.142,97.8 2.678,100.507 L2.678,100.507 C3.086,102.567 3.539,104.624 4.105,106.645 L4.105,106.645 C4.995,109.832 5.919,113.013 6.971,116.148 L6.971,116.148 C7.999,119.214 9.051,122.277 10.334,125.253 L10.334,125.253 C10.89,126.538 11.424,127.832 11.954,129.128 L11.954,129.128 L11.8,129.128 C11.702,129.128 11.604,129.128 11.507,129.129 L11.507,129.129 C11.591,129.506 11.644,129.89 11.665,130.278 L11.665,130.278 C11.879,130.493 12.065,130.757 12.232,131.087 L12.232,131.087 C12.615,131.839 12.995,132.592 13.375,133.345 L13.375,133.345 C13.324,133.366 13.265,133.382 13.18,133.383 L13.18,133.383 C12.375,133.406 12.391,134.013 12.204,134.5 L12.204,134.5 C12.637,134.13 13.104,133.908 13.592,133.773 L13.592,133.773 C14.204,134.982 14.823,136.187 15.468,137.379 L15.468,137.379 C18.875,143.67 22.586,149.773 26.528,155.74 L26.528,155.74 C29.718,160.568 33.035,165.306 36.552,169.899 L36.552,169.899 C49.626,186.973 63.855,202.004 79.585,216.596 L79.585,216.596 C82.155,218.98 84.728,221.364 87.373,223.663 L87.373,223.663 C90.73,226.584 94.145,229.438 97.565,232.285 L97.565,232.285 C101.073,235.205 104.571,238.139 108.156,240.962 L108.156,240.962 C111.77,243.806 115.515,246.483 119.148,249.303 L119.148,249.303 C122.636,252.011 126.282,254.497 129.908,257.005 L129.908,257.005 C130.815,257.633 131.424,258.233 131.648,259.104 L131.648,259.104 C131.701,259.083 131.755,259.062 131.808,259.041 L131.808,259.041 C131.825,259.095 131.837,259.149 131.859,259.203 L131.859,259.203 C131.9,259.129 131.936,259.052 131.97,258.975 L131.97,258.975 C131.985,258.969 132.001,258.962 132.016,258.955 L132.016,258.955 C132.014,258.929 132.013,258.902 132.012,258.877 L132.012,258.877 C132.193,258.446 132.335,257.997 132.784,257.694 L132.784,257.694 C134.294,256.673 135.771,255.602 137.251,254.538 L137.251,254.538 C140.311,252.341 143.408,250.192 146.413,247.922 L146.413,247.922 C153.361,242.675 160.179,237.264 166.87,231.687 L166.87,231.687 C171.782,227.594 176.598,223.393 181.363,219.138 L181.363,219.138 C185.655,215.305 189.794,211.297 193.929,207.292 L193.929,207.292 C198.067,203.282 202.007,199.077 205.946,194.872 L205.946,194.872 C209.356,191.229 212.664,187.501 215.927,183.728 L215.927,183.728 C219.808,179.239 223.564,174.644 227.132,169.909 L227.132,169.909 C232.296,163.055 237.186,156.008 241.652,148.665 L241.652,148.665 C244.278,144.347 249.826,134.365 250.096,133.75 L250.096,133.75 C250.148,133.764 256.591,118.523 257.916,114.38 L257.916,114.38 C259.163,110.486 260.329,106.562 261.219,102.58 L261.219,102.58 C262.028,98.961 262.655,95.295 263.17,91.606 L263.17,91.606 C263.589,88.611 263.986,85.603 264.113,82.606 L264.113,82.606 C264.356,76.847 264.332,71.067 263.497,65.338 L263.497,65.338 C262.914,61.335 262.171,57.357 261.021,53.467 L261.021,53.467 C259.911,49.713 258.542,46.061 256.896,42.506 L256.896,42.506 C255.186,38.813 253.18,35.281 250.875,31.944 L250.875,31.944 C247.406,26.923 243.576,22.189 238.942,18.16 L238.942,18.16 C237.244,16.684 235.548,15.205 233.693,13.931 L233.693,13.931 C231.173,12.201 228.573,10.6 225.89,9.126 L225.89,9.126 C222.233,7.117 218.42,5.432 214.453,4.209 L214.453,4.209 C210.843,3.096 207.179,2.128 203.4,1.58 L203.4,1.58 C200.038,1.092 196.684,0.663 193.294,0.591 L193.294,0.591 C189.97,0.519 186.655,0.66 183.33,0.953 L183.33,0.953 C179.38,1.301 175.541,2.092 171.717,3.03 L171.717,3.03 C168.143,3.907 164.7,5.177 161.324,6.629 L161.324,6.629 C158.137,8 155.091,9.661 152.176,11.517 L152.176,11.517 C149.976,12.919 147.939,14.575 145.923,16.258 L145.923,16.258 C142.75,18.903 140.02,21.933 137.508,25.179 L137.508,25.179 C135.386,27.922 133.669,30.901 132.159,33.998 L132.159,33.998 C130.804,31.226 129.191,28.59 127.437,26.04 L127.437,26.04 C125.165,22.737 122.407,19.822 119.426,17.156 L119.426,17.156 C117.396,15.34 115.241,13.637 112.995,12.099 L112.995,12.099 C111.004,10.735 108.891,9.535 106.727,8.433 L106.727,8.433 C103.177,6.625 99.518,5.097 95.716,3.915 L95.716,3.915 C92.94,3.052 90.09,2.486 87.256,1.85 L87.256,1.85 C84.003,1.122 80.692,0.811 77.398,0.638 L77.398,0.638 C76.229,0.577 75.058,0.544 73.886,0.544 L73.886,0.544" id="masterholidays-backgroundholidays-1-path-5"/><path d="M73.677,0.544 C71.192,0.548 68.702,0.681 66.209,0.932 L66.209,0.932 C62.422,1.314 58.712,1.964 55.013,2.798 L55.013,2.798 C52.636,3.334 50.306,4.034 48.026,4.862 L48.026,4.862 C44.874,6.006 41.814,7.367 38.827,8.915 L38.827,8.915 C35.609,10.584 32.565,12.52 29.672,14.666 L29.672,14.666 C26.137,17.289 22.96,20.325 19.986,23.588 L19.986,23.588 C17.439,26.383 15.153,29.377 13.029,32.478 L13.029,32.478 C10.807,35.723 8.974,39.209 7.314,42.791 L7.314,42.791 C5.698,46.276 4.37,49.851 3.293,53.528 L3.293,53.528 C2.393,56.604 1.723,59.727 1.245,62.903 L1.245,62.903 C0.708,66.48 0.158,70.051 0.21,73.677 L0.21,73.677 C0.264,77.413 0.032,81.151 0.407,84.889 L0.407,84.889 C0.657,87.382 0.929,89.869 1.234,92.355 L1.234,92.355 C1.572,95.1 2.142,97.8 2.678,100.507 L2.678,100.507 C3.086,102.567 3.539,104.624 4.105,106.645 L4.105,106.645 C4.995,109.832 5.919,113.013 6.971,116.148 L6.971,116.148 C7.999,119.214 9.051,122.277 10.334,125.253 L10.334,125.253 C10.89,126.538 11.424,127.832 11.954,129.128 L11.954,129.128 L11.8,129.128 C11.702,129.128 11.604,129.128 11.507,129.129 L11.507,129.129 C11.591,129.506 11.644,129.89 11.665,130.278 L11.665,130.278 C11.879,130.493 12.065,130.757 12.232,131.087 L12.232,131.087 C12.615,131.839 12.995,132.592 13.375,133.345 L13.375,133.345 C13.324,133.366 13.265,133.382 13.18,133.383 L13.18,133.383 C12.375,133.406 12.391,134.013 12.204,134.5 L12.204,134.5 C12.637,134.13 13.104,133.908 13.592,133.773 L13.592,133.773 C14.204,134.982 14.823,136.187 15.468,137.379 L15.468,137.379 C18.875,143.67 22.586,149.773 26.528,155.74 L26.528,155.74 C29.718,160.568 33.035,165.306 36.552,169.899 L36.552,169.899 C49.626,186.973 63.855,202.004 79.585,216.596 L79.585,216.596 C82.155,218.98 84.728,221.364 87.373,223.663 L87.373,223.663 C90.73,226.584 94.145,229.438 97.565,232.285 L97.565,232.285 C101.073,235.205 104.571,238.139 108.156,240.962 L108.156,240.962 C111.77,243.806 115.515,246.483 119.148,249.303 L119.148,249.303 C122.636,252.011 126.282,254.497 129.908,257.005 L129.908,257.005 C130.815,257.633 131.424,258.233 131.648,259.104 L131.648,259.104 C131.701,259.083 131.755,259.062 131.808,259.041 L131.808,259.041 C131.825,259.095 131.837,259.149 131.859,259.203 L131.859,259.203 C131.9,259.129 131.936,259.052 131.97,258.975 L131.97,258.975 C131.985,258.969 132.001,258.962 132.016,258.955 L132.016,258.955 C132.014,258.929 132.013,258.902 132.012,258.877 L132.012,258.877 C132.193,258.446 132.335,257.997 132.784,257.694 L132.784,257.694 C134.294,256.673 135.771,255.602 137.251,254.538 L137.251,254.538 C140.311,252.341 143.408,250.192 146.413,247.922 L146.413,247.922 C153.361,242.675 160.179,237.264 166.87,231.687 L166.87,231.687 C171.782,227.594 176.598,223.393 181.363,219.138 L181.363,219.138 C185.655,215.305 189.794,211.297 193.929,207.292 L193.929,207.292 C198.067,203.282 202.007,199.077 205.946,194.872 L205.946,194.872 C209.356,191.229 212.664,187.501 215.927,183.728 L215.927,183.728 C219.808,179.239 223.564,174.644 227.132,169.909 L227.132,169.909 C232.296,163.055 237.186,156.008 241.652,148.665 L241.652,148.665 C244.278,144.347 249.826,134.365 250.096,133.75 L250.096,133.75 C250.148,133.764 256.591,118.523 257.916,114.38 L257.916,114.38 C259.163,110.486 260.329,106.562 261.219,102.58 L261.219,102.58 C262.028,98.961 262.655,95.295 263.17,91.606 L263.17,91.606 C263.589,88.611 263.986,85.603 264.113,82.606 L264.113,82.606 C264.356,76.847 264.332,71.067 263.497,65.338 L263.497,65.338 C262.914,61.335 262.171,57.357 261.021,53.467 L261.021,53.467 C259.911,49.713 258.542,46.061 256.896,42.506 L256.896,42.506 C255.186,38.813 253.18,35.281 250.875,31.944 L250.875,31.944 C247.406,26.923 243.576,22.189 238.942,18.16 L238.942,18.16 C237.244,16.684 235.548,15.205 233.693,13.931 L233.693,13.931 C231.173,12.201 228.573,10.6 225.89,9.126 L225.89,9.126 C222.233,7.117 218.42,5.432 214.453,4.209 L214.453,4.209 C210.843,3.096 207.179,2.128 203.4,1.58 L203.4,1.58 C200.038,1.092 196.684,0.663 193.294,0.591 L193.294,0.591 C189.97,0.519 186.655,0.66 183.33,0.953 L183.33,0.953 C179.38,1.301 175.541,2.092 171.717,3.03 L171.717,3.03 C168.143,3.907 164.7,5.177 161.324,6.629 L161.324,6.629 C158.137,8 155.091,9.661 152.176,11.517 L152.176,11.517 C149.976,12.919 147.939,14.575 145.923,16.258 L145.923,16.258 C142.75,18.903 140.02,21.933 137.508,25.179 L137.508,25.179 C135.386,27.922 133.669,30.901 132.159,33.998 L132.159,33.998 C130.804,31.226 129.191,28.59 127.437,26.04 L127.437,26.04 C125.165,22.737 122.407,19.822 119.426,17.156 L119.426,17.156 C117.396,15.34 115.241,13.637 112.995,12.099 L112.995,12.099 C111.004,10.735 108.891,9.535 106.727,8.433 L106.727,8.433 C103.177,6.625 99.518,5.097 95.716,3.915 L95.716,3.915 C92.94,3.052 90.09,2.486 87.256,1.85 L87.256,1.85 C84.003,1.122 80.692,0.811 77.398,0.638 L77.398,0.638 C76.229,0.577 75.058,0.544 73.886,0.544 L73.886,0.544" id="masterholidays-backgroundholidays-1-path-7"/><path d="M73.677,0.544 C71.192,0.548 68.702,0.681 66.209,0.932 L66.209,0.932 C62.422,1.314 58.712,1.964 55.013,2.798 L55.013,2.798 C52.636,3.334 50.306,4.034 48.026,4.862 L48.026,4.862 C44.874,6.006 41.814,7.367 38.827,8.915 L38.827,8.915 C35.609,10.584 32.565,12.52 29.672,14.666 L29.672,14.666 C26.137,17.289 22.96,20.325 19.986,23.588 L19.986,23.588 C17.439,26.383 15.153,29.377 13.029,32.478 L13.029,32.478 C10.807,35.723 8.974,39.209 7.314,42.791 L7.314,42.791 C5.698,46.276 4.37,49.851 3.293,53.528 L3.293,53.528 C2.393,56.604 1.723,59.727 1.245,62.903 L1.245,62.903 C0.708,66.48 0.158,70.051 0.21,73.677 L0.21,73.677 C0.264,77.413 0.032,81.151 0.407,84.889 L0.407,84.889 C0.657,87.382 0.929,89.869 1.234,92.355 L1.234,92.355 C1.572,95.1 2.142,97.8 2.678,100.507 L2.678,100.507 C3.086,102.567 3.539,104.624 4.105,106.645 L4.105,106.645 C4.995,109.832 5.919,113.013 6.971,116.148 L6.971,116.148 C7.999,119.214 9.051,122.277 10.334,125.253 L10.334,125.253 C10.89,126.538 11.424,127.832 11.954,129.128 L11.954,129.128 L11.8,129.128 C11.702,129.128 11.604,129.128 11.507,129.129 L11.507,129.129 C11.591,129.506 11.644,129.89 11.665,130.278 L11.665,130.278 C11.879,130.493 12.065,130.757 12.232,131.087 L12.232,131.087 C12.615,131.839 12.995,132.592 13.375,133.345 L13.375,133.345 C13.324,133.366 13.265,133.382 13.18,133.383 L13.18,133.383 C12.375,133.406 12.391,134.013 12.204,134.5 L12.204,134.5 C12.637,134.13 13.104,133.908 13.592,133.773 L13.592,133.773 C14.204,134.982 14.823,136.187 15.468,137.379 L15.468,137.379 C18.875,143.67 22.586,149.773 26.528,155.74 L26.528,155.74 C29.718,160.568 33.035,165.306 36.552,169.899 L36.552,169.899 C49.626,186.973 63.855,202.004 79.585,216.596 L79.585,216.596 C82.155,218.98 84.728,221.364 87.373,223.663 L87.373,223.663 C90.73,226.584 94.145,229.438 97.565,232.285 L97.565,232.285 C101.073,235.205 104.571,238.139 108.156,240.962 L108.156,240.962 C111.77,243.806 115.515,246.483 119.148,249.303 L119.148,249.303 C122.636,252.011 126.282,254.497 129.908,257.005 L129.908,257.005 C130.815,257.633 131.424,258.233 131.648,259.104 L131.648,259.104 C131.701,259.083 131.755,259.062 131.808,259.041 L131.808,259.041 C131.825,259.095 131.837,259.149 131.859,259.203 L131.859,259.203 C131.9,259.129 131.936,259.052 131.97,258.975 L131.97,258.975 C131.985,258.969 132.001,258.962 132.016,258.955 L132.016,258.955 C132.014,258.929 132.013,258.902 132.012,258.877 L132.012,258.877 C132.193,258.446 132.335,257.997 132.784,257.694 L132.784,257.694 C134.294,256.673 135.771,255.602 137.251,254.538 L137.251,254.538 C140.311,252.341 143.408,250.192 146.413,247.922 L146.413,247.922 C153.361,242.675 160.179,237.264 166.87,231.687 L166.87,231.687 C171.782,227.594 176.598,223.393 181.363,219.138 L181.363,219.138 C185.655,215.305 189.794,211.297 193.929,207.292 L193.929,207.292 C198.067,203.282 202.007,199.077 205.946,194.872 L205.946,194.872 C209.356,191.229 212.664,187.501 215.927,183.728 L215.927,183.728 C219.808,179.239 223.564,174.644 227.132,169.909 L227.132,169.909 C232.296,163.055 237.186,156.008 241.652,148.665 L241.652,148.665 C244.278,144.347 249.826,134.365 250.096,133.75 L250.096,133.75 C250.148,133.764 256.591,118.523 257.916,114.38 L257.916,114.38 C259.163,110.486 260.329,106.562 261.219,102.58 L261.219,102.58 C262.028,98.961 262.655,95.295 263.17,91.606 L263.17,91.606 C263.589,88.611 263.986,85.603 264.113,82.606 L264.113,82.606 C264.356,76.847 264.332,71.067 263.497,65.338 L263.497,65.338 C262.914,61.335 262.171,57.357 261.021,53.467 L261.021,53.467 C259.911,49.713 258.542,46.061 256.896,42.506 L256.896,42.506 C255.186,38.813 253.18,35.281 250.875,31.944 L250.875,31.944 C247.406,26.923 243.576,22.189 238.942,18.16 L238.942,18.16 C237.244,16.684 235.548,15.205 233.693,13.931 L233.693,13.931 C231.173,12.201 228.573,10.6 225.89,9.126 L225.89,9.126 C222.233,7.117 218.42,5.432 214.453,4.209 L214.453,4.209 C210.843,3.096 207.179,2.128 203.4,1.58 L203.4,1.58 C200.038,1.092 196.684,0.663 193.294,0.591 L193.294,0.591 C189.97,0.519 186.655,0.66 183.33,0.953 L183.33,0.953 C179.38,1.301 175.541,2.092 171.717,3.03 L171.717,3.03 C168.143,3.907 164.7,5.177 161.324,6.629 L161.324,6.629 C158.137,8 155.091,9.661 152.176,11.517 L152.176,11.517 C149.976,12.919 147.939,14.575 145.923,16.258 L145.923,16.258 C142.75,18.903 140.02,21.933 137.508,25.179 L137.508,25.179 C135.386,27.922 133.669,30.901 132.159,33.998 L132.159,33.998 C130.804,31.226 129.191,28.59 127.437,26.04 L127.437,26.04 C125.165,22.737 122.407,19.822 119.426,17.156 L119.426,17.156 C117.396,15.34 115.241,13.637 112.995,12.099 L112.995,12.099 C111.004,10.735 108.891,9.535 106.727,8.433 L106.727,8.433 C103.177,6.625 99.518,5.097 95.716,3.915 L95.716,3.915 C92.94,3.052 90.09,2.486 87.256,1.85 L87.256,1.85 C84.003,1.122 80.692,0.811 77.398,0.638 L77.398,0.638 C76.229,0.577 75.058,0.544 73.886,0.544 L73.886,0.544 L73.677,0.544 Z" id="masterholidays-backgroundholidays-1-path-9"/></defs><g id="Master/Holidays Background/Holidays 1" stroke="none" stroke-width="1" fill="none" fill-rule="evenodd" blush:i="0"><g id="Group-187" blush:i="0.0"><path d="M269.4972,65.7944 C268.9142,61.7904 268.1702,57.8134 267.0212,53.9234 C265.9122,50.1694 264.5422,46.5164 262.8962,42.9624 C261.1862,39.2694 259.1792,35.7364 256.8742,32.3994 C253.4062,27.3784 249.5752,22.6444 244.9422,18.6154 C243.2442,17.1404 241.5472,15.6614 239.6932,14.3874 C237.1732,12.6564 234.5732,11.0554 231.8902,9.5824 C228.2322,7.5734 224.4192,5.8884 220.4542,4.6654 C216.8432,3.5514 213.1782,2.5844 209.4002,2.0364 C206.0382,1.5484 202.6842,1.1194 199.2942,1.0464 C195.9692,0.9754 192.6552,1.1154 189.3302,1.4084 C185.3802,1.7564 181.5412,2.5484 177.7162,3.4864 C174.1432,4.3624 170.6992,5.6324 167.3232,7.0854 C164.1372,8.4554 161.0912,10.1174 158.1762,11.9734 C155.9762,13.3744 153.9382,15.0314 151.9232,16.7134 C148.7502,19.3584 146.0202,22.3884 143.5082,25.6354 C141.9042,27.7084 140.5322,29.9154 139.3062,32.2064 C138.8122,33.1284 137.5022,33.1374 136.9982,32.2214 C136.1602,30.6984 135.2492,29.2134 134.2882,27.7584 C132.8062,25.5154 130.0562,22.1024 128.1572,20.1974 C125.3712,17.4044 122.2802,14.8044 118.9952,12.5544 C117.0042,11.1904 114.8902,9.9904 112.7272,8.8884 C109.1772,7.0814 105.5182,5.5524 101.7162,4.3704 C98.9402,3.5074 96.0902,2.9414 93.2552,2.3064 C90.0022,1.5784 86.6922,1.2674 83.3972,1.0944 C79.6812,0.8994 75.9482,1.0124 72.2092,1.3884 C68.4212,1.7704 64.7122,2.4194 61.0132,3.2534 C58.6362,3.7904 56.3062,4.4894 54.0262,5.3174 C50.8742,6.4614 47.8142,7.8234 44.8272,9.3714 C41.6082,11.0404 38.5652,12.9754 35.6712,15.1224 C32.1372,17.7454 28.9592,20.7804 25.9852,24.0444 C23.4382,26.8394 21.1532,29.8324 19.0292,32.9344 C16.8072,36.1784 14.9742,39.6654 13.3142,43.2474 C11.3732,47.4344 9.8462,51.7514 8.6732,56.2194 C8.0402,58.6274 7.5882,61.0804 7.2182,63.5434 C6.6892,67.0594 6.1592,70.5694 6.2102,74.1324 C6.2642,77.8694 6.0322,81.6074 6.4072,85.3454 C6.5692,86.9684 6.7422,88.5904 6.9262,90.2114 C7.2332,92.8984 7.6652,95.5694 8.1572,98.2294 C8.7062,101.1954 9.2892,104.1854 10.1042,107.1014 C10.9952,110.2884 11.9192,113.4684 12.9712,116.6044 C14.3202,120.6274 15.3922,124.7034 17.1912,128.5514 C21.7072,138.2134 26.6382,147.2794 32.5282,156.1954 C35.7172,161.0244 39.0352,165.7614 42.5522,170.3554 C55.6252,187.4284 69.8542,202.4604 85.5852,217.0514 C88.1552,219.4364 90.7282,221.8194 93.3732,224.1194 C96.7302,227.0394 100.1452,229.8934 103.5642,232.7404 C107.0732,235.6604 110.5712,238.5954 114.1562,241.4184 C117.7692,244.2624 121.5152,246.9394 125.1472,249.7584 C128.6362,252.4664 132.2822,254.9524 135.9082,257.4614 C136.8152,258.0884 137.4242,258.6894 137.6482,259.5604 C137.7012,259.5384 137.7552,259.5184 137.8082,259.4964 C137.8252,259.5504 137.8372,259.6054 137.8592,259.6594 C137.9002,259.5854 137.9362,259.5084 137.9702,259.4304 C137.9852,259.4244 138.0002,259.4184 138.0162,259.4104 C138.0142,259.3844 138.0132,259.3584 138.0122,259.3324 C138.1932,258.9014 138.3342,258.4534 138.7842,258.1494 C140.2932,257.1284 141.7702,256.0584 143.2512,254.9944 C146.3112,252.7974 149.4082,250.6484 152.4132,248.3784 C159.3612,243.1304 166.1792,237.7204 172.8702,232.1434 C177.7812,228.0494 182.5982,223.8494 187.3632,219.5934 C191.6552,215.7604 195.7942,211.7524 199.9292,207.7474 C204.0672,203.7384 208.0072,199.5334 211.9462,195.3274 C215.3562,191.6854 218.6642,187.9574 221.9272,184.1844 C225.8082,179.6944 229.5642,175.1004 233.1322,170.3644 C238.2962,163.5104 243.1862,156.4634 247.6522,149.1214 C250.2772,144.8034 252.7682,140.4184 255.2322,136.0084 C255.5532,135.4334 255.8262,134.8214 256.0962,134.2064 C256.1482,134.2194 256.2002,134.2314 256.2522,134.2454 C256.8002,133.2584 257.2842,132.2414 257.7412,131.2114 C257.7922,131.0954 257.8582,130.9844 257.9402,130.8874 C258.3542,130.3984 258.5572,129.5654 258.4462,129.5654 C258.6702,129.0254 258.8922,128.4844 259.1132,127.9444 C261.0102,123.2964 262.7372,118.5824 264.2472,113.7954 C265.3682,110.2424 266.4082,106.6634 267.2192,103.0364 C268.0282,99.4174 268.6552,95.7504 269.1702,92.0624 C269.5882,89.0664 269.9852,86.0594 270.1122,83.0624 C270.3562,77.3034 270.3322,71.5234 269.4972,65.7944" id="Fill-1" fill="#BF89F4" blush:i="0.0.0"/><g id="Group-20" transform="translate(6.000000, 0.456000)" blush:i="0.0.1"><g id="Group-5" blush:i="0.0.1.0"><mask id="masterholidays-backgroundholidays-1-mask-2" fill="#fff" blush:i="0.0.1.0.0"><use xlink:href="#masterholidays-backgroundholidays-1-path-1" blush:i="0.0.1.0.0.0"/></mask><g id="Clip-4" blush:i="0.0.1.0.1"/><path d="M251.9801,200.9654 C252.0351,203.2334 252.1381,205.5004 252.1391,207.7674 C252.14635,264.4864 252.1501,321.2064 252.1371,377.9264 C252.1371,380.3944 251.9761,382.8624 251.9091,384.7894 C250.2191,386.2254 248.7031,385.9754 247.3481,385.9764 C173.1221,386.0274 99.0051,385.8554 24.7851,385.9954 C19.8301,386.0054 14.8751,385.9964 10.5481,385.9964 C7.8661,385.0074 6.6701,383.8794 6.6971,382.1734 C6.7211,380.6594 6.6891,379.1444 6.6891,377.6304 C6.6881,320.5874 6.6721,263.5444 6.7631,206.5014 C6.7661,204.6724 5.1361,202.3984 8.4591,201.0144 C29.3071,201.0374 50.1531,201.0864 71.0011,201.0724 C83.0091,201.0644 95.0171,200.9524 107.0251,200.8874 C122.1371,200.8644 137.2481,200.8414 152.3591,200.8194 C153.4121,200.9004 154.4651,201.0524 155.5191,201.0524 C187.6721,201.0324 219.8261,200.9984 251.9801,200.9654" id="Fill-3" fill="#A043E8" mask="url(#masterholidays-backgroundholidays-1-mask-2)" blush:i="0.0.1.0.2"/></g><g id="Group-8" blush:i="0.0.1.1"><mask id="masterholidays-backgroundholidays-1-mask-4" fill="#fff" blush:i="0.0.1.1.0"><use xlink:href="#masterholidays-backgroundholidays-1-path-3" blush:i="0.0.1.1.0.0"/></mask><g id="Clip-7" blush:i="0.0.1.1.1"/><path d="M107.026,200.8878 C95.017,200.9528 83.009,201.0638 71,201.0728 C50.153,201.0868 29.306,201.0368 8.46,201.0148 C8.228,199.0848 10.025,197.6678 11.273,196.2478 C21.51,184.6028 31.94,173.0438 42.298,161.4518 C45.31,158.0808 48.277,154.6898 51.651,150.8718 L51.651,128.6888 C56.956,128.7248 103.77,128.7608 109.076,128.7958 L108.924,150.5238 C108.924,150.5238 143.024,151.5218 164.966,151.4338 C176.992,151.3858 189.251,151.8868 201.201,151.4908 C212.697,151.1088 215.958,159.6238 221.325,165.3788 C231.595,176.3888 241.361,187.6358 251.268,198.8148 C251.791,199.4048 251.755,200.2428 251.98,200.9658 C219.826,200.9978 187.672,201.0328 155.519,201.0528 C154.465,201.0528 153.412,200.9008 152.359,200.8188" id="Fill-6" fill="#53008B" mask="url(#masterholidays-backgroundholidays-1-mask-4)" blush:i="0.0.1.1.2"/></g><g id="Group-11" blush:i="0.0.1.2"><mask id="masterholidays-backgroundholidays-1-mask-6" fill="#fff" blush:i="0.0.1.2.0"><use xlink:href="#masterholidays-backgroundholidays-1-path-5" blush:i="0.0.1.2.0.0"/></mask><g id="Clip-10" blush:i="0.0.1.2.1"/><path d="M107.0255,200.8878 L107.0255,181.8968 L129.2395,169.3378 L151.9775,180.8538 C152.1005,187.2858 152.2295,194.0528 152.3585,200.8188 C137.2485,200.8418 122.1365,200.8648 107.0255,200.8878" id="Fill-9" fill="#B06BF2" mask="url(#masterholidays-backgroundholidays-1-mask-6)" blush:i="0.0.1.2.2"/></g><g id="Group-15" blush:i="0.0.1.3"><mask id="masterholidays-backgroundholidays-1-mask-8" fill="#fff" blush:i="0.0.1.3.0"><use xlink:href="#masterholidays-backgroundholidays-1-path-7" blush:i="0.0.1.3.0.0"/></mask><g id="Clip-14" blush:i="0.0.1.3.1"/><path d="M133.142099,200.299823 C133.410646,200.054279 133.813351,200.027202 134.112352,200.234584 C149.585597,210.966584 163.123568,215.266451 177.461358,212.106862 C183.611389,210.751679 191.230039,205.44947 192.908168,200.759491 C193.053203,200.354151 193.49937,200.143133 193.904709,200.288168 C194.310049,200.433203 194.521067,200.87937 194.376032,201.284709 C192.490509,206.554307 184.42229,212.169394 177.796852,213.629336 C163.321749,216.819183 149.700108,212.682678 134.376361,202.305582 L133.732,201.866 L133.325834,202.224889 C123.910559,210.421776 109.678222,216.507418 100.559594,216.189882 L100.135942,216.170291 C88.1021853,215.471976 80.4752285,211.418623 70.9164828,201.413576 C70.619091,201.102298 70.6303473,200.608875 70.9416244,200.311483 C71.2529016,200.014091 71.7463253,200.025347 72.0437172,200.336624 C81.3477677,210.075085 88.6210195,213.940461 100.226167,214.613904 C109.139919,215.130118 123.898761,208.751408 133.142099,200.299823 Z" id="Stroke-13" fill="#EFCAFF" fill-rule="nonzero" mask="url(#masterholidays-backgroundholidays-1-mask-8)" blush:i="0.0.1.3.2"/></g><mask id="masterholidays-backgroundholidays-1-mask-10" fill="#fff" blush:i="0.0.1.4"><use xlink:href="#masterholidays-backgroundholidays-1-path-9" blush:i="0.0.1.4.0"/></mask><g id="Clip-17" blush:i="0.0.1.5"/><polygon id="Fill-16" fill="#3E036D" mask="url(#masterholidays-backgroundholidays-1-mask-10)" points="55.77 200.875 213.876 200.875 213.876 197.786 55.77 197.786" blush:i="0.0.1.6"/><path d="M178.7638,151.8883 C177.5378,151.2263 176.2808,152.5993 175.1808,153.4523 C173.0418,155.1103 169.6328,154.7853 167.8458,152.7553 C167.5238,152.3893 167.2388,151.9233 167.3258,151.4443 C167.3888,151.1063 167.6248,150.8293 167.8618,150.5803 C170.4478,147.8603 174.1898,146.2773 177.9428,146.3143 C182.8858,146.3633 187.9068,149.0483 192.5728,147.4183 C194.3548,146.7963 195.9868,145.5593 197.8738,145.549224 C200.9578,145.5313 203.1188,148.7063 206.0918,149.5273 C208.1118,150.0853 210.4168,149.5233 212.2528,150.5343 C213.0848,150.9923 213.7288,151.7343 214.2368,152.5363 C215.0028,153.7453 215.5058,155.1813 215.3268,156.6013 C215.1478,158.0213 214.1748,159.3903 212.7878,159.7483 C210.3408,160.3793 208.4378,158.0543 206.1208,157.8453 C205.0068,157.7443 204.0498,157.9193 203.0368,158.4033 C202.1228,158.8403 201.1738,159.4793 200.1588,159.5763 C198.0848,159.7743 196.2578,158.2443 194.2158,157.8333 C191.7978,157.3453 189.3478,158.4603 186.8818,158.4673 C183.0678,158.4763 179.4668,155.4663 178.8008,151.7113 C178.9698,151.7803 178.8888,151.8433 178.9528,152.0133" id="Fill-18" fill="#F2F2F2" mask="url(#masterholidays-backgroundholidays-1-mask-10)" blush:i="0.0.1.7"/><path d="M48.8044,129.8668 C48.3654,131.7478 49.3754,133.6648 49.3654,135.5968 C49.3554,137.5258 48.3344,139.3168 48.1574,141.2368 C48.0264,142.6558 48.4104,144.1738 49.4294,145.1698 C50.4474,146.1658 52.1544,146.4908 53.3454,145.7088 C54.6814,144.8298 54.9674,142.9828 54.8084,141.3908 C54.6494,139.7998 54.1774,138.1948 54.4964,136.6268 C55.9214,136.5938 57.3104,135.8458 58.1234,134.6758 C58.6554,133.9088 58.9824,132.9458 59.7704,132.4448 C60.8174,131.7788 62.2024,132.2118 63.4194,131.9658 C64.9614,131.6528 66.1414,130.0858 66.0174,128.5178 C65.8924,126.9498 64.4784,125.5898 62.9074,125.5248 C60.4714,125.4248 58.3444,128.0048 55.9814,127.4068 C53.6844,126.8248 49.5314,126.7568 48.8044,129.8668" id="Fill-19" fill="#F2F2F2" mask="url(#masterholidays-backgroundholidays-1-mask-10)" blush:i="0.0.1.8"/></g><g id="Group-186" transform="translate(0.000000, 9.456000)" blush:i="0.0.2"><path d="M16.2301,92.8697 C17.9261,92.8227 18.8221,91.7527 18.7871,89.8167 C18.7581,88.2387 17.5101,86.8067 16.1611,86.8026959 C14.5751,86.7997 13.1231,88.4587 13.2011,90.1827 C13.2761,91.8217 14.5111,92.9177 16.2301,92.8697" id="Fill-21" fill="#FFC6FC" blush:i="0.0.2.0"/><path d="M84.7545,4.6612 C83.8165,4.8222 83.0255,5.1632 82.9565,6.2752 C82.8895,7.3462 83.6965,8.2582 84.7035,8.2312 C85.7405,8.2032 86.3915,7.7052 86.3705,6.5902 C86.3505,5.5332 85.9235,4.7902 84.7545,4.6612" id="Fill-23" fill="#FDD11C" blush:i="0.0.2.1"/><path d="M172.8307,17.4161 C173.0547,18.7611 173.7457,19.8371 175.1697,19.9501 C176.3517,20.0431 177.2407,19.3471 177.3057,18.0301 C177.3827,16.4701 176.4327,15.7211 175.0257,15.5611 C173.7447,15.4161 173.0137,16.1101 172.8307,17.4161" id="Fill-25" fill="#EDC8E7" blush:i="0.0.2.2"/><path d="M245.1022,92.7481 C245.1202,93.6031 245.4592,94.2131 246.3262,94.2321 C247.1282,94.2491 247.7302,93.8101 247.6852,92.9431 C247.6432,92.1321 247.0752,91.6671 246.2762,91.6151 C245.4942,91.5651 245.2122,92.1141 245.1022,92.7481" id="Fill-27" fill="#FFC6FC" blush:i="0.0.2.3"/><path d="M254.3839,72.1465 C255.9039,72.1315 257.2149,70.9025 257.216905,69.4915 C257.2199,67.8675 255.9229,66.5065 254.3869,66.5215 C252.8379,66.5355 251.7179,67.5465 251.7099,68.9385 C251.6999,70.7245 252.8979,72.1615 254.3839,72.1465" id="Fill-29" fill="#FFC6FC" blush:i="0.0.2.4"/><path d="M176.5685,119.5787 C176.1305,119.3787 175.6545,119.4047 175.1965,119.3717 C173.8235,119.2757 172.4485,119.2007 171.0745,119.1117 C170.9005,119.0997 170.6555,119.1977 170.5815,118.9577 C170.5185,118.7557 170.7095,118.6187 170.8305,118.4767 C171.7545,117.3947 172.6805,116.3147 173.6065,115.2337 C173.7715,115.0397 173.9355,114.8447 174.1555,114.5837 C173.6355,114.4897 173.3085,114.7407 172.9805,114.9107 C171.8645,115.4877 170.7565,116.0807 169.6615,116.6967 C169.2395,116.9337 169.0515,116.8997 168.9305,116.3887 C168.5585,114.8207 168.0905,113.2777 167.5635,111.7537 C167.5025,111.5787 167.4805,111.3807 167.2725,111.2927 C167.0225,111.4307 167.1285,111.6717 167.1195,111.8657 C167.0405,113.5237 167.0775,115.1857 166.9365,116.8437 C166.8875,117.4187 166.7275,117.4637 166.2475,117.2527 C164.7935,116.6147 163.3265,116.0037 161.8595,115.3967 C161.5625,115.2737 161.2655,115.1037 160.7485,115.1697 C161.2895,115.6277 161.7335,116.0157 162.1905,116.3877 C163.1845,117.1947 164.1745,118.0087 165.1895,118.7897 C165.6355,119.1347 165.6165,119.3097 165.1105,119.5617 C163.7095,120.2607 162.3275,120.9987 160.9385,121.7217 C160.7535,121.8177 160.5375,121.8737 160.3975,122.1367 C160.6955,122.2697 160.9875,122.2137 161.2785,122.1757 C162.6905,121.9897 164.1065,121.8347 165.5115,121.6087 C166.1045,121.5127 166.2555,121.6737 166.2495,122.2527 C166.2305,124.0557 166.2615,125.8587 166.2775,127.6617 C166.2785,127.8387 166.2115,128.0407 166.4375,128.2047 C166.7775,127.7807 166.8935,127.2667 167.0485,126.7917 C167.4535,125.5557 167.8145,124.3017 168.1455,123.0417 C168.3025,122.4397 168.5045,122.4857 168.8645,122.8707 C170.0305,124.1167 171.2055,125.3547 172.3775,126.5937 C172.4715,126.6927 172.5765,126.7817 172.7215,126.9167 C172.9195,126.2267 172.4755,125.7567 172.2825,125.2557 C171.8585,124.1577 171.3425,123.0907 170.8055,122.0407 C170.5665,121.5727 170.6745,121.4387 171.1385,121.3167 C172.7655,120.8877 174.3845,120.4287 176.0025,119.9687 C176.2095,119.9107 176.4975,119.9357 176.5685,119.5787" id="Fill-31" fill="#C2F4FF" blush:i="0.0.2.5"/><path d="M201.0939,91.7681 C199.9969,92.5781 199.3509,93.6821 199.8959,95.0021 C200.3489,96.0981 201.3729,96.5751 202.5759,96.0351 C204.0009,95.3961 204.2389,94.2101 203.7419,92.8831 C203.2909,91.6761 202.3409,91.3391 201.0939,91.7681" id="Fill-33" fill="#FDD11C" blush:i="0.0.2.6"/><path d="M29.4733,107.1959 C30.0373,106.9399 30.6473,106.9719 31.2373,106.9299 C33.0013,106.8069 34.7683,106.7109 36.5343,106.5959 C36.7583,106.5809 37.0723,106.7069 37.1683,106.3989 C37.2493,106.1379 37.0033,105.9619 36.8483,105.7799 C35.6613,104.3889 34.4703,103.0019 33.2813,101.6119 C33.0683,101.3629 32.8573,101.1129 32.5743,100.7769 C33.2433,100.6559 33.6633,100.9789 34.0843,101.1959 C35.5183,101.9379 36.9423,102.7009 38.3493,103.4919 C38.8923,103.7969 39.1343,103.7539 39.2893,103.0969 C39.7673,101.0809 40.3683,99.0979 41.0463,97.1399 C41.1243,96.9139 41.1543,96.6599 41.4213,96.5479 C41.7423,96.7249 41.6053,97.0349 41.6173,97.2839 C41.7193,99.4149 41.6713,101.5499 41.8523,103.6809 C41.9153,104.4199 42.1203,104.4779 42.7383,104.2069 C44.6073,103.3869 46.4913,102.6009 48.3773,101.8209 C48.7593,101.6639 49.1403,101.4449 49.8053,101.5289 C49.1093,102.1189 48.5393,102.6169 47.9523,103.0939 C46.6743,104.1329 45.4023,105.1789 44.0983,106.1829 C43.5233,106.6249 43.5483,106.8499 44.1993,107.1749 C45.9993,108.0719 47.7753,109.0209 49.5603,109.9499 C49.7993,110.0739 50.0753,110.1459 50.2563,110.4839 C49.8723,110.6539 49.4983,110.5829 49.1233,110.5339 C47.3093,110.2949 45.4893,110.0959 43.6833,109.8049 C42.9223,109.6819 42.7283,109.8879 42.7363,110.6329 C42.7603,112.9489 42.7193,115.2659 42.6993,117.5839 C42.6973,117.8119 42.7833,118.0719 42.4943,118.2819 C42.0563,117.7379 41.9073,117.0749 41.7083,116.4669 C41.1873,114.8769 40.7243,113.2659 40.2993,111.6469 C40.0963,110.8729 39.8363,110.9319 39.3743,111.4259 C37.8753,113.0279 36.3663,114.6189 34.8593,116.2119 C34.7393,116.3389 34.6033,116.4519 34.4173,116.6269 C34.1623,115.7399 34.7333,115.1349 34.9813,114.4919 C35.5263,113.0809 36.1893,111.7099 36.8793,110.3609 C37.1873,109.7589 37.0473,109.5869 36.4523,109.4289 C34.3613,108.8779 32.2803,108.2889 30.2013,107.6979 C29.9353,107.6219 29.5643,107.6549 29.4733,107.1959" id="Fill-35" fill="#EDC8E7" blush:i="0.0.2.7"/><path d="M192.8297,22.3179 C207.5067,24.6719 215.2467,33.6189 218.8807,46.4499 C222.6577,59.7879 217.0167,70.1439 206.5987,78.9049 C219.8587,80.2229 235.5247,69.7869 240.7977,56.7989 C245.9857,44.0219 243.0457,32.3869 232.4987,23.9539 C221.6617,15.2889 204.1627,14.3079 192.8297,22.3179" id="Fill-37" fill="#FDD11C" blush:i="0.0.2.8"/><path d="M33.0514,53.5738 C32.8914,53.5738 32.7314,53.5728 32.5724,53.5738 C30.0414,53.6048 29.9054,53.8158 30.9084,56.0798 C31.1884,56.7118 31.4514,57.3548 31.6684,58.0098 C31.8364,58.5178 31.9894,59.1458 31.3244,59.3768 C30.7184,59.5868 30.5304,58.9858 30.3364,58.5618 C29.9374,57.6908 29.5854,56.7988 29.1814,55.9288 C28.7764,55.0548 28.2524,54.9878 27.6524,55.7688 C27.0034,56.6138 26.3634,57.4648 25.4994,58.1158 C25.2264,58.3218 24.9654,58.5018 24.6574,58.2328 C24.3804,57.9898 24.3454,57.6448 24.5424,57.3628 C25.0874,56.5768 25.6864,55.8288 26.2394,55.0488 C27.0134,53.9578 26.8034,53.4718 25.4664,53.2578 C24.7304,53.1398 23.9854,53.0748 23.2464,52.9708 C22.9204,52.9258 22.5784,52.8198 22.6054,52.4108 C22.6304,52.0238 22.9794,51.8868 23.2964,51.8738 C24.3074,51.8318 25.3204,51.8358 26.3324,51.8208 C27.2194,51.8088 27.4654,51.3448 27.1624,50.5708 C26.8534,49.7778 26.4844,49.0078 26.1594,48.2208 C25.9394,47.6848 25.5644,46.9918 26.2784,46.6778 C27.0434,46.3398 27.1894,47.2248 27.4544,47.6718 C27.8324,48.3088 28.0924,49.0168 28.3844,49.7018 C28.8564,50.8058 29.4164,51.1878 30.2584,49.9978 C30.8104,49.2188 31.3874,48.4558 31.9754,47.7028 C32.3284,47.2518 32.7054,46.5958 33.3784,47.1018 C33.9784,47.5538 33.6954,48.1348 33.2944,48.6378 C32.7644,49.3038 32.2154,49.9588 31.7404,50.6628 C31.1524,51.5348 31.4184,52.0548 32.4834,52.1158 C33.2264,52.1578 33.9754,52.1388 34.7134,52.2248 C35.1094,52.2698 35.6454,52.3408 35.5934,52.9358 C35.5474,53.4628 35.0954,53.5898 34.6504,53.6108 C34.1184,53.6358 33.5844,53.6158 33.0514,53.6158 L33.0514,53.5738 Z" id="Fill-39" fill="#FDD11C" blush:i="0.0.2.9"/><path d="M35.7096831,8.9781 C35.8926831,7.4011 35.9576831,5.9851 36.5456831,4.6591 C38.1256831,1.0991 41.0326831,0.2441 44.4526831,0.6091 C47.3306831,0.9161 48.9296831,2.9581 49.8336831,5.5371 C50.3486831,7.0031 50.6916831,7.4521 52.1336831,6.4071 C54.4206831,4.7491 56.9016831,5.0451 59.1206831,6.6061 C61.5816831,8.3361 62.5426831,10.8951 62.1336831,13.9161 C61.9696831,15.1321 61.8926831,16.3741 61.3776831,17.4611 C61.9456831,17.8861 62.2936831,17.5211 62.6506831,17.4151 C64.8916831,16.7421 66.8686831,17.3331 68.2416831,19.1181 C69.7276831,21.0511 69.9766831,23.9171 68.9666831,25.8371 C68.4196831,26.8721 67.5866831,26.7491 66.7306831,26.7491 C57.1216831,26.7511 47.5106831,26.7501 37.9006831,26.7501 C25.9166831,26.7501 13.9326831,26.7561 1.94768305,26.7341 C1.31168305,26.7331 0.431683055,27.1111 0.104683055,26.2241 C-0.210316945,25.3711 0.234683055,24.5901 0.786683055,23.9451 C1.91668305,22.6291 3.47268305,22.0631 5.05168305,21.7221 C7.34968305,21.2261 8.94968305,19.9871 10.2436831,17.9621 C11.9816831,15.2421 14.4616831,13.2951 17.7876831,13.8871 C19.9716831,14.2751 21.6676831,14.6431 23.2836831,12.5011 C24.0166831,11.5291 25.6626831,11.3591 27.0076831,12.1241 C27.5156831,12.4141 27.9176831,12.5031 28.1396831,11.6731 C29.3586831,7.1151 31.9536831,6.1421 35.7096831,8.9781" id="Fill-41" fill="#FFC6FC" transform="translate(34.787898, 13.672441) scale(-1, 1) translate(-34.787898, -13.672441)" blush:i="0.0.2.10"/><path d="M226.0915,116.3736 L226.0915,112.8376 C226.0915,111.4406 226.0915,110.0446 226.0915,108.6476 C226.0915,108.4766 226.0975,108.3106 226.1705,108.1476 C226.3045,107.8506 226.5255,107.7036 226.8475,107.7436 C227.1655,107.7826 227.2925,108.0266 227.3595,108.2996 C227.3885,108.4206 227.3705,108.5546 227.3705,108.6836 C227.3705,111.7036 227.3795,114.7246 227.3615,117.7456 C227.3585,118.1656 227.4825,118.2626 227.8865,118.2566 C229.6825,118.2346 231.4785,118.2516 233.2745,118.2446 C233.6145,118.2426 233.8085,118.4156 233.9175,118.7046 C234.0275,118.9956 233.8505,119.1916 233.6515,119.3676 C233.5075,119.4936 233.3285,119.4606 233.1595,119.4606 C231.5345,119.4626 229.9105,119.4606 228.2855,119.4626 C227.8455,119.4626 227.8315,119.4886 228.0565,119.8746 C228.9355,121.3836 229.8275,122.8856 230.6925,124.4026 C230.9445,124.8456 231.1535,125.3116 231.4425,125.7386 C231.6665,126.0716 231.5845,126.4446 231.2915,126.6416 C230.9495,126.8716 230.6315,126.8156 230.3915,126.4266 C230.0215,125.8226 229.6915,125.1936 229.3335,124.5816 C228.7375,123.5646 228.1335,122.5526 227.5315,121.5396 C227.5045,121.4936 227.4635,121.4556 227.3705,121.3446 L227.3705,121.8186 C227.3705,124.2276 227.3705,126.6356 227.3705,129.0426 C227.3705,129.1716 227.3905,129.3066 227.3575,129.4266 C227.2815,129.6946 227.1555,129.9386 226.8315,129.9686 C226.5285,129.9966 226.3175,129.8636 226.1815,129.5856 C226.0885,129.3966 226.0915,129.2016 226.0915,129.0026 C226.0915,126.0106 226.0915,123.0186 226.0915,120.0256 C226.0915,119.4616 226.0915,119.4616 225.5075,119.4616 C223.7395,119.4616 221.9725,119.4646 220.2045,119.4596 C219.6395,119.4576 219.3675,119.0496 219.5835,118.5546 C219.7105,118.2636 219.9635,118.2476 220.2265,118.2476 C221.8945,118.2476 223.5625,118.2486 225.2305,118.2456 C225.3535,118.2446 225.5175,118.3086 225.5915,118.1956 C225.6745,118.0696 225.5145,117.9706 225.4555,117.8686 C224.7285,116.6316 223.9815,115.4066 223.3185,114.1326 C223.0505,113.6166 222.7135,113.1376 222.4025,112.6446 C222.2485,112.4026 222.1225,112.1516 222.0315,111.8786 C221.9405,111.6066 221.9675,111.3616 222.2015,111.1886 C222.4425,111.0096 222.7145,111.0176 222.9605,111.1866 C223.0735,111.2656 223.1875,111.3716 223.2515,111.4916 C224.0375,112.9716 224.8965,114.4106 225.7575,115.8476 C225.8585,116.0156 225.9225,116.2056 226.0025,116.3846 C226.0325,116.3806 226.0625,116.3776 226.0915,116.3736" id="Fill-43" fill="#FFF9D8" blush:i="0.0.2.11"/><path d="M234.8903,118.8306 C234.8903,118.3006 235.3073,117.8406 235.7963,117.8336 C236.3123,117.8266 236.7773,118.2866 236.7823,118.8096 C236.7883,119.3406 236.3313,119.8076 235.8163,119.7956 C235.2923,119.7836 234.8913,119.3656 234.8903,118.8306" id="Fill-45" fill="#FFF9D8" blush:i="0.0.2.12"/><path d="M226.8136,105.3399 C227.2926,105.3429 227.7766,105.8429 227.7596,106.3169 C227.7406,106.8289 227.2936,107.2489 226.7766,107.2399 C226.1976,107.2299 225.8486,106.8789 225.8436,106.2989 C225.8376,105.7399 226.2466,105.3359 226.8136,105.3399" id="Fill-47" fill="#FFF9D8" blush:i="0.0.2.13"/><path d="M218.7321,118.8052 C218.7401,119.3282 218.3131,119.7952 217.8261,119.796202 C217.3041,119.7972 216.8671,119.3732 216.8581,118.8572 C216.8501,118.3452 217.3051,117.8522 217.8011,117.8352 C218.2861,117.8172 218.7241,118.2742 218.7321,118.8052" id="Fill-49" fill="#FFF9D8" blush:i="0.0.2.14"/><path d="M226.7741,130.3946 C227.2921,130.3886 227.7701,130.8206 227.767114,131.3016 C227.7651,131.8576 227.3491,132.1596 226.8171,132.1736 C226.2891,132.1866 225.8121,131.9286 225.8371,131.3186 C225.8601,130.7556 226.1941,130.4006 226.7741,130.3946" id="Fill-51" fill="#FFF9D8" blush:i="0.0.2.15"/><path d="M241.4611,128.8028 C241.5101,128.8258 241.5351,128.8608 241.5101,128.9158 C241.4941,128.8778 241.4781,128.8408 241.4611,128.8028" id="Fill-53" fill="#FFF9D8" blush:i="0.0.2.16"/><path d="M227.3688,116.3736 L227.3688,112.8376 C227.3688,111.4406 227.3688,110.0446 227.3688,108.6476 C227.3698,108.4766 227.3628,108.3106 227.2898,108.1476 C227.1568,107.8506 226.9348,107.7036 226.6128,107.7436 C226.2948,107.7826 226.1688,108.0266 226.1018,108.2996 C226.0718,108.4206 226.0898,108.5546 226.0898,108.6836 C226.0898,111.7036 226.0808,114.7246 226.0988,117.7456 C226.1018,118.1656 225.9788,118.2626 225.5738,118.2566 C223.7778,118.2346 221.9818,118.2516 220.1858,118.2446 C219.8458,118.2426 219.6518,118.4156 219.5428,118.7046 C219.4328,118.9956 219.6108,119.1916 219.8088,119.3676 C219.9528,119.4936 220.1318,119.4606 220.3008,119.4606 C221.9258,119.4626 223.5508,119.4606 225.1758,119.4626 C225.6148,119.4626 225.6298,119.4886 225.4048,119.8746 C224.5248,121.3836 223.6328,122.8856 222.7688,124.4026 C222.5158,124.8456 222.3068,125.3116 222.0188,125.7386 C221.7938,126.0716 221.8758,126.4446 222.1698,126.6416 C222.5118,126.8716 222.8298,126.8156 223.0688,126.4266 C223.4388,125.8226 223.7688,125.1936 224.1268,124.5816 C224.7228,123.5646 225.3268,122.5526 225.9288,121.5396 C225.9558,121.4936 225.9968,121.4556 226.0898,121.3446 L226.0898,121.8186 C226.0898,124.2276 226.0898,126.6356 226.0898,129.0426 C226.0898,129.1716 226.0698,129.3066 226.1028,129.4266 C226.1788,129.6946 226.3058,129.9386 226.6288,129.9686 C226.9318,129.9966 227.1428,129.8636 227.2788,129.5856 C227.3718,129.3966 227.3688,129.2016 227.3688,129.0026 C227.3688,126.0106 227.3688,123.0186 227.3688,120.0256 C227.3688,119.4616 227.3688,119.4616 227.9528,119.4616 C229.7208,119.4616 231.4878,119.4646 233.2558,119.4596 C233.8208,119.4576 234.0928,119.0496 233.8768,118.5546 C233.7498,118.2636 233.4968,118.2476 233.2338,118.2476 C231.5658,118.2476 229.8978,118.2486 228.2308,118.2456 C228.1078,118.2446 227.9428,118.3086 227.8688,118.1956 C227.7858,118.0696 227.9458,117.9706 228.0058,117.8686 C228.7318,116.6316 229.4788,115.4066 230.1418,114.1326 C230.4108,113.6166 230.7468,113.1376 231.0588,112.6446 C231.2118,112.4026 231.3388,112.1516 231.4298,111.8786 C231.5198,111.6066 231.4928,111.3616 231.2588,111.1886 C231.0178,111.0096 230.7458,111.0176 230.4998,111.1866 C230.3868,111.2656 230.2728,111.3716 230.2088,111.4916 C229.4228,112.9716 228.5638,114.4106 227.7028,115.8476 C227.6028,116.0156 227.5388,116.2056 227.4578,116.3846 C227.4288,116.3806 227.3988,116.3776 227.3688,116.3736" id="Fill-55" fill="#FFF9D8" blush:i="0.0.2.17"/><path d="M145.2765,49.4029 C145.4455,49.1999 145.6865,49.0989 145.9055,48.9729 C146.5615,48.5979 147.2225,48.2329 147.8805,47.8609 C147.9645,47.8129 148.1085,47.8029 148.0875,47.6669 C148.0705,47.5509 147.9425,47.5289 147.8495,47.4879 C147.1345,47.1739 146.4185,46.8619 145.7035,46.5489 C145.5755,46.4919 145.4475,46.4349 145.2765,46.3589 C145.5105,46.1879 145.7325,46.2339 145.9355,46.2389 C146.6245,46.2579 147.3135,46.2869 148.0015,46.3289 C148.2675,46.3459 148.3515,46.2839 148.2895,46.0029 C148.0985,45.1389 147.9615,44.2649 147.8585,43.3849 C147.8465,43.2839 147.8105,43.1809 147.8925,43.0889 C148.0485,43.0969 148.0535,43.2409 148.1045,43.3349 C148.5395,44.1349 148.9185,44.9659 149.3835,45.7509 C149.5455,46.0239 149.6355,46.0079 149.8225,45.7889 C150.3885,45.1259 150.9665,44.4739 151.5475,43.8229 C151.6645,43.6919 151.7705,43.5369 152.0425,43.4459 C151.8835,43.8019 151.7575,44.0999 151.6205,44.3919 C151.3215,45.0289 151.0265,45.6679 150.7125,46.2959 C150.5735,46.5729 150.6245,46.6549 150.9355,46.6589 C151.7945,46.6689 152.6535,46.7039 153.5125,46.7299 C153.6275,46.7329 153.7475,46.7089 153.8795,46.8059 C153.7635,46.9429 153.6065,46.9849 153.4535,47.0349 C152.7115,47.2799 151.9745,47.5419 151.2255,47.7659 C150.9105,47.8599 150.8745,47.9759 151.0155,48.2599 C151.4555,49.1469 151.8695,50.0449 152.2925,50.9399 C152.3345,51.0279 152.4165,51.1119 152.3435,51.2469 C152.0745,51.1179 151.8945,50.8919 151.7045,50.6949 C151.2085,50.1799 150.7315,49.6469 150.2665,49.1029 C150.0445,48.8429 149.9565,48.9139 149.8705,49.1899 C149.5915,50.0849 149.3065,50.9769 149.0235,51.8689 C149.0005,51.9409 148.9695,52.0089 148.9305,52.1109 C148.6675,51.8179 148.7745,51.4789 148.7505,51.1849 C148.6975,50.5409 148.6975,49.8909 148.7125,49.2439 C148.7195,48.9549 148.6335,48.9149 148.3755,48.9659 C147.4685,49.1419 146.5595,49.3019 145.6495,49.4609 C145.5335,49.4809 145.3975,49.5629 145.2765,49.4029" id="Fill-57" fill="#C2F4FF" blush:i="0.0.2.18"/><path d="M160.5675,210.565 L160.8705,210.544 C161.2165,209.863 161.6245,209.612 162.1375,209.765 C162.9745,210.014 163.1245,210.854 162.4605,211.582 C162.2765,211.643 162.0925,211.705 161.9085,211.766 C161.8195,212.297 161.4085,212.424 160.9745,212.446 C160.5305,212.469 160.1845,212.246 160.0245,211.818 C159.8625,211.389 159.9635,211.018 160.3525,210.744 C160.4275,210.69 160.4955,210.625 160.5675,210.565 M163.5055,211.092 C163.4575,210.77 163.6185,210.562 163.9135,210.503 C164.2485,210.435 164.4535,210.643 164.5325,210.946 C164.6025,211.218 164.6225,211.503 164.6695,211.781 C164.6875,211.887 164.6785,212.037 164.7845,212.071 C164.9265,212.117 165.0045,211.971 165.0725,211.873 C165.2515,211.615 165.4215,211.351 165.5825,211.082 C165.7675,210.772 166.0255,210.676 166.3375,210.846 C166.6425,211.011 166.5995,211.29 166.4605,211.541 C166.2705,211.882 166.0535,212.208 165.8475,212.54 C166.2275,212.647 166.6115,212.7 166.9985,212.725 C166.6115,212.7 166.2275,212.647 165.8475,212.54 C164.7965,213.48 164.3365,213.381 163.6615,212.068 C163.6095,211.743 163.5545,211.418 163.5055,211.092 M170.8645,213.679 C170.5815,213.985 170.2355,214.163 169.8105,214.024 C169.3355,213.87 169.0395,213.558 169.0385,213.027 C168.7075,213.05 168.4245,212.929 168.1635,212.74 C167.9435,212.425 167.7695,212.105 167.9295,211.698 C168.1025,211.262 168.4995,210.984 168.9445,211.015 C169.3805,211.044 169.7645,211.381 169.8615,211.826 C169.8845,211.932 169.8885,212.043 169.9015,212.151 C170.2705,212.129 170.6165,212.181 170.8955,212.452 C171.4165,212.34 171.9275,212.204 172.4215,212.023 C171.9275,212.204 171.4165,212.34 170.8955,212.452 C171.0715,212.866 171.2285,213.285 170.8645,213.679 M173.8425,211.318 C173.7355,210.675 173.4915,210.085 173.1625,209.527 C172.8965,208.875 172.5205,208.302 171.9525,207.871 C171.3195,206.98 170.1195,206.26 169.0945,205.923 C167.9505,205.547 166.7185,205.441 165.5255,205.61 C164.9725,205.689 164.4455,205.838 163.9275,206.047 C163.6565,206.157 163.3915,206.28 163.1315,206.415 C163.0425,206.461 162.4795,206.854 162.4175,206.824 C161.8305,207.242 161.3265,207.752 160.8355,208.275 C160.4525,208.821 160.0735,209.369 159.8235,209.992 C159.5075,210.629 159.2765,211.291 159.2415,212.009 C159.1315,212.851 159.1045,213.69 159.3445,214.517 C159.3645,215 159.5555,215.443 159.7665,215.854 C160.1855,216.668 160.5245,217.549 161.3085,218.12 C162.0565,219.037 163.0515,219.592 164.1415,219.973 C166.6405,220.846 168.9535,220.44 171.0835,218.894 C172.2185,218.051 173.0615,216.99 173.5235,215.642 C173.8525,214.89 174.0425,214.108 174.0275,213.282 C174.1015,212.615 174.0385,211.96 173.8425,211.318" id="Fill-60" fill="#FFE0A2" blush:i="0.0.2.19"/><path d="M168.8913,205.1798 C168.8823,205.2698 168.8673,205.4588 168.8433,205.6458 C168.7873,206.0708 168.5323,206.2928 168.1143,206.3048 C167.8643,206.3118 167.6093,206.2898 167.3623,206.2498 C166.3483,206.0838 166.1753,205.8288 166.3603,204.8128 C166.4953,204.0798 166.8873,203.7878 167.6263,203.8738 C167.7513,203.8878 167.8753,203.9128 167.9983,203.9388 C168.7153,204.0898 168.9203,204.3508 168.8913,205.1798" id="Fill-62" fill="#E858B5" blush:i="0.0.2.20"/><path d="M163.6613,212.0679 C163.6093,211.7429 163.5553,211.4179 163.5063,211.0919 C163.4573,210.7709 163.6183,210.5629 163.9133,210.5029 C164.2483,210.4349 164.4533,210.6429 164.5323,210.9459 C164.6023,211.2179 164.6223,211.5029 164.6693,211.7809 C164.6873,211.8869 164.6783,212.0369 164.7853,212.0709 C164.9263,212.1169 165.0053,211.9709 165.0733,211.8729 C165.2513,211.6149 165.4213,211.3509 165.5823,211.0819 C165.7673,210.7719 166.0253,210.6759 166.3373,210.8459 C166.6423,211.0119 166.5993,211.2899 166.4603,211.5409 C166.2703,211.8819 166.0533,212.2079 165.8483,212.5409 C164.7963,213.4799 164.3363,213.3809 163.6613,212.0679" id="Fill-64" fill="#E858B5" blush:i="0.0.2.21"/><path d="M160.8708,210.5445 C161.2168,209.8635 161.6248,209.6125 162.1378,209.7645 C162.9748,210.0135 163.1238,210.8535 162.4598,211.5825 C162.2768,211.6435 162.0928,211.7045 161.9088,211.7655 C161.1378,211.5715 160.9078,211.3005 160.8708,210.5445" id="Fill-66" fill="#E858B5" blush:i="0.0.2.22"/><path d="M168.1637,212.7403 C167.9437,212.4253 167.7687,212.1053 167.9297,211.6983 C168.1027,211.2613 168.4997,210.9843 168.9447,211.0143 C169.3807,211.0443 169.7647,211.3813 169.8617,211.8263 C169.8847,211.9323 169.8887,212.0433 169.9017,212.1513 C169.7657,212.5933 169.4847,212.8913 169.0387,213.0273 C168.7077,213.0503 168.4247,212.9283 168.1637,212.7403" id="Fill-68" fill="#E858B5" blush:i="0.0.2.23"/><path d="M169.0382,213.0269 C169.4852,212.8919 169.7662,212.5929 169.9012,212.1519 C170.2702,212.1299 170.6162,212.1809 170.8952,212.4529 C171.0712,212.8659 171.2282,213.2849 170.8642,213.6789 C170.5812,213.9849 170.2362,214.1629 169.8102,214.0249 C169.3352,213.8699 169.0392,213.5579 169.0382,213.0269" id="Fill-70" fill="#FB8B84" blush:i="0.0.2.24"/><path d="M160.8708,210.5445 C160.9078,211.3005 161.1378,211.5715 161.9088,211.7655 C161.8198,212.2965 161.4088,212.4235 160.9748,212.4465 C160.5308,212.4685 160.1838,212.2455 160.0238,211.8185 C159.8628,211.3885 159.9638,211.0175 160.3518,210.7435 C160.4278,210.6905 160.4958,210.6255 160.5678,210.5655 L160.8708,210.5445 Z" id="Fill-72" fill="#FB8B84" blush:i="0.0.2.25"/><path d="M106.7121,214.1334 C106.6791,214.9584 106.8511,215.7444 107.1631,216.5044 C112.0631,219.1794 116.7801,218.6214 121.3631,215.7014 C121.6231,214.8804 121.6141,214.0404 121.5241,213.1964 C120.4121,213.8364 119.3881,214.6124 118.1481,215.0454 C116.5761,215.5954 114.9831,215.9514 113.3241,215.9874 C110.9381,216.0364 108.7431,215.3694 106.7121,214.1334" id="Fill-75" fill="#FCE579" blush:i="0.0.2.26"/><path d="M121.3629,215.7017 C116.7799,218.6217 112.0629,219.1797 107.1629,216.5047 C107.5929,217.8627 108.4129,218.9427 109.5279,219.8107 C111.7389,220.5517 113.9919,220.6267 116.2729,220.2257 C117.3299,220.0397 118.3229,219.6447 119.3189,219.2597 C120.1149,218.7057 120.4739,217.8327 120.9109,217.0287 C121.1319,216.6227 121.3319,216.1837 121.3629,215.7017" id="Fill-77" fill="#FFB45C" blush:i="0.0.2.27"/><path d="M106.7121,214.1334 C108.7431,215.3694 110.9381,216.0364 113.3241,215.9874 C114.9831,215.9514 116.5761,215.5954 118.1481,215.0454 C119.3881,214.6124 120.4121,213.8364 121.5241,213.1964 C121.5051,212.4774 121.2891,211.8114 120.9881,211.1674 C120.7351,211.3524 120.4831,211.5374 120.2311,211.7224 C120.3011,211.7844 120.3671,211.8514 120.4421,211.9064 C120.8241,212.1894 120.9171,212.5624 120.7461,212.9874 C120.5761,213.4114 120.2251,213.6274 119.7811,213.5944 C119.3471,213.5624 118.9401,213.4254 118.8631,212.8924 C118.6801,212.8274 118.4981,212.7624 118.3161,212.6964 C117.9181,212.8664 117.5321,213.0684 117.1041,213.1544 C116.3991,214.4524 115.9371,214.5414 114.9071,213.5774 C114.1431,213.7744 113.3651,213.7534 112.5871,213.7244 C112.3221,213.9074 112.0361,214.0224 111.7061,213.9914 C111.6931,214.5224 111.3901,214.8274 110.9111,214.9714 C110.4831,215.0994 110.1421,214.9144 109.8661,214.6014 C109.5111,214.1994 109.6771,213.7844 109.8621,213.3754 C108.8271,213.1264 107.8291,212.7854 106.9421,212.1744 C106.7321,212.8114 106.6531,213.4644 106.7121,214.1334" id="Fill-79" fill="#FFB45C" blush:i="0.0.2.28"/><path d="M120.0148,209.4278 C119.5358,208.8938 119.0438,208.3718 118.4658,207.9408 C117.2588,208.4818 116.0288,208.9048 114.6998,209.0918 C112.7378,209.3678 110.8198,209.2398 108.9108,208.7708 C108.3318,209.1888 107.9438,209.7528 107.6628,210.3988 C107.8298,210.4848 107.9918,210.5828 108.1648,210.6528 C110.2978,211.5208 112.5098,211.7528 114.7708,211.3778 C116.6378,211.0688 118.4368,210.5328 120.0148,209.4278" id="Fill-81" fill="#FFB45C" blush:i="0.0.2.29"/><path d="M120.0148,209.4278 C118.4368,210.5328 116.6378,211.0688 114.7708,211.3778 C112.5098,211.7528 110.2978,211.5208 108.1648,210.6528 C107.9918,210.5828 107.8298,210.4848 107.6628,210.3988 C107.3208,210.9488 107.0638,211.5338 106.9418,212.1738 C107.8288,212.7858 108.8268,213.1268 109.8628,213.3748 C110.1478,213.1098 110.4948,213.0668 110.8628,213.0958 C110.8778,212.9888 110.8848,212.8778 110.9108,212.7728 C111.0168,212.3298 111.4088,212.0018 111.8458,211.9818 C112.2908,211.9618 112.6818,212.2478 112.8448,212.6888 C112.9958,213.0988 112.8148,213.4148 112.5868,213.7248 C113.3658,213.7538 114.1428,213.7738 114.9068,213.5778 C114.7088,213.2408 114.4988,212.9098 114.3178,212.5648 C114.1838,212.3098 114.1468,212.0318 114.4558,211.8718 C114.7718,211.7098 115.0278,211.8108 115.2058,212.1258 C115.3598,212.3988 115.5248,212.6658 115.6968,212.9278 C115.7628,213.0278 115.8378,213.1758 115.9798,213.1328 C116.0878,213.1008 116.0818,212.9508 116.1018,212.8458 C116.1548,212.5688 116.1818,212.2838 116.2588,212.0128 C116.3438,211.7128 116.5538,211.5098 116.8868,211.5848 C117.1808,211.6508 117.3368,211.8628 117.2818,212.1828 C117.2248,212.5078 117.1628,212.8308 117.1038,213.1548 C117.5328,213.0678 117.9178,212.8668 118.3158,212.6968 C117.6688,211.9528 117.8368,211.1168 118.6798,210.8868 C119.1958,210.7458 119.5978,211.0068 119.9288,211.6958 C120.0288,211.7048 120.1298,211.7138 120.2308,211.7228 C120.4838,211.5378 120.7358,211.3518 120.9878,211.1668 C120.7518,210.5378 120.3858,209.9818 120.0148,209.4278" id="Fill-83" fill="#FCE579" blush:i="0.0.2.30"/><path d="M108.9103,208.7706 C110.8203,209.2396 112.7373,209.3676 114.7003,209.0916 C116.0283,208.9046 117.2593,208.4816 118.4663,207.9406 C118.4033,207.9686 117.8493,207.5636 117.7613,207.5156 C117.5053,207.3746 117.2433,207.2456 116.9743,207.1296 C116.4603,206.9086 115.9383,206.7476 115.3863,206.6566 C114.1983,206.4596 112.9643,206.5386 111.8113,206.8886 C110.7793,207.2026 109.5633,207.8946 108.9103,208.7706" id="Fill-85" fill="#FCE579" blush:i="0.0.2.31"/><path d="M119.3185,219.2594 C118.3235,219.6454 117.3305,220.0394 116.2725,220.2254 C113.9915,220.6274 111.7395,220.5514 109.5275,219.8104 C111.6225,221.4044 113.9255,221.8634 116.4435,221.0474 C117.5425,220.6914 118.5495,220.1584 119.3185,219.2594" id="Fill-87" fill="#FCE579" blush:i="0.0.2.32"/><path d="M112.0319,206.1495 C112.0389,206.2405 112.0499,206.4295 112.0699,206.6165 C112.1159,207.0425 112.3649,207.2705 112.7829,207.2925 C113.0329,207.3045 113.2879,207.2885 113.5359,207.2535 C114.5529,207.1105 114.7329,206.8595 114.5699,205.8405 C114.4529,205.1045 114.0679,204.8035 113.3259,204.8735 C113.2009,204.8845 113.0759,204.9065 112.9529,204.9295 C112.2319,205.0645 112.0219,205.3205 112.0319,206.1495" id="Fill-89" fill="#E858B5" blush:i="0.0.2.33"/><path d="M117.1037,213.1549 C117.1637,212.8309 117.2247,212.5079 117.2817,212.1829 C117.3367,211.8629 117.1807,211.6509 116.8867,211.5849 C116.5537,211.5089 116.3437,211.7129 116.2587,212.0129 C116.1817,212.2839 116.1547,212.5689 116.1027,212.8459 C116.0827,212.9509 116.0877,213.1009 115.9797,213.1329 C115.8377,213.1759 115.7627,213.0279 115.6967,212.9279 C115.5247,212.6659 115.3597,212.3989 115.2057,212.1259 C115.0277,211.8109 114.7717,211.7099 114.4567,211.8719 C114.1467,212.0309 114.1837,212.3099 114.3177,212.5649 C114.4997,212.9099 114.7087,213.2409 114.9067,213.5779 C115.9367,214.5409 116.3987,214.4519 117.1037,213.1549" id="Fill-91" fill="#E858B5" blush:i="0.0.2.34"/><path d="M119.9284,211.6954 C119.5974,211.0064 119.1954,210.7464 118.6794,210.8874 C117.8364,211.1164 117.6684,211.9534 118.3154,212.6964 C118.4974,212.7624 118.6804,212.8274 118.8634,212.8924 C119.6374,212.7164 119.8744,212.4504 119.9284,211.6954" id="Fill-93" fill="#E858B5" blush:i="0.0.2.35"/><path d="M112.5871,213.7247 C112.8151,213.4147 112.9961,213.0987 112.8441,212.6887 C112.6821,212.2477 112.2911,211.9617 111.8461,211.9817 C111.4091,212.0017 111.0171,212.3297 110.9101,212.7727 C110.8851,212.8777 110.8781,212.9887 110.8631,213.0967 C110.9891,213.5407 111.2621,213.8467 111.7061,213.9917 C112.0361,214.0217 112.3221,213.9077 112.5871,213.7247" id="Fill-95" fill="#E858B5" blush:i="0.0.2.36"/><path d="M111.7062,213.9913 C111.2622,213.8463 110.9892,213.5413 110.8632,213.0963 C110.4952,213.0663 110.1482,213.1103 109.8622,213.3753 C109.6772,213.7843 109.5112,214.1993 109.8662,214.6013 C110.1422,214.9143 110.4832,215.0993 110.9112,214.9713 C111.3902,214.8273 111.6932,214.5223 111.7062,213.9913" id="Fill-97" fill="#FB8B84" blush:i="0.0.2.37"/><path d="M119.9284,211.6954 C119.8744,212.4504 119.6374,212.7164 118.8634,212.8924 C118.9394,213.4254 119.3474,213.5624 119.7814,213.5944 C120.2244,213.6274 120.5754,213.4114 120.7454,212.9874 C120.9164,212.5624 120.8244,212.1894 120.4424,211.9064 C120.3674,211.8514 120.3014,211.7844 120.2314,211.7224 C120.1304,211.7144 120.0294,211.7044 119.9284,211.6954" id="Fill-99" fill="#FB8B84" blush:i="0.0.2.38"/><path d="M139.8224,194.0118 C139.0584,194.0438 138.9234,193.9488 138.8224,193.3128 C138.6944,192.5008 138.8834,192.1468 139.5564,191.9728 C139.8224,191.9038 140.0904,191.8488 140.3744,191.8878 C140.8324,191.9518 141.0724,192.2198 141.1444,192.6538 C141.3354,193.7938 141.1774,193.9538 139.8224,194.0118" id="Fill-102" fill="#E858B5" blush:i="0.0.2.39"/><path d="M140.0251,206.6563 C140.1251,206.5723 140.2601,206.5313 140.4311,206.5383 C140.2581,206.5403 140.1301,206.5783 140.0251,206.6563 M147.6171,198.7253 C147.6271,198.4293 147.5561,198.1553 147.3981,197.9043 C146.9411,196.6333 146.2141,195.5633 145.0841,194.7923 C144.8991,194.5023 144.5951,194.3753 144.3051,194.2303 C143.7071,193.8243 142.7901,193.6363 142.0881,193.6023 C141.4041,193.5703 140.7281,193.5343 140.0431,193.5843 C138.6851,193.6833 137.2461,194.0663 136.3311,195.1433 C135.9801,195.3143 135.8061,195.6523 135.5751,195.9383 C135.1401,196.3703 134.9141,196.9123 134.6871,197.4743 C133.9651,199.2633 133.8721,201.0393 134.6691,202.8263 C134.7351,203.1513 134.7761,203.4853 135.0241,203.7403 C135.1941,204.1723 135.5381,204.4723 135.8321,204.8123 C136.8791,206.0183 138.2121,206.7103 139.7611,207.0113 C139.7601,207.0123 139.7591,207.0133 139.7581,207.0153 C140.1841,207.1693 140.6191,207.1923 141.0681,207.1253 C141.0661,207.1123 141.0631,207.1013 141.0611,207.0883 C141.0631,207.0973 141.0671,207.1053 141.0691,207.1143 C141.6771,207.1283 142.2701,207.0523 142.8361,206.8183 C143.2461,206.7553 143.6211,206.6103 143.9531,206.3593 C145.8081,205.4903 146.9581,204.0293 147.5471,202.0953 C147.6711,201.7253 147.6961,201.3413 147.7181,200.9553 C147.8801,200.2033 147.7501,199.4643 147.6171,198.7253" id="Fill-104" fill="#8BFFAF" blush:i="0.0.2.40"/><path d="M138.7853,201.4683 C138.7853,202.0813 138.2873,202.5783 137.6743,202.5783 C137.0613,202.5783 136.5643,202.0813 136.5643,201.4683 C136.5643,200.8553 137.0613,200.3573 137.6743,200.3573 C138.2873,200.3573 138.7853,200.8553 138.7853,201.4683" id="Fill-106" fill="#FB8B84" blush:i="0.0.2.41"/><path d="M140.5055,199.3956 C140.2105,199.1516 139.8645,198.9966 139.5255,198.8286 C139.2355,198.7256 138.9395,198.6616 138.6325,198.6476 C138.4255,198.7536 138.1865,198.8416 138.2205,199.1396 C138.2555,199.4366 138.4855,199.5246 138.7355,199.5956 C139.0005,199.6706 139.2585,199.7656 139.5195,199.8566 C139.7945,199.9526 139.7355,200.0876 139.5385,200.1996 C139.3115,200.3276 139.0725,200.4346 138.8345,200.5406 C138.6155,200.6376 138.4685,200.7756 138.4895,201.0356 C138.5125,201.3076 138.6565,201.4576 138.9345,201.4686 C139.3125,201.3216 139.6905,201.1746 140.0675,201.0276 C140.3235,200.8056 140.5875,200.5896 140.7405,200.2756 C140.7925,199.9476 140.7305,199.6496 140.5055,199.3956" id="Fill-108" fill="#E858B5" blush:i="0.0.2.42"/><path d="M147.6349,199.7579 C147.6349,200.3709 147.1369,200.8679 146.5239,200.8679 C145.9109,200.8679 145.4139,200.3709 145.4139,199.7579 C145.4139,199.1449 145.9109,198.6479 146.5239,198.6479 C147.1369,198.6479 147.6349,199.1449 147.6349,199.7579" id="Fill-110" fill="#FB8B84" blush:i="0.0.2.43"/><path d="M143.6349,200.0162 C143.9909,200.1582 144.3679,200.1992 144.7419,200.2552 C145.0489,200.2652 145.3509,200.2332 145.6479,200.1522 C145.8109,199.9882 146.0119,199.8302 145.8879,199.5582 C145.7639,199.2862 145.5179,199.2732 145.2579,199.2822 C144.9829,199.2912 144.7079,199.2812 144.4319,199.2752 C144.1399,199.2682 144.1549,199.1202 144.3079,198.9542 C144.4849,198.7632 144.6789,198.5872 144.8729,198.4132 C145.0519,198.2532 145.1499,198.0772 145.0489,197.8362 C144.9439,197.5842 144.7599,197.4872 144.4929,197.5612 C144.1779,197.8172 143.8639,198.0732 143.5499,198.3292 C143.3749,198.6192 143.1909,198.9052 143.1409,199.2512 C143.1929,199.5792 143.3429,199.8442 143.6349,200.0162" id="Fill-112" fill="#E858B5" blush:i="0.0.2.44"/><path d="M143.315109,200.737043 C143.534067,200.756378 143.695892,200.949552 143.676557,201.168509 C143.630669,201.688165 143.382864,202.184433 142.992804,202.534601 C142.856214,202.65543 142.740077,202.723177 142.565021,202.72814 C142.322446,202.738462 142.17529,202.63308 142.013909,202.445669 C141.754,202.144778 141.527053,201.813338 141.339774,201.461514 C141.236489,201.267482 141.310054,201.026459 141.504086,200.923174 C141.698118,200.819889 141.939141,200.893454 142.042426,201.087486 C142.162022,201.31216 142.300672,201.527152 142.455954,201.728771 L142.554,201.849 C142.712059,201.672469 142.818679,201.458956 142.863961,201.23434 L142.883643,201.098491 C142.902978,200.879533 143.096152,200.717708 143.315109,200.737043 Z" id="Stroke-114" fill="#E858B5" fill-rule="nonzero" blush:i="0.0.2.45"/><path d="M114.372326,133.960867 C117.182619,130.909251 119.160204,130.406951 123.526136,131.404908 C127.620846,132.341089 130.992506,135.742502 132.020289,139.791455 L132.087,140.068 L132.098558,140.062748 C138.033874,136.848334 145.730103,137.13748 151.378072,140.853387 L151.701617,141.071568 C154.564159,143.050143 156.446791,145.209524 159.623184,149.794831 L161.749668,152.900333 C162.135322,153.45781 162.445131,153.895616 162.786402,154.366135 C167.870607,161.375938 173.867541,166.128277 180.509722,167.716682 C184.761345,168.733559 188.898173,168.160627 191.614989,165.901462 C192.012158,165.571175 192.367304,165.198393 192.678645,164.794576 L192.725,164.731 L192.232971,164.507177 L191.842374,164.317294 C189.33447,163.065933 187.606826,161.459398 186.997782,159.363036 C186.231686,156.722989 188.046901,153.601188 190.692209,153.6073 C191.808712,153.608459 192.890797,154.14059 193.792842,155.014 C196.038182,157.189716 196.350496,160.739737 195.093483,163.716836 L194.994,163.941 L195.266634,164.032432 C199.9436,165.535939 205.184786,165.305561 209.68459,163.324658 L210.068441,163.150579 C215.541557,160.593445 219.743129,155.437235 221.143118,149.560168 C221.242878,149.14138 221.663244,148.882757 222.082032,148.982518 C222.50082,149.082278 222.759443,149.502644 222.659682,149.921432 C221.149472,156.261203 216.632463,161.80452 210.728209,164.56309 C205.751769,166.886887 199.892442,167.186763 194.683549,165.482279 L194.218,165.324 C193.816635,165.913593 193.349126,166.451343 192.815144,166.925405 L192.611792,167.100154 C189.469853,169.712831 184.836566,170.35452 180.147103,169.232924 C173.241552,167.581537 167.075853,162.776756 161.863016,155.743321 L161.296096,154.96505 C161.070333,154.65044 160.848618,154.336174 160.598737,153.976527 L158.63505,151.107717 C155.384272,146.382204 153.56231,144.252833 150.815241,142.354073 C145.333676,138.565976 137.554213,138.408544 131.923194,141.971513 C131.436227,142.279636 130.794821,141.971095 130.731605,141.398312 C130.290052,137.397549 127.102619,133.821834 123.178703,132.924701 L122.608351,132.799817 C119.110428,132.071348 117.729308,132.547176 115.327689,135.227206 L115.13591,135.443385 C105.868666,145.987936 89.6111642,149.584529 76.733899,144.053067 L76.497,143.949 L76.3518215,144.140108 C69.5657143,152.927229 57.7241986,157.512024 46.7904499,155.544782 L46.3593397,155.46372 C45.9368862,155.380844 45.6616043,154.971193 45.7444803,154.54874 C45.8273563,154.126286 46.2370068,153.851004 46.6594603,153.93388 C57.4022864,156.041385 69.1971135,151.393486 75.6138448,142.523899 C75.8327561,142.221307 76.2355307,142.116504 76.5741636,142.274022 C88.8133976,147.967205 104.613285,144.734782 113.671857,134.742497 L114.372326,133.960867 Z M190.689599,155.166293 C189.185473,155.162823 187.995918,157.208615 188.494949,158.928328 C188.958023,160.522253 190.381797,161.846219 192.538606,162.922395 C192.78998,163.047904 193.04405,163.167761 193.300571,163.281965 L193.534,163.383 L193.586637,163.272692 C194.654606,160.89276 194.49773,158.04129 192.870266,156.298909 L192.708171,156.133807 C192.074099,155.519864 191.356533,155.16699 190.689599,155.166293 Z" id="Stroke-117" fill="#EFCAFF" fill-rule="nonzero" blush:i="0.0.2.46"/><path d="M72.4435,150.9005 C72.6965,150.9765 72.9535,151.0445 73.2125,151.1075 C73.4975,150.8415 73.8445,150.7975 74.2125,150.8285 C74.2275,150.7205 74.2345,150.6095 74.2595,150.5045 C74.3665,150.0615 74.7585,149.7335 75.1955,149.7135 C75.6405,149.6935 76.0315,149.9805 76.1935,150.4205 C76.3455,150.8305 76.1645,151.1465 75.9365,151.4565 C75.6715,151.6395 75.3855,151.7545 75.0555,151.7235 C75.0425,152.2545 74.7395,152.5595 74.2605,152.7025 C73.8325,152.8315 73.4915,152.6465 73.2155,152.3335 C72.8605,151.9315 73.0265,151.5165 73.2125,151.1075 C72.9535,151.0445 72.6965,150.9765 72.4435,150.9005 C71.9375,150.7475 71.4445,150.5605 70.9765,150.3165 C71.4445,150.5605 71.9375,150.7475 72.4435,150.9005 M83.5805,149.4545 L83.5805,149.4545 C83.6505,149.5165 83.7165,149.5835 83.7915,149.6385 C84.1735,149.9215 84.2665,150.2945 84.0955,150.7195 C83.9255,151.1435 83.5745,151.3585 83.1315,151.3265 C82.6965,151.2945 82.2885,151.1575 82.2125,150.6245 C82.0295,150.5595 81.8475,150.4935 81.6655,150.4285 C81.0185,149.6855 81.1865,148.8485 82.0285,148.6185 C82.5455,148.4785 82.9465,148.7385 83.2775,149.4275 C83.3785,149.4365 83.4795,149.4455 83.5805,149.4545 M77.6675,150.2965 C77.5335,150.0425 77.4965,149.7625 77.8055,149.6045 C78.1215,149.4425 78.3775,149.5435 78.5555,149.8575 C78.7095,150.1295 78.8745,150.3975 79.0465,150.6595 C79.1115,150.7585 79.1875,150.9075 79.3295,150.8645 C79.4375,150.8325 79.4315,150.6825 79.4515,150.5775 C79.5045,150.2995 79.5315,150.0155 79.6085,149.7455 C79.6935,149.4445 79.9025,149.2405 80.2365,149.3165 C80.5305,149.3825 80.6865,149.5945 80.6315,149.9145 C80.5745,150.2395 80.5125,150.5625 80.4535,150.8865 C79.7485,152.1845 79.2865,152.2735 78.2565,151.3095 C77.8745,151.4075 77.4885,151.4515 77.1015,151.4675 C77.4885,151.4515 77.8745,151.4075 78.2565,151.3095 C78.0585,150.9725 77.8485,150.6425 77.6675,150.2965 M84.8735,150.9285 C84.8545,150.2095 84.6385,149.5435 84.3375,148.8995 C84.1015,148.2695 83.7355,147.7135 83.3645,147.1595 C82.8845,146.6255 82.3935,146.1035 81.8155,145.6725 C81.7535,145.7005 81.1995,145.2955 81.1105,145.2475 C80.8545,145.1065 80.5925,144.9775 80.3235,144.8615 C79.8105,144.6405 79.2875,144.4795 78.7355,144.3885 C77.5475,144.1925 76.3135,144.2705 75.1615,144.6205 C74.1295,144.9335 72.9125,145.6265 72.2595,146.5025 C71.6815,146.9215 71.2935,147.4845 71.0125,148.1305 C70.6705,148.6805 70.4135,149.2655 70.2915,149.9055 C70.0815,150.5435 70.0035,151.1955 70.0615,151.8655 C70.0285,152.6905 70.2005,153.4765 70.5125,154.2365 C70.9435,155.5935 71.7625,156.6745 72.8775,157.5425 C74.9715,159.1365 77.2755,159.5955 79.7935,158.7785 C80.8915,158.4225 81.8995,157.8905 82.6685,156.9905 C83.4645,156.4385 83.8235,155.5655 84.2605,154.7595 C84.4815,154.3545 84.6815,153.9165 84.7125,153.4335 C84.9725,152.6115 84.9635,151.7725 84.8735,150.9285" id="Fill-120" fill="#B9EFFF" blush:i="0.0.2.47"/><path d="M75.3815,143.8814 C75.3885,143.9724 75.3995,144.1614 75.4195,144.3484 C75.4655,144.7744 75.7145,145.0024 76.1325,145.0244 C76.3825,145.0364 76.6375,145.0204 76.8855,144.9854 C77.9025,144.8424 78.0825,144.5914 77.9195,143.5724 C77.8015,142.8364 77.4175,142.5354 76.6755,142.6044 C76.5505,142.6164 76.4255,142.6384 76.3025,142.6614 C75.5815,142.7964 75.3715,143.0524 75.3815,143.8814" id="Fill-122" fill="#E858B5" blush:i="0.0.2.48"/><path d="M80.4533,150.8868 C80.5133,150.5628 80.5743,150.2398 80.6313,149.9148 C80.6863,149.5948 80.5303,149.3828 80.2363,149.3168 C79.9033,149.2408 79.6933,149.4448 79.6083,149.7448 C79.5313,150.0158 79.5043,150.2998 79.4523,150.5778 C79.4323,150.6828 79.4373,150.8328 79.3293,150.8648 C79.1873,150.9078 79.1123,150.7598 79.0463,150.6598 C78.8743,150.3978 78.7093,150.1308 78.5553,149.8578 C78.3773,149.5428 78.1213,149.4418 77.8063,149.6038 C77.4963,149.7628 77.5333,150.0418 77.6673,150.2968 C77.8493,150.6418 78.0583,150.9728 78.2563,151.3098 C79.2863,152.2728 79.7483,152.1838 80.4533,150.8868" id="Fill-124" fill="#E858B5" blush:i="0.0.2.49"/><path d="M83.2775,149.4273 C82.9465,148.7383 82.5455,148.4783 82.0285,148.6193 C81.1865,148.8483 81.0175,149.6853 81.6655,150.4283 C81.8475,150.4933 82.0295,150.5593 82.2125,150.6243 C82.9875,150.4483 83.2235,150.1823 83.2775,149.4273" id="Fill-126" fill="#E858B5" blush:i="0.0.2.50"/><path d="M75.9367,151.4566 C76.1647,151.1466 76.3457,150.8306 76.1937,150.4206 C76.0317,149.9796 75.6407,149.6936 75.1957,149.7136 C74.7587,149.7336 74.3667,150.0616 74.2597,150.5036 C74.2347,150.6096 74.2277,150.7206 74.2127,150.8286 C74.3387,151.2726 74.6117,151.5786 75.0557,151.7236 C75.3857,151.7536 75.6717,151.6396 75.9367,151.4566" id="Fill-128" fill="#E858B5" blush:i="0.0.2.51"/><path d="M75.0558,151.7232 C74.6118,151.5782 74.3388,151.2732 74.2128,150.8282 C73.8448,150.7982 73.4978,150.8422 73.2118,151.1072 C73.0268,151.5162 72.8608,151.9312 73.2158,152.3332 C73.4908,152.6462 73.8318,152.8312 74.2608,152.7032 C74.7398,152.5592 75.0428,152.2542 75.0558,151.7232" id="Fill-130" fill="#FB8B84" blush:i="0.0.2.52"/><path d="M83.2775,149.4273 C83.2235,150.1823 82.9875,150.4483 82.2125,150.6243 C82.2885,151.1573 82.6965,151.2943 83.1315,151.3263 C83.5745,151.3593 83.9255,151.1433 84.0955,150.7193 C84.2665,150.2943 84.1735,149.9213 83.7915,149.6383 C83.7165,149.5833 83.6505,149.5163 83.5805,149.4543 C83.4795,149.4463 83.3785,149.4363 83.2775,149.4273" id="Fill-132" fill="#FB8B84" blush:i="0.0.2.53"/><path d="M200.9503,172.962 C200.9653,173.788 200.7743,174.569 200.4463,175.322 C195.4863,177.885 190.7833,177.22 186.2673,174.197 C186.0263,173.369 186.0543,172.53 186.1643,171.689 C187.2613,172.353 188.2663,173.152 189.4963,173.614 C191.0553,174.199 192.6413,174.592 194.2983,174.664 C196.6823,174.769 198.8923,174.152 200.9503,172.962" id="Fill-135" fill="#FCE579" blush:i="0.0.2.54"/><path d="M186.2677,174.1969 C190.7837,177.2199 195.4867,177.8849 200.4457,175.3219 C199.9847,176.6699 199.1417,177.7309 198.0057,178.5739 C195.7787,179.2639 193.5247,179.2879 191.2537,178.8349 C190.2007,178.6249 189.2167,178.2079 188.2307,177.7999 C187.4477,177.2289 187.1077,176.3479 186.6887,175.5329 C186.4787,175.1229 186.2877,174.6799 186.2677,174.1969" id="Fill-137" fill="#FFB45C" blush:i="0.0.2.55"/><path d="M200.9503,172.962 C198.8923,174.152 196.6823,174.769 194.2983,174.664 C192.6413,174.592 191.0553,174.199 189.4963,173.614 C188.2663,173.152 187.2613,172.353 186.1643,171.689 C186.1993,170.97 186.4303,170.309 186.7453,169.672 L187.4903,170.245 C187.4183,170.304 187.3503,170.37 187.2743,170.423 C186.8863,170.697 186.7853,171.068 186.9463,171.498 C187.1063,171.925 187.4523,172.148 187.8963,172.126 C188.3313,172.104 188.7423,171.977 188.8313,171.445 C189.0153,171.384 189.1993,171.323 189.3833,171.262 C189.7763,171.441 190.1573,171.65 190.5833,171.748 C191.2593,173.061 191.7183,173.16 192.7703,172.22 C193.5303,172.434 194.3073,172.431 195.0863,172.42 C195.3473,172.608 195.6303,172.73 195.9613,172.707 C195.9623,173.237 196.2573,173.549 196.7333,173.704 C197.1583,173.842 197.5043,173.665 197.7863,173.358 C198.1503,172.965 197.9943,172.546 197.8183,172.132 C198.8593,171.907 199.8653,171.589 200.7653,170.998 C200.9613,171.64 201.0243,172.294 200.9503,172.962" id="Fill-139" fill="#FFB45C" blush:i="0.0.2.56"/><path d="M187.7585,167.9552 C188.2495,167.4322 188.7525,166.9212 189.3405,166.5032 C190.5345,167.0722 191.7555,167.5222 193.0795,167.7402 C195.0345,168.0602 196.9545,167.9762 198.8745,167.5502 C199.4435,167.9822 199.8195,168.5542 200.0845,169.2072 C199.9155,169.2882 199.7525,169.3832 199.5775,169.4492 C197.4255,170.2682 195.2085,170.4502 192.9565,170.0242 C191.0965,169.6722 189.3115,169.0962 187.7585,167.9552" id="Fill-141" fill="#FFB45C" blush:i="0.0.2.57"/><path d="M187.7585,167.9552 C189.3115,169.0962 191.0965,169.6722 192.9565,170.0242 C195.2085,170.4502 197.4255,170.2682 199.5775,169.4492 C199.7525,169.3832 199.9155,169.2882 200.0845,169.2072 C200.4145,169.7652 200.6585,170.3552 200.7645,170.9972 C199.8645,171.5892 198.8595,171.9072 197.8185,172.1322 C197.5385,171.8602 197.1925,171.8092 196.8245,171.8302 C196.8115,171.7222 196.8075,171.6122 196.7845,171.5052 C196.6875,171.0602 196.3035,170.7242 195.8675,170.6942 C195.4225,170.6642 195.0255,170.9412 194.8525,171.3782 C194.6925,171.7852 194.8655,172.1042 195.0865,172.4192 C194.3075,172.4312 193.5295,172.4342 192.7705,172.2202 C192.9755,171.8882 193.1935,171.5622 193.3825,171.2212 C193.5225,170.9692 193.5655,170.6912 193.2595,170.5252 C192.9475,170.3562 192.6895,170.4512 192.5055,170.7612 C192.3445,171.0312 192.1735,171.2942 191.9955,171.5522 C191.9275,171.6502 191.8495,171.7962 191.7075,171.7512 C191.6005,171.7162 191.6105,171.5662 191.5915,171.4612 C191.5455,171.1822 191.5255,170.8972 191.4545,170.6252 C191.3765,170.3222 191.1715,170.1142 190.8365,170.1822 C190.5405,170.2422 190.3805,170.4502 190.4285,170.7712 C190.4775,171.0972 190.5315,171.4222 190.5835,171.7472 C190.1565,171.6502 189.7765,171.4402 189.3835,171.2622 C190.0465,170.5332 189.8975,169.6932 189.0605,169.4442 C188.5475,169.2922 188.1395,169.5422 187.7935,170.2242 L187.4895,170.2452 L186.7455,169.6722 C186.9965,169.0482 187.3755,168.5002 187.7585,167.9552" id="Fill-143" fill="#FCE579" blush:i="0.0.2.58"/><path d="M198.8747,167.5504 C196.9547,167.9754 195.0347,168.0604 193.0797,167.7394 C191.7557,167.5224 190.5347,167.0724 189.3407,166.5034 C189.4027,166.5334 189.9657,166.1404 190.0547,166.0944 C190.3137,165.9594 190.5797,165.8364 190.8507,165.7264 C191.3687,165.5174 191.8957,165.3684 192.4487,165.2894 C193.6417,165.1204 194.8727,165.2264 196.0177,165.6034 C197.0417,165.9404 198.2417,166.6594 198.8747,167.5504" id="Fill-145" fill="#FCE579" blush:i="0.0.2.59"/><path d="M188.2311,177.7999 C189.2171,178.2079 190.2011,178.6249 191.2541,178.8349 C193.5251,179.2879 195.7791,179.2639 198.0061,178.5739 C195.8771,180.1189 193.5631,180.5259 191.0641,179.6529 C189.9741,179.2719 188.9791,178.7169 188.2311,177.7999" id="Fill-147" fill="#FCE579" blush:i="0.0.2.60"/><path d="M195.8136,164.8595 C195.8046,164.9495 195.7896,165.1385 195.7656,165.3255 C195.7096,165.7495 195.4546,165.9725 195.0366,165.9845 C194.7866,165.9915 194.5316,165.9695 194.2846,165.9295 C193.2706,165.7625 193.0976,165.5075 193.2836,164.4925 C193.4176,163.7595 193.8096,163.4675 194.5486,163.5535 C194.6736,163.5675 194.7976,163.5925 194.9206,163.6185 C195.6386,163.7695 195.8426,164.0305 195.8136,164.8595" id="Fill-149" fill="#E858B5" blush:i="0.0.2.61"/><path d="M190.5836,171.7476 C190.5316,171.4216 190.4776,171.0976 190.4286,170.7716 C190.3796,170.4496 190.5406,170.2416 190.8356,170.1826 C191.1716,170.1146 191.3756,170.3226 191.4546,170.6246 C191.5246,170.8976 191.5456,171.1826 191.5916,171.4606 C191.6096,171.5666 191.6006,171.7166 191.7076,171.7506 C191.8496,171.7966 191.9276,171.6506 191.9956,171.5526 C192.1736,171.2946 192.3446,171.0306 192.5046,170.7616 C192.6896,170.4516 192.9476,170.3556 193.2596,170.5246 C193.5656,170.6906 193.5216,170.9696 193.3826,171.2206 C193.1936,171.5616 192.9756,171.8876 192.7706,172.2196 C191.7186,173.1596 191.2586,173.0606 190.5836,171.7476" id="Fill-151" fill="#E858B5" blush:i="0.0.2.62"/><path d="M187.7931,170.2242 C188.1391,169.5422 188.5471,169.2922 189.0601,169.4442 C189.8971,169.6932 190.0461,170.5332 189.3831,171.2622 C189.1991,171.3232 189.0151,171.3842 188.8311,171.4452 C188.0611,171.2512 187.8301,170.9802 187.7931,170.2242" id="Fill-153" fill="#E858B5" blush:i="0.0.2.63"/><path d="M195.0861,172.4195 C194.8661,172.1045 194.6921,171.7845 194.8531,171.3775 C195.0251,170.9415 195.4221,170.6645 195.8671,170.6945 C196.3041,170.7245 196.6871,171.0605 196.7841,171.5055 C196.8071,171.6115 196.8121,171.7225 196.8241,171.8315 C196.6881,172.2725 196.4081,172.5715 195.9611,172.7065 C195.6301,172.7295 195.3471,172.6075 195.0861,172.4195" id="Fill-155" fill="#E858B5" blush:i="0.0.2.64"/><path d="M195.9611,172.7066 C196.4081,172.5716 196.6881,172.2726 196.8241,171.8316 C197.1921,171.8096 197.5391,171.8606 197.8181,172.1316 C197.9941,172.5456 198.1501,172.9646 197.7871,173.3586 C197.5041,173.6646 197.1591,173.8426 196.7331,173.7036 C196.2571,173.5496 195.9621,173.2366 195.9611,172.7066" id="Fill-157" fill="#FB8B84" blush:i="0.0.2.65"/><path d="M187.7931,170.2242 C187.8301,170.9802 188.0611,171.2512 188.8311,171.4452 C188.7421,171.9762 188.3321,172.1032 187.8971,172.1252 C187.4531,172.1482 187.1061,171.9252 186.9461,171.4972 C186.7851,171.0682 186.8861,170.6972 187.2741,170.4232 C187.3511,170.3702 187.4181,170.3042 187.4901,170.2452 L187.7931,170.2242 Z" id="Fill-159" fill="#FB8B84" blush:i="0.0.2.66"/><path d="M131.5002,143.3927 C132.2642,143.4247 132.3992,143.3297 132.5002,142.6937 C132.6282,141.8817 132.4392,141.5277 131.7662,141.3537 C131.5002,141.2847 131.2322,141.2297 130.9482,141.2687 C130.4902,141.3327 130.2502,141.6007 130.1782,142.0347 C129.9872,143.1747 130.1452,143.3357 131.5002,143.3927" id="Fill-162" fill="#E858B5" blush:i="0.0.2.67"/><path d="M136.6857,146.9674 C136.3927,146.2024 135.9827,145.5934 135.4817,144.9564 C135.3537,144.7924 135.1537,144.6964 135.0267,144.5484 C134.1277,143.5024 132.7287,143.1034 131.3997,142.9824 C130.7167,142.9204 130.0387,142.9444 129.3547,142.9644 C128.0767,143.0024 127.1217,143.5134 126.1137,144.2484 C125.7947,144.4804 125.4967,144.7654 125.2327,145.0564 C124.7047,145.6394 124.1887,146.4064 123.9697,147.1704 C123.9697,147.1704 123.9367,147.2834 123.9247,147.2844 C123.7667,147.5364 123.6957,147.8104 123.7117,148.1124 C123.7257,148.3704 123.6027,148.6834 123.5717,148.9434 C123.5377,149.2284 123.5277,149.5084 123.5477,149.7944 C123.5837,150.3204 123.5927,150.8434 123.7457,151.3584 C123.7487,151.3714 123.7537,151.3844 123.7577,151.3974 C123.7657,151.4234 123.7667,151.4504 123.7847,151.4754 C123.8277,151.6204 123.8747,151.7634 123.9257,151.9054 C124.4157,153.2704 125.2877,154.4634 126.5097,155.2584 C126.7957,155.4454 127.0997,155.5504 127.3807,155.7454 C127.6997,155.9654 128.0507,156.1314 128.4187,156.2504 C129.1557,156.4894 129.9447,156.5494 130.7157,156.5264 C131.5857,156.5014 132.5177,156.1984 133.3067,155.8354 C134.1057,155.4674 134.8217,154.9374 135.4097,154.2834 C135.8347,153.8114 136.3717,153.2854 136.6237,152.6954 C136.8077,152.2674 136.8397,151.7944 136.9687,151.3504 C137.1057,150.8774 137.1867,150.3884 137.2077,149.8964 C137.2507,148.8954 137.0427,147.9004 136.6857,146.9674" id="Fill-164" fill="#FFD0E2" blush:i="0.0.2.68"/><path d="M132.8019,149.6519 C132.8019,150.2649 133.2999,150.7619 133.9129,150.7619 C134.5259,150.7619 135.0229,150.2649 135.0229,149.6519 C135.0229,149.0389 134.5259,148.5409 133.9129,148.5409 C133.2999,148.5409 132.8019,149.0389 132.8019,149.6519" id="Fill-166" fill="#FB8B84" blush:i="0.0.2.69"/><path d="M132.7155,147.5089 C133.0275,147.7319 133.2655,148.0269 133.5155,148.3109 C133.6895,148.5639 133.8265,148.8349 133.9185,149.1279 C133.8685,149.3549 133.8455,149.6089 133.5485,149.6519 C133.2525,149.6949 133.1085,149.4949 132.9755,149.2709 C132.8355,149.0349 132.6775,148.8079 132.5235,148.5799 C132.3595,148.3389 132.2435,148.4299 132.1865,148.6489 C132.1205,148.9009 132.0785,149.1599 132.0365,149.4169 C131.9985,149.6539 131.9035,149.8319 131.6465,149.8769 C131.3775,149.9249 131.1965,149.8229 131.1145,149.5579 C131.1595,149.1549 131.2055,148.7529 131.2505,148.3499 C131.3995,148.0459 131.5405,147.7359 131.8055,147.5069 C132.1095,147.3729 132.4125,147.3569 132.7155,147.5089" id="Fill-168" fill="#E858B5" blush:i="0.0.2.70"/><path d="M124.0397,148.0284 C124.0397,148.6414 124.5367,149.1384 125.1497,149.1384 C125.7637,149.1384 126.2607,148.6414 126.2607,148.0284 C126.2607,147.4154 125.7637,146.9184 125.1497,146.9184 C124.5367,146.9184 124.0397,147.4154 124.0397,148.0284" id="Fill-170" fill="#FB8B84" blush:i="0.0.2.71"/><path d="M127.6066,146.983 C127.7556,147.336 127.8056,147.712 127.8696,148.085 C127.8856,148.391 127.8606,148.694 127.7866,148.992 C127.6256,149.159 127.4736,149.364 127.1976,149.246 C126.9226,149.128 126.9046,148.882 126.9076,148.622 C126.9116,148.347 126.8956,148.071 126.8826,147.796 C126.8696,147.504 126.7226,147.522 126.5596,147.679 C126.3726,147.86 126.2006,148.058 126.0306,148.256 C125.8756,148.438 125.7006,148.539 125.4586,148.444 C125.2046,148.344 125.1026,148.163 125.1706,147.894 C125.4196,147.574 125.6696,147.254 125.9186,146.935 C126.2046,146.754 126.4856,146.563 126.8316,146.506 C127.1606,146.55 127.4276,146.695 127.6066,146.983" id="Fill-172" fill="#E858B5" blush:i="0.0.2.72"/><path d="M128.007491,150.117843 C128.226448,150.098508 128.419622,150.260333 128.438957,150.479291 C128.459073,150.707083 128.54368,150.930098 128.676216,151.116 L128.768,151.229 L128.866733,151.109904 C128.970324,150.975112 129.066466,150.834596 129.154436,150.689418 L129.280174,150.468286 C129.383459,150.274254 129.624482,150.200689 129.818514,150.303974 C130.012546,150.407259 130.086111,150.648282 129.982826,150.842314 C129.795927,151.193424 129.569238,151.52476 129.307287,151.829086 C129.144082,152.015982 128.999262,152.119225 128.763133,152.109138 C128.582523,152.103977 128.466386,152.03623 128.327618,151.91346 C127.939736,151.565233 127.691931,151.068965 127.646043,150.549309 C127.626708,150.330352 127.788533,150.137178 128.007491,150.117843 Z" id="Stroke-174" fill="#E858B5" fill-rule="nonzero" blush:i="0.0.2.73"/><path d="M183.3019,55.0308 C183.4439,55.3068 183.5919,55.5788 183.7239,55.8598 C183.8219,56.0668 183.7789,56.2458 183.5859,56.4268 C182.4469,57.4858 181.3879,58.6178 180.2109,59.6428 C179.8799,59.9308 179.6179,60.2828 179.2649,60.5618 C178.8489,60.8898 178.8809,61.0608 179.3229,61.3458 C179.1229,61.5538 178.8849,61.7428 178.6039,61.8008 C177.9219,61.9428 177.3049,62.2608 176.6719,62.5138 C175.3119,63.0578 174.0179,63.7298 172.7739,64.5118 C171.0359,65.6048 169.2999,66.6818 167.6609,67.9208 C166.0989,69.0998 164.7279,70.4438 163.4229,71.8388 C162.3859,72.9478 161.5049,74.1878 160.6139,75.4118 C159.8499,76.4608 159.0979,77.5138 158.3949,78.5958 C157.3779,80.1618 156.6059,81.8318 155.8329,83.5048 C155.1619,84.9548 154.6159,86.4348 154.0739,87.9248 C153.4509,89.6338 153.0219,91.3758 152.5389,93.1098 C152.4309,93.4998 152.2259,93.8878 152.2679,94.2958 C152.3389,94.9948 152.1639,95.6568 151.9029,96.3138 C151.8439,96.4638 151.7329,96.6208 151.8649,96.7808 C151.6369,96.9658 151.6129,97.2388 151.5279,97.4738 C150.9879,98.9558 149.6799,99.5818 148.2169,99.6338 C146.3599,99.6998 145.4269,98.5998 144.8409,97.1838 C144.2699,95.8068 143.9969,94.3438 143.9679,92.8428 C143.9489,91.8628 144.1169,90.8828 144.3079,89.9148 C144.7119,87.8768 145.3609,85.8958 146.1729,83.9468 C146.9829,82.0048 148.0549,80.1748 149.0019,78.2918 C150.2299,75.8468 151.9029,73.6448 153.5859,71.4578 C154.3319,70.4878 155.2499,69.6308 156.0939,68.7248 C156.5939,68.1888 157.0499,67.6008 157.6179,67.1388 C158.6369,66.3118 159.4949,65.3198 160.5959,64.5808 C160.7989,64.7188 160.8799,64.5078 160.9809,64.4278 C162.4209,63.2868 163.9659,62.2898 165.5309,61.3168 C165.8549,61.1158 166.2419,60.9638 166.4029,60.5818 C167.1769,60.0768 168.0819,59.8038 168.8489,59.2878 C169.3319,59.2438 169.6959,58.9278 170.1139,58.7398 C172.1629,57.8158 174.2659,57.0768 176.4609,56.5578 C178.0519,56.1808 179.6449,55.8048 181.2379,55.4348 C181.8759,55.2868 182.5089,55.0938 183.1639,55.0298 C183.2099,55.0308 183.2559,55.0308 183.3019,55.0308" id="Fill-176" fill="#FFC6FC" blush:i="0.0.2.74"/><path d="M151.8649,96.7803 C151.7329,96.6213 151.8439,96.4633 151.9029,96.3133 C152.1639,95.6563 152.3389,94.9953 152.2679,94.2963 C152.2259,93.8883 152.4309,93.4993 152.5389,93.1103 C153.0219,91.3753 153.4509,89.6333 154.0739,87.9243 C154.6159,86.4343 155.1619,84.9543 155.8329,83.5043 C156.6059,81.8323 157.3779,80.1613 158.3949,78.5963 C159.0979,77.5143 159.8499,76.4603 160.6139,75.4113 C161.5049,74.1873 162.3859,72.9473 163.4229,71.8393 C164.7279,70.4433 166.0989,69.1003 167.6609,67.9203 C169.2999,66.6823 171.0359,65.6053 172.7739,64.5113 C174.0179,63.7293 175.3119,63.0583 176.6719,62.5143 C177.3049,62.2603 177.9219,61.9423 178.6039,61.8013 C178.8849,61.7423 179.1229,61.5543 179.3229,61.3453 C181.0579,61.9643 182.8299,62.5003 184.4969,63.2683 C184.7609,63.3903 184.9349,63.5863 185.1439,63.7553 C185.1499,63.8043 185.1569,63.8553 185.1619,63.9053 L185.1369,63.9013 C185.1369,63.9013 185.1299,63.9243 185.1299,63.9253 C185.1369,63.9763 185.1449,64.0293 185.1529,64.0803 C185.1559,64.1143 185.1579,64.1483 185.1609,64.1813 C184.4369,64.4793 183.7039,64.7583 182.9919,65.0803 C181.3489,65.8243 179.7609,66.6623 178.2699,67.6743 C177.0649,68.4913 175.8419,69.2843 174.7019,70.1853 C174.1699,70.6063 173.6449,71.0343 173.1169,71.4603 C172.2699,72.1443 171.4489,72.8553 170.7049,73.6393 C170.2939,74.0733 169.8759,74.5023 169.4839,74.9493 C168.5229,76.0453 167.5399,77.1243 166.7859,78.3633 C166.2789,79.1953 165.6799,79.9833 165.2039,80.8283 C164.1809,82.6453 163.2589,84.5003 162.4779,86.4203 C161.5259,88.7633 160.8189,91.1573 160.1459,93.5623 C159.8339,94.6763 159.8569,95.8163 159.8859,96.9473 C159.6089,97.0933 159.6449,97.3533 159.5979,97.5823 C159.3419,98.8283 158.7669,99.8863 157.5419,100.5763 C156.3299,101.2593 155.1329,101.1513 154.0769,100.4443 C152.9069,99.6603 152.1959,98.5413 152.0999,97.1263 C152.0889,96.9543 152.0169,96.8493 151.8649,96.7803" id="Fill-178" fill="#F18CFC" blush:i="0.0.2.75"/><path d="M159.8864,96.9473 C159.8574,95.8163 159.8344,94.6763 160.1464,93.5623 C160.8194,91.1573 161.5254,88.7633 162.4774,86.4203 C163.2584,84.5003 164.1804,82.6453 165.2044,80.8283 C165.6804,79.9833 166.2784,79.1953 166.7854,78.3633 C167.5394,77.1243 168.5224,76.0453 169.4834,74.9493 C169.8764,74.5023 170.2944,74.0733 170.7054,73.6393 C171.4494,72.8553 172.2704,72.1443 173.1174,71.4603 C173.6444,71.0343 174.1704,70.6063 174.7024,70.1853 C175.8424,69.2843 177.0654,68.4913 178.2704,67.6743 C179.7604,66.6623 181.3484,65.8243 182.9924,65.0803 C183.7044,64.7583 184.4374,64.4793 185.1604,64.1813 C185.3944,65.3233 185.8114,66.4123 186.1024,67.5343 C186.1984,67.9063 186.2794,68.2873 186.4054,68.6573 C186.6384,69.3433 186.8394,69.4683 187.5784,69.3173 C187.7074,69.2913 187.8304,69.2713 187.9474,69.3373 C187.6754,69.5213 187.3464,69.5543 187.0474,69.6653 C186.9294,69.7083 186.7764,69.7303 186.7014,69.6063 C186.4844,69.2503 186.1884,69.3573 185.8804,69.5013 C184.7014,70.0493 183.5814,70.6933 182.4904,71.3893 C180.8544,72.4333 179.3804,73.6533 178.0154,74.9993 C176.9484,76.0523 175.8334,77.0603 174.9034,78.2313 C173.7754,79.6533 172.7164,81.1113 171.7524,82.6343 C170.9594,83.8883 170.3364,85.2063 169.7324,86.5313 C168.9414,88.2663 168.3894,90.0533 168.1104,91.9213 C167.8854,93.4253 167.7954,94.9373 167.5254,96.4353 C167.2444,97.9953 166.3864,99.2003 164.7754,99.8283 C163.7234,100.2383 162.7154,100.0553 161.7534,99.5903 C160.7574,99.1073 160.3034,98.2833 160.0624,97.3013 C160.0324,97.1763 159.9464,97.0653 159.8864,96.9473" id="Fill-180" fill="#C968DD" blush:i="0.0.2.76"/><path d="M180.6652,80.0523 C180.5382,80.0493 180.4292,80.0083 180.3552,79.8873 C180.5032,79.8783 180.5722,79.9813 180.6652,80.0523" id="Fill-182" fill="#DF6A52" blush:i="0.0.2.77"/><path d="M196.2438,70.2393 C194.7308,69.8803 193.2958,69.3403 191.9598,68.6123 C191.6028,68.4183 191.3538,68.4263 191.0268,68.6823 C189.5408,69.8473 187.9928,70.9293 186.3168,71.8403 C185.3238,72.3803 184.2608,72.7443 183.1468,72.8043 C182.2588,72.8533 181.5748,72.4663 181.1768,71.6643 C180.3888,70.0763 180.4308,68.3893 180.6728,66.6813 C180.8228,65.6203 181.0478,64.5633 181.2758,63.5103 C181.3588,63.1263 181.2748,62.9003 180.9158,62.7063 C179.2518,61.8113 177.7838,60.6643 176.3348,59.5113 C175.5568,58.8913 174.9428,58.0793 174.6258,57.1183 C174.3438,56.2643 174.8748,55.0063 175.6978,54.4803 C177.7918,53.1393 180.1838,52.6693 182.5628,52.2783 C183.7218,52.0873 184.2768,51.7303 184.5698,50.6193 C185.0878,48.6513 185.8518,46.7443 187.1418,45.0353 C188.4598,43.2913 190.2168,43.1153 191.7528,44.4123 C193.3748,45.7813 194.4108,47.4943 195.2398,49.3183 C195.7438,50.4263 196.3708,50.7483 197.6528,50.5893 C199.5928,50.3483 201.5548,50.3193 203.4578,50.7493 C203.7678,50.8203 204.0778,50.9063 204.3698,51.0223 C206.1158,51.7183 206.6108,52.9793 205.7668,54.6513 C204.7978,56.5723 203.3568,58.1723 201.7128,59.6263 C201.6528,59.6793 201.5778,59.7193 201.5198,59.7743 C200.2828,60.9533 200.3628,60.4113 200.9908,61.9683 C201.7818,63.9303 202.4408,65.9593 202.3758,68.1213 C202.3128,70.2273 200.7238,71.3493 198.5438,70.8973 C197.7608,70.7353 197.0098,70.4623 196.2438,70.2393" id="Fill-184" fill="#FFF9D8" blush:i="0.0.2.78"/></g></g></g></svg>