<svg width="205" height="195" viewBox="0 0 205 195" fill="none" xmlns="http://www.w3.org/2000/svg">
<ellipse cx="102.03" cy="100.693" rx="78.0301" ry="66.6928" fill="white"/>
<path fill-rule="evenodd" clip-rule="evenodd" d="M36.2496 131.95L37.1253 132.584C35.1487 134.358 32.1752 132.152 30.5081 130.085C27.8275 126.762 25.1069 123.229 24.2911 119.038C23.8269 116.653 24.0127 114.195 24.2002 111.772L24.9565 102.005C25.2916 97.6763 25.6277 93.34 26.377 89.0637C28.4048 77.4905 33.5094 66.4709 41.0258 57.4401L41.1012 57.3495C42.4286 55.7554 43.878 54.0148 43.8525 51.9482C43.7984 47.5755 46.3164 43.4895 49.6225 40.6272C52.9286 37.765 56.977 35.928 60.9633 34.1301C62.7692 33.3156 65.1273 32.5859 66.5268 33.988C69.4055 36.8718 74.2098 35.0347 78.0122 33.5701C82.6807 31.7719 87.6672 30.803 92.6693 30.7222C92.815 30.7198 92.9618 30.7177 93.1095 30.7156L93.1096 30.7156C96.1127 30.6727 99.4931 30.6245 101.325 28.2976C102.492 26.8161 104.723 26.9019 106.595 27.1259L119.473 28.6662C120.457 28.7839 121.636 29.0524 121.947 29.994C122.779 32.5177 125.713 33.5475 128.258 34.3146C137.303 37.0419 146.144 40.7447 153.823 46.2477C161.502 51.7508 167.992 59.1534 171.436 67.9506C165.836 60.2974 160.092 52.5 152.321 47.065C150.098 45.5096 147.732 44.1669 145.331 42.9013C139.665 39.9143 133.768 37.3396 127.642 35.4697C99.202 26.789 66.3043 34.8399 45.0873 55.6727C42.011 58.6934 39.1265 62.0205 37.3818 65.9632L39.6866 66.6781C36.0338 68.3108 33.3205 71.888 32.7332 75.8458C34.2034 73.328 36.2986 71.1783 38.7779 69.6441C38.0683 72.0147 36.2226 73.9194 34.4133 75.7867C32.1076 78.1663 29.8608 80.4851 30.0992 83.6296C31.194 80.7565 33.9518 78.5877 37.002 78.2012C32.164 82.9284 26.9724 88.4763 27.1265 95.2387C28.8912 91.3337 31.8879 87.9964 35.5811 85.8231L30.2642 92.9679C28.2535 95.67 26.136 98.7577 26.5957 102.094C28.3448 98.955 30.8458 96.238 33.8298 94.2354C32.3928 97.5032 30.3413 100.499 27.8143 103.021C30.2174 102.731 32.531 101.735 34.3942 100.19C33.6131 101.28 32.9093 102.511 32.883 103.852C32.8567 105.193 33.7256 106.632 35.053 106.825C35.4548 105.927 36.7151 105.547 37.5461 106.074C35.0272 108.525 35.0012 113.067 37.4919 115.546C37.7134 114.381 38.6964 113.399 39.8619 113.178C38.004 116.427 37.67 120.506 38.9747 124.013C39.3695 122.026 40.4721 120.187 42.0388 118.902C41.1355 123.616 39.1385 128.117 36.2496 131.95ZM35.1492 130.448C36.7221 130.432 37.7004 128.673 37.8644 127.108C38.0607 125.237 37.5957 123.366 37.1345 121.542L34.3983 110.72C33.8834 110.883 33.8236 111.443 33.761 112.03C33.7075 112.531 33.652 113.051 33.3094 113.36C32.6169 112.499 32.5382 111.195 33.1222 110.256C33.7118 109.309 33.3262 107.983 32.4897 107.244C31.6533 106.506 30.4893 106.255 29.3742 106.218C28.7716 106.198 28.1305 106.245 27.6374 106.592C27.1442 106.939 26.8847 107.677 27.235 108.167C28.2778 109.628 29.0623 111.273 29.5414 113.003C29.5772 113.133 29.6119 113.263 29.6467 113.395L29.6468 113.395C29.8849 114.293 30.1298 115.217 30.7869 115.857C31.2949 116.352 31.4244 117.107 31.5275 117.809L32.3634 123.495C32.5156 124.53 32.6677 125.586 32.4936 126.617C32.3195 127.649 31.762 128.672 30.8265 129.14L33.8141 130.156C34.2476 130.304 34.6914 130.453 35.1492 130.448ZM67.7148 37.2428C67.1262 37.3674 66.6325 36.8501 66.211 36.4084L66.1625 36.3577C65.7305 35.9063 64.9877 35.5125 64.5326 35.9407C59.23 40.9294 53.1957 45.1391 46.6829 48.393C45.5008 48.9836 45.3421 50.576 45.3414 51.8974C45.3411 52.3387 45.7637 52.9581 46.0391 52.6132C47.382 50.9306 49.1283 49.6243 50.8542 48.3376C55.7108 44.7168 60.6253 41.0622 66.1929 38.6749C66.8683 38.3853 67.6594 37.9757 67.7148 37.2428ZM121.011 31.6323C120.71 30.9272 119.856 30.6728 119.102 30.5309C117.05 30.1442 114.961 29.969 112.874 29.7939C110.008 29.5535 107.145 29.3135 104.387 28.5264C103.504 28.2743 102.748 29.1698 102.264 29.9506C103.717 29.7992 105.18 29.7368 106.641 29.7637C109.184 29.8105 111.714 30.1272 114.238 30.4436C115.52 30.6043 116.812 30.767 118.042 31.1649C118.185 31.2112 118.329 31.2608 118.474 31.3107C119.314 31.599 120.182 31.897 121.011 31.6323ZM93.8624 42.4717C94.4436 42.6044 94.9973 43.0387 95.0841 43.6286C95.1706 44.217 94.7687 44.7904 94.255 45.09C93.7413 45.3896 93.134 45.4735 92.5445 45.5516L90.77 45.7866C90.5921 45.8101 90.4087 45.8355 90.2543 45.927C89.8082 46.1911 89.8391 46.9068 90.2038 47.2752C90.5685 47.6436 91.1279 47.7351 91.6463 47.7341C94.0604 47.7296 96.3456 45.9924 97.083 43.6936C97.2581 43.1477 97.3508 42.5407 97.1339 42.0101C97.0239 41.7408 96.8401 41.5075 96.6358 41.3004C95.6864 40.3382 94.2718 39.9141 92.9234 40.0094C91.575 40.1046 90.2925 40.679 89.1953 41.4684C88.6693 41.8469 88.1681 42.29 87.8693 42.865C87.5706 43.4399 87.5063 44.1698 87.8408 44.7247C87.9684 44.9364 88.1652 45.1239 88.4092 45.1637C88.6531 45.2035 88.9346 45.0461 88.9649 44.8009C89.0491 44.1192 89.5467 43.5432 90.1396 43.1966C90.7327 42.85 91.4165 42.6977 92.09 42.563C92.6746 42.446 93.2811 42.3389 93.8624 42.4717ZM46.2872 76.193C46.9506 72.2695 50.1198 69.0796 53.8143 67.6015C55.8502 66.787 58.1799 66.4298 60.2274 67.2146C60.7327 67.4083 61.2217 67.6757 61.5858 68.076C61.928 68.4521 62.1431 68.9265 62.3056 69.4083C63.3458 72.4935 62.29 76.0617 60.0552 78.4295C57.8205 80.7973 54.5668 82.0397 51.3192 82.2725C50.2788 82.3471 49.1616 82.3049 48.3023 81.7136C47.443 81.1224 47.0165 79.8086 47.6782 79.0023C47.9908 79.0173 48.1594 79.2964 48.3321 79.5822C48.4176 79.7237 48.5042 79.8669 48.6097 79.9805C48.9702 80.3686 49.5668 80.3968 50.0962 80.3745C52.3989 80.2775 54.7365 79.7068 56.6108 78.3656C58.485 77.0243 59.8319 74.8335 59.7925 72.5291C59.7798 71.7865 59.6183 71.027 59.1976 70.4149C58.507 69.4104 57.2015 68.9571 55.9852 69.0373C54.7689 69.1175 53.6284 69.6569 52.5928 70.2997C51.23 71.1457 49.9705 72.2088 49.1162 73.5664C48.2619 74.924 47.8444 76.6022 48.2057 78.165C47.8863 78.741 46.9371 78.6261 46.545 78.0968C46.1529 77.5676 46.1774 76.8425 46.2872 76.193ZM67.4945 108.53C65.8097 109.614 64.4129 111.311 64.1531 113.298C63.9429 114.905 64.4815 116.505 65.0124 118.037C65.4266 119.232 65.8548 120.453 66.6438 121.441C68.069 123.227 70.4289 123.966 72.6846 124.329C73.2989 124.428 74.2308 124.15 74.0118 123.568C71.6303 123.524 69.2877 122.42 67.7378 120.612C66.1879 118.803 65.456 116.319 65.7776 113.959C65.8452 113.462 65.9583 112.968 66.1669 112.512C66.5887 111.591 67.3754 110.882 68.2268 110.332C70.0595 109.147 72.291 108.592 74.465 108.78C76.5611 108.961 78.6551 109.88 79.9346 111.55C81.2142 113.22 81.5192 115.684 80.3901 117.459C80.2066 117.748 80.0725 118.258 80.4092 118.318C82.2269 117.339 83.2358 115.179 83.134 113.117C83.0321 111.055 81.943 109.125 80.4468 107.702C79.6192 106.915 78.6392 106.25 77.5289 105.983C76.0651 105.63 74.5338 105.994 73.0776 106.377C71.1401 106.886 69.1793 107.446 67.4945 108.53ZM150.236 111.092C144.144 108.817 137.524 107.97 131.055 108.635C128.342 108.915 125.621 109.468 123.183 110.689C118.582 112.991 115.292 117.732 114.745 122.848C114.197 127.964 116.41 133.293 120.42 136.517C121.94 137.74 123.666 138.655 125.394 139.572L125.395 139.572L125.395 139.572L125.395 139.572L125.395 139.572L125.395 139.572L125.395 139.572L125.395 139.572L125.396 139.572L125.396 139.572L125.396 139.573L125.396 139.573L125.396 139.573L125.396 139.573L125.397 139.573L125.397 139.573L125.397 139.573L125.397 139.573C126.576 140.198 127.756 140.824 128.872 141.549C129.191 141.854 128.473 142.158 128.053 142.023C124.146 140.761 120.351 138.843 117.564 135.828C114.173 132.16 112.519 126.951 113.173 121.998C113.827 117.046 116.777 112.445 121.004 109.783C124.347 107.678 128.344 106.791 132.293 106.648C136.241 106.506 140.178 107.07 144.083 107.675C146.521 108.053 149.381 108.777 150.236 111.092ZM86.1327 118.726C85.8561 118.092 84.7439 117.927 84.5407 118.588C83.2482 122.793 79.1445 125.973 74.7495 126.174C73.756 126.22 72.7619 126.128 71.772 126.032C69.6402 125.826 67.4414 125.582 65.5745 124.532C62.8899 123.023 61.2745 119.923 61.2555 116.844C61.2364 113.764 62.6973 110.771 64.9154 108.634C64.6077 107.772 63.2857 108.188 62.6292 108.826C58.9912 112.363 58.367 118.466 60.9197 122.85C63.4724 127.235 68.822 129.692 73.8648 129.135C78.9075 128.578 83.4604 125.201 85.8047 120.702C86.1242 120.089 86.4094 119.359 86.1327 118.726ZM54.5541 140.022C53.7327 143.172 53.6547 146.513 54.3283 149.699C54.6304 151.127 54.6634 151.914 54.6696 152.062L54.6696 152.062C54.6703 152.078 54.6706 152.087 54.671 152.087C54.6712 152.087 54.6714 152.085 54.6716 152.08L54.6725 152.062C54.6792 151.914 54.715 151.124 55.0239 149.693C55.7128 146.502 55.5491 143.131 54.5541 140.022ZM58.9183 141.927C57.7513 144.373 57.8959 147.4 59.291 149.724C59.6043 150.246 59.8421 150.67 60.0175 150.983L60.0176 150.983C60.2535 151.404 60.3766 151.624 60.4192 151.61C60.4657 151.594 60.4162 151.298 60.3127 150.681C60.2711 150.433 60.2209 150.134 60.1647 149.78L58.9183 141.927ZM62.2044 145.051C61.7091 146.613 62.0735 148.418 63.1357 149.666C64.2203 150.94 64.5746 151.348 64.2442 149.708C63.9069 148.034 63.2062 146.434 62.2044 145.051ZM157.298 127.285C155.808 133.267 151.048 137.799 146.433 141.886C146.644 142.341 147.326 142.178 147.763 141.932C152.437 139.301 156.219 135.014 157.945 129.935C159.671 124.856 159.242 119.022 156.518 114.401C156.289 114.013 155.997 113.6 155.556 113.514C155.114 113.427 154.605 113.94 154.864 114.307C157.483 118.016 158.395 122.88 157.298 127.285ZM90.0942 73.276C90.0831 72.3297 90.0963 71.3056 90.6677 70.5512C91.4544 69.5126 92.9472 69.4035 94.2499 69.3853C94.8314 69.3772 95.4199 69.3698 95.9857 69.5044C97.1903 69.7909 98.1498 70.6799 99.0048 71.5755C99.1942 71.7739 99.3957 72.0182 99.3489 72.2884C99.2908 72.6236 98.871 72.7776 98.5378 72.7091C98.3163 72.6636 98.1176 72.5534 97.9184 72.443C97.818 72.3874 97.7176 72.3317 97.614 72.2841C96.4161 71.7344 95.0082 72.3371 93.9322 73.0983C93.7632 73.2179 93.5807 73.3715 93.5765 73.5786C93.5724 73.7867 93.7507 73.948 93.9186 74.071C95.3725 75.136 97.234 75.6291 99.0245 75.4237C99.4527 75.3745 99.9557 75.2176 100.067 74.8012C100.11 74.6385 100.093 74.447 100.077 74.262C100.05 73.9528 100.024 73.6618 100.284 73.5543C100.419 73.4984 100.573 73.5388 100.714 73.5797C101.683 73.8615 102.816 74.3146 103.004 75.3063C103.058 75.5928 103.019 75.8915 102.928 76.1685C102.661 76.9791 101.917 77.6124 101.075 77.7463C100.7 77.8058 100.318 77.7735 99.9406 77.7411C98.9544 77.6564 97.967 77.5716 96.9897 77.4142C95.1951 77.1251 93.4402 76.5904 91.7893 75.8296C91.2164 75.5656 90.6211 75.241 90.3308 74.6809C90.1102 74.2552 90.0998 73.7555 90.0942 73.276ZM126.953 49.9418C126.376 48.3827 124.983 47.1525 123.364 46.7736C122.863 46.6564 122.298 46.6276 121.873 46.9177C121.449 47.2079 121.302 47.9152 121.707 48.2324C122.1 48.5399 121.863 49.2634 121.383 49.4002C120.903 49.5369 120.387 49.2113 120.148 48.7738C119.908 48.3363 119.883 47.8166 119.88 47.3178C119.876 46.6522 119.937 45.9096 120.428 45.461C120.616 45.2901 120.849 45.1798 121.081 45.0763C122.039 44.6479 123.098 44.2851 124.122 44.515C125.097 44.734 125.875 45.4543 126.555 46.187C127.113 46.7878 127.64 47.4166 128.135 48.0704C128.571 48.6465 128.99 49.261 129.154 49.9647C129.317 50.6683 129.176 51.4848 128.633 51.9606C128.101 52.4263 127.282 52.466 126.636 52.1784C126.066 51.9243 125.578 51.365 125.621 50.7418C125.663 50.1185 126.429 49.6018 126.953 49.9418ZM132.101 93.7715C133.531 93.7305 134.864 92.6287 135.173 91.2313C135.361 90.3816 135.129 89.3708 134.389 88.9137C133.848 88.5798 133.167 88.6042 132.533 88.6448C131.654 88.7012 130.743 88.778 129.979 89.2166C129.216 89.6552 128.649 90.564 128.888 91.4113C129.276 92.7887 130.67 93.8125 132.101 93.7715ZM132.284 91.7073C132.008 91.7817 131.613 91.7105 131.588 91.4252C131.578 91.3066 131.642 91.1945 131.715 91.1002C132.121 90.5738 132.896 90.3694 133.509 90.6263C133.296 91.1488 132.829 91.5607 132.284 91.7073ZM133.023 70.5377C132.79 70 133.242 69.3734 133.79 69.1673C134.23 69.0023 134.707 69.0195 135.18 69.0366L135.181 69.0366C135.298 69.0409 135.416 69.0451 135.532 69.0465C136.118 69.0537 136.766 68.9561 137.146 68.5101C137.28 68.3528 137.371 68.1216 137.269 67.942C137.162 67.7543 136.91 67.7218 136.694 67.7106C135.2 67.6332 133.437 67.679 132.576 68.902C132.391 69.1649 131.938 69.076 131.765 68.805C131.592 68.534 131.631 68.1787 131.73 67.8726C132.082 66.7768 133.095 65.9796 134.201 65.6601C135.307 65.3405 136.494 65.4413 137.617 65.6955C137.996 65.7812 138.389 65.894 138.665 66.1665C138.884 66.3827 139.007 66.6785 139.087 66.9759C139.47 68.3977 138.905 70.0261 137.724 70.906C136.544 71.7859 134.822 71.8617 133.569 71.089C133.345 70.9512 133.128 70.7787 133.023 70.5377ZM127.904 95.6606C128.597 96.4917 129.419 97.2474 130.415 97.6704C132.43 98.5256 135.004 97.7357 136.192 95.8981C136.625 95.229 136.819 94.208 136.179 93.7332C135.154 95.8871 132.181 96.8382 130.097 95.6794C129.697 95.4574 129.334 95.1735 129.004 94.8575C127.505 93.4221 126.723 91.0776 127.602 89.1973C127.889 88.5844 128.329 88.0551 128.811 87.5798C129.861 86.5429 131.364 85.6941 132.766 86.1552C132.824 86.1743 132.882 86.1957 132.94 86.2171C133.137 86.2893 133.334 86.3619 133.54 86.3499C133.808 86.3343 134.087 86.0949 134.018 85.8358C133.998 85.7591 133.951 85.6928 133.902 85.6303C133.035 84.5264 131.334 84.1855 130.109 84.87C128.651 85.6847 127.169 86.6439 126.393 88.1234C125.131 90.5315 126.162 93.5732 127.904 95.6606ZM151.13 58.5179C151.066 58.6098 151.082 58.7378 151.097 58.8602C151.115 59.0056 151.132 59.143 151.013 59.2019C150.577 59.4172 150.054 59.3951 149.589 59.2523C148.319 58.8626 147.468 57.697 146.749 56.5797C146.329 55.9261 145.91 55.2322 145.843 54.4582C145.775 53.6842 146.17 52.8129 146.916 52.5941C147.747 52.3502 148.562 52.9682 149.209 53.5441C149.939 54.1938 150.685 54.8637 151.136 55.7302C151.588 56.5967 151.688 57.7161 151.13 58.5179ZM148.368 55.6183C148.547 55.7924 148.645 56.0263 148.744 56.2602C148.84 56.4908 148.937 56.7214 149.111 56.8952C149.332 57.1152 149.667 57.2137 149.972 57.1483C149.401 56.2645 148.739 55.4394 148.001 54.6903C147.803 54.7496 147.787 55.0425 147.905 55.211C147.978 55.3134 148.078 55.3886 148.179 55.4641C148.245 55.5129 148.31 55.5618 148.368 55.6183ZM39.6489 135.462C39.5784 136.622 39.6673 137.966 40.5955 138.665C40.905 138.492 40.8839 138.05 40.8449 137.698C40.6053 135.53 41.2779 133.44 41.9549 131.337C42.4396 129.832 42.9265 128.319 43.0827 126.765C43.128 126.315 43.0078 125.698 42.5549 125.68C42.216 125.667 41.9971 126.025 41.8604 126.336C40.5925 129.216 39.8399 132.321 39.6489 135.462ZM129.688 93.6342C130.735 94.0976 131.897 94.57 132.992 94.2373C133.428 94.105 133.816 93.8531 134.198 93.6043C134.196 94.2449 133.646 94.7829 133.032 94.966C132.418 95.1491 131.757 95.0511 131.131 94.9155C130.436 94.765 129.586 94.3383 129.688 93.6342ZM46.845 147.096C47.1122 146.62 47.1577 146.055 47.1974 145.511L47.5135 141.175C47.6687 139.047 47.8239 136.911 47.6848 134.782C47.6673 134.513 47.6399 134.23 47.4834 134.011C47.3269 133.793 46.9956 133.676 46.7811 133.838C46.6234 133.958 46.5834 134.174 46.5561 134.37C46.2129 136.832 46.0295 139.316 46.0074 141.802C45.9914 143.604 46.0737 145.467 46.845 147.096ZM42.1058 143.369C41.828 143.604 41.3655 143.397 41.2125 143.068C41.0595 142.738 41.1212 142.353 41.1868 141.995C41.873 138.253 42.6515 134.528 43.5211 130.824C43.5429 130.731 43.5663 130.635 43.6263 130.561C43.8554 130.278 44.318 130.562 44.4806 130.888C44.8793 131.687 44.6883 132.641 44.4887 133.511L42.3454 142.859C42.3026 143.046 42.2519 143.246 42.1058 143.369ZM49.5294 143.535C49.4098 144.939 49.6203 146.347 49.8301 147.74C49.9049 148.236 50.2621 148.895 50.7101 148.67L51.5834 139.331C51.6189 138.951 51.643 138.53 51.4074 138.23C51.1717 137.93 50.5753 137.942 50.5001 138.316L49.8562 141.518C49.7218 142.186 49.5872 142.856 49.5294 143.535ZM139.709 114.914C137.223 113.633 134.197 113.129 131.614 114.201C129.685 115.002 124.233 118.462 123.508 122.897C123.022 125.865 123.027 128.899 124.066 131.765L124.233 132.215C124.542 133.026 125.528 133.959 126.079 133.288C124.47 130.378 124.169 126.776 125.274 123.64C126.379 120.504 128.871 117.885 131.949 116.627C132.596 116.362 133.273 116.154 133.969 116.088C135.378 115.954 136.784 116.411 138.043 117.056C140.754 118.445 144.113 120.755 145.403 123.515C146.648 126.175 147.564 129.348 146.438 132.06C145.312 134.772 137.916 136.735 137.916 136.735L138.735 138.229C138.735 138.229 142.875 137.412 145.403 135.57C156.018 127.839 142.088 116.138 139.709 114.914Z" fill="black"/>
</svg>
